<svg xmlns="http://www.w3.org/2000/svg" xmlns:xlink="http://www.w3.org/1999/xlink" width="161" height="161" viewBox="0 0 161 161"><defs><filter id="a" x="0" y="0" width="161" height="161" filterUnits="userSpaceOnUse"><feOffset dy="3" input="SourceAlpha"/><feGaussianBlur stdDeviation="3" result="b"/><feFlood flood-opacity="0.161"/><feComposite operator="in" in2="b"/><feComposite in="SourceGraphic"/></filter></defs><g transform="translate(-457 -3138)"><g transform="matrix(1, 0, 0, 1, 457, 3138)" filter="url(#a)"><circle cx="71.5" cy="71.5" r="71.5" transform="translate(9 6)" fill="#eb6f2d"/></g><g transform="translate(505.618 3184)"><path d="M62,24l-3.55,7.11a1.626,1.626,0,0,1-2.9,0L52,24h3V8h4V24Z" fill="#ccd1d9"/><path d="M12,24,8.45,31.11a1.626,1.626,0,0,1-2.9,0L2,24H5V8H9V24Z" fill="#ccd1d9"/><path d="M50,53.56V56H44V39.58a19.656,19.656,0,0,1,2.11,2.36A19.271,19.271,0,0,1,50,53.56Z" fill="#ff826e"/><path d="M32,40l4-5c.69.2,1.35.43,2,.69V40a2.006,2.006,0,0,1-2,2H28a2.006,2.006,0,0,1-2-2V35.69c.65-.26,1.31-.49,2-.69Z" fill="#ff826e"/><path d="M20,39.58V56H14V53.56A19.261,19.261,0,0,1,20,39.58Z" fill="#ff826e"/><path d="M20,56V39.57a19.184,19.184,0,0,1,6-3.88V40a2.006,2.006,0,0,0,2,2h4a10,10,0,0,0,0,20H20Z" fill="#b4dd7f"/><path d="M44,56v6H32a10,10,0,0,0,0-20h4a2.006,2.006,0,0,0,2-2V35.69a19.184,19.184,0,0,1,6,3.88V56Z" fill="#b4dd7f"/><path d="M14,56h6v6H14Z" fill="#f0d0b4"/><path d="M44,56h6v6H44Z" fill="#f0d0b4"/><path d="M41,20a3,3,0,0,1,0,6H40V20Z" fill="#f0d0b4"/><path d="M35.37,31.84,36,35l-4,5-4-5,.63-3.16A5.646,5.646,0,0,0,30,32h4A5.646,5.646,0,0,0,35.37,31.84Z" fill="#f0d0b4"/><path d="M40,20v6a6.005,6.005,0,0,1-4.63,5.84A5.646,5.646,0,0,1,34,32H30a5.646,5.646,0,0,1-1.37-.16A6.005,6.005,0,0,1,24,26V16H40Z" fill="#f0d0b4"/><path d="M24,20v6H23a3,3,0,0,1,0-6Z" fill="#f0d0b4"/><path d="M44,16v7a3,3,0,0,0-3-3H40V16Z" fill="#656d78"/><path d="M23,20a3,3,0,0,0-3,3V16h4v4Z" fill="#656d78"/><path d="M44,12H32.56a1.992,1.992,0,0,0-1.94,1.51L30,16H20V12A10,10,0,0,1,30,2h4A10,10,0,0,1,44,12Z" fill="#ffeaa7"/><circle cx="10" cy="10" r="10" transform="translate(22 42)" fill="#fcd770"/><path d="M47,12a2.006,2.006,0,0,1,2,2,2.015,2.015,0,0,1-2,2H30l.62-2.49A1.992,1.992,0,0,1,32.56,12H47Z" fill="#fcd770"/><path d="M33,55H31a1,1,0,0,1-1-1H28a3,3,0,0,0,3,3v2h2V57a3,3,0,0,0,0-6H31a1,1,0,0,1,0-2h2a1,1,0,0,1,1,1h2a3,3,0,0,0-3-3V45H31v2a3,3,0,0,0,0,6h2a1,1,0,0,1,0,2Z"/><path d="M57,33a2.606,2.606,0,0,0,2.342-1.447L63.618,23H60V10H58V25h2.382l-2.829,5.658a.64.64,0,0,1-1.1,0L53.618,25H56V8H54V23H50.382l4.276,8.553A2.606,2.606,0,0,0,57,33Z"/><path d="M7,33a2.606,2.606,0,0,0,2.342-1.447L13.618,23H10V10H8V25h2.382L7.553,30.658a.64.64,0,0,1-1.105,0L3.618,25H6V8H4V23H.382l4.276,8.553A2.606,2.606,0,0,0,7,33Z"/><circle cx="1" cy="1" r="1" transform="translate(27 19)"/><circle cx="1" cy="1" r="1" transform="translate(35 19)"/><path d="M51,53.561A20.393,20.393,0,0,0,36.863,34.216l-.339-1.694A7.008,7.008,0,0,0,40.92,27H41a4,4,0,0,0,4-4V17h2a3,3,0,0,0,0-6H44.955A11.015,11.015,0,0,0,34,1H30A11.013,11.013,0,0,0,19,12V23a4,4,0,0,0,4,4h.08a7.011,7.011,0,0,0,4.4,5.522l-.339,1.694A20.393,20.393,0,0,0,13,53.561V61H1v2H63V61H51Zm-2,0V55H45V42.191A18.283,18.283,0,0,1,49,53.561ZM37,36.384V40a1,1,0,0,1-1,1H32.481l3.866-4.832C36.565,36.239,36.786,36.305,37,36.384ZM32,43a9,9,0,1,1-9,9A9.01,9.01,0,0,1,32,43Zm9-18V21a2,2,0,0,1,0,4Zm2-5.444A3.959,3.959,0,0,0,41,19V17h2ZM47,13a1,1,0,0,1,0,2H31.28l.311-1.242A1,1,0,0,1,32.562,13ZM21,12a9.01,9.01,0,0,1,9-9h4a9.012,9.012,0,0,1,8.944,8H32.562a3,3,0,0,0-2.91,2.272L29.219,15H21Zm2,5v2a3.959,3.959,0,0,0-2,.556V17Zm-2,6a2,2,0,0,1,2-2v4A2,2,0,0,1,21,23Zm4,3V17H39v9a5.006,5.006,0,0,1-5,5H30A5.006,5.006,0,0,1,25,26Zm5,7h4c.194,0,.384-.014.574-.029l.353,1.768L32,38.4l-2.928-3.661.353-1.768c.191.016.381.03.575.03Zm-2.347,3.168L31.519,41H28a1,1,0,0,1-1-1V36.384C27.214,36.305,27.435,36.239,27.653,36.168ZM19,42.191V55H15V53.561A18.283,18.283,0,0,1,19,42.191ZM15,61V57h4v4Zm6,0V40.047a18.263,18.263,0,0,1,4-2.779V40a2.992,2.992,0,0,0,1.418,2.538A10.972,10.972,0,0,0,25.695,61Zm17.305,0a10.972,10.972,0,0,0-.723-18.462A2.992,2.992,0,0,0,39,40V37.268a18.263,18.263,0,0,1,4,2.779V61ZM45,57h4v4H45Z"/><path d="M37,25H35a2,2,0,0,1-2,2H29v2h4A4,4,0,0,0,37,25Z"/></g></g></svg>