<svg xmlns="http://www.w3.org/2000/svg" width="161" height="158" viewBox="0 0 161 158"><g transform="translate(-877 -10172)"><ellipse cx="80.5" cy="79" rx="80.5" ry="79" transform="translate(877 10172)" fill="#4d793f"/><g transform="translate(915 10209)"><path d="M54.832,3.833A2.842,2.842,0,0,0,52,1H12.092a2.842,2.842,0,0,0-2.012.836L1.836,10.081A2.842,2.842,0,0,0,1,12.092v59.74a2.842,2.842,0,0,0,2.833,2.833h51Z" transform="translate(0.417 0.417)" fill="#d9dde3"/><path d="M10.841,1.18V8.008a2.842,2.842,0,0,1-2.833,2.833H1.18a2.857,2.857,0,0,1,.581-.836l8.245-8.245a2.857,2.857,0,0,1,.836-.581Z" transform="translate(0.492 0.492)" fill="#f1f3f5"/><path d="M39.416,26.416H21V8A18.416,18.416,0,0,1,39.416,26.416Z" transform="translate(8.749 3.333)" fill="#fccd3a"/><path d="M43.245,21a18.326,18.326,0,0,1-3.5,10.781l-4.137,4.137a18.381,18.381,0,0,1-23.8-1.9L24.829,21Z" transform="translate(4.92 8.749)" fill="#4cb799"/><path d="M26.416,23.425,13.4,36.444A18.43,18.43,0,0,1,9.941,15.18Z" transform="translate(3.333 6.325)" fill="#4e98ec"/><path d="M25.845,8V26.416L9.37,18.171A18.416,18.416,0,0,1,25.845,8Z" transform="translate(3.904 3.333)" fill="#ae97ec"/><circle cx="24.5" cy="24.5" r="24.5" transform="translate(35 35)" fill="#f5ba32"/><circle cx="18.5" cy="18.5" r="18.5" transform="translate(41 41)" fill="#fccd3a"/><path d="M11.814,30.19,11.8,30.2" transform="translate(4.916 12.578)" fill="#4cb799"/><g transform="translate(0 0)"><path d="M59.5,34A25.3,25.3,0,0,0,48.344,36.6,19.885,19.885,0,1,0,36.6,48.344a25.32,25.32,0,0,0,1.707,25.321H4.25a1.417,1.417,0,0,1-1.417-1.417V12.75H8.5A4.25,4.25,0,0,0,12.75,8.5V2.833H52.416A1.417,1.417,0,0,1,53.832,4.25v25.5a1.417,1.417,0,1,0,2.833,0V4.25A4.25,4.25,0,0,0,52.416,0H12.509A4.229,4.229,0,0,0,9.491,1.251L1.251,9.491A4.229,4.229,0,0,0,0,12.509v59.74A4.25,4.25,0,0,0,4.25,76.5h36.3A25.482,25.482,0,1,0,59.5,34ZM9.916,4.836V8.5A1.417,1.417,0,0,1,8.5,9.916H4.836Zm36.76,23.5H31.166V12.822A17.008,17.008,0,0,1,46.677,28.333ZM28.333,12.822V27.457L15.252,20.917a17,17,0,0,1,13.081-8.095ZM13.975,23.447l13.383,6.691L16.78,40.716a16.9,16.9,0,0,1-2.8-17.269Zm15.774,23.3a16.92,16.92,0,0,1-10.966-4.03L30.336,31.166H46.688a16.858,16.858,0,0,1-3.117,8.447A25.7,25.7,0,0,0,39.6,43.58a16.858,16.858,0,0,1-9.856,3.169ZM59.5,82.165A22.666,22.666,0,1,1,82.165,59.5,22.666,22.666,0,0,1,59.5,82.165Z" transform="translate(0 0)" fill="#373737"/><path d="M47.833,28A19.833,19.833,0,1,0,67.666,47.833,19.833,19.833,0,0,0,47.833,28Zm0,36.833a17,17,0,1,1,17-17A17,17,0,0,1,47.833,64.833Z" transform="translate(11.666 11.666)" fill="#373737"/><path d="M48.335,40.5a1.417,1.417,0,0,0,2.833,0A7.1,7.1,0,0,0,45.5,33.558v-.142a1.417,1.417,0,1,0-2.833,0v.142a7.083,7.083,0,0,0,0,13.883v8.382a4.25,4.25,0,0,1-2.833-3.991,1.417,1.417,0,1,0-2.833,0,7.1,7.1,0,0,0,5.667,6.942v.142a1.417,1.417,0,1,0,2.833,0v-.142a7.083,7.083,0,0,0,0-13.883V36.511A4.25,4.25,0,0,1,48.335,40.5Zm-8.5,0a4.25,4.25,0,0,1,2.833-3.989v7.978A4.25,4.25,0,0,1,39.835,40.5Zm8.5,11.333A4.25,4.25,0,0,1,45.5,55.822V47.844A4.25,4.25,0,0,1,48.335,51.833Z" transform="translate(15.413 13.332)" fill="#373737"/><path d="M8.417,36A1.417,1.417,0,0,0,7,37.417V51.583A1.417,1.417,0,0,0,8.417,53H26.833a1.417,1.417,0,0,0,0-2.833H21.166V40.25a1.417,1.417,0,0,0-2.833,0v9.916H15.5v-4.25a1.417,1.417,0,1,0-2.833,0v4.25H9.833V37.417A1.417,1.417,0,0,0,8.417,36Z" transform="translate(2.916 14.999)" fill="#373737"/><path d="M47.667,28.666a1.417,1.417,0,0,0,1.417-1.417V10.836l1.832,1.832a1.417,1.417,0,1,0,2-2l-4.25-4.25a1.417,1.417,0,0,0-2,0l-4.25,4.25a1.417,1.417,0,1,0,2,2l1.832-1.832V27.249A1.417,1.417,0,0,0,47.667,28.666Z" transform="translate(17.499 2.5)" fill="#373737"/><path d="M50.878,29.116a1.4,1.4,0,0,0,.671.17,1.417,1.417,0,0,0,1.248-.744l7.791-14.45.742,2.483a1.417,1.417,0,0,0,1.357,1.01,1.39,1.39,0,0,0,.405-.059,1.417,1.417,0,0,0,.952-1.762l-1.718-5.753a1.417,1.417,0,0,0-1.761-.952l-5.759,1.721a1.416,1.416,0,1,0,.81,2.715l2.482-.743L50.309,27.2a1.417,1.417,0,0,0,.569,1.914Z" transform="translate(20.89 3.75)" fill="#373737"/></g></g></g></svg>