<svg xmlns="http://www.w3.org/2000/svg" width="161" height="158" viewBox="0 0 161 158"><g transform="translate(-1192 -10172)"><ellipse cx="80.5" cy="79" rx="80.5" ry="79" transform="translate(1192 10172)" fill="#4d793f"/><g transform="translate(1229.618 10208)"><g transform="translate(2.578 2.357)"><g transform="translate(0 31.221)"><path d="M80.731,25H4.715A2.723,2.723,0,0,0,2,27.715V54.864a2.723,2.723,0,0,0,2.715,2.715H80.731a2.723,2.723,0,0,0,2.715-2.715V27.715A2.723,2.723,0,0,0,80.731,25Z" transform="translate(-2 -25)" fill="#dfb28b"/></g><g transform="translate(46.153 36.651)"><path d="M36,29H65.864v5.43H36Z" transform="translate(-36 -29)" fill="#aab2bd"/></g><g transform="translate(46.153 47.51)"><path d="M36,37H65.864v5.43H36Z" transform="translate(-36 -37)" fill="#aab2bd"/></g><g transform="translate(5.43 36.651)"><path d="M37.221,29V50.719h-5.43V48a5.422,5.422,0,0,0-5.43-5.43,2.723,2.723,0,0,0-2.715,2.715v5.43H6V29Z" transform="translate(-6 -29)" fill="#69d6f4"/></g><g transform="translate(60.284 25.153)"><path d="M63.161,26.6H47.129a11.215,11.215,0,0,0,.081-1.357,10.815,10.815,0,0,0-.8-4.1c.3.027.611.027.923.027a21.662,21.662,0,0,0,5.213-.638Z" transform="translate(-46.41 -20.53)" fill="#b4dd7f"/></g><g transform="translate(18.923 6.76)"><path d="M36.641,10.061,45.6,15.179c-.176-.014-.367-.027-.543-.027a4.606,4.606,0,0,0-4.6,4.6v.828l.923.367a10.827,10.827,0,0,0-5,9.136,11.215,11.215,0,0,0,.081,1.357H23.827l-4.805-2.756A8.135,8.135,0,0,0,15.94,17.554l4.235-7.52a8.1,8.1,0,0,0,3.991,1.045,8.181,8.181,0,0,0,7.072-4.1Z" transform="translate(-15.94 -6.98)" fill="#b4dd7f"/></g><g transform="translate(23.158 2.715)"><path d="M30.123,8.032v.014a8.181,8.181,0,0,1-7.072,4.1A8.1,8.1,0,0,1,19.06,11.1L23.051,4Z" transform="translate(-19.06 -4)" fill="#a0d468"/></g><g transform="translate(14.932 17.334)"><path d="M21.145,21.869A8.09,8.09,0,0,1,20.072,25.9L13,21.869l3.991-7.1a8.14,8.14,0,0,1,4.154,7.1Z" transform="translate(-13 -14.77)" fill="#a0d468"/></g><g transform="translate(39.366 20.728)"><path d="M32.357,27.763H31.081A11.215,11.215,0,0,1,31,26.406a10.827,10.827,0,0,1,5-9.136l8.755,3.5a21.718,21.718,0,0,0,7.167,1.534,10.815,10.815,0,0,1,.8,4.1,11.215,11.215,0,0,1-.081,1.357Z" transform="translate(-31 -17.27)" fill="#fcd770"/></g><g transform="translate(66.514 58.37)"><path d="M61.859,50.43l2.715,5.43H60.5V68.076h-5.43V55.859H51l2.715-5.43,2.1-4.222a2.207,2.207,0,0,1,3.937,0Z" transform="translate(-51 -45)" fill="#ffeaa7"/></g><g transform="translate(0 0)"><path d="M12.859,7.43l2.715,5.43H11.5V29.149H6.072V12.859H2L4.715,7.43l2.1-4.222a2.207,2.207,0,0,1,3.937,0Z" transform="translate(-2 -2)" fill="#ffeaa7"/></g><g transform="translate(76.016 8.145)"><path d="M63.43,8V24.289H58V8Z" transform="translate(-58 -8)" fill="#ff826e"/></g><g transform="translate(25.791 76.016)"><path d="M45.434,60.715V63.43H21V60.715A2.723,2.723,0,0,1,23.715,58h19A2.723,2.723,0,0,1,45.434,60.715Z" transform="translate(-21 -58)" fill="#ff826e"/></g><g transform="translate(39.624 6.787)"><path d="M51.85,25.977a21.718,21.718,0,0,1-7.167-1.534l-8.755-3.5L35,20.574v-.828a4.606,4.606,0,0,1,4.6-4.6c.176,0,.367.014.543.027L31.19,10.054l.1-.081A13.565,13.565,0,0,1,39.769,7h16.52a16.257,16.257,0,0,1,8.375,2.321l2.918,1.751V21.932L60.416,24.62a20.973,20.973,0,0,1-2.43.747A21.662,21.662,0,0,1,52.773,26c-.312,0-.624,0-.923-.027Z" transform="translate(-31.19 -7)" fill="#f0d0b4"/></g><g transform="translate(23.076 50.225)"><path d="M29.7,52.574H48.864v2.579a8.112,8.112,0,0,1-1.778,5.077l-3.652,4.561h-19L20.778,60.23A8.112,8.112,0,0,1,19,55.153V41.715A2.723,2.723,0,0,1,21.715,39a5.422,5.422,0,0,1,5.43,5.43v5.43l1.683,1.683A7.774,7.774,0,0,1,29.7,52.574Z" transform="translate(-19 -39)" fill="#f0d0b4"/></g></g><g transform="translate(0.382 1)"><path d="M5.293,29.506H8.008V11.859H4.775L8.615,4.18a.87.87,0,0,1,1.5,0l3.84,7.68H10.723V29.506h2.715V14.574h4.911l-5.8-11.612a3.555,3.555,0,0,0-6.358,0l-5.8,11.61H5.293Z" transform="translate(-0.382 -1)"/><path d="M85.161,27.565v-19H77.016v1.675l-.862-.517A17.649,17.649,0,0,0,67.075,7.2H50.557A15.022,15.022,0,0,0,41.886,10L28.993,2.632,15.446,26.717l8.61,4.921H5.072A4.077,4.077,0,0,0,1,35.71V62.859a4.077,4.077,0,0,0,4.072,4.072h19v1.216a9.545,9.545,0,0,0,2.081,5.936l2.435,3.043a4.071,4.071,0,0,0-1.8,3.379v1.357H1v2.715H85.161V81.863h-5.43v-9.5h4.911L81.887,66.85a4.076,4.076,0,0,0,3.274-3.991V35.71a4.077,4.077,0,0,0-4.072-4.072H79.752l-7.619-4.353,4.884-1.833v2.114Zm-5.43-16.289h2.715V24.851H79.731ZM30.019,6.346l4.568,2.61a6.658,6.658,0,0,1-7.15,1.98Zm-8.3,14.75a6.66,6.66,0,0,1,2,7.224L19.134,25.7Zm4.4,8.594a9.439,9.439,0,0,0-3.039-11l3.007-5.344a9.428,9.428,0,0,0,10.9-3.014l10.33,5.9A5.936,5.936,0,0,0,44.438,21.3v1.252a12.155,12.155,0,0,0-4.072,9.084H29.527Zm35.547-.857a9.489,9.489,0,0,1,.419,2.8h-19a9.458,9.458,0,0,1,3.823-7.6l8.067,3.228a23.006,23.006,0,0,0,6.695,1.565ZM77.016,42.5H49.868V39.782H77.016Zm5.43,2.715v8.145H79.731v-5.43H47.153v5.43H44.438V45.212Zm-5.43,8.145H49.868V50.642H77.016ZM5.072,64.216a1.358,1.358,0,0,1-1.357-1.357V35.71a1.358,1.358,0,0,1,1.357-1.357H41.723V64.216H36.8c-.182-.217-.371-.429-.573-.631L34.936,62.3v-.8h5.43V37.067H6.43V61.5H24.076v2.715Zm19-9.5v4.072H9.145v-19H37.651v19H34.936V57.429a6.8,6.8,0,0,0-6.787-6.787A4.077,4.077,0,0,0,24.076,54.714Zm2.715,13.433V54.714a1.358,1.358,0,0,1,1.357-1.357,4.077,4.077,0,0,1,4.072,4.072v5.992L34.3,65.5a6.745,6.745,0,0,1,1.989,4.8V71h2.715v-.7a9.473,9.473,0,0,0-.624-3.373H53.94v1.216a6.806,6.806,0,0,1-1.488,4.239l-3.237,4.047h-17.7l-3.237-4.047A6.809,6.809,0,0,1,26.791,68.147Zm44.8,13.716H53.94V80.505a4.071,4.071,0,0,0-1.8-3.379l2.435-3.043a9.548,9.548,0,0,0,2.081-5.936V66.931H69.39l-2.715,5.43h4.911ZM29.506,80.505a1.358,1.358,0,0,1,1.357-1.357h19a1.358,1.358,0,0,1,1.357,1.357v1.357H29.506Zm47.51-10.859V81.863H74.3V69.646H71.068l3.84-7.679a.868.868,0,0,1,1.5,0l3.842,7.68Zm4.072-5.43h-.517l-1.733-3.467a3.555,3.555,0,0,0-6.358,0l-1.732,3.466H44.438V56.072H82.446v6.787A1.358,1.358,0,0,1,81.089,64.216ZM82.446,35.71V42.5H79.731v-5.43H47.153V42.5H44.438V34.353H81.089A1.358,1.358,0,0,1,82.446,35.71ZM64.8,31.638a12.2,12.2,0,0,0-.324-2.756,23.109,23.109,0,0,0,4.068-.523l5.738,3.278Zm5.936-6.73a20.508,20.508,0,0,1-14.757-.16l-8.825-3.531a3.239,3.239,0,0,1,4.375-2.947l10.53,3.947,4.528-1.509-.859-2.574-3.616,1.205-9.63-3.611a5.893,5.893,0,0,0-1.076-.288l-6.871-3.927a12.262,12.262,0,0,1,6.023-1.595H67.075a14.94,14.94,0,0,1,7.683,2.127L77.016,13.4v9.15Z" transform="translate(-0.161 -0.417)"/></g></g></g></svg>