<svg xmlns="http://www.w3.org/2000/svg" width="161" height="158" viewBox="0 0 161 158"><g transform="translate(-562 -10172)"><ellipse cx="80.5" cy="79" rx="80.5" ry="79" transform="translate(562 10172)" fill="#4d793f"/><g transform="translate(581.333 10179.402)"><path d="M84.009,42.29a54.2,54.2,0,0,0-17.224,2.8,14.645,14.645,0,0,1-.522,13.823L54.48,79.318a1.208,1.208,0,0,1-2.092,0l-10.1-17.5A54.4,54.4,0,1,0,84.009,42.29Z" transform="translate(-22.442 -23.279)" fill="#eaf6ff"/><g transform="translate(84.508 38.485)"><circle cx="5.602" cy="5.602" r="5.602" fill="#af66da"/></g><g transform="translate(84.508 38.485)"><path d="M354.645,128.517a5.6,5.6,0,0,1,3.219-5.07,5.6,5.6,0,1,0,0,10.14A5.6,5.6,0,0,1,354.645,128.517Z" transform="translate(-349.878 -122.915)" fill="#9857bd"/></g><g transform="translate(110.651 72.631)"><circle cx="5.602" cy="5.602" r="5.602" fill="#05e39c"/></g><g transform="translate(110.651 72.631)"><path d="M462.917,269.885a5.6,5.6,0,0,1,3.2-5.062,5.6,5.6,0,1,0,0,10.124A5.6,5.6,0,0,1,462.917,269.885Z" transform="translate(-458.114 -264.283)" fill="#0ed290"/></g><g transform="translate(1.812 72.631)"><circle cx="5.602" cy="5.602" r="5.602" fill="#05e39c"/></g><g transform="translate(1.812 72.631)"><path d="M12.6,269.886a5.6,5.6,0,0,1,3.052-4.987,5.6,5.6,0,1,0,0,9.975A5.6,5.6,0,0,1,12.6,269.886Z" transform="translate(-7.5 -264.284)" fill="#0ed290"/></g><g transform="translate(21.552 89.704)"><circle cx="5.602" cy="5.602" r="5.602" fill="#af66da"/></g><g transform="translate(21.552 89.704)"><path d="M94.246,340.57a5.6,5.6,0,0,1,3.094-5.009,5.6,5.6,0,1,0,0,10.017A5.6,5.6,0,0,1,94.246,340.57Z" transform="translate(-89.229 -334.968)" fill="#9857bd"/></g><path d="M209.661,222.362l4.474,13.69a14.4,14.4,0,1,0-4.474.715Z" transform="translate(-148.095 -148.931)" fill="#26a6fe"/><path d="M209.661,234.229a14.395,14.395,0,0,1,4.075-25.681,14.4,14.4,0,1,0-4.075,28.22Z" transform="translate(-148.095 -148.931)" fill="#0593fc"/><g transform="translate(16.156 13.409)"><g transform="translate(0 0)"><path d="M82.77,61.726,94.553,41.317a14.814,14.814,0,1,0-25.658,0L80.678,61.726A1.208,1.208,0,0,0,82.77,61.726Z" transform="translate(-66.888 -19.096)" fill="#fe646f"/></g><g transform="translate(0 0)"><path d="M76.93,41.317a14.831,14.831,0,0,1,8.811-21.682,15.029,15.029,0,0,0-4.017-.539A14.814,14.814,0,0,0,68.9,41.317L80.678,61.726a1.208,1.208,0,0,0,2.092,0l2.972-5.147Z" transform="translate(-66.888 -19.096)" fill="#fd4755"/></g><g transform="translate(8.819 9.492)"><circle cx="6.016" cy="6.016" r="6.016" fill="#fff"/></g><g transform="translate(8.819 9.492)"><path d="M108.663,64.41A6.016,6.016,0,0,1,112.049,59a6.016,6.016,0,1,0,0,10.823,6.017,6.017,0,0,1-3.386-5.412Z" transform="translate(-103.402 -58.394)" fill="#eaf6ff"/></g></g><g transform="translate(61.567 73.431)"><path d="M254.9,267.6v54.42a54.2,54.2,0,0,0,16.906-2.692Z" transform="translate(-254.896 -267.597)" fill="#fe646f"/></g><g transform="translate(61.567 73.431)"><path d="M260.96,286.15,254.9,267.6v54.42a54.593,54.593,0,0,0,6.064-.339Z" transform="translate(-254.896 -267.597)" fill="#fd4755"/></g><g transform="translate(0 11.598)"><path d="M117.736,70.968A56.23,56.23,0,0,0,45.218,19.627c-.16-.264-.326-.527-.5-.785a1.811,1.811,0,1,0-2.994,2.04,12.922,12.922,0,0,1,.529,13.842l-11.26,19.5-11.26-19.5a13,13,0,0,1,11.26-19.5,13.023,13.023,0,0,1,4.949.957,1.811,1.811,0,1,0,1.37-3.354A16.631,16.631,0,0,0,30.992,11.6a16.625,16.625,0,0,0-14.4,24.938l1.054,1.826A55.945,55.945,0,0,0,5.39,71.1,7.413,7.413,0,0,0,6.67,85.609a56.2,56.2,0,0,0,92.455,29.634,1.812,1.812,0,1,0-2.423-2.694,52.609,52.609,0,0,1-17.083,10.288L68.293,88.182a16.237,16.237,0,0,0,8.6-9.473,1.812,1.812,0,1,0-3.425-1.182,12.61,12.61,0,0,1-6.315,7.179L63.288,72.869a1.812,1.812,0,0,0-3.533.563V85.893A12.593,12.593,0,1,1,73.72,70.138a1.812,1.812,0,0,0,3.5-.949A16.216,16.216,0,1,0,59.755,89.544V99.3A25.931,25.931,0,1,1,87.5,73.431a1.812,1.812,0,0,0,3.623,0,29.555,29.555,0,1,0-31.366,29.5v9.727a39.172,39.172,0,0,1-26.967-12.54,7.408,7.408,0,0,0-7.619-11.952,39.183,39.183,0,0,1,1.9-33.477l1.3,2.257a3.019,3.019,0,0,0,5.229,0L44.5,38.074A39.178,39.178,0,0,1,83.447,40.84a7.409,7.409,0,0,0,10.092,9.817,39.055,39.055,0,0,1,7.3,22.774,1.812,1.812,0,0,0,3.623,0,42.656,42.656,0,0,0-8.206-25.2A7.409,7.409,0,0,0,85.8,38.061a42.814,42.814,0,0,0-38.918-4.928,16.425,16.425,0,0,0-.118-10.185,52.6,52.6,0,0,1,67.353,48.187,7.411,7.411,0,0,0-1.213,13.71,52.682,52.682,0,0,1-10.561,21.785,1.812,1.812,0,1,0,2.807,2.29A56.31,56.31,0,0,0,116.44,85.642a7.413,7.413,0,0,0,1.3-14.674ZM63.378,84.805l12.8,39.16a52.452,52.452,0,0,1-12.8,2.04ZM7.413,82.023a3.79,3.79,0,1,1,3.79-3.79A3.795,3.795,0,0,1,7.413,82.023Zm19.741,9.492a3.79,3.79,0,1,1-3.79,3.79A3.795,3.795,0,0,1,27.154,91.515ZM18.673,73.431A42.641,42.641,0,0,0,22,89.983a7.409,7.409,0,0,0,7.806,12.243,42.8,42.8,0,0,0,29.947,14.055V126a52.7,52.7,0,0,1-49.491-40.93A7.412,7.412,0,0,0,9.02,71,52.319,52.319,0,0,1,19.6,41.745l5.381,9.319A42.632,42.632,0,0,0,18.673,73.431ZM90.11,40.3a3.79,3.79,0,1,1-3.79,3.79A3.795,3.795,0,0,1,90.11,40.3Zm26.143,41.727a3.79,3.79,0,1,1,3.79-3.79A3.795,3.795,0,0,1,116.253,82.023Z" transform="translate(0 -11.598)"/><path d="M103.731,50.894a7.828,7.828,0,1,0,7.828,7.828A7.837,7.837,0,0,0,103.731,50.894Zm0,12.032a4.2,4.2,0,1,1,4.2-4.2A4.21,4.21,0,0,1,103.731,62.926Z" transform="translate(-72.739 -41.403)"/></g></g></g></svg>