<svg xmlns="http://www.w3.org/2000/svg" width="60.02" height="73.536" viewBox="0 0 60.02 73.536"><g transform="translate(-47.053)"><g transform="translate(48.13 1.077)"><path d="M98.97,7.5H68A13.449,13.449,0,0,0,54.554,20.949V53.837A13.449,13.449,0,0,0,68,67.286h7.954a1.83,1.83,0,0,1,1.672,1.087l4.185,9.421a1.83,1.83,0,0,0,3.345,0l4.185-9.421a1.83,1.83,0,0,1,1.672-1.087H98.97a13.449,13.449,0,0,0,13.449-13.449V20.949A13.449,13.449,0,0,0,98.97,7.5Z" transform="translate(-54.554 -7.5)" fill="#f5f5f5"/></g><g transform="translate(72.631 10.963)"><path d="M231.293,101.223h-3.436a1.329,1.329,0,0,1-1.327-1.247l-1.385-22.231a1.329,1.329,0,0,1,1.327-1.412h6.2A1.329,1.329,0,0,1,234,77.745L232.62,99.976A1.329,1.329,0,0,1,231.293,101.223Zm-1.718,7.034a3.917,3.917,0,1,0,3.917,3.917A3.917,3.917,0,0,0,229.575,108.257Z" transform="translate(-225.144 -76.333)" fill="#b3009d"/></g><g transform="translate(88.238 1.077)"><path d="M338.115,7.5h-4.309a13.449,13.449,0,0,1,13.449,13.449V53.837a13.449,13.449,0,0,1-13.449,13.449h4.309a13.449,13.449,0,0,0,13.449-13.449V20.949A13.449,13.449,0,0,0,338.115,7.5Z" transform="translate(-333.806 -7.5)" fill="#ebe5ed"/></g><g transform="translate(74.908 42.887)"><path d="M243.154,298.607a3.9,3.9,0,0,0-2.154.646,3.916,3.916,0,0,1,0,6.541,3.916,3.916,0,1,0,2.154-7.187Z" transform="translate(-241 -298.607)" fill="#e600c9"/></g><g transform="translate(74.908 10.963)"><path d="M246.257,76.333h-4.309a1.329,1.329,0,0,1,1.327,1.412L241.89,99.976a1.329,1.329,0,0,1-.89,1.172,1.321,1.321,0,0,0,.436.075h3.436a1.329,1.329,0,0,0,1.327-1.247l1.385-22.231A1.329,1.329,0,0,0,246.257,76.333Z" transform="translate(-241 -76.333)" fill="#e600c9"/></g><g transform="translate(71.554 9.886)"><path d="M224.872,95.878h-3.436a2.41,2.41,0,0,1-2.4-2.257L217.65,71.39a2.406,2.406,0,0,1,2.4-2.556h6.205a2.406,2.406,0,0,1,2.4,2.556l-1.385,22.231A2.41,2.41,0,0,1,224.872,95.878Zm-4.82-24.89a.252.252,0,0,0-.252.268l1.385,22.231a.253.253,0,0,0,.251.236h3.436a.252.252,0,0,0,.251-.236l1.385-22.231a.252.252,0,0,0-.252-.268Z" transform="translate(-217.645 -68.834)" fill="#3c0061"/></g><g transform="translate(72.069 41.81)"><path d="M226.224,301.094a4.994,4.994,0,1,1,4.994-4.994A5,5,0,0,1,226.224,301.094Zm0-7.833a2.84,2.84,0,1,0,2.839,2.839A2.843,2.843,0,0,0,226.224,293.26Z" transform="translate(-221.23 -291.106)" fill="#3c0061"/></g><g transform="translate(47.053)"><path d="M92.547,0H61.58A14.543,14.543,0,0,0,47.054,14.526v7.26a1.077,1.077,0,1,0,2.154,0v-7.26A12.386,12.386,0,0,1,61.58,2.154H92.547a12.386,12.386,0,0,1,12.372,12.372V34.218a1.077,1.077,0,1,0,2.154,0V14.526A14.542,14.542,0,0,0,92.547,0Z" transform="translate(-47.054)" fill="#3c0061"/><path d="M106,186.618a1.077,1.077,0,0,0-1.077,1.077v8.888a12.386,12.386,0,0,1-12.372,12.372H84.592a2.909,2.909,0,0,0-2.657,1.727L77.751,220.1a.753.753,0,0,1-1.376,0l-4.185-9.421a2.909,2.909,0,0,0-2.657-1.727H61.579a12.386,12.386,0,0,1-12.372-12.372v-21.32a1.077,1.077,0,1,0-2.154,0v21.32a14.543,14.543,0,0,0,14.526,14.526h7.954a.754.754,0,0,1,.688.447l4.185,9.421a2.907,2.907,0,0,0,5.313,0l4.185-9.421a.753.753,0,0,1,.688-.447h7.954a14.543,14.543,0,0,0,14.526-14.526V187.7A1.078,1.078,0,0,0,106,186.618Z" transform="translate(-47.053 -149.169)" fill="#3c0061"/></g></g></svg>