<svg xmlns="http://www.w3.org/2000/svg" width="161" height="158" viewBox="0 0 161 158"><g transform="translate(-247 -10172)"><ellipse cx="80.5" cy="79" rx="80.5" ry="79" transform="translate(247 10172)" fill="#4d793f"/><g transform="translate(265 10176.855)"><g transform="translate(1.831 16.974)"><path d="M8.822,236.664H47.431a1.323,1.323,0,0,0,1.323-1.323V202.546a1.323,1.323,0,0,0-1.323-1.323H8.822A1.323,1.323,0,0,0,7.5,202.546V235.34A1.323,1.323,0,0,0,8.822,236.664Z" transform="translate(-7.499 -157.623)" fill="#e9a52d"/><path d="M150.652,201.222H144.06a1.323,1.323,0,0,1,1.323,1.323V235.34a1.323,1.323,0,0,1-1.323,1.323h6.592a1.323,1.323,0,0,0,1.323-1.323V202.545A1.323,1.323,0,0,0,150.652,201.222Z" transform="translate(-110.72 -157.623)" fill="#e38523"/><path d="M64.04,201.222v15.74a.572.572,0,0,0,.914.459l5.569-4.14a.572.572,0,0,1,.683,0l5.569,4.14a.572.572,0,0,0,.914-.459v-15.74Z" transform="translate(-50.236 -157.623)" fill="#f7f3f1"/><circle cx="20.268" cy="20.268" r="20.268" transform="translate(50.606 74.091) rotate(-1.833)" fill="#de5791"/><path d="M290,323.329a20.4,20.4,0,0,0-3.3.271,20.266,20.266,0,0,1,0,39.993,20.267,20.267,0,1,0,3.3-40.264Z" transform="translate(-218.54 -249.919)" fill="#db387e"/><path d="M395.469,115.834a1.312,1.312,0,0,1-.9-1.435A52.665,52.665,0,0,0,373.61,64.265l-7.273,10.1A40.1,40.1,0,0,1,382.69,106.7q0,1.626-.131,3.22a1.32,1.32,0,0,1-1.721,1.158l-4.977-1.617a1.317,1.317,0,0,0-1.652,1.684l6.649,19.171a1.317,1.317,0,0,0,2,.649l16.648-11.6a1.317,1.317,0,0,0-.346-2.333Z" transform="translate(-278.73 -54.103)" fill="#5392f9"/><path d="M212.144,45.647l-5.208-19.612a1.317,1.317,0,0,0-2.311-.473l-2.388,3.057a1.312,1.312,0,0,1-1.658.35,52.631,52.631,0,0,0-55.157,3.153l6.832,10.413a40.179,40.179,0,0,1,40.021-3.811,1.32,1.32,0,0,1,.5,2.012l-3.226,4.129a1.317,1.317,0,0,0,1.018,2.128l20.289.309a1.317,1.317,0,0,0,1.293-1.655Z" transform="translate(-111.749 -22.64)" fill="#e9a52d"/><path d="M100.438,50.151l-20.21-1.814a1.317,1.317,0,0,0-1.235,2.01l2.061,3.3a1.312,1.312,0,0,1-.237,1.676A52.667,52.667,0,0,0,66.281,76.689H79.812a40.224,40.224,0,0,1,7.346-10.235,1.316,1.316,0,0,1,2.048.236l2.769,4.431a1.317,1.317,0,0,0,2.348-.229l7.229-18.96A1.317,1.317,0,0,0,100.438,50.151Z" transform="translate(-51.93 -42.06)" fill="#6dc17d"/></g><g transform="translate(0 15.144)"><path d="M41.763,193.722H3.155A3.158,3.158,0,0,0,0,196.877v14.99a1.831,1.831,0,0,0,3.662,0V197.384H13.8v13.909a2.4,2.4,0,0,0,3.837,1.929l4.818-3.582,4.818,3.582a2.4,2.4,0,0,0,3.837-1.929V197.384H41.255v31.779H3.662v-8.752a1.831,1.831,0,1,0-3.662,0v9.26a3.158,3.158,0,0,0,3.155,3.155H41.763a3.158,3.158,0,0,0,3.155-3.155V196.877a3.158,3.158,0,0,0-3.155-3.155ZM27.452,208.789l-3.559-2.646a2.389,2.389,0,0,0-2.867,0l-3.559,2.646v-11.4h9.986Z" transform="translate(0 -150.124)"/><path d="M231.79,315.828a22.1,22.1,0,1,0,22.1,22.1A22.124,22.124,0,0,0,231.79,315.828Zm0,40.535a18.437,18.437,0,1,1,18.437-18.437A18.458,18.458,0,0,1,231.79,356.363Z" transform="translate(-158.497 -242.419)"/><path d="M279.571,367.6a1.831,1.831,0,0,0-2.589,0l-6.464,6.464-6.464-6.464a1.831,1.831,0,0,0-2.589,2.59l6.464,6.464-6.464,6.464a1.831,1.831,0,0,0,2.589,2.59l6.464-6.464,6.464,6.464a1.831,1.831,0,1,0,2.589-2.59l-6.464-6.464,6.464-6.464A1.831,1.831,0,0,0,279.571,367.6Z" transform="translate(-197.224 -281.145)"/><path d="M169.394,80.694a3.131,3.131,0,0,0-2.141-2.531L163.977,77.1a54.966,54.966,0,0,0-.823-19.573,1.831,1.831,0,1,0-3.572.808A51.294,51.294,0,0,1,160.291,77a3.135,3.135,0,0,0,2.142,3.443l2.707.88L149.9,91.949,143.807,74.4l4,1.3a3.151,3.151,0,0,0,4.111-2.752c.092-1.135.138-2.268.138-3.367a41.721,41.721,0,0,0-9.133-26.145l2.467.037a3.146,3.146,0,0,0,3.04-3.957L147.228,35a51,51,0,0,1,9.837,15.347,1.831,1.831,0,0,0,3.388-1.389,54.749,54.749,0,0,0-15.03-20.751L143.217,19.9a3.15,3.15,0,0,0-5.524-1.129l-2.12,2.714a54.474,54.474,0,0,0-52.311.712l-8.54-.766a3.148,3.148,0,0,0-2.951,4.8L73.6,29.164A54.641,54.641,0,0,0,58.89,50.98a1.831,1.831,0,0,0,1.721,2.456H74.142a1.831,1.831,0,0,0,1.637-1.011,38.287,38.287,0,0,1,6.551-9.294l2.422,3.876a3.148,3.148,0,0,0,5.612-.547l4.625-12.128a38.384,38.384,0,0,1,30.447.128l-2.822,3.612a3.148,3.148,0,0,0,2.433,5.087l12.966.2a38.1,38.1,0,0,1,10.377,26.22c0,.795-.027,1.611-.08,2.433L143.958,70.6a3.149,3.149,0,0,0-3.949,4.026l6.65,19.169a3.122,3.122,0,0,0,2,1.962,3.13,3.13,0,0,0,2.778-.409l16.65-11.6a3.135,3.135,0,0,0,1.312-3.047ZM87.31,44.189l-2.221-3.555a3.147,3.147,0,0,0-4.9-.552,42.006,42.006,0,0,0-7.156,9.691H63.3A51.04,51.04,0,0,1,76.364,31.606a3.134,3.134,0,0,0,.574-4.016l-1.513-2.422,18.5,1.661ZM129.3,33.515a3.141,3.141,0,0,0-1.752-2.121,42.085,42.085,0,0,0-30.813-1.647l.857-2.248a3.147,3.147,0,0,0-2.66-4.257l-4.677-.42a50.832,50.832,0,0,1,43.961,2.089,3.134,3.134,0,0,0,3.975-.831l1.752-2.243,4.769,17.956-18.578-.281,2.591-3.317a3.132,3.132,0,0,0,.575-2.68Z" transform="translate(-44.429 -15.144)"/></g></g></g></svg>