<svg xmlns="http://www.w3.org/2000/svg" width="505" height="277" viewBox="0 0 505 277"><g transform="translate(-180 -11791)"><rect width="505" height="277" transform="translate(180 11791)" fill="#ffe6a1"/><g transform="translate(92.138 11543.083)"><g transform="translate(109.381 264.917)"><path d="M690.7,398.422c-32.824-100.9-209.2-105.288-222.743,7.921,0,0-10.456,2.071-19.68.659-50.291-7.695-138.291,88.614-70.753,162.209H754.682C795.49,498.928,766.178,427.013,690.7,398.422Z" transform="translate(-320.737 -312.279)" fill="#f6f5f5"/><g transform="translate(0 0)"><g transform="translate(256.185)"><path d="M1681.445,414.242l-.65-.632c42.1-43.281,43.772-66.953,46.3-102.784a438.323,438.323,0,0,1,4.827-44.366c-19.938,9.267-36.1,22.1-48.046,38.159a122.62,122.62,0,0,0-20.672,45.033,146.346,146.346,0,0,0-2.772,53.067l-.894.156a147.277,147.277,0,0,1,2.775-53.4,123.535,123.535,0,0,1,20.822-45.38c12.2-16.4,28.746-29.458,49.19-38.819l.781-.358-.146.847A434.069,434.069,0,0,0,1728,310.89C1725.459,346.92,1723.776,370.724,1681.445,414.242Z" transform="translate(-1658.301 -264.917)" fill="#dadada"/><g transform="translate(14.33 38.514)"><path d="M1742.71,590.928l-.879-.226c.167-.649,16.932-65.365,38.024-101.289l.783.459C1759.61,525.688,1742.877,590.28,1742.71,590.928Z" transform="translate(-1741.831 -489.413)" fill="#dadada"/><path d="M1847.17,540.707l-.907-.032a55.956,55.956,0,0,0-6.4-25.623l.8-.433A56.925,56.925,0,0,1,1847.17,540.707Z" transform="translate(-1823.043 -510.295)" fill="#dadada"/><path d="M1822.982,756.268l-.639-.644c9.646-9.579,22.25-12.539,22.376-12.568l.2.885A51.24,51.24,0,0,0,1822.982,756.268Z" transform="translate(-1808.531 -699.543)" fill="#dadada"/></g><g transform="translate(50.317 34.646)"><path d="M1979.443,609.278l-.089-.9c16.414-1.626,29.73-12.627,40.707-33.629,9.724-18.608,16.4-42.383,22.865-65.375,4.189-14.907,8.15-29,12.775-41.214-47.241,11.806-66.821,49.254-67.015,49.633l-.809-.412c.2-.385,20.182-38.639,68.449-50.309l.839-.2-.31.806c-4.742,12.354-8.78,26.727-13.056,41.944-6.473,23.036-13.166,46.858-22.935,65.549C2009.734,596.46,1996.185,607.618,1979.443,609.278Z" transform="translate(-1974.591 -466.865)" fill="#dadada"/><path d="M1952.427,777.081l-.829-.367c.276-.622,27.869-62.417,51.05-80.385l.556.718c-9.5,7.365-21.291,23.53-34.093,46.749C1959.422,761.364,1952.5,776.926,1952.427,777.081Z" transform="translate(-1951.598 -656.962)" fill="#dadada"/><path d="M2129.865,720.087l-.892-.167c.013-.069,1.293-7.066,2.433-23.973l.906.061C2131.167,712.98,2129.878,720.018,2129.865,720.087Z" transform="translate(-2098.543 -656.646)" fill="#dadada"/><path d="M2041.5,926.321l-.515-.748a94.989,94.989,0,0,1,29.28-12.456l.2.885A93.943,93.943,0,0,0,2041.5,926.321Z" transform="translate(-2025.651 -836.559)" fill="#dadada"/></g></g><g transform="translate(0 92.535)"><g transform="translate(52.794)"><path d="M522.5,948.138c-40.768-41.912-42.388-64.836-44.841-99.536a417.71,417.71,0,0,0-4.777-43.455l-.145-.847.781.358c44.6,20.42,61.284,55.37,67.429,81.093a141.85,141.85,0,0,1,2.673,51.432l-.894-.156a140.916,140.916,0,0,0-2.669-51.1c-6.066-25.364-22.473-59.775-66.137-80.086a422.069,422.069,0,0,1,4.644,42.694c2.439,34.5,4.049,57.294,44.586,98.969Z" transform="translate(-472.739 -804.3)" fill="#dadada"/><g transform="translate(20.876 37.108)"><path d="M630.95,1118.372c-.16-.624-16.275-62.825-36.523-97.311l.783-.46c20.313,34.6,36.459,96.919,36.62,97.545Z" transform="translate(-594.427 -1020.601)" fill="#dadada"/><path d="M676.792,1070.01a54.843,54.843,0,0,1,6.273-25.131l.8.432a53.882,53.882,0,0,0-6.164,24.666Z" transform="translate(-662.657 -1040.714)" fill="#dadada"/><path d="M629.177,1277.566a49.319,49.319,0,0,0-21.119-11.866l.2-.884a50.28,50.28,0,0,1,21.557,12.106Z" transform="translate(-605.719 -1222.919)" fill="#dadada"/></g></g><g transform="translate(0 50.655)"><path d="M239.541,1208.67c-35.025-3.258-49.047-42.085-61.418-76.343-4.182-11.579-8.131-22.516-12.713-31.929l-.4-.83.905.188c23.66,4.923,39.968,15.246,49.484,23.038,10.322,8.453,15.116,15.855,15.163,15.929l-.765.49c-.185-.29-18.913-28.837-63.164-38.376,4.432,9.264,8.281,19.921,12.348,31.184,12.279,34,26.2,72.543,60.648,75.747Z" transform="translate(-165.006 -1099.568)" fill="#dadada"/><path d="M385.889,1337.789c-.265-.473-26.72-47.455-48.44-61.235l.486-.767c21.913,13.9,48.48,61.084,48.747,61.558Z" transform="translate(-307.865 -1245.555)" fill="#dadada"/><path d="M437.007,1295.678c-.013-.053-1.306-5.412-2.581-18.3l.9-.089c1.268,12.808,2.547,18.121,2.56,18.173Z" transform="translate(-388.205 -1246.8)" fill="#dadada"/><path d="M404.28,1451.125a101.828,101.828,0,0,0-27.258-9.687l.176-.891a102.828,102.828,0,0,1,27.529,9.788Z" transform="translate(-340.649 -1382.05)" fill="#dadada"/></g></g><g transform="translate(373.21 122.195)"><path d="M2367.394,1111.306l-.215-.881c38.564-9.417,45.835-50.842,52.866-90.9,2.468-14.061,5.019-28.592,8.919-41.169-38.388,7.355-60.133,33.86-71.636,54.874a152.948,152.948,0,0,0-16,44.706l-.9-.136a153.9,153.9,0,0,1,16.084-44.98c11.671-21.331,33.813-48.274,73.022-55.5l.743-.137-.229.72c-4.011,12.684-6.606,27.473-9.117,41.774C2413.858,1060.028,2406.535,1101.748,2367.394,1111.306Z" transform="translate(-2340.435 -977.186)" fill="#dadada"/><path d="M2474.117,1282.463l-.875-.242c.141-.509,14.359-51.061,37.484-71.024l.593.688C2488.4,1231.667,2474.258,1281.958,2474.117,1282.463Z" transform="translate(-2450.459 -1171.051)" fill="#dadada"/><path d="M2569.314,1255.173l-.889-.184a113.665,113.665,0,0,0,1.368-25.525l.907-.044A114.6,114.6,0,0,1,2569.314,1255.173Z" transform="translate(-2529.312 -1186.148)" fill="#dadada"/><path d="M2499.637,1426.468l-.558-.717a120.987,120.987,0,0,1,30.348-16.123l.3.855A119.931,119.931,0,0,0,2499.637,1426.468Z" transform="translate(-2471.863 -1335.44)" fill="#dadada"/></g></g><g transform="translate(46.708 64.814)"><path d="M1964.7,648.614a2.95,2.95,0,1,1,2.949-2.95A2.953,2.953,0,0,1,1964.7,648.614Zm0-4.992a2.042,2.042,0,1,0,2.042,2.042A2.045,2.045,0,0,0,1964.7,643.622Z" transform="translate(-1700.218 -642.714)" fill="#dadada"/><path d="M538.967,914.47a2.95,2.95,0,1,1,2.95-2.95A2.953,2.953,0,0,1,538.967,914.47Zm0-4.992a2.042,2.042,0,1,0,2.042,2.042A2.045,2.045,0,0,0,538.967,909.478Z" transform="translate(-519.076 -862.961)" fill="#dadada"/><path d="M2133.992,1297.606a2.949,2.949,0,1,1,2.949-2.949A2.952,2.952,0,0,1,2133.992,1297.606Zm0-4.991a2.042,2.042,0,1,0,2.042,2.042A2.045,2.045,0,0,0,2133.992,1292.615Z" transform="translate(-1840.464 -1180.369)" fill="#dadada"/><path d="M2719.009,1114.193a2.95,2.95,0,1,1,2.949-2.949A2.952,2.952,0,0,1,2719.009,1114.193Zm0-4.992a2.043,2.043,0,1,0,2.042,2.043A2.046,2.046,0,0,0,2719.009,1109.2Z" transform="translate(-2325.117 -1028.421)" fill="#dadada"/><circle cx="2.042" cy="2.042" r="2.042" transform="translate(281.729 73.293)" fill="#dadada"/><circle cx="2.042" cy="2.042" r="2.042" transform="translate(375.74 148.477)" fill="#dadada"/><circle cx="2.042" cy="2.042" r="2.042" transform="matrix(0.001, -1, 1, 0.001, 225.456, 19.058)" fill="#dadada"/><circle cx="2.042" cy="2.042" r="2.042" transform="translate(0 155.133)" fill="#dadada"/></g><path d="M641.527,391.206a2.744,2.744,0,0,1-.788-.116l-5.645-1.686a2.742,2.742,0,0,1-1.844-3.418l1.924-6.388a28.773,28.773,0,0,1-6.52-4.737l-5.5,3.715a2.759,2.759,0,0,1-3.82-.734l-3.3-4.864a2.741,2.741,0,0,1,.737-3.813l5.439-3.671a28.551,28.551,0,0,1-2.148-8.553L613.6,356.2a2.746,2.746,0,0,1-2.419-3.04l.675-5.837a2.753,2.753,0,0,1,3.048-2.414l6.37.73a28.515,28.515,0,0,1,3.69-7.516l-4.4-4.561a2.739,2.739,0,0,1,.077-3.882l4.249-4.072a2.758,2.758,0,0,1,3.89.076l4.36,4.521a28.552,28.552,0,0,1,8-3.537l-.405-6.232a2.751,2.751,0,0,1,2.567-2.918l5.88-.383a2.739,2.739,0,0,1,2.924,2.559l.406,6.232A28.565,28.565,0,0,1,660.9,328.4l3.737-5.049a2.759,2.759,0,0,1,3.847-.58l4.742,3.487a2.741,2.741,0,0,1,.58,3.839l-3.769,5.093a28.6,28.6,0,0,1,4.632,6.975l6.221-1.55a2.756,2.756,0,0,1,3.336,2l1.425,5.7a2.745,2.745,0,0,1-2,3.328l-6.3,1.57a28.4,28.4,0,0,1-1.021,8.759l5.869,2.935a2.741,2.741,0,0,1,1.226,3.684l-2.641,5.251a2.759,2.759,0,0,1-3.693,1.223l-5.941-2.969a28.707,28.707,0,0,1-5.85,5.542l2.736,6.085a2.744,2.744,0,0,1-1.386,3.629l-5.377,2.4a2.758,2.758,0,0,1-3.635-1.381l-2.75-6.116a28.965,28.965,0,0,1-8.785.572l-1.932,6.42A2.756,2.756,0,0,1,641.527,391.206Zm-12.766-17.513.265.262a27.874,27.874,0,0,0,6.9,5.01l.336.173-2.141,7.108a1.835,1.835,0,0,0,1.236,2.287L641,390.22a1.847,1.847,0,0,0,2.3-1.233l2.147-7.134.372.038a28.036,28.036,0,0,0,9.224-.6l.364-.086,3.056,6.8a1.849,1.849,0,0,0,2.437.925l5.377-2.4a1.835,1.835,0,0,0,.929-2.428l-3.044-6.771.311-.215a27.81,27.81,0,0,0,6.189-5.862l.228-.295,6.607,3.3a1.848,1.848,0,0,0,2.476-.82l2.641-5.251a1.833,1.833,0,0,0-.821-2.464l-6.546-3.273.107-.364a27.5,27.5,0,0,0,1.074-9.2l-.02-.373,7.026-1.75a1.838,1.838,0,0,0,1.343-2.227l-1.425-5.7a1.844,1.844,0,0,0-2.236-1.337l-6.953,1.732-.156-.344a27.7,27.7,0,0,0-4.884-7.355l-.255-.276,4.214-5.695a1.833,1.833,0,0,0-.388-2.568l-4.742-3.487a1.85,1.85,0,0,0-2.579.388l-4.184,5.653-.339-.165a27.65,27.65,0,0,0-8.812-2.6l-.374-.045-.454-6.982a1.846,1.846,0,0,0-1.96-1.714l-5.88.383a1.844,1.844,0,0,0-1.721,1.954l.455,6.981-.365.093a27.651,27.651,0,0,0-8.4,3.717l-.315.208-4.882-5.062a1.851,1.851,0,0,0-2.608-.05l-4.249,4.072a1.833,1.833,0,0,0-.052,2.6l4.919,5.1-.217.307a27.642,27.642,0,0,0-3.891,7.926l-.11.361-7.119-.815a1.837,1.837,0,0,0-2.043,1.616l-.675,5.837a1.838,1.838,0,0,0,1.621,2.034l7.193.824.029.372a27.674,27.674,0,0,0,2.257,8.98l.153.347-6.065,4.094a1.833,1.833,0,0,0-.494,2.551l3.3,4.864a1.849,1.849,0,0,0,2.562.491Zm19.887-2.7a16.461,16.461,0,1,1,10.908-28.834,16.46,16.46,0,0,1-9.821,28.8h0Q649.188,370.99,648.648,370.989Zm.046-32.014q-.518,0-1.039.034a15.553,15.553,0,1,0,2.02,31.039h0a15.552,15.552,0,0,0-.981-31.073Z" transform="translate(-534.623 -308.173)" fill="#dadada"/></g><g transform="translate(218.744 307.142)"><rect width="151.926" height="214.254" rx="49.308" transform="translate(0 0)" fill="#86a7ff"/><rect width="53.548" height="8.989" transform="translate(49.189 9.428)" fill="#d3dfff"/><rect width="121.616" height="26.972" transform="translate(15.155 32.119)" fill="#dadada"/><rect width="110.972" height="19.593" transform="translate(20.477 35.808)" fill="#fff"/><g transform="translate(92.3 71.602)"><rect width="17.244" height="10.892" rx="5.446" fill="#1f3c88"/><rect width="17.244" height="10.892" rx="5.446" transform="translate(27.228)" fill="#1f3c88"/></g><g transform="translate(15.988 95.654)"><rect width="20.873" height="14.22" rx="7.11" transform="translate(99.907)" fill="#1f3c88"/><rect width="20.873" height="14.22" rx="7.11" transform="translate(66.604)" fill="#1f3c88"/><rect width="20.873" height="14.22" rx="7.11" transform="translate(33.302)" fill="#1f3c88"/><rect width="20.873" height="14.22" rx="7.11" fill="#1f3c88"/></g><g transform="translate(15.988 121.371)"><rect width="20.873" height="14.22" rx="7.11" transform="translate(99.907)" fill="#1f3c88"/><rect width="20.873" height="14.22" rx="7.11" transform="translate(66.604)" fill="#d3dfff"/><rect width="20.873" height="14.22" rx="7.11" transform="translate(33.302)" fill="#d3dfff"/><rect width="20.873" height="14.22" rx="7.11" fill="#d3dfff"/></g><g transform="translate(15.988 147.088)"><rect width="20.873" height="14.22" rx="7.11" transform="translate(99.907)" fill="#1f3c88"/><rect width="20.873" height="14.22" rx="7.11" transform="translate(66.604)" fill="#d3dfff"/><rect width="20.873" height="14.22" rx="7.11" transform="translate(33.302)" fill="#d3dfff"/><rect width="20.873" height="14.22" rx="7.11" fill="#d3dfff"/></g><g transform="translate(15.988 173.712)"><rect width="20.873" height="14.22" rx="7.11" transform="translate(99.907)" fill="#fbc343"/><rect width="20.873" height="14.22" rx="7.11" transform="translate(66.604)" fill="#d3dfff"/><rect width="20.873" height="14.22" rx="7.11" transform="translate(33.302)" fill="#d3dfff"/><rect width="20.873" height="14.22" rx="7.11" fill="#d3dfff"/></g><g transform="translate(106.359 39.941)"><path d="M1423.366,753.971a6.189,6.189,0,0,0,1.2-.051,4.129,4.129,0,0,0,2.294-1.063,4.81,4.81,0,0,0,1.45-2.918h-.049a3.222,3.222,0,0,1-2.581,1.181,3.176,3.176,0,0,1-3.239-3.357,3.76,3.76,0,0,1,3.744-3.9c2.243,0,3.626,1.822,3.626,4.623a6.929,6.929,0,0,1-1.889,5.146,5.487,5.487,0,0,1-3.188,1.468,6.935,6.935,0,0,1-1.367.085Zm.54-6.31a2.11,2.11,0,0,0,2.109,2.328,2.453,2.453,0,0,0,2.159-1.147.971.971,0,0,0,.135-.54c0-1.872-.691-3.307-2.243-3.307C1424.8,745,1423.906,746.109,1423.906,747.661Z" transform="translate(-1422.439 -743.865)" fill="#3a6bea"/><path d="M1473.841,753.971a6.192,6.192,0,0,0,1.2-.051,4.13,4.13,0,0,0,2.294-1.063,4.81,4.81,0,0,0,1.45-2.918h-.05a3.221,3.221,0,0,1-2.581,1.181,3.176,3.176,0,0,1-3.239-3.357,3.76,3.76,0,0,1,3.745-3.9c2.243,0,3.626,1.822,3.626,4.623a6.929,6.929,0,0,1-1.889,5.146,5.486,5.486,0,0,1-3.188,1.468,6.934,6.934,0,0,1-1.367.085Zm.54-6.31a2.11,2.11,0,0,0,2.109,2.328,2.453,2.453,0,0,0,2.159-1.147.973.973,0,0,0,.135-.54c0-1.872-.691-3.307-2.243-3.307C1475.275,745,1474.381,746.109,1474.381,747.661Z" transform="translate(-1464.254 -743.865)" fill="#3a6bea"/></g></g><g transform="translate(291.062 388.123)"><g transform="translate(119.529 72.924)"><rect width="82.89" height="60.804" fill="#fbc343"/><rect width="22.084" height="0.907" transform="translate(60.808 13.765)" fill="#e49b31"/><rect width="38.421" height="0.907" transform="translate(44.472 47.045)" fill="#e49b31"/><path d="M1962.071,1430.2a69.751,69.751,0,0,1-3.195,20.867,24.886,24.886,0,0,1-23.742,17.445h-14.385v-60.341H1958.5A69.854,69.854,0,0,1,1962.071,1430.2Z" transform="translate(-1920.748 -1408.166)" fill="#e49b31"/></g><g transform="translate(0 104.274)"><path d="M7.361,0H69.212a7.361,7.361,0,0,1,7.361,7.361v0a7.361,7.361,0,0,1-7.361,7.361H7.361A7.361,7.361,0,0,1,0,7.361v0A7.361,7.361,0,0,1,7.361,0Z" transform="translate(8.468 14.731)" fill="#fbc343"/><path d="M1300.59,1595.012v6.49a4.123,4.123,0,0,1-4.12,4.121h-68.332a4.118,4.118,0,0,1-4.12-4.121v-6.49a4.123,4.123,0,0,1,4.12-4.121h68.332A4.129,4.129,0,0,1,1300.59,1595.012Z" transform="translate(-1224.017 -1590.891)" fill="#fbc343"/><path d="M1421.737,1609.743v6.48a4.118,4.118,0,0,1-4.12,4.121h-49c-3.385-4.175-5.454-9.558-6.7-14.722a72.526,72.526,0,0,1-1.888-14.731h49.119a4.129,4.129,0,0,1,4.12,4.121v6.49a4.123,4.123,0,0,1-4.12,4.121h8.468A4.118,4.118,0,0,1,1421.737,1609.743Z" transform="translate(-1336.696 -1590.891)" fill="#e49b31"/></g><g transform="translate(30.141 0)"><path d="M1652.636,985.471l-5.518,16.946-.408,1.253-2.56,7.869-.018.054-8.25-.182-31.656-.717-2.315-6.626-.39-1.107-6.126-17.49C1614.4,992.052,1630.065,977.666,1652.636,985.471Z" transform="translate(-1561.824 -983.081)" fill="#fbc343"/><path d="M1678.177,1103.066l-2.559,7.869-8.268-.127-31.656-.717-2.315-6.626C1644.261,1103.275,1662.984,1103.021,1678.177,1103.066Z" transform="translate(-1593.291 -1082.478)" fill="#e49b31"/><path d="M1519.963,1234.9a24.877,24.877,0,0,1-23.743,17.445h-71.7a23.052,23.052,0,0,1-22.218-16.928,72.326,72.326,0,0,1-2.578-17.481c-.009-.563-.018-1.125-.018-1.688q0-1,.027-1.994a71.729,71.729,0,0,1,27.51-53.988l17.152-13.58,39.253.907,21.577,20.648a47.577,47.577,0,0,1,7.908,9.748,69.851,69.851,0,0,1,6.827,56.911Z" transform="translate(-1399.708 -1118.619)" fill="#fbc343"/><g transform="translate(42.827 49.575)"><path d="M1662.928,1337.246v-7.585c-5.354-.241-10.545-1.678-13.582-3.435l2.4-9.348a28.238,28.238,0,0,0,13.264,3.513c4.554,0,7.67-1.756,7.67-4.951,0-3.038-2.557-4.957-8.47-6.954-8.548-2.875-14.383-6.87-14.383-14.618,0-7.032,4.957-12.543,13.5-14.221v-7.592h7.826v7.032a28.835,28.835,0,0,1,11.585,2.635l-2.316,9.03a26.48,26.48,0,0,0-11.507-2.719c-5.191,0-6.869,2.238-6.869,4.476,0,2.635,2.8,4.313,9.588,6.87,9.5,3.357,13.342,7.748,13.342,14.943,0,7.111-5.035,13.18-14.22,14.781v8.145Z" transform="translate(-1649.346 -1272.054)" fill="#fff"/></g><rect width="63.878" height="10.129" rx="5.064" transform="translate(30.736 25.267)" fill="#ed7545"/><path d="M1520.05,1451.553A24.877,24.877,0,0,1,1496.307,1469h-71.7a23.052,23.052,0,0,1-22.218-16.928,72.325,72.325,0,0,1-2.578-17.481c11.862,11.309,25.839,26.095,58.512,26.549,40.573.563,58.058-18.453,61.2-52.934A69.761,69.761,0,0,1,1520.05,1451.553Z" transform="translate(-1399.795 -1335.271)" fill="#e49b31" opacity="0.4"/></g></g><g transform="translate(138.845 375.04)"><g transform="translate(0 69.808)"><path d="M360.877,1676.237l-7.261-2.723-16.866,14.825h19.96Z" transform="translate(-336.751 -1611.79)" fill="#102048"/><path d="M457.261,1689.386H473.3l-1.815,11.5-18.386.605Z" transform="translate(-433.135 -1624.939)" fill="#f9b384"/><path d="M558.542,1313.73l-.59,4.021-.354,2.423-2.541,17.418-.971,6.653-.862,5.936-2.26,15.466-1.57,10.729a16.424,16.424,0,0,1-16.255,14.05H497.661l.045-.454,1.153-11.8.163-1.661,24.732-4.765,3.322-24.125a50.187,50.187,0,0,1-.526-18.507,44.78,44.78,0,0,1,1.434-6.608l11.036-3.168Z" transform="translate(-470.056 -1313.73)" fill="#1f3c88"/><path d="M713.518,1616.357l-1.57,10.729a16.423,16.423,0,0,1-16.255,14.05h-1.815C710.133,1638.227,706.956,1617.464,713.518,1616.357Z" transform="translate(-632.61 -1564.439)" fill="#102048"/><rect width="6.59" height="0.908" transform="translate(11.488 76.309) rotate(-58.13)" fill="#fff"/><path d="M766.156,1452.822l-1.833,12.589c-5.11-1.461-11.847-8.765-11.847-8.765Z" transform="translate(-681.155 -1428.96)" fill="#102048"/><g transform="translate(57.926 0.793)"><path d="M935.193,1606.586s-8.622,4.425-24.051,1.589l12.82-8.509Z" transform="translate(-870.528 -1551.404)" fill="#102048"/><path d="M955.654,1623.27l-13.786.309-.082-2.977-.218-8.16,12.252.908.581,3.149Z" transform="translate(-895.734 -1561.989)" fill="#f9b384"/><path d="M954.4,1616.5l-12.615,4.1-.218-8.16,12.252.908Z" transform="translate(-895.734 -1561.989)" fill="#e28b6d"/><path d="M972.725,1690.165l-15.2-12.253-.432-2.33-13.792.3.383,14.279Z" transform="translate(-897.168 -1614.296)" fill="#102048"/><rect width="6.422" height="0.908" transform="translate(59.742 70.453) rotate(-31.983)" fill="#fff"/><path d="M674.4,1326.337l49.332-7.834a12.087,12.087,0,0,1,6.806.892h0a12.09,12.09,0,0,1,7.173,10.675l1.354,43.464s-14.068-2.95-24.051,1.588l-.908-29.725c-6.032,2.746-16.48,3.328-27.069,2.269Z" transform="translate(-674.402 -1318.353)" fill="#1f3c88"/><path d="M857.555,1374.914h-.908c0-7.521.182-13.764.342-19.273.39-13.413.6-20.8-2.813-23.928-2.765-2.531-8.29-2.452-16.308-1.5-8.592,1-12.018-8.146-12.052-8.239l.853-.31c.128.351,3.214,8.595,11.092,7.646,8.486-1,13.993-1.041,17.028,1.736,3.724,3.407,3.518,10.5,3.107,24.625C857.736,1361.17,857.555,1367.406,857.555,1374.914Z" transform="translate(-799.84 -1321.093)" fill="#3a6bea"/><path d="M909.686,1602.039l-.322-.848a45.242,45.242,0,0,1,24.322-1.151l-.22.881A44.251,44.251,0,0,0,909.686,1602.039Z" transform="translate(-869.055 -1550.744)" fill="#3a6bea"/></g><path d="M524.746,1688.941c-1.413-2.828.774-14.54.868-15.037l.891.169c-.623,3.3-2.008,12.34-.947,14.462Z" transform="translate(-492.102 -1612.114)" fill="#3a6bea"/><path d="M693.133,1343.729a33.143,33.143,0,0,1-11.345,12.407,14.529,14.529,0,0,1-7.642,2.469,8.914,8.914,0,0,1-8.1-4.638,44.785,44.785,0,0,1,1.434-6.608l11.036-3.168,11.136-.354Z" transform="translate(-609.557 -1338.582)" fill="#102048"/></g><g transform="translate(68.889 8.181)"><path d="M772.272,1083.216v10.5h10.286v-9.086Z" transform="translate(-766.445 -1061.135)" fill="#ed7545"/><path d="M782.558,1053.623H772.272v5.077l10.286,1.419Z" transform="translate(-766.445 -1036.619)" fill="#f9b384"/><path d="M789.949,1059.809a16.692,16.692,0,0,0,7.253,5.059l-.068-5.512Z" transform="translate(-781.089 -1041.367)" fill="#102048"/><path d="M779.386,975.687s5.673,15.279-1.664,16.262-8.471-2.345-8.471-2.345l-2.269-8.093,5.067-6.807Z" transform="translate(-762.062 -971.238)" fill="#f9b384"/><circle cx="1.588" cy="1.588" r="1.588" transform="translate(17.597 13.345) rotate(-88.939)" fill="#f9b384"/><path d="M747.914,966.213s.378-8.169,7.714-7.261c0,0-4.937-6.341-11.443-3.882a9.319,9.319,0,0,0-5.837,7.921c-.418,4.546,2.237,9.728,5.943,10.635a70.851,70.851,0,0,1,3.245-6.354Z" transform="translate(-738.305 -954.503)" fill="#102048"/><ellipse cx="2.231" cy="2.609" rx="2.231" ry="2.609" transform="translate(6.215 10.865) rotate(-25.174)" fill="#f9b384"/><circle cx="2.08" cy="2.08" r="2.08" transform="matrix(0.014, -1, 1, 0.014, 12.725, 14.744)" fill="#eb5d60" opacity="0.4"/><path d="M786.513,1020.548a.228.228,0,0,1-.227-.226,1.562,1.562,0,0,0-1.43-1.516.227.227,0,0,1-.193-.257.233.233,0,0,1,.256-.193,2.033,2.033,0,0,1,1.821,1.965.227.227,0,0,1-.226.227Z" transform="translate(-776.707 -1007.401)" fill="#102048"/></g><g transform="translate(46.121 0)"><path d="M995.787,995.867s7.934.605,12.252,5.673l-9.825,2.42Z" transform="translate(-928.846 -980.59)" fill="#ba5c36"/><path d="M1009.108,917.748c.036.726-1.96,4.348-3.431,6.916-.862,1.479-1.534,2.6-1.534,2.6l-5.291,1.543-3.776-5.691-.181-.281s.054-.245.154-.681v-.009c.009-.009.009-.027.018-.055.635-2.7,2.886-11.881,4.184-12.19,1.144-.263.472,4.765.472,4.765s2.823-8.178,4.493-7.842c1.334.263-1.28,8.105-1.28,8.105s.935-.98,1.879-.672a1.673,1.673,0,0,1,1.135,1.28,1.309,1.309,0,0,1,1.343-.073c.672.408.608,1.679.608,1.679S1009.035,916.614,1009.108,917.748Z" transform="translate(-928.107 -906.819)" fill="#f9b384"/><path d="M631.78,1122.949,628.186,1137l-5.573,21.784a20.024,20.024,0,0,1-10.945,1.77c-3.676-.608-6.244-2.75-6.072-6.535C606.05,1143.807,631.78,1122.949,631.78,1122.949Z" transform="translate(-605.588 -1085.87)" fill="#ed7545"/><path d="M660.45,1146.21l-2.9,10.06-5.573,21.784a20.023,20.023,0,0,1-10.945,1.77C649.105,1156.648,660.45,1146.21,660.45,1146.21Z" transform="translate(-634.948 -1105.141)" fill="#ba5c36"/><path d="M707.675,1144.776c-7.487.508-31.085,20.023-36.757,7.434,0,0,.789-46.962,25.031-46.091a10.228,10.228,0,0,1,9.357,7.107,47.756,47.756,0,0,1,1.615,7.37,97.974,97.974,0,0,1,.926,11.727C707.947,1135.954,707.9,1140.083,707.675,1144.776Z" transform="translate(-659.71 -1071.918)" fill="#ed7545"/><path d="M849.19,1202.291c-3.748-2.423-7.66-9.73-7.66-9.73l6.734-2A97.986,97.986,0,0,1,849.19,1202.291Z" transform="translate(-801.053 -1141.886)" fill="#ba5c36"/><path d="M1006.422,998.436c-.862,1.479-1.534,2.6-1.534,2.6l-5.291,1.543-3.776-5.691-.027-.962v-.064h.018Z" transform="translate(-928.852 -980.59)" fill="#e28b6d"/><path d="M816.834,1014.792s11.641.817,18.675,2.178l12.026-21.1a27.4,27.4,0,0,0,12.252,5.673l-10.525,24.8a14.247,14.247,0,0,1-12.292,7.941l-18.025.616Z" transform="translate(-780.593 -980.59)" fill="#ed7545"/><path d="M797.35,1107.649a.322.322,0,0,1-.063-.006c-.221-.041-22.2-4.072-25.949-.761a.341.341,0,0,1-.451-.51c3.992-3.529,25.607.431,26.525.6a.341.341,0,0,1-.062.675Z" transform="translate(-742.434 -1070.928)" fill="#ba5c36"/></g></g><g transform="translate(447.644 324.79)"><g transform="translate(9.461 75.583)"><path d="M2215.551,1639.756l1.513,19.363h-25.186l12.706-8.774-.227-12.1Z" transform="translate(-2191.878 -1538.095)" fill="#102048"/><path d="M2491.543,1599l6.807,16.565-17.244,14.522,2.5-16.338-3.4-10.892Z" transform="translate(-2430.735 -1505.588)" fill="#102048"/><path d="M2242.339,1054.487a18.9,18.9,0,0,0-.635,2.414c-.336,1.679-.626,3.821-.871,6.344-.8,8.241-1.135,20.486-1.225,33.492-.19,29.29.917,62.437.917,62.437l-4.611-.073-11.345-.172-4.012-.063a527.041,527.041,0,0,1-3.431-99.224c.027-.472.064-.908.082-1.316.191-2.505.318-3.839.318-3.839Z" transform="translate(-2212.009 -1054.487)" fill="#1f3c88"/><path d="M2349.381,1160.98l-2.305.572-12.089,3.022-7.388,1.852s-8.749-32.467-15.738-60.921c-3.358-13.724-6.317-26.512-7.678-34.273a49.934,49.934,0,0,1-.79-6.163l10.564.6,13.342.762s.327,1.915.962,5.355C2330.8,1085.5,2338.254,1123.476,2349.381,1160.98Z" transform="translate(-2284.263 -1063.254)" fill="#1f3c88"/><path d="M2249.023,1063.019a114.553,114.553,0,0,1-15.175.227c-3.186-.163-6.171-.445-8.9-.781a113.418,113.418,0,0,1-14.8-2.823c-1.552-.417-2.4-.69-2.4-.69l2.478-.626,15.284-3.839h9.847a18.938,18.938,0,0,0-.635,2.414l13.342.762S2248.388,1059.579,2249.023,1063.019Z" transform="translate(-2205.024 -1054.487)" fill="#102048"/><path d="M2299.162,1207.455c-.734-3.078-4.2-17.652-4.653-20.12l-7.015-2.63.319-.85,7.555,2.833V1187c.052.673,2.826,12.476,4.677,20.241Z" transform="translate(-2271.09 -1161.661)" fill="#3a6bea"/><path d="M2225.064,1390.593a15.951,15.951,0,0,1-5.514-.866l.336-.843a17.465,17.465,0,0,0,8.972.431l.174.891A20.776,20.776,0,0,1,2225.064,1390.593Z" transform="translate(-2214.803 -1331.516)" fill="#3a6bea"/><path d="M2385.417,1385.085a23.676,23.676,0,0,1-4.024-.355l.169-.892c.063.012,6.2,1.148,9.034-.833l.52.743A10.314,10.314,0,0,1,2385.417,1385.085Z" transform="translate(-2348.88 -1326.646)" fill="#3a6bea"/><rect width="0.908" height="4.478" transform="translate(12.43 112.609) rotate(-52.544)" fill="#fff"/><rect width="0.907" height="5.224" transform="translate(52.696 108.585) rotate(-67.896)" fill="#fff"/></g><g transform="translate(0 25.897)"><path d="M2196.843,765.282s-15.58,1.967-19.513,19.515l4.689,20.876L2179.9,819.59a184.536,184.536,0,0,0,42.959-1.513l-6.618-35.474Z" transform="translate(-2170.365 -765.211)" fill="#ed7545"/><path d="M2339.216,935.038s-4.689-3.441,1.437-18.531l4.084,14.863Z" transform="translate(-2303.056 -890.493)" fill="#6e3620"/><path d="M1.21,0h0A1.21,1.21,0,0,1,2.42,1.21V20.724a0,0,0,0,1,0,0H0a0,0,0,0,1,0,0V1.21A1.21,1.21,0,0,1,1.21,0Z" transform="translate(35.07 13.743) rotate(62.102)" fill="#102048"/><path d="M2275.963,885.464l-.463-.254-6.018-3.249-10.083-5.455a3.251,3.251,0,0,1,.681-2.959l-.5-.2a2.66,2.66,0,0,1-1.579-1.961l-.018-.109a4.583,4.583,0,0,1-.054-2.151l.236-.309a8.107,8.107,0,0,1,1.615-1.77l-1.289.073s-3.177.871-1.7-1.171c1.017-1.416,3.295-2.614,4.593-3.213a1.425,1.425,0,0,1,1.625.29,104.613,104.613,0,0,0,12.044,9.957l.082,1.107.744,10.193Z" transform="translate(-2235.871 -845.835)" fill="#f9b384"/><g transform="translate(21.523 20.336)"><path d="M2268.854,885.359l-2.747-1.342a1.491,1.491,0,0,0-.92-.131l-2.926.509-.078-.447,2.926-.509a1.953,1.953,0,0,1,1.2.17l2.747,1.342Z" transform="translate(-2262.184 -883.41)" fill="#e28b6d"/><path d="M2270.911,901.114l-3.295-1.262a1.28,1.28,0,0,0-.458-.084h-1.876v-.453h1.876a1.734,1.734,0,0,1,.621.114l3.294,1.262Z" transform="translate(-2264.75 -896.586)" fill="#e28b6d"/><path d="M2271.241,916.652l-2.991-1.13a1.589,1.589,0,0,0-.743-.093l-1.226.139-.052-.451,1.226-.139a2.061,2.061,0,0,1,.956.119l2.991,1.13Z" transform="translate(-2265.535 -909.552)" fill="#e28b6d"/></g><path d="M2339.048,928.942l-.381.926-6.017-3.249,3.984-10.111,1.67,2.242Z" transform="translate(-2299.038 -890.493)" fill="#e28b6d"/><path d="M2347.5,1016.125s9,8.547,16.337,8.32l-2.118-10.06Z" transform="translate(-2311.342 -971.579)" fill="#ba5c36"/><path d="M2291.071,764.941a23.816,23.816,0,0,1,2.956-.052c18.167.621,32.084,16.254,31.2,34.412-.366,7.506-2.316,14.957-8.59,15.107l-15.883-4.992c1.5-5.618,2.616-11.444,1.437-18.531l7.375,3.517Z" transform="translate(-2264.593 -764.87)" fill="#ed7545"/><path d="M2169.152,882.4l-22.2.545-.608-1.879-2.233-6.862-6.462-19.85,22.2-.545Z" transform="translate(-2137.492 -838.554)" fill="#d3dfff"/><path d="M2180.026,958.832s-.037,6.136-2.478,9.24l-2.233-6.862Z" transform="translate(-2168.696 -925.557)" fill="#1f3c88" opacity="0.3"/><g transform="translate(0 24.706)"><path d="M2137.293,916.969a21.1,21.1,0,0,1,3.375-6.222c.446-.6,1.416-2.069,2.347-1.846,1.891.454,0,3.782,0,3.782s1.815-2.723,2.5-1.362a3.211,3.211,0,0,1-.3,2.874s2.874-1.891,1.815,1.891c0,0,2.344-.3.908,2.269-1.026,1.835-1.69,3.881-2.975,5.568a4.844,4.844,0,0,1-5.747,1.683c-2.376-1.138-2.68-4.177-2.387-6.49A12.646,12.646,0,0,1,2137.293,916.969Z" transform="translate(-2136.73 -908.878)" fill="#f9b384"/><path d="M2162.675,926.8a.231.231,0,0,1-.092-.02.226.226,0,0,1-.115-.3l2.155-4.879a.227.227,0,1,1,.414.184l-2.155,4.878A.227.227,0,0,1,2162.675,926.8Z" transform="translate(-2158.036 -919.308)" fill="#e28b6d"/><path d="M2175.57,939.849a.224.224,0,0,1-.1-.022.227.227,0,0,1-.11-.3l2.042-4.368a.227.227,0,1,1,.411.192l-2.042,4.368A.227.227,0,0,1,2175.57,939.849Z" transform="translate(-2168.719 -930.541)" fill="#e28b6d"/><path d="M2185.489,953.376a.227.227,0,0,1-.2-.333l1.759-3.347a.227.227,0,1,1,.4.211l-1.759,3.347A.227.227,0,0,1,2185.489,953.376Z" transform="translate(-2176.936 -942.594)" fill="#e28b6d"/></g><path d="M2184.425,852.215h-7.941l-1.361-2.723h7.941Z" transform="translate(-2168.536 -834.974)" fill="#102048"/><path d="M2270.218,807.933a6.955,6.955,0,0,1-3.926-1.183.34.34,0,0,1,.416-.539,6.529,6.529,0,0,0,7.332-.1.34.34,0,1,1,.351.583A7.991,7.991,0,0,1,2270.218,807.933Z" transform="translate(-2243.955 -798.997)" fill="#ba5c36"/><path d="M2345.859,933.337a.366.366,0,0,1-.1-.014.342.342,0,0,1-.23-.423c3.264-11.051,1.453-18.277,1.434-18.349l-.132-.508,14.055,2.356a.34.34,0,0,1-.112.671l-13.045-2.186c.349,1.848,1.278,8.642-1.547,18.21A.341.341,0,0,1,2345.859,933.337Z" transform="translate(-2309.699 -888.451)" fill="#ba5c36"/><path d="M2382.8,850.09h-.02a.34.34,0,0,1-.319-.36,26.54,26.54,0,0,0-4.707-14.916.34.34,0,1,1,.564-.381,27.237,27.237,0,0,1,4.822,15.339A.341.341,0,0,1,2382.8,850.09Z" transform="translate(-2336.359 -822.374)" fill="#ba5c36"/></g><g transform="translate(14.731 0)"><path d="M2279.908,716.586v8.759a4.925,4.925,0,1,1-9.843,0v-8.759Z" transform="translate(-2261.921 -698.972)" fill="#f9b384"/><path d="M2275.256,719.967s-.51,5.412-5.191,6.978v-7.688Z" transform="translate(-2261.921 -701.184)" fill="#102048"/><path d="M2247.294,642.3s-1.527,12.286,3.262,13.744,9.162-2.777,9.162-2.777l-.9-10.135-7.08-4.165Z" transform="translate(-2242.865 -634.668)" fill="#f9b384"/><path d="M2254.272,645.423l-9.448.626a11.143,11.143,0,0,1-2.314-5.255,6.569,6.569,0,0,0,.971,5.346l-2.559.173A21.692,21.692,0,0,1,2239,628.977l.263-1.516s-1.615-4.892-3.957-5.1c0,0-8.032,5.419-11.608-.626-2.668-4.5-.417-10.42,6-6.054,0,0,15.42-7.234,15.384,7.6a9.411,9.411,0,0,0,2.959,7.053,5.282,5.282,0,0,0,.535.463C2252.031,633.533,2255.76,639,2254.272,645.423Z" transform="translate(-2222.595 -613.916)" fill="#102048"/><ellipse cx="2.693" cy="2.304" rx="2.693" ry="2.304" transform="translate(13.858 15.47) rotate(-72.145)" fill="#f9b384"/><path d="M2318.189,688.041a.227.227,0,0,1-.227-.227,1.887,1.887,0,0,1,1.69-1.891h.011a.227.227,0,0,1,.011.453,1.421,1.421,0,0,0-1.259,1.437A.227.227,0,0,1,2318.189,688.041Z" transform="translate(-2301.601 -673.57)" fill="#102048"/><path d="M2252.746,682.962a.567.567,0,1,1-.567-.567A.567.567,0,0,1,2252.746,682.962Z" transform="translate(-2246.633 -670.647)" fill="#102048"/><path d="M2272.695,681.309a.567.567,0,1,1-.567-.567A.567.567,0,0,1,2272.695,681.309Z" transform="translate(-2263.16 -669.277)" fill="#102048"/><path d="M2259.388,691.283a.224.224,0,0,1-.158-.065,1.4,1.4,0,0,1-.561-1.272,1.178,1.178,0,0,1,.656-.737l-.051-1.121a.227.227,0,0,1,.217-.237.232.232,0,0,1,.236.217l.064,1.446-.16.056c-.125.044-.462.214-.521.479-.064.285.2.618.436.846a.227.227,0,0,1-.158.389Z" transform="translate(-2252.462 -675.167)" fill="#102048"/><path d="M2263.151,711.405a2.193,2.193,0,0,1-.324-.02.226.226,0,0,1-.187-.259.235.235,0,0,1,.258-.189,2.911,2.911,0,0,0,2.171-.713.227.227,0,0,1,.3.342A3.371,3.371,0,0,1,2263.151,711.405Z" transform="translate(-2255.767 -693.655)" fill="#102048"/><circle cx="1.489" cy="1.489" r="1.489" transform="translate(10.3 13.138)" fill="#eb5d60" opacity="0.4"/></g></g><rect width="484.329" height="0.907" transform="translate(97.863 520.943)" fill="#102048"/></g></g></svg>