<svg xmlns="http://www.w3.org/2000/svg" xmlns:xlink="http://www.w3.org/1999/xlink" width="642" height="108" viewBox="0 0 642 108"><defs><filter id="a" x="0" y="0" width="642" height="108" filterUnits="userSpaceOnUse"><feOffset dy="3" input="SourceAlpha"/><feGaussianBlur stdDeviation="3" result="b"/><feFlood flood-opacity="0.161"/><feComposite operator="in" in2="b"/><feComposite in="SourceGraphic"/></filter></defs><g transform="translate(-409 -8114)"><g transform="matrix(1, 0, 0, 1, 409, 8114)" filter="url(#a)"><rect width="624" height="90" rx="26" transform="translate(9 6)" fill="#fff"/></g><path d="M-256.322-2.933A3.4,3.4,0,0,1-257.4-.67a3.547,3.547,0,0,1-2.422.8,3.257,3.257,0,0,1-2.625-1.174,4.724,4.724,0,0,1-.987-3.142v-.889a5.266,5.266,0,0,1,.46-2.266,3.437,3.437,0,0,1,1.3-1.5,3.632,3.632,0,0,1,1.955-.524,3.34,3.34,0,0,1,2.361.822,3.441,3.441,0,0,1,1.035,2.276h-1.225a2.655,2.655,0,0,0-.689-1.6,2.084,2.084,0,0,0-1.482-.5,2.181,2.181,0,0,0-1.831.864,3.966,3.966,0,0,0-.663,2.459v.9a4.077,4.077,0,0,0,.628,2.4,2.031,2.031,0,0,0,1.758.889,2.345,2.345,0,0,0,1.558-.46,2.554,2.554,0,0,0,.72-1.6Zm1.168-.565a4.057,4.057,0,0,1,.4-1.815,2.959,2.959,0,0,1,1.1-1.244A3.007,3.007,0,0,1-252.037-7a2.9,2.9,0,0,1,2.269.971A3.736,3.736,0,0,1-248.9-3.44v.083a4.092,4.092,0,0,1-.384,1.8,2.916,2.916,0,0,1-1.1,1.241,3.041,3.041,0,0,1-1.641.444,2.889,2.889,0,0,1-2.263-.971,3.718,3.718,0,0,1-.866-2.571Zm1.181.14a2.938,2.938,0,0,0,.53,1.834,1.7,1.7,0,0,0,1.419.692,1.686,1.686,0,0,0,1.422-.7,3.213,3.213,0,0,0,.527-1.965,2.933,2.933,0,0,0-.536-1.831,1.705,1.705,0,0,0-1.425-.7,1.686,1.686,0,0,0-1.4.692A3.189,3.189,0,0,0-253.973-3.358Zm8.138-5.173v1.663h1.282v.908h-1.282V-1.7a.953.953,0,0,0,.171.62.721.721,0,0,0,.584.207,2.843,2.843,0,0,0,.559-.076V0a3.424,3.424,0,0,1-.9.126,1.462,1.462,0,0,1-1.187-.476,2.045,2.045,0,0,1-.4-1.352V-5.96h-1.25v-.908h1.25V-8.531ZM-241.906,0h-1.174V-6.868h1.174Zm-1.27-8.69A.7.7,0,0,1-243-9.172a.655.655,0,0,1,.517-.2.666.666,0,0,1,.521.2.694.694,0,0,1,.178.482.671.671,0,0,1-.178.476.678.678,0,0,1-.521.19.667.667,0,0,1-.517-.19A.678.678,0,0,1-243.176-8.69Zm4.253,7.731h4.018V0h-5.453V-.863l3.79-5.034H-240.3v-.971h5.205v.832Zm9.579.958a2.467,2.467,0,0,1-.165-.724,2.62,2.62,0,0,1-1.955.851,2.424,2.424,0,0,1-1.666-.574,1.859,1.859,0,0,1-.651-1.457,1.942,1.942,0,0,1,.816-1.666,3.846,3.846,0,0,1,2.295-.594h1.143V-4.7a1.319,1.319,0,0,0-.368-.981,1.48,1.48,0,0,0-1.085-.365,1.712,1.712,0,0,0-1.054.317.935.935,0,0,0-.425.768h-1.181a1.621,1.621,0,0,1,.365-.993,2.491,2.491,0,0,1,.99-.759A3.331,3.331,0,0,1-230.912-7a2.715,2.715,0,0,1,1.86.594,2.141,2.141,0,0,1,.7,1.635v3.161a3.865,3.865,0,0,0,.241,1.5V0Zm-1.949-.9a2.064,2.064,0,0,0,1.047-.286,1.728,1.728,0,0,0,.717-.743V-3.333h-.92q-2.158,0-2.158,1.263a1.069,1.069,0,0,0,.368.863A1.415,1.415,0,0,0-231.293-.9Zm7.535.063a1.692,1.692,0,0,0,1.1-.381,1.34,1.34,0,0,0,.521-.952h1.111a2.13,2.13,0,0,1-.406,1.124,2.676,2.676,0,0,1-1,.851,2.885,2.885,0,0,1-1.323.317,2.829,2.829,0,0,1-2.231-.936,3.729,3.729,0,0,1-.828-2.561v-.2a4.135,4.135,0,0,1,.368-1.784,2.8,2.8,0,0,1,1.057-1.212A3,3,0,0,1-223.764-7a2.755,2.755,0,0,1,1.92.692,2.473,2.473,0,0,1,.816,1.8h-1.111a1.618,1.618,0,0,0-.5-1.095,1.57,1.57,0,0,0-1.12-.428,1.644,1.644,0,0,0-1.387.644,3.026,3.026,0,0,0-.492,1.863V-3.3a2.965,2.965,0,0,0,.489,1.828A1.651,1.651,0,0,0-223.758-.832Zm5.326.832h-1.174V-6.868h1.174Zm-1.27-8.69a.7.7,0,0,1,.175-.482.655.655,0,0,1,.517-.2.666.666,0,0,1,.521.2.694.694,0,0,1,.178.482.671.671,0,0,1-.178.476.678.678,0,0,1-.521.19.667.667,0,0,1-.517-.19A.678.678,0,0,1-219.7-8.69Zm2.837,5.192a4.057,4.057,0,0,1,.4-1.815,2.959,2.959,0,0,1,1.1-1.244A3.007,3.007,0,0,1-213.748-7a2.9,2.9,0,0,1,2.269.971,3.736,3.736,0,0,1,.866,2.583v.083a4.092,4.092,0,0,1-.384,1.8,2.916,2.916,0,0,1-1.1,1.241,3.041,3.041,0,0,1-1.641.444A2.889,2.889,0,0,1-216-.844a3.718,3.718,0,0,1-.866-2.571Zm1.181.14a2.938,2.938,0,0,0,.53,1.834,1.7,1.7,0,0,0,1.419.692,1.686,1.686,0,0,0,1.422-.7,3.213,3.213,0,0,0,.527-1.965,2.933,2.933,0,0,0-.536-1.831,1.705,1.705,0,0,0-1.425-.7,1.686,1.686,0,0,0-1.4.692A3.189,3.189,0,0,0-215.684-3.358Zm2.469-6.392h1.422l-1.7,1.866-.946,0Zm5.186,2.882.038.863A2.5,2.5,0,0,1-205.934-7q2.177,0,2.2,2.457V0h-1.174V-4.545a1.581,1.581,0,0,0-.34-1.1A1.361,1.361,0,0,0-206.289-6a1.7,1.7,0,0,0-1,.3,2.069,2.069,0,0,0-.673.8V0h-1.174V-6.868Zm13.279,5.046a.865.865,0,0,0-.359-.74,3.452,3.452,0,0,0-1.25-.454,5.912,5.912,0,0,1-1.416-.457,2.014,2.014,0,0,1-.774-.635,1.518,1.518,0,0,1-.251-.876,1.782,1.782,0,0,1,.714-1.428A2.789,2.789,0,0,1-196.26-7a2.87,2.87,0,0,1,1.895.6,1.915,1.915,0,0,1,.727,1.542h-1.181a1.06,1.06,0,0,0-.409-.832,1.534,1.534,0,0,0-1.031-.349,1.605,1.605,0,0,0-1,.279.879.879,0,0,0-.362.73.712.712,0,0,0,.336.641,4.139,4.139,0,0,0,1.216.413,6.334,6.334,0,0,1,1.425.47,2.079,2.079,0,0,1,.809.657,1.615,1.615,0,0,1,.263.936,1.758,1.758,0,0,1-.736,1.476,3.089,3.089,0,0,1-1.911.555,3.459,3.459,0,0,1-1.46-.292,2.375,2.375,0,0,1-.993-.816,1.966,1.966,0,0,1-.359-1.133h1.174a1.216,1.216,0,0,0,.473.936,1.835,1.835,0,0,0,1.165.346,1.894,1.894,0,0,0,1.07-.27A.829.829,0,0,0-194.749-1.822ZM-189.2.127a3,3,0,0,1-2.272-.917,3.4,3.4,0,0,1-.876-2.453v-.216a4.121,4.121,0,0,1,.39-1.825,3.045,3.045,0,0,1,1.092-1.257A2.745,2.745,0,0,1-189.341-7a2.572,2.572,0,0,1,2.082.882,3.82,3.82,0,0,1,.743,2.526V-3.1h-4.653a2.441,2.441,0,0,0,.594,1.641,1.866,1.866,0,0,0,1.444.625,2.045,2.045,0,0,0,1.054-.254,2.647,2.647,0,0,0,.755-.673l.717.559A2.884,2.884,0,0,1-189.2.127Zm-.146-6.157a1.566,1.566,0,0,0-1.193.517,2.515,2.515,0,0,0-.6,1.45h3.44v-.089a2.237,2.237,0,0,0-.482-1.387A1.475,1.475,0,0,0-189.341-6.03Zm3.9,2.539a4.037,4.037,0,0,1,.743-2.555A2.375,2.375,0,0,1-182.727-7a2.363,2.363,0,0,1,1.961.889l.057-.762h1.073v6.7a2.794,2.794,0,0,1-.79,2.1,2.916,2.916,0,0,1-2.123.768A3.532,3.532,0,0,1-184,2.387a2.5,2.5,0,0,1-1.085-.87l.609-.7a2.3,2.3,0,0,0,1.847.933,1.8,1.8,0,0,0,1.336-.482A1.844,1.844,0,0,0-180.816-.1v-.59a2.414,2.414,0,0,1-1.923.813,2.346,2.346,0,0,1-1.952-.971A4.244,4.244,0,0,1-185.437-3.491Zm1.181.133a3.08,3.08,0,0,0,.476,1.825,1.547,1.547,0,0,0,1.333.663,1.72,1.72,0,0,0,1.631-1.009V-5.015A1.74,1.74,0,0,0-182.435-6a1.561,1.561,0,0,0-1.339.667A3.354,3.354,0,0,0-184.257-3.358Zm10.632,2.679a2.494,2.494,0,0,1-2.012.806,2.135,2.135,0,0,1-1.673-.638A2.761,2.761,0,0,1-177.89-2.4V-6.868h1.174v4.437q0,1.562,1.27,1.562a1.758,1.758,0,0,0,1.79-1v-5h1.174V0H-173.6Zm6.246-5.135a3.519,3.519,0,0,0-.578-.044,1.547,1.547,0,0,0-1.568.984V0H-170.7V-6.868h1.143l.019.793A1.829,1.829,0,0,1-167.9-7a1.2,1.2,0,0,1,.521.089ZM-165.023,0H-166.2V-6.868h1.174Zm-1.27-8.69a.7.7,0,0,1,.175-.482.655.655,0,0,1,.517-.2.666.666,0,0,1,.521.2.694.694,0,0,1,.178.482.671.671,0,0,1-.178.476.678.678,0,0,1-.521.19.667.667,0,0,1-.517-.19A.678.678,0,0,1-166.293-8.69Zm2.863,5.2a4.023,4.023,0,0,1,.749-2.542A2.369,2.369,0,0,1-160.719-7a2.382,2.382,0,0,1,1.911.825V-9.75h1.174V0h-1.079l-.057-.736a2.391,2.391,0,0,1-1.961.863,2.346,2.346,0,0,1-1.946-.978A4.069,4.069,0,0,1-163.43-3.4Zm1.174.133a3.046,3.046,0,0,0,.482,1.828,1.56,1.56,0,0,0,1.333.66,1.713,1.713,0,0,0,1.631-1V-5.027A1.726,1.726,0,0,0-160.427-6a1.567,1.567,0,0,0-1.346.667A3.354,3.354,0,0,0-162.256-3.358ZM-151.573,0a2.467,2.467,0,0,1-.165-.724,2.62,2.62,0,0,1-1.955.851,2.424,2.424,0,0,1-1.666-.574A1.859,1.859,0,0,1-156.01-1.9a1.942,1.942,0,0,1,.816-1.666,3.846,3.846,0,0,1,2.295-.594h1.143V-4.7a1.319,1.319,0,0,0-.368-.981,1.48,1.48,0,0,0-1.085-.365,1.712,1.712,0,0,0-1.054.317.935.935,0,0,0-.425.768h-1.181a1.621,1.621,0,0,1,.365-.993,2.491,2.491,0,0,1,.99-.759A3.331,3.331,0,0,1-153.14-7a2.715,2.715,0,0,1,1.86.594,2.141,2.141,0,0,1,.7,1.635v3.161a3.865,3.865,0,0,0,.241,1.5V0Zm-1.949-.9a2.064,2.064,0,0,0,1.047-.286,1.728,1.728,0,0,0,.717-.743V-3.333h-.92q-2.158,0-2.158,1.263a1.069,1.069,0,0,0,.368.863A1.415,1.415,0,0,0-153.521-.9Zm4.494-2.6a4.023,4.023,0,0,1,.749-2.542A2.369,2.369,0,0,1-146.317-7a2.382,2.382,0,0,1,1.911.825V-9.75h1.174V0h-1.079l-.057-.736a2.391,2.391,0,0,1-1.961.863,2.346,2.346,0,0,1-1.946-.978,4.069,4.069,0,0,1-.752-2.552Zm1.174.133a3.046,3.046,0,0,0,.482,1.828,1.56,1.56,0,0,0,1.333.66,1.713,1.713,0,0,0,1.631-1V-5.027A1.726,1.726,0,0,0-146.025-6a1.567,1.567,0,0,0-1.346.667A3.354,3.354,0,0,0-147.853-3.358Zm13.66,1.536a.865.865,0,0,0-.359-.74,3.452,3.452,0,0,0-1.25-.454,5.912,5.912,0,0,1-1.416-.457,2.014,2.014,0,0,1-.774-.635,1.518,1.518,0,0,1-.251-.876,1.782,1.782,0,0,1,.714-1.428A2.789,2.789,0,0,1-135.7-7a2.87,2.87,0,0,1,1.895.6,1.915,1.915,0,0,1,.727,1.542h-1.181a1.06,1.06,0,0,0-.409-.832A1.534,1.534,0,0,0-135.7-6.03a1.605,1.605,0,0,0-1,.279.879.879,0,0,0-.362.73.712.712,0,0,0,.336.641,4.139,4.139,0,0,0,1.216.413,6.334,6.334,0,0,1,1.425.47,2.079,2.079,0,0,1,.809.657,1.615,1.615,0,0,1,.263.936,1.758,1.758,0,0,1-.736,1.476,3.089,3.089,0,0,1-1.911.555,3.459,3.459,0,0,1-1.46-.292,2.375,2.375,0,0,1-.993-.816,1.966,1.966,0,0,1-.359-1.133h1.174a1.216,1.216,0,0,0,.473.936,1.835,1.835,0,0,0,1.165.346,1.894,1.894,0,0,0,1.07-.27A.829.829,0,0,0-134.193-1.822ZM-131.8-3.5a4.057,4.057,0,0,1,.4-1.815,2.959,2.959,0,0,1,1.1-1.244A3.007,3.007,0,0,1-128.683-7a2.9,2.9,0,0,1,2.269.971,3.736,3.736,0,0,1,.866,2.583v.083a4.092,4.092,0,0,1-.384,1.8,2.916,2.916,0,0,1-1.1,1.241,3.041,3.041,0,0,1-1.641.444,2.889,2.889,0,0,1-2.263-.971,3.718,3.718,0,0,1-.866-2.571Zm1.181.14a2.938,2.938,0,0,0,.53,1.834,1.7,1.7,0,0,0,1.419.692,1.686,1.686,0,0,0,1.422-.7,3.213,3.213,0,0,0,.527-1.965,2.933,2.933,0,0,0-.536-1.831,1.705,1.705,0,0,0-1.425-.7,1.686,1.686,0,0,0-1.4.692A3.189,3.189,0,0,0-130.619-3.358Zm9.3,2.526a1.691,1.691,0,0,0,1.1-.381,1.34,1.34,0,0,0,.521-.952h1.111A2.13,2.13,0,0,1-119-1.041a2.676,2.676,0,0,1-1,.851,2.885,2.885,0,0,1-1.323.317,2.829,2.829,0,0,1-2.231-.936,3.729,3.729,0,0,1-.828-2.561v-.2a4.135,4.135,0,0,1,.368-1.784,2.8,2.8,0,0,1,1.057-1.212A3,3,0,0,1-121.326-7a2.755,2.755,0,0,1,1.92.692,2.473,2.473,0,0,1,.816,1.8H-119.7a1.618,1.618,0,0,0-.5-1.095,1.57,1.57,0,0,0-1.12-.428,1.644,1.644,0,0,0-1.387.644,3.026,3.026,0,0,0-.492,1.863V-3.3a2.966,2.966,0,0,0,.489,1.828A1.651,1.651,0,0,0-121.32-.832Zm5.326.832h-1.174V-6.868h1.174Zm-1.27-8.69a.7.7,0,0,1,.175-.482.655.655,0,0,1,.517-.2.666.666,0,0,1,.521.2.694.694,0,0,1,.178.482.671.671,0,0,1-.178.476.678.678,0,0,1-.521.19.667.667,0,0,1-.517-.19A.678.678,0,0,1-117.263-8.69ZM-109.875,0a2.467,2.467,0,0,1-.165-.724,2.62,2.62,0,0,1-1.955.851,2.424,2.424,0,0,1-1.666-.574,1.859,1.859,0,0,1-.651-1.457,1.942,1.942,0,0,1,.816-1.666,3.846,3.846,0,0,1,2.295-.594h1.143V-4.7a1.319,1.319,0,0,0-.368-.981,1.48,1.48,0,0,0-1.085-.365,1.712,1.712,0,0,0-1.054.317.935.935,0,0,0-.425.768h-1.181a1.621,1.621,0,0,1,.365-.993,2.491,2.491,0,0,1,.99-.759A3.331,3.331,0,0,1-111.443-7a2.715,2.715,0,0,1,1.86.594,2.141,2.141,0,0,1,.7,1.635v3.161a3.865,3.865,0,0,0,.241,1.5V0Zm-1.949-.9a2.064,2.064,0,0,0,1.047-.286,1.728,1.728,0,0,0,.717-.743V-3.333h-.92q-2.158,0-2.158,1.263a1.069,1.069,0,0,0,.368.863A1.415,1.415,0,0,0-111.823-.9Zm6.056.9h-1.174V-9.75h1.174Zm7.249-5.167h-5.294V-6.189h5.294Zm0,2.634h-5.294V-3.548h5.294Zm4.938-1.219A9.814,9.814,0,0,1-93.2-6.506a8,8,0,0,1,1.146-2.4,4.874,4.874,0,0,1,1.581-1.523l.241.774a5.056,5.056,0,0,0-1.52,2.171A9.411,9.411,0,0,0-92.4-4.215l-.006.54a9.46,9.46,0,0,0,.9,4.253,5.079,5.079,0,0,0,1.282,1.688l-.241.717a5.031,5.031,0,0,1-1.612-1.574A8.823,8.823,0,0,1-93.58-3.751Zm4.443,0a9.814,9.814,0,0,1,.384-2.755,8,8,0,0,1,1.146-2.4,4.874,4.874,0,0,1,1.581-1.523l.241.774a5.056,5.056,0,0,0-1.52,2.171,9.411,9.411,0,0,0-.651,3.269l-.006.54a9.46,9.46,0,0,0,.9,4.253,5.079,5.079,0,0,0,1.282,1.688l-.241.717a5.031,5.031,0,0,1-1.612-1.574A8.823,8.823,0,0,1-89.137-3.751Zm11.058-4.494H-81.05V0h-1.212V-8.246h-2.964v-1h7.147ZM-73.369,0a2.467,2.467,0,0,1-.165-.724A2.62,2.62,0,0,1-75.49.127a2.424,2.424,0,0,1-1.666-.574A1.859,1.859,0,0,1-77.806-1.9a1.942,1.942,0,0,1,.816-1.666A3.846,3.846,0,0,1-74.7-4.164h1.143V-4.7a1.319,1.319,0,0,0-.368-.981,1.48,1.48,0,0,0-1.085-.365,1.712,1.712,0,0,0-1.054.317.935.935,0,0,0-.425.768h-1.181a1.621,1.621,0,0,1,.365-.993,2.491,2.491,0,0,1,.99-.759A3.331,3.331,0,0,1-74.937-7a2.715,2.715,0,0,1,1.86.594,2.141,2.141,0,0,1,.7,1.635v3.161a3.865,3.865,0,0,0,.241,1.5V0Zm-1.949-.9a2.064,2.064,0,0,0,1.047-.286,1.728,1.728,0,0,0,.717-.743V-3.333h-.92q-2.158,0-2.158,1.263a1.069,1.069,0,0,0,.368.863A1.415,1.415,0,0,0-75.318-.9Zm8.1-4.919a3.519,3.519,0,0,0-.578-.044,1.547,1.547,0,0,0-1.568.984V0h-1.174V-6.868H-69.4l.019.793A1.829,1.829,0,0,1-67.739-7a1.2,1.2,0,0,1,.521.089ZM-64.864,0h-1.174V-6.868h1.174Zm-1.27-8.69a.7.7,0,0,1,.175-.482.655.655,0,0,1,.517-.2.666.666,0,0,1,.521.2.694.694,0,0,1,.178.482.671.671,0,0,1-.178.476.678.678,0,0,1-.521.19.667.667,0,0,1-.517-.19A.678.678,0,0,1-66.133-8.69ZM-62.407,0V-5.96h-1.085v-.908h1.085v-.7a2.339,2.339,0,0,1,.59-1.708,2.23,2.23,0,0,1,1.669-.6,3.1,3.1,0,0,1,.806.107l-.063.946a3.373,3.373,0,0,0-.635-.057,1.146,1.146,0,0,0-.882.334,1.356,1.356,0,0,0-.311.958v.726h1.466v.908h-1.466V0Zm8.176,0A2.467,2.467,0,0,1-54.4-.724a2.62,2.62,0,0,1-1.955.851,2.424,2.424,0,0,1-1.666-.574A1.859,1.859,0,0,1-58.668-1.9a1.942,1.942,0,0,1,.816-1.666,3.846,3.846,0,0,1,2.295-.594h1.143V-4.7a1.319,1.319,0,0,0-.368-.981,1.48,1.48,0,0,0-1.085-.365,1.712,1.712,0,0,0-1.054.317.935.935,0,0,0-.425.768h-1.181a1.621,1.621,0,0,1,.365-.993,2.491,2.491,0,0,1,.99-.759A3.331,3.331,0,0,1-55.8-7a2.715,2.715,0,0,1,1.86.594,2.141,2.141,0,0,1,.7,1.635v3.161A3.865,3.865,0,0,0-53-.1V0ZM-56.18-.9a2.064,2.064,0,0,0,1.047-.286,1.728,1.728,0,0,0,.717-.743V-3.333h-.92q-2.158,0-2.158,1.263a1.069,1.069,0,0,0,.368.863A1.415,1.415,0,0,0-56.18-.9Zm13.8-2.463A4.113,4.113,0,0,1-43.1-.832,2.3,2.3,0,0,1-45.04.127a2.519,2.519,0,0,1-1.968-.793V2.641h-1.174V-6.868h1.073l.057.762A2.419,2.419,0,0,1-45.059-7a2.342,2.342,0,0,1,1.958.933,4.157,4.157,0,0,1,.72,2.6Zm-1.174-.133a3.035,3.035,0,0,0-.5-1.834A1.6,1.6,0,0,0-45.408-6a1.726,1.726,0,0,0-1.6.946v3.282A1.73,1.73,0,0,0-45.4-.832a1.587,1.587,0,0,0,1.343-.67A3.312,3.312,0,0,0-43.554-3.491ZM-41.2-3.5a4.057,4.057,0,0,1,.4-1.815,2.96,2.96,0,0,1,1.1-1.244A3.007,3.007,0,0,1-38.083-7a2.9,2.9,0,0,1,2.269.971,3.736,3.736,0,0,1,.866,2.583v.083a4.092,4.092,0,0,1-.384,1.8,2.916,2.916,0,0,1-1.1,1.241A3.041,3.041,0,0,1-38.07.127a2.889,2.889,0,0,1-2.263-.971A3.718,3.718,0,0,1-41.2-3.415Zm1.181.14a2.938,2.938,0,0,0,.53,1.834,1.7,1.7,0,0,0,1.419.692,1.686,1.686,0,0,0,1.422-.7A3.213,3.213,0,0,0-36.121-3.5a2.933,2.933,0,0,0-.536-1.831,1.705,1.705,0,0,0-1.425-.7,1.686,1.686,0,0,0-1.4.692A3.189,3.189,0,0,0-40.019-3.358Zm8.138-5.173v1.663H-30.6v.908h-1.282V-1.7a.953.953,0,0,0,.171.62.721.721,0,0,0,.584.207,2.843,2.843,0,0,0,.559-.076V0a3.424,3.424,0,0,1-.9.126,1.462,1.462,0,0,1-1.187-.476,2.045,2.045,0,0,1-.4-1.352V-5.96h-1.25v-.908h1.25V-8.531Zm5.5,8.658A3,3,0,0,1-28.65-.79a3.4,3.4,0,0,1-.876-2.453v-.216a4.121,4.121,0,0,1,.39-1.825,3.045,3.045,0,0,1,1.092-1.257A2.745,2.745,0,0,1-26.524-7a2.572,2.572,0,0,1,2.082.882A3.82,3.82,0,0,1-23.7-3.586V-3.1h-4.653a2.441,2.441,0,0,0,.594,1.641,1.866,1.866,0,0,0,1.444.625,2.045,2.045,0,0,0,1.054-.254,2.648,2.648,0,0,0,.755-.673l.717.559A2.884,2.884,0,0,1-26.378.127Zm-.146-6.157a1.566,1.566,0,0,0-1.193.517,2.515,2.515,0,0,0-.6,1.45h3.44v-.089a2.237,2.237,0,0,0-.482-1.387A1.475,1.475,0,0,0-26.524-6.03Zm5.294-.838.038.863A2.5,2.5,0,0,1-19.135-7q2.177,0,2.2,2.457V0h-1.174V-4.545a1.581,1.581,0,0,0-.34-1.1A1.361,1.361,0,0,0-19.49-6a1.7,1.7,0,0,0-1,.3,2.069,2.069,0,0,0-.673.8V0h-1.174V-6.868Zm8.817,6.037a1.692,1.692,0,0,0,1.1-.381,1.34,1.34,0,0,0,.521-.952h1.111a2.13,2.13,0,0,1-.406,1.124,2.676,2.676,0,0,1-1,.851,2.885,2.885,0,0,1-1.323.317,2.829,2.829,0,0,1-2.231-.936,3.729,3.729,0,0,1-.828-2.561v-.2A4.135,4.135,0,0,1-15.1-5.351a2.8,2.8,0,0,1,1.057-1.212A3,3,0,0,1-12.419-7,2.755,2.755,0,0,1-10.5-6.3a2.473,2.473,0,0,1,.816,1.8h-1.111A1.618,1.618,0,0,0-11.3-5.6a1.57,1.57,0,0,0-1.12-.428,1.644,1.644,0,0,0-1.387.644A3.026,3.026,0,0,0-14.3-3.523V-3.3a2.965,2.965,0,0,0,.489,1.828A1.651,1.651,0,0,0-12.413-.832ZM-7.087,0H-8.261V-6.868h1.174Zm-1.27-8.69a.7.7,0,0,1,.175-.482.655.655,0,0,1,.517-.2.666.666,0,0,1,.521.2.694.694,0,0,1,.178.482.671.671,0,0,1-.178.476.678.678,0,0,1-.521.19.667.667,0,0,1-.517-.19A.678.678,0,0,1-8.357-8.69ZM-.968,0a2.467,2.467,0,0,1-.165-.724A2.62,2.62,0,0,1-3.088.127,2.424,2.424,0,0,1-4.754-.448,1.859,1.859,0,0,1-5.405-1.9a1.942,1.942,0,0,1,.816-1.666,3.846,3.846,0,0,1,2.295-.594h1.143V-4.7a1.319,1.319,0,0,0-.368-.981,1.48,1.48,0,0,0-1.085-.365,1.712,1.712,0,0,0-1.054.317.935.935,0,0,0-.425.768H-5.265A1.621,1.621,0,0,1-4.9-5.957a2.491,2.491,0,0,1,.99-.759A3.331,3.331,0,0,1-2.536-7,2.715,2.715,0,0,1-.676-6.4a2.141,2.141,0,0,1,.7,1.635v3.161A3.865,3.865,0,0,0,.263-.1V0ZM-2.917-.9a2.064,2.064,0,0,0,1.047-.286,1.728,1.728,0,0,0,.717-.743V-3.333h-.92q-2.158,0-2.158,1.263a1.069,1.069,0,0,0,.368.863A1.415,1.415,0,0,0-2.917-.9ZM3.139,0H1.965V-9.75H3.139ZM11.6-4.958h2.577v1.111H11.6v2.92H10.42v-2.92H7.843V-4.958H10.42v-2.7H11.6ZM20.1,0H18.926V-6.868H20.1ZM18.83-8.69A.7.7,0,0,1,19-9.172a.655.655,0,0,1,.517-.2.666.666,0,0,1,.521.2.694.694,0,0,1,.178.482.671.671,0,0,1-.178.476.678.678,0,0,1-.521.19A.667.667,0,0,1,19-8.214.678.678,0,0,1,18.83-8.69Zm4.253,1.822.032.762A2.536,2.536,0,0,1,25.153-7a1.964,1.964,0,0,1,1.961,1.1,2.6,2.6,0,0,1,.892-.8A2.634,2.634,0,0,1,29.3-7q2.26,0,2.3,2.393V0H30.427V-4.532a1.577,1.577,0,0,0-.336-1.1A1.482,1.482,0,0,0,28.961-6a1.557,1.557,0,0,0-1.085.39,1.584,1.584,0,0,0-.5,1.051V0H26.194V-4.5A1.31,1.31,0,0,0,24.727-6a1.571,1.571,0,0,0-1.581.984V0H21.972V-6.868Zm16.091,3.51a4.113,4.113,0,0,1-.717,2.526,2.3,2.3,0,0,1-1.942.958,2.519,2.519,0,0,1-1.968-.793V2.641H33.373V-6.868h1.073l.057.762A2.419,2.419,0,0,1,36.5-7a2.342,2.342,0,0,1,1.958.933,4.157,4.157,0,0,1,.72,2.6ZM38-3.491a3.035,3.035,0,0,0-.5-1.834A1.6,1.6,0,0,0,36.147-6a1.726,1.726,0,0,0-1.6.946v3.282a1.73,1.73,0,0,0,1.612.939A1.587,1.587,0,0,0,37.5-1.5,3.312,3.312,0,0,0,38-3.491Zm5.986-2.323a3.519,3.519,0,0,0-.578-.044,1.547,1.547,0,0,0-1.568.984V0H40.666V-6.868h1.143l.019.793A1.829,1.829,0,0,1,43.466-7a1.2,1.2,0,0,1,.521.089ZM47.915.127A3,3,0,0,1,45.643-.79a3.4,3.4,0,0,1-.876-2.453v-.216a4.121,4.121,0,0,1,.39-1.825,3.045,3.045,0,0,1,1.092-1.257A2.745,2.745,0,0,1,47.769-7a2.572,2.572,0,0,1,2.082.882,3.82,3.82,0,0,1,.743,2.526V-3.1H45.941a2.441,2.441,0,0,0,.594,1.641,1.866,1.866,0,0,0,1.444.625,2.045,2.045,0,0,0,1.054-.254,2.648,2.648,0,0,0,.755-.673l.717.559A2.884,2.884,0,0,1,47.915.127ZM47.769-6.03a1.566,1.566,0,0,0-1.193.517,2.515,2.515,0,0,0-.6,1.45h3.44v-.089a2.237,2.237,0,0,0-.482-1.387A1.475,1.475,0,0,0,47.769-6.03Zm6.367,4.437,1.7-5.275h1.2L54.574,0h-.9L51.191-6.868h1.2ZM59.443,0H58.268V-6.868h1.174Zm-1.27-8.69a.7.7,0,0,1,.175-.482.655.655,0,0,1,.517-.2.666.666,0,0,1,.521.2.694.694,0,0,1,.178.482.671.671,0,0,1-.178.476.678.678,0,0,1-.521.19.667.667,0,0,1-.517-.19A.678.678,0,0,1,58.173-8.69Zm7.147,6.868a.864.864,0,0,0-.359-.74,3.452,3.452,0,0,0-1.25-.454A5.912,5.912,0,0,1,62.3-3.472a2.014,2.014,0,0,1-.774-.635,1.518,1.518,0,0,1-.251-.876,1.782,1.782,0,0,1,.714-1.428A2.789,2.789,0,0,1,63.81-7a2.87,2.87,0,0,1,1.895.6,1.915,1.915,0,0,1,.727,1.542H65.251a1.06,1.06,0,0,0-.409-.832A1.534,1.534,0,0,0,63.81-6.03a1.605,1.605,0,0,0-1,.279.879.879,0,0,0-.362.73.712.712,0,0,0,.336.641A4.139,4.139,0,0,0,64-3.967a6.334,6.334,0,0,1,1.425.47,2.079,2.079,0,0,1,.809.657,1.615,1.615,0,0,1,.263.936,1.758,1.758,0,0,1-.736,1.476,3.089,3.089,0,0,1-1.911.555,3.459,3.459,0,0,1-1.46-.292,2.375,2.375,0,0,1-.993-.816,1.966,1.966,0,0,1-.359-1.133H62.21a1.216,1.216,0,0,0,.473.936,1.835,1.835,0,0,0,1.165.346,1.894,1.894,0,0,0,1.07-.27A.829.829,0,0,0,65.321-1.822Zm4.3-6.709v1.663H70.9v.908H69.618V-1.7a.953.953,0,0,0,.171.62.721.721,0,0,0,.584.207,2.843,2.843,0,0,0,.559-.076V0a3.424,3.424,0,0,1-.9.126,1.462,1.462,0,0,1-1.187-.476,2.045,2.045,0,0,1-.4-1.352V-5.96h-1.25v-.908h1.25V-8.531ZM71.833-3.5a4.057,4.057,0,0,1,.4-1.815,2.96,2.96,0,0,1,1.1-1.244A3.007,3.007,0,0,1,74.95-7a2.9,2.9,0,0,1,2.269.971,3.736,3.736,0,0,1,.866,2.583v.083a4.092,4.092,0,0,1-.384,1.8A2.916,2.916,0,0,1,76.6-.317a3.041,3.041,0,0,1-1.641.444A2.889,2.889,0,0,1,72.7-.844a3.718,3.718,0,0,1-.866-2.571Zm1.181.14a2.938,2.938,0,0,0,.53,1.834,1.7,1.7,0,0,0,1.419.692,1.686,1.686,0,0,0,1.422-.7A3.213,3.213,0,0,0,76.911-3.5a2.933,2.933,0,0,0-.536-1.831,1.705,1.705,0,0,0-1.425-.7,1.686,1.686,0,0,0-1.4.692A3.189,3.189,0,0,0,73.014-3.358ZM83.557-1.822a.864.864,0,0,0-.359-.74,3.452,3.452,0,0,0-1.25-.454,5.912,5.912,0,0,1-1.416-.457,2.014,2.014,0,0,1-.774-.635,1.518,1.518,0,0,1-.251-.876,1.782,1.782,0,0,1,.714-1.428A2.789,2.789,0,0,1,82.047-7a2.87,2.87,0,0,1,1.895.6,1.915,1.915,0,0,1,.727,1.542H83.488a1.06,1.06,0,0,0-.409-.832,1.534,1.534,0,0,0-1.031-.349,1.606,1.606,0,0,0-1,.279.879.879,0,0,0-.362.73.712.712,0,0,0,.336.641,4.139,4.139,0,0,0,1.216.413,6.334,6.334,0,0,1,1.425.47,2.079,2.079,0,0,1,.809.657,1.615,1.615,0,0,1,.263.936A1.758,1.758,0,0,1,84-.428a3.089,3.089,0,0,1-1.911.555,3.459,3.459,0,0,1-1.46-.292,2.375,2.375,0,0,1-.993-.816,1.966,1.966,0,0,1-.359-1.133h1.174a1.216,1.216,0,0,0,.473.936,1.835,1.835,0,0,0,1.165.346,1.894,1.894,0,0,0,1.07-.27A.829.829,0,0,0,83.557-1.822Zm5.415-1.866A9.819,9.819,0,0,1,88.6-.974a8.024,8.024,0,0,1-1.136,2.4,4.978,4.978,0,0,1-1.6,1.562l-.248-.717A5.1,5.1,0,0,0,87.185-.06a10.065,10.065,0,0,0,.606-3.5v-.2a10.45,10.45,0,0,0-.279-2.479A8.366,8.366,0,0,0,86.734-8.3a4.743,4.743,0,0,0-1.12-1.416l.248-.717a4.959,4.959,0,0,1,1.6,1.549,8.041,8.041,0,0,1,1.136,2.393A10.045,10.045,0,0,1,88.972-3.688Zm6.233-2.555-1.917-.571.292-.958,1.917.71L95.44-9.242h.971l-.063,2.213,1.885-.7.292.964-1.949.577,1.257,1.72-.787.6L95.865-5.7,94.723-3.913l-.793-.578ZM104.435-3.1h1.282v.958h-1.282V0h-1.181V-2.146H99.046v-.692l4.139-6.4h1.25Zm-4.056,0h2.875V-7.636l-.14.254Zm12.194-.838a5.371,5.371,0,0,1-.7,3.066,2.506,2.506,0,0,1-2.2,1,2.524,2.524,0,0,1-2.19-.981,5.1,5.1,0,0,1-.736-2.929V-5.351a5.251,5.251,0,0,1,.7-3.028,2.525,2.525,0,0,1,2.209-.99,2.548,2.548,0,0,1,2.2.955,5.068,5.068,0,0,1,.724,2.948ZM111.4-5.548a4.3,4.3,0,0,0-.419-2.174,1.442,1.442,0,0,0-1.327-.682,1.423,1.423,0,0,0-1.314.679,4.2,4.2,0,0,0-.425,2.088v1.879a4.372,4.372,0,0,0,.435,2.212,1.439,1.439,0,0,0,1.317.714,1.42,1.42,0,0,0,1.292-.673,4.214,4.214,0,0,0,.441-2.12Zm2.577-1.917a1.875,1.875,0,0,1,.53-1.371,1.826,1.826,0,0,1,1.362-.54,1.815,1.815,0,0,1,1.368.543,1.94,1.94,0,0,1,.524,1.406v.451a1.851,1.851,0,0,1-.53,1.368,1.827,1.827,0,0,1-1.349.53,1.867,1.867,0,0,1-1.365-.53,1.89,1.89,0,0,1-.54-1.412Zm.876.486a1.2,1.2,0,0,0,.279.818.942.942,0,0,0,.749.321.924.924,0,0,0,.727-.312A1.24,1.24,0,0,0,116.883-7v-.464a1.231,1.231,0,0,0-.273-.821.919.919,0,0,0-.743-.324.919.919,0,0,0-.743.324,1.27,1.27,0,0,0-.273.846Zm3.625,4.713a1.865,1.865,0,0,1,.53-1.368,1.832,1.832,0,0,1,1.362-.536,1.848,1.848,0,0,1,1.365.533,1.913,1.913,0,0,1,.533,1.416v.451a1.865,1.865,0,0,1-.53,1.368,1.824,1.824,0,0,1-1.355.536,1.867,1.867,0,0,1-1.365-.53,1.89,1.89,0,0,1-.54-1.412Zm.876.493a1.21,1.21,0,0,0,.279.824.942.942,0,0,0,.749.321.917.917,0,0,0,.73-.315,1.262,1.262,0,0,0,.273-.856V-2.27a1.207,1.207,0,0,0-.276-.821.93.93,0,0,0-.74-.318.939.939,0,0,0-.733.315,1.225,1.225,0,0,0-.282.849ZM116.146-.7l-.667-.419,4.513-7.224.667.419Zm10.283-2.99a9.819,9.819,0,0,1-.371,2.714,8.024,8.024,0,0,1-1.136,2.4,4.978,4.978,0,0,1-1.6,1.562l-.248-.717A5.1,5.1,0,0,0,124.643-.06a10.065,10.065,0,0,0,.606-3.5v-.2a10.45,10.45,0,0,0-.279-2.479,8.366,8.366,0,0,0-.778-2.053,4.743,4.743,0,0,0-1.12-1.416l.248-.717a4.959,4.959,0,0,1,1.6,1.549,8.041,8.041,0,0,1,1.136,2.393A10.045,10.045,0,0,1,126.429-3.688Zm6.233-2.555-1.917-.571.292-.958,1.917.71L132.9-9.242h.971l-.063,2.213,1.885-.7.292.964-1.949.577,1.257,1.72-.787.6L133.323-5.7,132.18-3.913l-.793-.578Zm7.566,2.491a9.814,9.814,0,0,1,.384-2.755,8,8,0,0,1,1.146-2.4,4.874,4.874,0,0,1,1.581-1.523l.241.774a5.056,5.056,0,0,0-1.52,2.171,9.411,9.411,0,0,0-.651,3.269l-.006.54a9.46,9.46,0,0,0,.9,4.253,5.079,5.079,0,0,0,1.282,1.688l-.241.717a5.031,5.031,0,0,1-1.612-1.574A8.823,8.823,0,0,1,140.229-3.751ZM148.456,0h-1.181V-7.827l-2.368.87V-8.023l3.364-1.263h.184Zm9.5,0H151.9V-.844L155.1-4.4a7.6,7.6,0,0,0,.981-1.311,2.188,2.188,0,0,0,.27-1.044,1.658,1.658,0,0,0-.438-1.187A1.531,1.531,0,0,0,154.74-8.4a1.814,1.814,0,0,0-1.362.5,1.9,1.9,0,0,0-.486,1.387h-1.174a2.726,2.726,0,0,1,.822-2.063,3.047,3.047,0,0,1,2.2-.787,2.928,2.928,0,0,1,2.038.676,2.306,2.306,0,0,1,.749,1.8,5.287,5.287,0,0,1-1.739,3.25L153.312-.958h4.64Zm1.39-.616a.735.735,0,0,1,.181-.508.689.689,0,0,1,.543-.2.71.71,0,0,1,.549.2.721.721,0,0,1,.187.508.682.682,0,0,1-.187.489.723.723,0,0,1-.549.2.7.7,0,0,1-.543-.2A.7.7,0,0,1,159.342-.616Zm3.815-4.018.47-4.608h4.735v1.085h-3.739l-.279,2.52a2.983,2.983,0,0,1,1.542-.4,2.55,2.55,0,0,1,2.006.835,3.271,3.271,0,0,1,.743,2.257,3.158,3.158,0,0,1-.771,2.25,2.811,2.811,0,0,1-2.155.822,2.921,2.921,0,0,1-2-.679,2.711,2.711,0,0,1-.882-1.879h1.111a1.865,1.865,0,0,0,.565,1.2,1.757,1.757,0,0,0,1.206.4,1.585,1.585,0,0,0,1.285-.559,2.335,2.335,0,0,0,.467-1.542,2.143,2.143,0,0,0-.5-1.489,1.717,1.717,0,0,0-1.343-.562,1.936,1.936,0,0,0-1.206.336l-.311.254Zm6.659-2.831a1.875,1.875,0,0,1,.53-1.371,1.826,1.826,0,0,1,1.362-.54,1.815,1.815,0,0,1,1.368.543,1.94,1.94,0,0,1,.524,1.406v.451a1.851,1.851,0,0,1-.53,1.368,1.827,1.827,0,0,1-1.349.53,1.867,1.867,0,0,1-1.365-.53,1.89,1.89,0,0,1-.54-1.412Zm.876.486a1.2,1.2,0,0,0,.279.818.942.942,0,0,0,.749.321.924.924,0,0,0,.727-.312A1.24,1.24,0,0,0,172.723-7v-.464a1.231,1.231,0,0,0-.273-.821.919.919,0,0,0-.743-.324.919.919,0,0,0-.743.324,1.27,1.27,0,0,0-.273.846Zm3.625,4.713a1.865,1.865,0,0,1,.53-1.368,1.832,1.832,0,0,1,1.362-.536,1.848,1.848,0,0,1,1.365.533,1.913,1.913,0,0,1,.533,1.416v.451a1.865,1.865,0,0,1-.53,1.368,1.824,1.824,0,0,1-1.355.536,1.867,1.867,0,0,1-1.365-.53,1.89,1.89,0,0,1-.54-1.412Zm.876.493a1.21,1.21,0,0,0,.279.824.942.942,0,0,0,.749.321.917.917,0,0,0,.73-.315,1.262,1.262,0,0,0,.273-.856V-2.27a1.207,1.207,0,0,0-.276-.821.93.93,0,0,0-.74-.318.939.939,0,0,0-.733.315,1.225,1.225,0,0,0-.282.849ZM171.987-.7l-.667-.419,4.513-7.224.667.419Zm10.937-4.259H185.5v1.111h-2.577v2.92h-1.181v-2.92h-2.577V-4.958h2.577v-2.7h1.181ZM190.668,0h-1.181V-7.827l-2.368.87V-8.023l3.364-1.263h.184Zm8.049-9.249v1H198.5a3.092,3.092,0,0,0-2.184.813,3.381,3.381,0,0,0-.939,2.215,2.507,2.507,0,0,1,1.993-.838,2.4,2.4,0,0,1,1.927.851,3.281,3.281,0,0,1,.72,2.2A3.27,3.27,0,0,1,199.24-.73a2.677,2.677,0,0,1-2.085.857A2.638,2.638,0,0,1,195-.892a4.038,4.038,0,0,1-.825-2.625v-.451a6.084,6.084,0,0,1,1.089-3.9,4,4,0,0,1,3.24-1.381Zm-1.542,4.164a1.874,1.874,0,0,0-1.111.362,1.885,1.885,0,0,0-.7.908v.432a3.032,3.032,0,0,0,.514,1.841,1.541,1.541,0,0,0,1.282.7,1.493,1.493,0,0,0,1.247-.584,2.423,2.423,0,0,0,.454-1.53A2.424,2.424,0,0,0,198.4-4.5,1.475,1.475,0,0,0,197.174-5.084Zm4.132-2.38a1.875,1.875,0,0,1,.53-1.371,1.826,1.826,0,0,1,1.362-.54,1.815,1.815,0,0,1,1.368.543,1.94,1.94,0,0,1,.524,1.406v.451a1.851,1.851,0,0,1-.53,1.368,1.827,1.827,0,0,1-1.349.53,1.867,1.867,0,0,1-1.365-.53,1.89,1.89,0,0,1-.54-1.412Zm.876.486a1.2,1.2,0,0,0,.279.818.942.942,0,0,0,.749.321.924.924,0,0,0,.727-.312A1.24,1.24,0,0,0,204.214-7v-.464a1.231,1.231,0,0,0-.273-.821.919.919,0,0,0-.743-.324.919.919,0,0,0-.743.324,1.27,1.27,0,0,0-.273.846Zm3.625,4.713a1.865,1.865,0,0,1,.53-1.368A1.832,1.832,0,0,1,207.7-4.17a1.848,1.848,0,0,1,1.365.533,1.913,1.913,0,0,1,.533,1.416v.451a1.865,1.865,0,0,1-.53,1.368,1.824,1.824,0,0,1-1.355.536,1.867,1.867,0,0,1-1.365-.53,1.89,1.89,0,0,1-.54-1.412Zm.876.493a1.21,1.21,0,0,0,.279.824.942.942,0,0,0,.749.321.917.917,0,0,0,.73-.315,1.262,1.262,0,0,0,.273-.856V-2.27a1.207,1.207,0,0,0-.276-.821.93.93,0,0,0-.74-.318.939.939,0,0,0-.733.315,1.225,1.225,0,0,0-.282.849ZM203.477-.7l-.667-.419,4.513-7.224.667.419Zm10.937-4.259h2.577v1.111h-2.577v2.92h-1.181v-2.92h-2.577V-4.958h2.577v-2.7h1.181ZM222.158,0h-1.181V-7.827l-2.368.87V-8.023l3.364-1.263h.184Zm3.586-.616a.735.735,0,0,1,.181-.508.689.689,0,0,1,.543-.2.71.71,0,0,1,.549.2.721.721,0,0,1,.187.508.682.682,0,0,1-.187.489.723.723,0,0,1-.549.2.7.7,0,0,1-.543-.2A.7.7,0,0,1,225.745-.616Zm9.071-3.326a5.371,5.371,0,0,1-.7,3.066,2.506,2.506,0,0,1-2.2,1,2.524,2.524,0,0,1-2.19-.981,5.1,5.1,0,0,1-.736-2.929V-5.351a5.251,5.251,0,0,1,.7-3.028,2.525,2.525,0,0,1,2.209-.99,2.548,2.548,0,0,1,2.2.955,5.068,5.068,0,0,1,.724,2.948Zm-1.174-1.606a4.3,4.3,0,0,0-.419-2.174A1.442,1.442,0,0,0,231.9-8.4a1.423,1.423,0,0,0-1.314.679,4.2,4.2,0,0,0-.425,2.088v1.879a4.372,4.372,0,0,0,.435,2.212,1.439,1.439,0,0,0,1.317.714A1.42,1.42,0,0,0,233.2-1.5a4.214,4.214,0,0,0,.441-2.12ZM241.278-3.1h1.282v.958h-1.282V0H240.1V-2.146h-4.208v-.692l4.139-6.4h1.25Zm-4.056,0H240.1V-7.636l-.14.254Zm11.356,0h1.282v.958h-1.282V0H247.4V-2.146h-4.208v-.692l4.139-6.4h1.25Zm-4.056,0H247.4V-7.636l-.14.254Zm6.3-4.361a1.875,1.875,0,0,1,.53-1.371,1.826,1.826,0,0,1,1.362-.54,1.815,1.815,0,0,1,1.368.543,1.94,1.94,0,0,1,.524,1.406v.451a1.851,1.851,0,0,1-.53,1.368,1.827,1.827,0,0,1-1.349.53,1.867,1.867,0,0,1-1.365-.53,1.89,1.89,0,0,1-.54-1.412Zm.876.486a1.2,1.2,0,0,0,.279.818.942.942,0,0,0,.749.321.924.924,0,0,0,.727-.312A1.24,1.24,0,0,0,253.725-7v-.464a1.231,1.231,0,0,0-.273-.821.919.919,0,0,0-.743-.324.919.919,0,0,0-.743.324,1.27,1.27,0,0,0-.273.846Zm3.625,4.713a1.865,1.865,0,0,1,.53-1.368,1.832,1.832,0,0,1,1.362-.536,1.848,1.848,0,0,1,1.365.533,1.913,1.913,0,0,1,.533,1.416v.451a1.865,1.865,0,0,1-.53,1.368,1.824,1.824,0,0,1-1.355.536,1.867,1.867,0,0,1-1.365-.53,1.89,1.89,0,0,1-.54-1.412Zm.876.493a1.21,1.21,0,0,0,.279.824.942.942,0,0,0,.749.321.917.917,0,0,0,.73-.315,1.262,1.262,0,0,0,.273-.856V-2.27a1.207,1.207,0,0,0-.276-.821.93.93,0,0,0-.74-.318.939.939,0,0,0-.733.315,1.225,1.225,0,0,0-.282.849ZM252.989-.7l-.667-.419,4.513-7.224.667.419Zm10.283-2.99A9.819,9.819,0,0,1,262.9-.974a8.024,8.024,0,0,1-1.136,2.4,4.978,4.978,0,0,1-1.6,1.562l-.248-.717A5.1,5.1,0,0,0,261.485-.06a10.065,10.065,0,0,0,.606-3.5v-.2a10.45,10.45,0,0,0-.279-2.479,8.366,8.366,0,0,0-.778-2.053,4.743,4.743,0,0,0-1.12-1.416l.248-.717a4.959,4.959,0,0,1,1.6,1.549,8.041,8.041,0,0,1,1.136,2.393A10.045,10.045,0,0,1,263.272-3.688ZM-158.847,15.067a3.4,3.4,0,0,1-1.082,2.263,3.547,3.547,0,0,1-2.422.8,3.257,3.257,0,0,1-2.625-1.174,4.725,4.725,0,0,1-.987-3.142v-.889a5.266,5.266,0,0,1,.46-2.266,3.438,3.438,0,0,1,1.3-1.5,3.632,3.632,0,0,1,1.955-.524,3.34,3.34,0,0,1,2.361.822,3.441,3.441,0,0,1,1.035,2.276h-1.225a2.655,2.655,0,0,0-.689-1.6,2.084,2.084,0,0,0-1.482-.5,2.181,2.181,0,0,0-1.831.864,3.966,3.966,0,0,0-.663,2.459v.9a4.077,4.077,0,0,0,.628,2.4,2.031,2.031,0,0,0,1.758.889,2.345,2.345,0,0,0,1.558-.46,2.554,2.554,0,0,0,.72-1.6Zm1.168-.565a4.057,4.057,0,0,1,.4-1.815,2.959,2.959,0,0,1,1.1-1.244A3.007,3.007,0,0,1-154.562,11a2.9,2.9,0,0,1,2.269.971,3.736,3.736,0,0,1,.866,2.583v.083a4.092,4.092,0,0,1-.384,1.8,2.916,2.916,0,0,1-1.1,1.241,3.041,3.041,0,0,1-1.641.444,2.889,2.889,0,0,1-2.263-.971,3.718,3.718,0,0,1-.866-2.571Zm1.181.14a2.938,2.938,0,0,0,.53,1.834,1.7,1.7,0,0,0,1.419.692,1.686,1.686,0,0,0,1.422-.7A3.213,3.213,0,0,0-152.6,14.5a2.933,2.933,0,0,0-.536-1.831,1.705,1.705,0,0,0-1.425-.7,1.686,1.686,0,0,0-1.4.692A3.189,3.189,0,0,0-156.5,14.642Zm8.138-5.173v1.663h1.282v.908h-1.282V16.3a.953.953,0,0,0,.171.62.721.721,0,0,0,.584.207,2.843,2.843,0,0,0,.559-.076V18a3.424,3.424,0,0,1-.9.126,1.462,1.462,0,0,1-1.187-.476,2.045,2.045,0,0,1-.4-1.352V12.04h-1.25v-.908h1.25V9.469ZM-144.431,18h-1.174V11.132h1.174Zm-1.27-8.69a.7.7,0,0,1,.175-.482.655.655,0,0,1,.517-.2.666.666,0,0,1,.521.2.694.694,0,0,1,.178.482.671.671,0,0,1-.178.476.678.678,0,0,1-.521.19.667.667,0,0,1-.517-.19A.678.678,0,0,1-145.7,9.31Zm4.253,7.731h4.018V18h-5.453v-.863l3.79-5.034h-3.732v-.971h5.205v.832Zm9.579.958a2.467,2.467,0,0,1-.165-.724,2.62,2.62,0,0,1-1.955.851,2.424,2.424,0,0,1-1.666-.574,1.859,1.859,0,0,1-.651-1.457,1.942,1.942,0,0,1,.816-1.666,3.846,3.846,0,0,1,2.295-.594h1.143V13.3a1.319,1.319,0,0,0-.368-.981,1.48,1.48,0,0,0-1.085-.365,1.712,1.712,0,0,0-1.054.317.935.935,0,0,0-.425.768h-1.181a1.621,1.621,0,0,1,.365-.993,2.491,2.491,0,0,1,.99-.759A3.331,3.331,0,0,1-133.437,11a2.715,2.715,0,0,1,1.86.594,2.141,2.141,0,0,1,.7,1.635v3.161a3.865,3.865,0,0,0,.241,1.5V18Zm-1.949-.9a2.064,2.064,0,0,0,1.047-.286,1.728,1.728,0,0,0,.717-.743V14.667h-.92q-2.158,0-2.158,1.263a1.069,1.069,0,0,0,.368.863A1.415,1.415,0,0,0-133.818,17.1Zm7.535.063a1.691,1.691,0,0,0,1.1-.381,1.34,1.34,0,0,0,.521-.952h1.111a2.13,2.13,0,0,1-.406,1.124,2.676,2.676,0,0,1-1,.851,2.885,2.885,0,0,1-1.323.317,2.829,2.829,0,0,1-2.231-.936,3.729,3.729,0,0,1-.828-2.561v-.2a4.135,4.135,0,0,1,.368-1.784,2.8,2.8,0,0,1,1.057-1.212A3,3,0,0,1-126.29,11a2.755,2.755,0,0,1,1.92.692,2.473,2.473,0,0,1,.816,1.8h-1.111a1.618,1.618,0,0,0-.5-1.095,1.57,1.57,0,0,0-1.12-.428,1.644,1.644,0,0,0-1.387.644,3.026,3.026,0,0,0-.492,1.863V14.7a2.965,2.965,0,0,0,.489,1.828A1.651,1.651,0,0,0-126.283,17.168Zm5.326.832h-1.174V11.132h1.174Zm-1.27-8.69a.7.7,0,0,1,.175-.482.655.655,0,0,1,.517-.2.666.666,0,0,1,.521.2.694.694,0,0,1,.178.482.671.671,0,0,1-.178.476.678.678,0,0,1-.521.19.667.667,0,0,1-.517-.19A.678.678,0,0,1-122.227,9.31Zm2.837,5.192a4.057,4.057,0,0,1,.4-1.815,2.96,2.96,0,0,1,1.1-1.244A3.007,3.007,0,0,1-116.273,11a2.9,2.9,0,0,1,2.269.971,3.736,3.736,0,0,1,.866,2.583v.083a4.092,4.092,0,0,1-.384,1.8,2.916,2.916,0,0,1-1.1,1.241,3.041,3.041,0,0,1-1.641.444,2.889,2.889,0,0,1-2.263-.971,3.718,3.718,0,0,1-.866-2.571Zm1.181.14a2.938,2.938,0,0,0,.53,1.834,1.7,1.7,0,0,0,1.419.692,1.686,1.686,0,0,0,1.422-.7,3.213,3.213,0,0,0,.527-1.965,2.933,2.933,0,0,0-.536-1.831,1.705,1.705,0,0,0-1.425-.7,1.686,1.686,0,0,0-1.4.692A3.189,3.189,0,0,0-118.209,14.642Zm2.469-6.392h1.422l-1.7,1.866-.946,0Zm5.186,2.882.038.863a2.5,2.5,0,0,1,2.057-.99q2.177,0,2.2,2.457V18h-1.174V13.455a1.581,1.581,0,0,0-.34-1.1A1.361,1.361,0,0,0-108.815,12a1.7,1.7,0,0,0-1,.3,2.069,2.069,0,0,0-.673.8V18h-1.174V11.132Zm13.279,5.046a.864.864,0,0,0-.359-.74,3.452,3.452,0,0,0-1.25-.454,5.912,5.912,0,0,1-1.416-.457,2.014,2.014,0,0,1-.774-.635,1.518,1.518,0,0,1-.251-.876,1.782,1.782,0,0,1,.714-1.428A2.789,2.789,0,0,1-98.785,11a2.87,2.87,0,0,1,1.895.6,1.915,1.915,0,0,1,.727,1.542h-1.181a1.06,1.06,0,0,0-.409-.832,1.534,1.534,0,0,0-1.031-.349,1.606,1.606,0,0,0-1,.279.879.879,0,0,0-.362.73.712.712,0,0,0,.336.641,4.139,4.139,0,0,0,1.216.413,6.334,6.334,0,0,1,1.425.47,2.079,2.079,0,0,1,.809.657,1.615,1.615,0,0,1,.263.936,1.758,1.758,0,0,1-.736,1.476,3.089,3.089,0,0,1-1.911.555,3.459,3.459,0,0,1-1.46-.292,2.375,2.375,0,0,1-.993-.816,1.966,1.966,0,0,1-.359-1.133h1.174a1.216,1.216,0,0,0,.473.936,1.835,1.835,0,0,0,1.165.346,1.894,1.894,0,0,0,1.07-.27A.829.829,0,0,0-97.275,16.178Zm5.554,1.949a3,3,0,0,1-2.272-.917,3.4,3.4,0,0,1-.876-2.453v-.216a4.121,4.121,0,0,1,.39-1.825,3.045,3.045,0,0,1,1.092-1.257A2.745,2.745,0,0,1-91.866,11a2.572,2.572,0,0,1,2.082.882,3.82,3.82,0,0,1,.743,2.526V14.9h-4.653a2.441,2.441,0,0,0,.594,1.641,1.866,1.866,0,0,0,1.444.625,2.045,2.045,0,0,0,1.054-.254,2.648,2.648,0,0,0,.755-.673l.717.559A2.884,2.884,0,0,1-91.72,18.127Zm-.146-6.157a1.566,1.566,0,0,0-1.193.517,2.515,2.515,0,0,0-.6,1.45h3.44v-.089a2.237,2.237,0,0,0-.482-1.387A1.475,1.475,0,0,0-91.866,11.97Zm3.9,2.539a4.037,4.037,0,0,1,.743-2.555A2.375,2.375,0,0,1-85.252,11a2.363,2.363,0,0,1,1.961.889l.057-.762h1.073v6.7a2.794,2.794,0,0,1-.79,2.1,2.916,2.916,0,0,1-2.123.768,3.532,3.532,0,0,1-1.454-.317,2.5,2.5,0,0,1-1.085-.87l.609-.7a2.3,2.3,0,0,0,1.847.933,1.8,1.8,0,0,0,1.336-.482,1.844,1.844,0,0,0,.479-1.358v-.59a2.414,2.414,0,0,1-1.923.813,2.346,2.346,0,0,1-1.952-.971A4.244,4.244,0,0,1-87.963,14.509Zm1.181.133a3.08,3.08,0,0,0,.476,1.825,1.547,1.547,0,0,0,1.333.663,1.72,1.72,0,0,0,1.631-1.009V12.985A1.74,1.74,0,0,0-84.96,12a1.561,1.561,0,0,0-1.339.667A3.354,3.354,0,0,0-86.782,14.642Zm10.632,2.679a2.494,2.494,0,0,1-2.012.806,2.135,2.135,0,0,1-1.673-.638,2.761,2.761,0,0,1-.581-1.888V11.132h1.174v4.437q0,1.562,1.27,1.562a1.758,1.758,0,0,0,1.79-1v-5h1.174V18h-1.117Zm6.246-5.135a3.519,3.519,0,0,0-.578-.044,1.547,1.547,0,0,0-1.568.984V18h-1.174V11.132h1.143l.019.793A1.829,1.829,0,0,1-70.424,11a1.2,1.2,0,0,1,.521.089ZM-67.549,18h-1.174V11.132h1.174Zm-1.27-8.69a.7.7,0,0,1,.175-.482.655.655,0,0,1,.517-.2.666.666,0,0,1,.521.2.694.694,0,0,1,.178.482.671.671,0,0,1-.178.476.678.678,0,0,1-.521.19.667.667,0,0,1-.517-.19A.678.678,0,0,1-68.818,9.31Zm2.863,5.2a4.023,4.023,0,0,1,.749-2.542A2.369,2.369,0,0,1-63.245,11a2.382,2.382,0,0,1,1.911.825V8.25h1.174V18h-1.079l-.057-.736a2.391,2.391,0,0,1-1.961.863,2.346,2.346,0,0,1-1.946-.978,4.069,4.069,0,0,1-.752-2.552Zm1.174.133A3.046,3.046,0,0,0-64.3,16.47a1.56,1.56,0,0,0,1.333.66,1.713,1.713,0,0,0,1.631-1V12.973A1.726,1.726,0,0,0-62.953,12a1.567,1.567,0,0,0-1.346.667A3.354,3.354,0,0,0-64.781,14.642ZM-54.1,18a2.467,2.467,0,0,1-.165-.724,2.62,2.62,0,0,1-1.955.851,2.424,2.424,0,0,1-1.666-.574,1.859,1.859,0,0,1-.651-1.457,1.942,1.942,0,0,1,.816-1.666,3.846,3.846,0,0,1,2.295-.594h1.143V13.3a1.319,1.319,0,0,0-.368-.981,1.48,1.48,0,0,0-1.085-.365,1.712,1.712,0,0,0-1.054.317.935.935,0,0,0-.425.768H-58.4a1.621,1.621,0,0,1,.365-.993,2.491,2.491,0,0,1,.99-.759A3.331,3.331,0,0,1-55.666,11a2.715,2.715,0,0,1,1.86.594,2.141,2.141,0,0,1,.7,1.635v3.161a3.865,3.865,0,0,0,.241,1.5V18Zm-1.949-.9A2.064,2.064,0,0,0-55,16.819a1.728,1.728,0,0,0,.717-.743V14.667h-.92q-2.158,0-2.158,1.263a1.069,1.069,0,0,0,.368.863A1.415,1.415,0,0,0-56.047,17.1Zm4.494-2.6a4.023,4.023,0,0,1,.749-2.542A2.369,2.369,0,0,1-48.842,11a2.382,2.382,0,0,1,1.911.825V8.25h1.174V18h-1.079l-.057-.736a2.391,2.391,0,0,1-1.961.863,2.346,2.346,0,0,1-1.946-.978,4.069,4.069,0,0,1-.752-2.552Zm1.174.133A3.046,3.046,0,0,0-49.9,16.47a1.56,1.56,0,0,0,1.333.66,1.713,1.713,0,0,0,1.631-1V12.973A1.726,1.726,0,0,0-48.55,12a1.567,1.567,0,0,0-1.346.667A3.354,3.354,0,0,0-50.378,14.642Zm13.66,1.536a.865.865,0,0,0-.359-.74,3.452,3.452,0,0,0-1.25-.454,5.912,5.912,0,0,1-1.416-.457,2.014,2.014,0,0,1-.774-.635,1.518,1.518,0,0,1-.251-.876,1.782,1.782,0,0,1,.714-1.428A2.789,2.789,0,0,1-38.229,11a2.87,2.87,0,0,1,1.895.6,1.915,1.915,0,0,1,.727,1.542h-1.181a1.06,1.06,0,0,0-.409-.832,1.534,1.534,0,0,0-1.031-.349,1.605,1.605,0,0,0-1,.279.879.879,0,0,0-.362.73.712.712,0,0,0,.336.641,4.139,4.139,0,0,0,1.216.413,6.334,6.334,0,0,1,1.425.47,2.079,2.079,0,0,1,.809.657,1.615,1.615,0,0,1,.263.936,1.758,1.758,0,0,1-.736,1.476,3.089,3.089,0,0,1-1.911.555,3.459,3.459,0,0,1-1.46-.292,2.375,2.375,0,0,1-.993-.816A1.966,1.966,0,0,1-41,15.886h1.174a1.216,1.216,0,0,0,.473.936,1.835,1.835,0,0,0,1.165.346,1.894,1.894,0,0,0,1.07-.27A.829.829,0,0,0-36.718,16.178Zm2.393-1.676a4.057,4.057,0,0,1,.4-1.815,2.96,2.96,0,0,1,1.1-1.244A3.007,3.007,0,0,1-31.208,11a2.9,2.9,0,0,1,2.269.971,3.736,3.736,0,0,1,.866,2.583v.083a4.092,4.092,0,0,1-.384,1.8,2.916,2.916,0,0,1-1.1,1.241,3.041,3.041,0,0,1-1.641.444,2.889,2.889,0,0,1-2.263-.971,3.718,3.718,0,0,1-.866-2.571Zm1.181.14a2.938,2.938,0,0,0,.53,1.834,1.7,1.7,0,0,0,1.419.692,1.686,1.686,0,0,0,1.422-.7,3.213,3.213,0,0,0,.527-1.965,2.933,2.933,0,0,0-.536-1.831,1.705,1.705,0,0,0-1.425-.7,1.686,1.686,0,0,0-1.4.692A3.189,3.189,0,0,0-33.144,14.642Zm9.3,2.526a1.692,1.692,0,0,0,1.1-.381,1.34,1.34,0,0,0,.521-.952h1.111a2.13,2.13,0,0,1-.406,1.124,2.676,2.676,0,0,1-1,.851,2.885,2.885,0,0,1-1.323.317,2.829,2.829,0,0,1-2.231-.936,3.729,3.729,0,0,1-.828-2.561v-.2a4.135,4.135,0,0,1,.368-1.784,2.8,2.8,0,0,1,1.057-1.212A3,3,0,0,1-23.851,11a2.755,2.755,0,0,1,1.92.692,2.473,2.473,0,0,1,.816,1.8h-1.111a1.618,1.618,0,0,0-.5-1.095,1.57,1.57,0,0,0-1.12-.428,1.644,1.644,0,0,0-1.387.644,3.026,3.026,0,0,0-.492,1.863V14.7a2.965,2.965,0,0,0,.489,1.828A1.651,1.651,0,0,0-23.845,17.168Zm5.326.832h-1.174V11.132h1.174Zm-1.27-8.69a.7.7,0,0,1,.175-.482.655.655,0,0,1,.517-.2.666.666,0,0,1,.521.2.694.694,0,0,1,.178.482.671.671,0,0,1-.178.476.678.678,0,0,1-.521.19.667.667,0,0,1-.517-.19A.678.678,0,0,1-19.789,9.31ZM-12.4,18a2.467,2.467,0,0,1-.165-.724,2.62,2.62,0,0,1-1.955.851,2.424,2.424,0,0,1-1.666-.574,1.859,1.859,0,0,1-.651-1.457,1.942,1.942,0,0,1,.816-1.666,3.846,3.846,0,0,1,2.295-.594h1.143V13.3a1.319,1.319,0,0,0-.368-.981,1.48,1.48,0,0,0-1.085-.365,1.712,1.712,0,0,0-1.054.317.935.935,0,0,0-.425.768H-16.7a1.621,1.621,0,0,1,.365-.993,2.491,2.491,0,0,1,.99-.759A3.331,3.331,0,0,1-13.968,11a2.715,2.715,0,0,1,1.86.594,2.141,2.141,0,0,1,.7,1.635v3.161a3.865,3.865,0,0,0,.241,1.5V18Zm-1.949-.9a2.064,2.064,0,0,0,1.047-.286,1.728,1.728,0,0,0,.717-.743V14.667h-.92q-2.158,0-2.158,1.263a1.069,1.069,0,0,0,.368.863A1.415,1.415,0,0,0-14.349,17.1Zm6.056.9H-9.468V8.25h1.174Zm16.9-5.167H3.317V11.811H8.611Zm0,2.634H3.317V14.452H8.611Zm4.938-1.219a9.814,9.814,0,0,1,.384-2.755,8,8,0,0,1,1.146-2.4,4.874,4.874,0,0,1,1.581-1.523l.241.774a5.056,5.056,0,0,0-1.52,2.171,9.411,9.411,0,0,0-.651,3.269l-.006.54a9.46,9.46,0,0,0,.9,4.253A5.079,5.079,0,0,0,16.9,20.266l-.241.717a5.031,5.031,0,0,1-1.612-1.574A8.823,8.823,0,0,1,13.549,14.249Zm9.325.647h1.282v.958H22.874V18H21.693V15.854H17.485v-.692l4.139-6.4h1.25Zm-4.056,0h2.875V10.364l-.14.254Zm6.544,2.488a.735.735,0,0,1,.181-.508.689.689,0,0,1,.543-.2.71.71,0,0,1,.549.2.721.721,0,0,1,.187.508.681.681,0,0,1-.187.489.723.723,0,0,1-.549.2.653.653,0,0,1-.724-.686ZM33.595,14.9h1.282v.958H33.595V18H32.414V15.854H28.206v-.692l4.139-6.4h1.25Zm-4.056,0h2.875V10.364l-.14.254Zm12-3.726a2.146,2.146,0,0,1-.365,1.231,2.483,2.483,0,0,1-.987.844,2.649,2.649,0,0,1,1.146.908,2.284,2.284,0,0,1,.422,1.352,2.415,2.415,0,0,1-.809,1.911,3.548,3.548,0,0,1-4.266,0,2.426,2.426,0,0,1-.8-1.907,2.352,2.352,0,0,1,.409-1.352,2.548,2.548,0,0,1,1.133-.914,2.422,2.422,0,0,1-.971-.844A2.177,2.177,0,0,1,36.1,11.17a2.389,2.389,0,0,1,.749-1.854,3.181,3.181,0,0,1,3.945,0A2.384,2.384,0,0,1,41.542,11.17Zm-.958,4.31a1.7,1.7,0,0,0-.492-1.263,1.745,1.745,0,0,0-1.285-.489,1.653,1.653,0,0,0-1.752,1.752,1.641,1.641,0,0,0,.467,1.238,2.084,2.084,0,0,0,2.593,0A1.637,1.637,0,0,0,40.584,15.48ZM38.819,9.6a1.515,1.515,0,0,0-1.12.428,1.574,1.574,0,0,0-.428,1.165,1.566,1.566,0,0,0,.422,1.139,1.677,1.677,0,0,0,2.253,0,1.566,1.566,0,0,0,.422-1.139,1.567,1.567,0,0,0-.438-1.149A1.494,1.494,0,0,0,38.819,9.6ZM48.842,11.17a2.146,2.146,0,0,1-.365,1.231,2.483,2.483,0,0,1-.987.844,2.649,2.649,0,0,1,1.146.908,2.284,2.284,0,0,1,.422,1.352,2.415,2.415,0,0,1-.809,1.911,3.548,3.548,0,0,1-4.266,0,2.426,2.426,0,0,1-.8-1.907,2.352,2.352,0,0,1,.409-1.352,2.548,2.548,0,0,1,1.133-.914,2.422,2.422,0,0,1-.971-.844A2.177,2.177,0,0,1,43.4,11.17a2.389,2.389,0,0,1,.749-1.854,3.181,3.181,0,0,1,3.945,0A2.384,2.384,0,0,1,48.842,11.17Zm-.958,4.31a1.7,1.7,0,0,0-.492-1.263,1.745,1.745,0,0,0-1.285-.489,1.653,1.653,0,0,0-1.752,1.752,1.641,1.641,0,0,0,.467,1.238,2.084,2.084,0,0,0,2.593,0A1.637,1.637,0,0,0,47.884,15.48ZM46.119,9.6a1.515,1.515,0,0,0-1.12.428,1.574,1.574,0,0,0-.428,1.165,1.566,1.566,0,0,0,.422,1.139,1.677,1.677,0,0,0,2.253,0,1.566,1.566,0,0,0,.422-1.139,1.567,1.567,0,0,0-.438-1.149A1.494,1.494,0,0,0,46.119,9.6Zm4.564,7.789a.735.735,0,0,1,.181-.508.689.689,0,0,1,.543-.2.71.71,0,0,1,.549.2.721.721,0,0,1,.187.508.681.681,0,0,1-.187.489.723.723,0,0,1-.549.2.653.653,0,0,1-.724-.686Zm9.071-3.326a5.371,5.371,0,0,1-.7,3.066,2.928,2.928,0,0,1-4.393.022,5.1,5.1,0,0,1-.736-2.929V12.649a5.251,5.251,0,0,1,.7-3.028,2.98,2.98,0,0,1,4.405-.035,5.068,5.068,0,0,1,.724,2.948Zm-1.174-1.606a4.3,4.3,0,0,0-.419-2.174A1.442,1.442,0,0,0,56.834,9.6a1.423,1.423,0,0,0-1.314.679,4.2,4.2,0,0,0-.425,2.088v1.879a4.372,4.372,0,0,0,.435,2.212,1.439,1.439,0,0,0,1.317.714,1.42,1.42,0,0,0,1.292-.673,4.214,4.214,0,0,0,.441-2.12Zm8.474,1.606a5.371,5.371,0,0,1-.7,3.066,2.928,2.928,0,0,1-4.393.022,5.1,5.1,0,0,1-.736-2.929V12.649a5.251,5.251,0,0,1,.7-3.028,2.98,2.98,0,0,1,4.405-.035,5.068,5.068,0,0,1,.724,2.948Zm-1.174-1.606a4.3,4.3,0,0,0-.419-2.174A1.442,1.442,0,0,0,64.134,9.6a1.423,1.423,0,0,0-1.314.679,4.2,4.2,0,0,0-.425,2.088v1.879a4.372,4.372,0,0,0,.435,2.212,1.439,1.439,0,0,0,1.317.714,1.42,1.42,0,0,0,1.292-.673,4.214,4.214,0,0,0,.441-2.12Zm8.474,1.606a5.371,5.371,0,0,1-.7,3.066,2.928,2.928,0,0,1-4.393.022,5.1,5.1,0,0,1-.736-2.929V12.649a5.251,5.251,0,0,1,.7-3.028,2.98,2.98,0,0,1,4.405-.035,5.068,5.068,0,0,1,.724,2.948Zm-1.174-1.606a4.3,4.3,0,0,0-.419-2.174A1.442,1.442,0,0,0,71.433,9.6a1.423,1.423,0,0,0-1.314.679,4.2,4.2,0,0,0-.425,2.088v1.879a4.372,4.372,0,0,0,.435,2.212,1.439,1.439,0,0,0,1.317.714,1.42,1.42,0,0,0,1.292-.673,4.214,4.214,0,0,0,.441-2.12Zm4.005-.7-1.917-.571.292-.958,1.917.71-.057-2.181h.971l-.063,2.213,1.885-.7.292.964-1.949.577,1.257,1.72-.787.6L77.844,12.3,76.7,14.087l-.793-.578ZM86.414,14.9H87.7v.958H86.414V18H85.233V15.854H81.025v-.692l4.139-6.4h1.25Zm-4.056,0h2.875V10.364l-.14.254Zm12.194-.838a5.371,5.371,0,0,1-.7,3.066,2.928,2.928,0,0,1-4.393.022,5.1,5.1,0,0,1-.736-2.929V12.649a5.251,5.251,0,0,1,.7-3.028,2.98,2.98,0,0,1,4.405-.035,5.068,5.068,0,0,1,.724,2.948Zm-1.174-1.606a4.3,4.3,0,0,0-.419-2.174A1.442,1.442,0,0,0,91.632,9.6a1.423,1.423,0,0,0-1.314.679,4.2,4.2,0,0,0-.425,2.088v1.879a4.372,4.372,0,0,0,.435,2.212,1.439,1.439,0,0,0,1.317.714,1.42,1.42,0,0,0,1.292-.673,4.214,4.214,0,0,0,.441-2.12Zm2.577-1.917a1.875,1.875,0,0,1,.53-1.371,1.992,1.992,0,0,1,2.729,0,1.94,1.94,0,0,1,.524,1.406v.451a1.851,1.851,0,0,1-.53,1.368,1.827,1.827,0,0,1-1.349.53,1.867,1.867,0,0,1-1.365-.53,1.89,1.89,0,0,1-.54-1.412Zm.876.486a1.2,1.2,0,0,0,.279.818.942.942,0,0,0,.749.321.924.924,0,0,0,.727-.312A1.24,1.24,0,0,0,98.862,11v-.464a1.231,1.231,0,0,0-.273-.821,1.012,1.012,0,0,0-1.485,0,1.27,1.27,0,0,0-.273.846Zm3.625,4.713a1.865,1.865,0,0,1,.53-1.368,2,2,0,0,1,2.726,0,1.913,1.913,0,0,1,.533,1.416v.451a1.865,1.865,0,0,1-.53,1.368,1.824,1.824,0,0,1-1.355.536,1.867,1.867,0,0,1-1.365-.53,1.89,1.89,0,0,1-.54-1.412Zm.876.493a1.21,1.21,0,0,0,.279.824.942.942,0,0,0,.749.321.917.917,0,0,0,.73-.315,1.262,1.262,0,0,0,.273-.856V15.73a1.207,1.207,0,0,0-.276-.821,1.015,1.015,0,0,0-1.473,0,1.225,1.225,0,0,0-.282.849ZM98.125,17.3l-.667-.419,4.513-7.224.667.419Zm10.283-2.99a9.819,9.819,0,0,1-.371,2.714,8.024,8.024,0,0,1-1.136,2.4,4.978,4.978,0,0,1-1.6,1.562l-.248-.717a5.1,5.1,0,0,0,1.571-2.326,10.065,10.065,0,0,0,.606-3.5v-.2a10.45,10.45,0,0,0-.279-2.479,8.366,8.366,0,0,0-.778-2.053,4.743,4.743,0,0,0-1.12-1.416l.248-.717a4.959,4.959,0,0,1,1.6,1.549,8.041,8.041,0,0,1,1.136,2.393A10.045,10.045,0,0,1,108.408,14.312Zm6.233-2.555-1.917-.571.292-.958,1.917.71-.057-2.181h.971l-.063,2.213,1.885-.7.292.964-1.949.577,1.257,1.72-.787.6L115.3,12.3l-1.143,1.784-.793-.578ZM128.188,18h-6.056v-.844l3.2-3.555a7.6,7.6,0,0,0,.981-1.311,2.188,2.188,0,0,0,.27-1.044,1.658,1.658,0,0,0-.438-1.187,1.531,1.531,0,0,0-1.168-.463,1.814,1.814,0,0,0-1.362.5,1.9,1.9,0,0,0-.486,1.387h-1.174a2.726,2.726,0,0,1,.822-2.063,3.047,3.047,0,0,1,2.2-.787,2.928,2.928,0,0,1,2.038.676,2.306,2.306,0,0,1,.749,1.8,5.287,5.287,0,0,1-1.739,3.25l-2.476,2.685h4.64Zm5.745-4.062a2.873,2.873,0,0,1-.879.7,2.385,2.385,0,0,1-1.12.267,2.463,2.463,0,0,1-1.393-.394,2.558,2.558,0,0,1-.917-1.108,3.776,3.776,0,0,1-.324-1.577,3.847,3.847,0,0,1,.352-1.669,2.588,2.588,0,0,1,1-1.136,2.851,2.851,0,0,1,1.511-.394,2.581,2.581,0,0,1,2.161,1.025,4.471,4.471,0,0,1,.79,2.8v.343a5.974,5.974,0,0,1-1.066,3.939,4.1,4.1,0,0,1-3.218,1.273H130.6v-1h.248a3.233,3.233,0,0,0,2.234-.757A3.248,3.248,0,0,0,133.932,13.938Zm-1.809,0a1.813,1.813,0,0,0,1.089-.362,2.133,2.133,0,0,0,.727-.9v-.47a3.232,3.232,0,0,0-.5-1.879,1.533,1.533,0,0,0-2.514-.13,2.448,2.448,0,0,0-.47,1.565,2.548,2.548,0,0,0,.454,1.558A1.437,1.437,0,0,0,132.123,13.938Zm4.691,5.9-.667-.457a3.063,3.063,0,0,0,.622-1.714V16.61h1.149v.92a2.891,2.891,0,0,1-.314,1.282A3,3,0,0,1,136.814,19.841Zm3.009-6.475.47-4.608h4.735V9.843h-3.739l-.279,2.52a2.983,2.983,0,0,1,1.542-.4,2.55,2.55,0,0,1,2.006.835,3.271,3.271,0,0,1,.743,2.257,3.158,3.158,0,0,1-.771,2.25,2.811,2.811,0,0,1-2.155.822,2.921,2.921,0,0,1-2-.679,2.711,2.711,0,0,1-.882-1.879H140.6a1.865,1.865,0,0,0,.565,1.2,1.757,1.757,0,0,0,1.206.4,1.585,1.585,0,0,0,1.285-.559,2.335,2.335,0,0,0,.467-1.542,2.143,2.143,0,0,0-.5-1.489,1.717,1.717,0,0,0-1.343-.562,1.936,1.936,0,0,0-1.206.336l-.311.254Zm11.718,1.53h1.282v.958h-1.282V18H150.36V15.854h-4.208v-.692l4.139-6.4h1.25Zm-4.056,0h2.875V10.364l-.14.254Zm11.356,0h1.282v.958h-1.282V18H157.66V15.854h-4.208v-.692l4.139-6.4h1.25Zm-4.056,0h2.875V10.364l-.14.254Zm6.3-4.361a1.875,1.875,0,0,1,.53-1.371,1.992,1.992,0,0,1,2.729,0,1.94,1.94,0,0,1,.524,1.406v.451a1.851,1.851,0,0,1-.53,1.368,1.827,1.827,0,0,1-1.349.53,1.867,1.867,0,0,1-1.365-.53,1.89,1.89,0,0,1-.54-1.412Zm.876.486a1.2,1.2,0,0,0,.279.818.942.942,0,0,0,.749.321.924.924,0,0,0,.727-.312,1.24,1.24,0,0,0,.276-.853v-.464a1.231,1.231,0,0,0-.273-.821,1.012,1.012,0,0,0-1.485,0,1.27,1.27,0,0,0-.273.846Zm3.625,4.713a1.865,1.865,0,0,1,.53-1.368,2,2,0,0,1,2.726,0,1.913,1.913,0,0,1,.533,1.416v.451a1.865,1.865,0,0,1-.53,1.368,1.824,1.824,0,0,1-1.355.536,1.867,1.867,0,0,1-1.365-.53,1.89,1.89,0,0,1-.54-1.412Zm.876.493a1.21,1.21,0,0,0,.279.824.942.942,0,0,0,.749.321.917.917,0,0,0,.73-.315,1.262,1.262,0,0,0,.273-.856V15.73a1.207,1.207,0,0,0-.276-.821,1.015,1.015,0,0,0-1.473,0,1.225,1.225,0,0,0-.282.849ZM163.252,17.3l-.667-.419L167.1,9.659l.667.419ZM-101.236,31.366l.47-4.608h4.735v1.085h-3.739l-.279,2.52a2.982,2.982,0,0,1,1.542-.4A2.55,2.55,0,0,1-96.5,30.8a3.271,3.271,0,0,1,.743,2.257,3.158,3.158,0,0,1-.771,2.25,2.811,2.811,0,0,1-2.155.822,2.921,2.921,0,0,1-2-.679,2.711,2.711,0,0,1-.882-1.879h1.111a1.865,1.865,0,0,0,.565,1.2,1.757,1.757,0,0,0,1.206.4A1.585,1.585,0,0,0-97.4,34.61a2.335,2.335,0,0,0,.467-1.542,2.143,2.143,0,0,0-.5-1.489,1.717,1.717,0,0,0-1.343-.562,1.936,1.936,0,0,0-1.206.336l-.311.254Zm8.468-.559h.882a1.939,1.939,0,0,0,1.308-.438,1.463,1.463,0,0,0,.476-1.149A1.434,1.434,0,0,0-91.72,27.6a1.684,1.684,0,0,0-1.216.435,1.522,1.522,0,0,0-.454,1.152h-1.174a2.358,2.358,0,0,1,.8-1.825,2.925,2.925,0,0,1,2.041-.727,2.891,2.891,0,0,1,2.05.692,2.5,2.5,0,0,1,.743,1.923,2.029,2.029,0,0,1-.39,1.168,2.357,2.357,0,0,1-1.063.844,2.271,2.271,0,0,1,1.177.8,2.221,2.221,0,0,1,.416,1.365A2.521,2.521,0,0,1-89.6,35.4a3.043,3.043,0,0,1-2.114.73,3.123,3.123,0,0,1-2.117-.7,2.337,2.337,0,0,1-.816-1.86h1.181a1.511,1.511,0,0,0,.476,1.168,1.811,1.811,0,0,0,1.276.438,1.777,1.777,0,0,0,1.3-.444,1.712,1.712,0,0,0,.451-1.276,1.554,1.554,0,0,0-.5-1.238,2.157,2.157,0,0,0-1.428-.444h-.882Zm11.388,1.25a5.371,5.371,0,0,1-.7,3.066,2.506,2.506,0,0,1-2.2,1,2.524,2.524,0,0,1-2.19-.981,5.1,5.1,0,0,1-.736-2.929V30.649a5.251,5.251,0,0,1,.7-3.028,2.525,2.525,0,0,1,2.209-.99,2.548,2.548,0,0,1,2.2.955,5.068,5.068,0,0,1,.724,2.948Zm-1.174-1.606a4.3,4.3,0,0,0-.419-2.174A1.442,1.442,0,0,0-84.3,27.6a1.423,1.423,0,0,0-1.314.679,4.2,4.2,0,0,0-.425,2.088v1.879a4.372,4.372,0,0,0,.435,2.212,1.439,1.439,0,0,0,1.317.714A1.42,1.42,0,0,0-83,34.5a4.214,4.214,0,0,0,.441-2.12Zm2.825,4.932a.735.735,0,0,1,.181-.508.689.689,0,0,1,.543-.2.71.71,0,0,1,.549.2.721.721,0,0,1,.187.508.681.681,0,0,1-.187.489.723.723,0,0,1-.549.2.7.7,0,0,1-.543-.2A.7.7,0,0,1-79.73,35.384Zm4.983-4.577h.882a1.939,1.939,0,0,0,1.308-.438,1.463,1.463,0,0,0,.476-1.149A1.434,1.434,0,0,0-73.7,27.6a1.684,1.684,0,0,0-1.216.435,1.522,1.522,0,0,0-.454,1.152h-1.174a2.358,2.358,0,0,1,.8-1.825,2.925,2.925,0,0,1,2.041-.727,2.891,2.891,0,0,1,2.05.692,2.5,2.5,0,0,1,.743,1.923,2.029,2.029,0,0,1-.39,1.168,2.357,2.357,0,0,1-1.063.844,2.271,2.271,0,0,1,1.177.8,2.221,2.221,0,0,1,.416,1.365,2.521,2.521,0,0,1-.812,1.974,3.043,3.043,0,0,1-2.114.73,3.123,3.123,0,0,1-2.117-.7,2.337,2.337,0,0,1-.816-1.86h1.181a1.511,1.511,0,0,0,.476,1.168,1.811,1.811,0,0,0,1.276.438,1.777,1.777,0,0,0,1.3-.444,1.712,1.712,0,0,0,.451-1.276,1.554,1.554,0,0,0-.5-1.238,2.157,2.157,0,0,0-1.428-.444h-.882Zm11.559-3.39L-67.015,36h-1.231l3.815-8.277h-5v-.965h6.246ZM-56.9,32.9h1.282v.958H-56.9V36h-1.181V33.854h-4.208v-.692l4.139-6.4h1.25Zm-4.056,0h2.875V28.364l-.14.254Zm82.691-2.063H16.444V29.811h5.294Zm0,2.634H16.444V32.452h5.294ZM30.459,36H29.279V28.173l-2.368.87V27.977l3.364-1.263h.184Zm3.586-.616a.735.735,0,0,1,.181-.508.689.689,0,0,1,.543-.2.71.71,0,0,1,.549.2.721.721,0,0,1,.187.508.681.681,0,0,1-.187.489.723.723,0,0,1-.549.2.653.653,0,0,1-.724-.686Zm9.242-7.966L39.46,36H38.229l3.815-8.277h-5v-.965h6.246Zm5.833,4.52a2.873,2.873,0,0,1-.879.7,2.385,2.385,0,0,1-1.12.267,2.463,2.463,0,0,1-1.393-.394,2.558,2.558,0,0,1-.917-1.108,3.776,3.776,0,0,1-.324-1.577,3.847,3.847,0,0,1,.352-1.669,2.588,2.588,0,0,1,1-1.136,2.851,2.851,0,0,1,1.511-.394,2.581,2.581,0,0,1,2.161,1.025,4.471,4.471,0,0,1,.79,2.8v.343a5.974,5.974,0,0,1-1.066,3.939,4.1,4.1,0,0,1-3.218,1.273h-.229v-1h.248a2.8,2.8,0,0,0,3.085-3.072Zm-1.809,0a1.813,1.813,0,0,0,1.089-.362,2.133,2.133,0,0,0,.727-.9v-.47a3.232,3.232,0,0,0-.5-1.879,1.533,1.533,0,0,0-2.514-.13,2.448,2.448,0,0,0-.47,1.565,2.548,2.548,0,0,0,.454,1.558A1.437,1.437,0,0,0,47.312,31.938Zm5.148-.571.47-4.608h4.735v1.085H53.927l-.279,2.52a2.983,2.983,0,0,1,1.542-.4A2.55,2.55,0,0,1,57.2,30.8a3.271,3.271,0,0,1,.743,2.257,3.158,3.158,0,0,1-.771,2.25,2.811,2.811,0,0,1-2.155.822,2.921,2.921,0,0,1-2-.679,2.711,2.711,0,0,1-.882-1.879h1.111a1.865,1.865,0,0,0,.565,1.2,1.757,1.757,0,0,0,1.206.4A1.585,1.585,0,0,0,56.3,34.61a2.335,2.335,0,0,0,.467-1.542,2.143,2.143,0,0,0-.5-1.489,1.717,1.717,0,0,0-1.343-.562,1.936,1.936,0,0,0-1.206.336l-.311.254Zm6.906,4.018a.735.735,0,0,1,.181-.508.689.689,0,0,1,.543-.2.71.71,0,0,1,.549.2.721.721,0,0,1,.187.508.681.681,0,0,1-.187.489.723.723,0,0,1-.549.2.653.653,0,0,1-.724-.686ZM68.7,36H62.642v-.844l3.2-3.555a7.6,7.6,0,0,0,.981-1.311,2.188,2.188,0,0,0,.27-1.044,1.658,1.658,0,0,0-.438-1.187,1.531,1.531,0,0,0-1.168-.463,1.814,1.814,0,0,0-1.362.5,1.9,1.9,0,0,0-.486,1.387H62.464a2.726,2.726,0,0,1,.822-2.063,3.047,3.047,0,0,1,2.2-.787,2.928,2.928,0,0,1,2.038.676,2.306,2.306,0,0,1,.749,1.8,5.287,5.287,0,0,1-1.739,3.25l-2.476,2.685H68.7Zm7.04-3.942a5.371,5.371,0,0,1-.7,3.066,2.928,2.928,0,0,1-4.393.022,5.1,5.1,0,0,1-.736-2.929V30.649a5.251,5.251,0,0,1,.7-3.028,2.98,2.98,0,0,1,4.405-.035,5.068,5.068,0,0,1,.724,2.948Zm-1.174-1.606a4.3,4.3,0,0,0-.419-2.174,1.442,1.442,0,0,0-1.327-.682,1.423,1.423,0,0,0-1.314.679,4.2,4.2,0,0,0-.425,2.088v1.879a4.372,4.372,0,0,0,.435,2.212,1.439,1.439,0,0,0,1.317.714,1.42,1.42,0,0,0,1.292-.673,4.214,4.214,0,0,0,.441-2.12Zm8.474,1.606a5.371,5.371,0,0,1-.7,3.066,2.928,2.928,0,0,1-4.393.022,5.1,5.1,0,0,1-.736-2.929V30.649a5.251,5.251,0,0,1,.7-3.028,2.98,2.98,0,0,1,4.405-.035,5.068,5.068,0,0,1,.724,2.948Zm-1.174-1.606a4.3,4.3,0,0,0-.419-2.174,1.442,1.442,0,0,0-1.327-.682,1.423,1.423,0,0,0-1.314.679,4.2,4.2,0,0,0-.425,2.088v1.879a4.372,4.372,0,0,0,.435,2.212,1.439,1.439,0,0,0,1.317.714,1.42,1.42,0,0,0,1.292-.673,4.214,4.214,0,0,0,.441-2.12Zm7.224-.7-1.917-.571.292-.958,1.917.71-.057-2.181h.971l-.063,2.213,1.885-.7.292.964-1.949.577,1.257,1.72-.787.6L89.746,30.3,88.6,32.087l-.793-.578ZM102.632,36H96.576v-.844l3.2-3.555a7.6,7.6,0,0,0,.981-1.311,2.188,2.188,0,0,0,.27-1.044,1.658,1.658,0,0,0-.438-1.187A1.531,1.531,0,0,0,99.42,27.6a1.814,1.814,0,0,0-1.362.5,1.9,1.9,0,0,0-.486,1.387H96.4a2.726,2.726,0,0,1,.822-2.063,3.047,3.047,0,0,1,2.2-.787,2.928,2.928,0,0,1,2.038.676,2.306,2.306,0,0,1,.749,1.8,5.287,5.287,0,0,1-1.739,3.25l-2.476,2.685h4.64Zm5.745-4.062a2.873,2.873,0,0,1-.879.7,2.385,2.385,0,0,1-1.12.267,2.462,2.462,0,0,1-1.393-.394,2.559,2.559,0,0,1-.917-1.108,3.776,3.776,0,0,1-.324-1.577,3.847,3.847,0,0,1,.352-1.669,2.588,2.588,0,0,1,1-1.136,2.851,2.851,0,0,1,1.511-.394,2.581,2.581,0,0,1,2.161,1.025,4.471,4.471,0,0,1,.79,2.8v.343a5.974,5.974,0,0,1-1.066,3.939,4.1,4.1,0,0,1-3.218,1.273h-.229v-1h.248a2.8,2.8,0,0,0,3.085-3.072Zm-1.809,0a1.813,1.813,0,0,0,1.089-.362,2.133,2.133,0,0,0,.727-.9v-.47a3.232,3.232,0,0,0-.5-1.879,1.533,1.533,0,0,0-2.514-.13,2.448,2.448,0,0,0-.47,1.565,2.548,2.548,0,0,0,.454,1.558A1.437,1.437,0,0,0,106.568,31.938Zm4.691,5.9-.667-.457a3.063,3.063,0,0,0,.622-1.714V34.61h1.149v.92a2.891,2.891,0,0,1-.314,1.282A3,3,0,0,1,111.259,37.841Zm3.009-6.475.47-4.608h4.735v1.085h-3.739l-.279,2.52a2.982,2.982,0,0,1,1.542-.4A2.55,2.55,0,0,1,119,30.8a3.271,3.271,0,0,1,.743,2.257,3.158,3.158,0,0,1-.771,2.25,2.811,2.811,0,0,1-2.155.822,2.921,2.921,0,0,1-2-.679,2.711,2.711,0,0,1-.882-1.879h1.111a1.865,1.865,0,0,0,.565,1.2,1.757,1.757,0,0,0,1.206.4,1.585,1.585,0,0,0,1.285-.559,2.335,2.335,0,0,0,.467-1.542,2.143,2.143,0,0,0-.5-1.489,1.717,1.717,0,0,0-1.343-.562,1.936,1.936,0,0,0-1.206.336l-.311.254Zm11.718,1.53h1.282v.958h-1.282V36H124.8V33.854H120.6v-.692l4.139-6.4h1.25Zm-4.056,0H124.8V28.364l-.14.254Zm11.356,0h1.282v.958h-1.282V36H132.1V33.854H127.9v-.692l4.139-6.4h1.25Zm-4.056,0H132.1V28.364l-.14.254Zm6.3-4.361a1.875,1.875,0,0,1,.53-1.371,1.992,1.992,0,0,1,2.729,0,1.94,1.94,0,0,1,.524,1.406v.451a1.851,1.851,0,0,1-.53,1.368,1.827,1.827,0,0,1-1.349.53,1.867,1.867,0,0,1-1.365-.53,1.89,1.89,0,0,1-.54-1.412Zm.876.486a1.2,1.2,0,0,0,.279.818.942.942,0,0,0,.749.321.924.924,0,0,0,.727-.312,1.24,1.24,0,0,0,.276-.853v-.464a1.231,1.231,0,0,0-.273-.821,1.012,1.012,0,0,0-1.485,0,1.27,1.27,0,0,0-.273.846Zm3.625,4.713a1.865,1.865,0,0,1,.53-1.368,2,2,0,0,1,2.726,0,1.913,1.913,0,0,1,.533,1.416v.451a1.865,1.865,0,0,1-.53,1.368,1.824,1.824,0,0,1-1.355.536,1.867,1.867,0,0,1-1.365-.53,1.89,1.89,0,0,1-.54-1.412Zm.876.493a1.21,1.21,0,0,0,.279.824.942.942,0,0,0,.749.321.917.917,0,0,0,.73-.315,1.262,1.262,0,0,0,.273-.856V33.73a1.207,1.207,0,0,0-.276-.821,1.015,1.015,0,0,0-1.473,0,1.225,1.225,0,0,0-.282.849ZM137.7,35.3l-.667-.419,4.513-7.224.667.419Z" transform="translate(730 8149)" fill="#12263f"/></g></svg>