<svg xmlns="http://www.w3.org/2000/svg" xmlns:xlink="http://www.w3.org/1999/xlink" width="112.333" height="104.013" viewBox="0 0 112.333 104.013"><defs><clipPath id="a"><rect width="91.58" height="65.424" fill="none"/></clipPath><clipPath id="b"><rect width="91.58" height="65.425" fill="none"/></clipPath><clipPath id="c"><rect width="18.241" height="55.141" fill="none"/></clipPath><clipPath id="d"><rect width="22.895" height="56.433" fill="none"/></clipPath></defs><g transform="matrix(0.848, -0.53, 0.53, 0.848, 0, 48.53)"><g clip-path="url(#a)"><path d="M22.715,0V59.069l22.9,6.356V6.355Z" transform="translate(0.179 0)" fill="#e8e8e8"/><path d="M68.146,0V59.069l22.9,6.356V6.355Z" transform="translate(0.538 0)" fill="#e8e8e8"/><path d="M68.326,0,45.431,6.355v59.07l22.894-6.356Z" transform="translate(0.359 0)" fill="#c9c7c1"/><path d="M22.894,0,0,6.355v59.07l22.894-6.356Z" transform="translate(0 0)" fill="#cacaca"/><path d="M22.715,4.46V54.538l22.9,6.356V10.816Z" transform="translate(0.179 0.035)" fill="#3fb7c8"/><path d="M45.431,10.816V60.893l22.9-6.356V4.46Z" transform="translate(0.359 0.035)" fill="#3fb7c8"/><path d="M68.213,4.479l-.067-.018V54.537L86.387,59.6V9.524Z" transform="translate(0.538 0.035)" fill="#3fb7c8"/><path d="M4.617,9.524V59.6l18.241-5.064V4.46Z" transform="translate(0.036 0.035)" fill="#3fb7c8"/><g transform="translate(0 0)"><g clip-path="url(#b)"><path d="M25.165,32.715c.013.058-.239.076-.278.077a.243.243,0,0,0,.051.071c.161,0,.255-.04.227-.147" transform="translate(0.197 0.259)" fill="#fff"/><path d="M22.963,32.247c-.031,0-.023.009.005.031.007-.02.007-.031-.005-.031" transform="translate(0.181 0.255)" fill="#fff"/><path d="M20.38,33.408a1.866,1.866,0,0,0,.244.092c-.005-.031-.011-.057-.014-.087-.013-.084-.106-.063-.23-.005" transform="translate(0.161 0.264)" fill="#fff"/><path d="M18.959,32.561h0" transform="translate(0.15 0.257)" fill="#fff"/><path d="M10.178,17.508h0" transform="translate(0.08 0.139)" fill="#fff"/><path d="M29.25,19.516a.227.227,0,0,0,.173-.078c.007-.016-.17-.179-.147-.206-1.2.066.148-1.126-.63-1.558.018.01-1.192.965-1.134.525,0,.021-.13-.5.038-.637-.123-.017-.334-.094-.35-.094.347-.2-.592-.405-.838-.336-.779-.11-.875,1.744-1.506,2.039-.664.293-.668.922-1.1,1.186-.595.35,0-1.151.035-1.1a5.426,5.426,0,0,0-1.924-.58,1.77,1.77,0,0,0,.2-.481c-.08-.081-.212.038-.3-.031-.16-.12,1.728-1.415,1.8-1.29-.089-.141-.4-.013-.488-.168.9.275,1.266-.257,2.036-.519-.265.235-.526.479-.746.671.152-.024,1.258.137,1.487-.052-.153.12-.42-.663-.564-.663-.05,0-.035.2-.117.221.056-.089.109-.181-.019-.2a.118.118,0,0,0,0-.091c.278-.04.223.239.43.239.113,0-.072-.184-.083-.2.2-.2,1.328-.325,1.053-.9-.019-.032,1,.132.872-.253.1.123.251.354.394.312.01.137-.282-.039-.268.15.005.06.358.044.4.027,0,.125-.179.2-.174.225.061.3.258-.153.26-.163.031.083.051.036.119.06-.1.341-.594.424-.594.7-.232.131-1.057-.126-1.139.26.084-.411,1.777.824,2.124.824.226,0-.283-.516-.291-.546.254-.005.465.4.658.4.178,0-.008-.337.095-.379,0,0,.01-.005.016-.006.028.059.023.1.111.1-.125,0,.025-.3.07-.325-.063-.1-.421-.373-.406-.379.049-.117,1.043.23,1.514-.263-.087-.031-1.06-.5-1.06-.511-.015-.106.468-.1.469-.177,0-.028-.176-.053-.217-.068a.162.162,0,0,0,.006-.035c.043.007.147.05.181-.008.089-.173-.216-.119-.272-.095.062-.173-.455-.61-.693-.289-.093-.222-.254-.24-.335-.373.054-.343-.662-.308-.654-.169.028.332.363.042.487.14a5.814,5.814,0,0,1-.736.176c0-.063.257-.242.25-.371-.006-.165-1.26.152-1.312.416-.014.078.187.041.181.1,0,0-.1.056-.1.056-.5-.1.551-.647.556-.627-.068-.225-1.552.262-1.552.639a2.43,2.43,0,0,1,.438.063c-.048,0-.492-.063-.467.053.048.235,1.127.213,1.127.213l-.092.074a4.767,4.767,0,0,1-1.062.474c-.02,0,.083-.081.073-.1a4.8,4.8,0,0,1-.424.287.316.316,0,0,0-.09-.138c-.005.006.586-.451.167-.451a.284.284,0,0,0-.116.041c.012-.193-.409-.087-.424-.1.149-.1.555-.369.159-.563.226-.055,1.209-.26,1.322-.473-.048.091-2,.38-2.207.886-.088.189.284.157.322.164-.008.039.036.049.06.06-.13.051-.756.329-.756.524-.009.011-.109.035-.1.038-.023-.006-.039-.035-.068-.041a1.727,1.727,0,0,1,.25-.215c-.005-.036-.215-.007-.25-.052a3.051,3.051,0,0,0,.651-.254c.078-.157-1.053-.075-1,.131.024.095.21-.016.257.036a1.474,1.474,0,0,1-1.449.159c.4-.125-.7-.356-.808-.063.005-.013.153.268-.051.392a.271.271,0,0,1-.088-.028.161.161,0,0,0-.166-.215c.018-.022.178-.074.177-.086-.005-.032-1.1.209-1.273.075,0-.115.5-.013.41-.178-.228-.411-1.4-.171-1.735-.234a.2.2,0,0,1,.054-.024.766.766,0,0,0,.15-.145c-.035-.176-.6.241-.6.155-.009,0,.084-.242.065-.273a.25.25,0,0,0-.1-.041c.034,0-.378.338-.427.213a.687.687,0,0,0,.083-.053c-.525.253-8.205-.7-8.084.478.009.091.212.479.4.311,0,.268-.506.29-.633.255.027-.018.162-.1.156-.133,0,.029-1.3.157-1.3.3,0,.07.2.07.228.07-.029,0-.278.1-.271.182.02.155.774.084,1.115-.006-.732.3-2.678.714-2.353,1.389.108.2.586-.262.687-.266a5.035,5.035,0,0,0-.7.569,4.2,4.2,0,0,0,.977-.121c-.216.2-.022.141.156.088-.19.111-1,.41-1.753.688h0a.947.947,0,0,1,.166.152c.874-.256,1.817-.542,2.026-.613-.038.031-.536.2-.438.317-.015-.016.118.076.093.076a3.241,3.241,0,0,0,.961-.466c.022-.079-.027-.018,0-.079.01-.018-.55.131-.6.145.156-.089.629-.182.4-.345.46-.133.763-.408,1.152-.488-.143.111-.671.359-.709.468.04-.126,1.036-.118,1.5-.271a.044.044,0,0,0,0,.044c.022.046.24-.121.289-.145,0,.174.046.059.073.267,1.791-.454.666.914,1.081,1.486.14.2.366-.356.411-.468a6.7,6.7,0,0,0,0,1.628c-.094-.028-.374-.239-.405-.047-.113.486.473.582.108,1.309-.575.876-1.776,2.281-1.17,3.241.328.51,1.323,2.3.713,2.3.308,0,.611,1.707.97,1.738h.04c.2,0-.736-2.756-.53-2.756.651,0,.082.647.285.93.792,1.073,1.151,3.073,2.684,3.719a10.6,10.6,0,0,0,3.114,1.022c.376,0,.544,1.733,1.189,1.733.011,0,.181-.316.334-.085,0,.144-.108.066-.128.1s.051.135.067.135a5.285,5.285,0,0,0,.67-.381A2.259,2.259,0,0,1,19.4,32.449c-.572-1.342.469-.609-1.248-1.2a6.924,6.924,0,0,0,.53-1.227c.6-1.173-1.027-.214-.924.115.156.479-1.378.323-1.666-.547.374-.476,1.216-3.99,2.426-2.522a.1.1,0,0,1,.1.049c.082-.154.5-.383.555-.44.052-.387,1.087.9,1.124.943a3.7,3.7,0,0,0,.345.843c.573,0,.1-2.466,1.215-2.708.595-.127.683-.6.879-.743.087-.062.015-.994.375-1.028-.027.059-.293.654-.232.73.123.135.372-.648.376-.706a1.75,1.75,0,0,1,.061.17c-.018-.083.406-.5.7-.673-.013,0-.022,0-.025-.008a.593.593,0,0,0,.106-.034c-.024.015-.051.025-.081.042.063-.006.232-.078.255-.039a.093.093,0,0,0-.1-.024c.305-.1.39-.158.408-.016,0-.056.407-.058.329-.24-.045-.1-.1.035-.169.076,0-.072-.066-.138-.065-.174.039-.244.591-.457.8-.639,0,.073-.1.059-.088.129,0-.049,1.166-.469,1.267-.548-.024.047-.178.114-.177.132.005.079.223-.005.244-.018,0,.225-.845.085-.655.564.07.181,2.142-1.047,1.681-1.047-.5,0-.62.128-.643.19a1.262,1.262,0,0,0-.179-.451,2.538,2.538,0,0,1-.512-.02.021.021,0,0,1,0-.014c.313.07.438-.176.675-.243.153-.459-1.619.429-1.828.555,1.172-.907,2.2-.643,3.368-1.224.827,0,.953-.845.614-.935m-4.256-4.169a.59.59,0,0,0-.2.234c-.13-.23.081-.214.2-.234m-.92.859a.672.672,0,0,1,.466.135c-.176.008-.4-.143-.467-.135Z" transform="translate(0.048 0.112)" fill="#fff"/><path d="M28.839,19.508a.523.523,0,0,0-.095.055.182.182,0,0,1,.095-.055" transform="translate(0.227 0.154)" fill="#fff"/><path d="M28.455,19.661l-.02.008a.14.14,0,0,0,.02-.008" transform="translate(0.225 0.156)" fill="#fff"/><path d="M27.475,16.819c-.162.131.09-.126,0,0" transform="translate(0.217 0.133)" fill="#fff"/><path d="M22.982,15.669c.2.087-.065.024,0,0" transform="translate(0.181 0.124)" fill="#fff"/><path d="M18.444,26.754c.122-.142-.027.036,0,0" transform="translate(0.146 0.211)" fill="#fff"/><path d="M9.979,16.058h0" transform="translate(0.079 0.127)" fill="#fff"/><path d="M9.784,16.055a.164.164,0,0,0-.036,0,.16.16,0,0,1,.036,0" transform="translate(0.077 0.127)" fill="#fff"/><path d="M10.179,17.508c-.468.088.1-.021,0,0" transform="translate(0.079 0.139)" fill="#fff"/><path d="M12.246,18.84c.005,0-.007.011-.009.015.045-.079.134-.171.009-.015" transform="translate(0.097 0.148)" fill="#fff"/><path d="M12.59,19.221c-.019.035,0,0,0,0" transform="translate(0.099 0.152)" fill="#fff"/><path d="M18.96,32.561c-.361.25.138-.1,0,0" transform="translate(0.149 0.257)" fill="#fff"/><path d="M18.6,27.146c-.034-.01-.047-.083-.081-.134-.031.06-.017.109.081.134" transform="translate(0.146 0.214)" fill="#fff"/><path d="M27.472,17.514l-.005-.009a.147.147,0,0,0-.084.03c.054.008.1.006.089-.021" transform="translate(0.216 0.139)" fill="#fff"/><path d="M17.47,15.046c0,.005-.013.019-.033.032.021-.009.036-.021.033-.032" transform="translate(0.138 0.119)" fill="#fff"/><path d="M29.835,36.866c.007,0,.028-.448-.108-.448-.458,0-.865-.407-1.238.321.014-.281-1.572-4.013-2.462-2.743.134-.556-.785-.836-1.051-1.129a6.728,6.728,0,0,1-1.985-.588c-.052.109-.464.486-.45.414s-.061-.119-.061-.182.344-.1.231-.257c-.409-.561-1.736,1.325-1.644,1.325a1.7,1.7,0,0,1-.441-.07c.076.434.3,1.384.263,1.384-.781,0-.973,2.194-.75,1.906-.181,1.4.465,2.077,1.2,3.606.453.942,2.785,1.477,1.926,2.993-.314.617.051,5.3.6,5.577-.138.029-.079.511.081.511s.036-.438.052-.575c0,.008.056,0,.067,0a1.747,1.747,0,0,1,.153.919c-.079,0-.107-.21-.2-.21.084,0-.038.947.026.947-.036,0,.4-.075.4-.19.046.066.145.268.1.344-.591.578.637,1.485.641,1.481a.387.387,0,0,1,.011.08c-.1-.016-.172-.1-.172.05a6.26,6.26,0,0,0,2.218.889s0-.005.006,0c-.289,0,.273-.362.292-.4-1.453-.375-1.825-3-1.412-3.58.1-.22.2.252.337.064.086-.126-.721-.351-.58-.586.1-.029,1.218-.719.552-.645,1.963-.513.644-.305.655-1.394,0,.9,1.209-.284,1.64-.91,0,.032,0,.052.029.052.292,0,.724-2.416,1.518-2.652.732-.262,2.668-5.044,2.027-5.563s-1.859-.5-2.469-.745m-7.177-3.733c-.307.413.4-.562,0,0m1.7,17.114c-.159-.15,0-.215,0,0" transform="translate(0.158 0.254)" fill="#fff"/><path d="M22.637,33.125h0" transform="translate(0.179 0.262)" fill="#fff"/><path d="M29.029,16.6c.006.012.013.021.012.027.005-.027,0-.032-.012-.027" transform="translate(0.229 0.131)" fill="#fff"/><path d="M38.337,15.1a5.662,5.662,0,0,0-.815-.036c.4-.015.428,0,.967,0,.232,0-.11-.346-.347-.567.11.069.587.2.5-.113-.019-.066-.224-.055-.271-.1.271-.095.363.027.612-.128-.011.023-.091-.024-.108-.039a.679.679,0,0,0,.451-.1c.07-.065-.188-.079-.218-.1.422-.187.026-.259-.006-.4-.051-.2.289,0,.374.1a.8.8,0,0,1,.179-.216c-.037-.214-.259.017-.35-.127.02,0,.248.076.243-.012,0-.3-.47.005-.5,0,.134-.6,1.918-.387,1.988-.846a5.87,5.87,0,0,1-1.4-.119c-.031.02-.024.249-.291.173.259-.236-.467-.054-.5-.115a2.985,2.985,0,0,0,.717-.119c0-.293-2-.047-2.04-.057.038-.021.238-.03.238-.1-.032-.262-2.343.3-2.461.126.005,0-.11-.114-.11-.033,0,.233.432.041.47.2-.185.055-.844-.313-1-.1-.055.076.127.1.17.117-.067.012-.608,0-.675.018a9.847,9.847,0,0,0-2.624.313c.019.1.353-.038.375.032.1.322-1.809.146-1.826.431a3.082,3.082,0,0,0,.442.158c-.128,0-.388-.074-.419.063-.1.576,2.031-.035,2.05.339,0,.2-.08-.013.106.208-.22.221-.088.415.059.349-.006.055-.5.369-.121.193-.031.031-.269.23-.216.285.147.146.363-.01.478-.1-.038.168.065.289.278.246a.372.372,0,0,1-.027.08c-.309.051-.333-.17-.342-.178-.124-.143-.506.382-.533.428-.069.127.267.111.473.068-.321.26-.805.656-.515.673-.592.749.285,1.274.709,1.7a14.332,14.332,0,0,0,3.655-2.16c.259.241.879.133,1.236,0,.132-.043.943-.411.943-.411m-.072-.781c-.037.018-.2.063-.169.136l-.151-.135a.713.713,0,0,1,.321,0m-7.666-1c.025-.016.107-.008,0,0m1.862,1.865c-.048-.028-.174-.076-.2-.1a1.617,1.617,0,0,1,.3,0c.02,0-.025.042-.1.1" transform="translate(0.238 0.095)" fill="#fff"/><path d="M39.4,13.64c.032,0,.026-.016,0-.047-.014.031-.02.047,0,.047" transform="translate(0.311 0.108)" fill="#fff"/><path d="M40.757,18.88c.032.047.171-.182.219-.2,0,.07-.14.206-.084.283.063-.022.127-.151.183-.143-.006.095-.278.2-.248.265.058.094.178-.1.2-.106-.01.04-.1.185-.067.243s.228-.175.236-.175c.021.015-.1.229-.094.266.008.07.327-.01.377-.032-.023.142-.387.648-.387.507,0,.127.063.113.19.146-.038.068-.293.25-.277.291.025.086.424.1.536.081-.031.026-.766.285-.719.4,0-.017,1.784-.2,1.753-.372-.007-.027-.176-.053-.183-.053.109-.181.5-.6-.084-.421a7.335,7.335,0,0,1-.362-1.367c-.062-.19-.43.082-.5-.024.019.024.488-.4.392-.467,0,0-.094-.04-.094-.04a7.534,7.534,0,0,0-.618.46.51.51,0,0,1-.341.128c.046.1-.045.306-.028.332" transform="translate(0.322 0.142)" fill="#fff"/><path d="M73.685,24.471H73.67c.027.011.027.008.015,0" transform="translate(0.582 0.194)" fill="#fff"/><path d="M67.729,30.917c.011-.013-.044.046,0,0" transform="translate(0.535 0.244)" fill="#fff"/><path d="M76.733,21.827c.027.032.046.047.051.038s-.018-.019-.051-.038" transform="translate(0.606 0.173)" fill="#fff"/><path d="M56.724,14.386c-.006.011,0,.029.016.047.01-.068.006-.1-.016-.047" transform="translate(0.448 0.114)" fill="#fff"/><path d="M79.072,19.783l.013.016c0-.007,0-.013-.013-.016" transform="translate(0.624 0.157)" fill="#fff"/><path d="M72.231,29.329c.007.206,2.634-1.583,1.839-2.527.059.063-.448,0-.441,0,.584-.1-.129-.8-.345-1-.926-.835.091-.563.091-1.038a.732.732,0,0,0-.028-.158c-.056-.059-1.7-.072-1.481-.455a.48.48,0,0,1,.031-.076c.316,0,.51-.628.77-.519.1.029.06.378.068.552a6.7,6.7,0,0,1,1.238.451c.653.011.26.492.612,1.046-.009-.014,1.055-.23.65-.662-.252-.26-1.3-1.794-.628-1.794,1.533,0,.962-1.893.726-2.967.656.114.93,1.826,1.426,1.826.079,0-.014-.166-.011-.206a1.012,1.012,0,0,1,.3.092c-.158-.163-.637-.839-.682-.9.1-.031.489.171.493.156a19.3,19.3,0,0,0-1.824-1.719h-.015c-.151.04.195.262.227.29-.147.188.062.012.042.394-.418-.4-.979-.775-1.35-.593,0-.139-.276-.389-.312-.281-.013.069.226.155.186.221s-.26-.213-.272-.213-.04.174-.341.082c.513-.727,1.589-2.176,2.592-1.325a.4.4,0,0,0-.166.071c0,.2.9-.039.9-.049a.811.811,0,0,0-.026-.4,1.1,1.1,0,0,0,.313-.291c-.129.159.814.478.75.036-.014-.089-.217-.152-.274-.228a1.179,1.179,0,0,1,.541.444c-.037-.005-.461.791-.524.868.028-.024,1.685,2.339,1.652,2.283.121.191.322-.61.155-.872a1.1,1.1,0,0,1,.294-.027c-.06-.071-.321-.236-.291-.3.011-.02.359-.427.165-.571.009-.015.009-.031-.009-.067-.139-.272-1.283-.626-1.106-1,.194-.341,1.013-.015,1.439-.015-.444,0,1.23-1.172,1.076-.7.129-.365-1.015-.442-1.138-.645.111.023.406.048.406-.146,0-.069-.339-.268-.311-.268s.089.083.089-.005a4.807,4.807,0,0,0,2,.467c.014-.04-.305-.248-.339-.273.044-.031.248.028.216-.083-.14-.069-1.238-.65-1.377-.4a.853.853,0,0,0,.218.157,27.155,27.155,0,0,0-4.4-.952,3.7,3.7,0,0,0,.519.336c-.234.352-5.279-.8-6.262-.864,0-.047.149-.019.166-.039v-.024a6,6,0,0,0-1.09-.075c-.007.027.1.069.12.077-.039.007-.278-.008-.29.036.013-.08.4.232.4.237-.409.032-.864-.126-1.478-.126-.068,0,.053.26.069.323-.211-.067-2.231-1.2-2.382-.743-.024.07.214.161.25.216-.735-.367-2.081.09-2.532-.276.053-.012.282-.012.282-.1,0-.215-.62.132-.618.142,0,.082.166.039.214.034-.047.14-.739.032-.739.211,0-.247.973-.388.927-.6-.119-.675-2.8-.347-2.686-.312-.479-.094-.663.163-1.144.06-.129.027-1.338.3-1.343.437,0,.04.42.065.483.091-.207.164-1.076-.045-1.107.208-.011.151.741.3.741.357a2.692,2.692,0,0,1-.949-.179c.034-.018.186-.009.2-.039.1-.241-.515.171-.459.145.128.055.213-.015.333.045-.06.026-.375-.06-.4.043a.067.067,0,0,0,0,.028,1.237,1.237,0,0,1-.384-.232c-.016.132-.073.386-.113.345.006.01.013.025.021.037-.454-.6-1.16-1-1.234.027,0-.009.3.23.309.238-.2.4.559.026.437.474a13.409,13.409,0,0,0-2.257-.5,5.862,5.862,0,0,0,.651.282c.02.394-.374-.034-.453-.092a3.048,3.048,0,0,1-.873.3c-.081-.184.093-.055.093-.173s-1.681.788-1.781.4c.077-.123.241.008.308-.1-.184-.088-.592-.15-.7-.229-.054.063.332.549.342.495-.016.061-.074.121-.045.188-.648-.466-.649.284-.686.376-.159.239-.669-.3-.821-.054-.05.078.347.2.383.245-.46.23-.964-.551-1.22-.752.381-.122,2.62.364,1.252-.357a4.357,4.357,0,0,0-2.053-.442c.024-.011.293-.091.287-.132-.05-.248-.588-.034-.617-.043,0,0,.11-.137.109-.139-.153-.172-.289.095-.383.135a.312.312,0,0,1-.027-.039c0,.052-.052.114-.267.127.016-.047.2-.194.154-.249a4.494,4.494,0,0,1-.833.127c.029.019.139.062.158.109a.493.493,0,0,0-.488.145c.034-.42-.3.026-.358.168-.152-.284-.168-.027-.238.083-.1-.32-.5.074-.771.184a.162.162,0,0,0,0,.085c.039.051.37-.134.449-.149.026.871-1.645,1.215-1.661,1.508.011-.121-.94.732-.38.922-.2.362.928.661,1.134.02.329.993.185.781.124,1.344,0,.037.109.083.135.083.823,0,1.1-.992,1.614-1.509.036-.032-.779-.634-.2-.89.288-.147.768-.338,1.081-.46-.344.218-.757.679-.43,1.013s1.269.167,1.864.238c-.312.074-1.686.111-1.726.482.005-.022.085.151.071.148.066-.009.615-.235.53-.134-.018.118.028.231,0,.335-.573.178-1.941,1.426-2.973.912-.328.235.013-1-.058-1.077-.513-.536-.4,1.056-.4,1.067a23.808,23.808,0,0,1-2.575,1.244c.5,0-.664.571-.755.451.087.342,1.9,1.453-.214,1.453-1.265,0-1.056.941-1.078,2.068.425.095,2.659.327,2.283-.733-.22-.642,2.59-2.14,2.59-1.094,0,.056,1.206.572,1.211.767.036.628-.6.63-.6.725,0,1.2,1.48-.517,1.227-.748.1.05.209.173.268.178.181-.2-1.551-1.069-1.551-1.5,0-.56.679.055.679.118,0,.116,2.176,2.326,2.383,2.064a1.685,1.685,0,0,1,.127-.17c-.1-.068-.7-.73-.577-.73.1,0,.986-.292,1.012.01.007.051-.217.316-.187.391.111.253.253-.128.251-.128a1.015,1.015,0,0,1-.208.417,1.791,1.791,0,0,0,.341.074c0,.045-.234.12.082.242-.04,0-.167.212-.163.242.155-.108.147-.13.3-.18,0,.057-.123.025-.15.116a.782.782,0,0,1,.183.2c.057-.068.088-.217.126-.244,0,.233,1.872.209,1.872-.023.33,1.717-.948,1.91-2.4,1.646-.21-.039-2.625-.269-1.941.32a6.271,6.271,0,0,0-2.009-.988c-.456-.125.22-.765.024-1.059-.5-.79-4.665.907-5.113,1.2a12.352,12.352,0,0,0-2.2,3.126c-.114.331-.548,2.824-.3,3.115.454.495.9,1.32,1.487,1.953,1.032,1.358,2.61.3,3.875.141.325-.038,2.491.819,1.772,1.5-.412.457.771,2.677.99,3.27.5,1.3-.842,2.268.115,3.705.669.967.665,2.979,1.207,3.825.415.641,1.364.146,2.086.146,1.647,0,2.144-3.359,2.539-3.985-.143-.845,1.524-1.565,1.527-3,.013-.245-.861-2.755.131-2.755.937,0,2.847-3.516,2.771-4.168a9.008,9.008,0,0,0-2.319-.145c.513-.437-3.176-4.485-2.958-5.683.078.139.3.655.492.655.071,0,.11-.363.128-.452.043.626,3.083,4.911,2.929,5.082.994-1.114,4.012-1.138,3.935-2.971,0,.1-1.4-1.167-1.119-1.167-.35,0-.554.673-1.07.673-.34,0,.063-.7-.308-.7-.086,0-.059.276-.077.291.027-.006-1.357-1.615-.474-1.483.171.019,1.2,1.523,1.632,1.03.349-.424,3.481,1.32,4.15,1.179-.083.156-.374.125-.4.177-.05.128.643.749.872.367.153,1.2,2.138,4.984,2.329,3.7.029-.265-.132-1.995.336-2.176a4.621,4.621,0,0,0,1.623-1.814c0,.267.473.123.5-.075.083.218.358.029.358-.079.2.775,1.243,2.258,1.62,1.866.617-.658.8,2.763.669,2.763.042,0,.066-.163.078-.19.035.05.136.313.152.329,0,0,1.238,2.375,1.615,1.976.168-.171-2.483-3.949-1.327-3.949.328,0,1.411,1.544,1.372,1.565,2.067-1.18-1.152-4.054.817-4.054a3.578,3.578,0,0,0,.045.428c-.126-.265.767-.435.841-.595M57.69,14.788a.327.327,0,0,1-.1-.011c.142.01.249-.005.1.011m-.877,1.246c.526,0,.422-.537.114-1.028a1.381,1.381,0,0,0,.842.345c-.01,0-.324.032-.347.091-.037.08.268,1.072-.609.593m.991-.68c.226.029.405.368.426.368-.126,0-.259-.3-.426-.368m12.711-.732c.282-.127.128-.05,0,0" transform="translate(0.294 0.106)" fill="#fff"/><path d="M72.477,24.123a.207.207,0,0,1-.02-.1c-.052,0-.055.031.02.1" transform="translate(0.572 0.19)" fill="#fff"/><path d="M47.737,14.926c0-.055-.06-.095,0,0" transform="translate(0.377 0.118)" fill="#fff"/><path d="M48.53,24.28c.005,0,.01,0,.019-.009-.016,0-.024,0-.019.009" transform="translate(0.383 0.192)" fill="#fff"/><path d="M49.134,24.961a.074.074,0,0,1-.081.036c.08.023.095,0,.081-.036" transform="translate(0.387 0.197)" fill="#fff"/><path d="M40.992,21.2a.084.084,0,0,1,0-.047.046.046,0,0,0,0,.047" transform="translate(0.324 0.167)" fill="#fff"/><path d="M48.259,24.31c.007.007.013.009.014.007.005-.018,0-.015-.014-.007" transform="translate(0.381 0.192)" fill="#fff"/><path d="M81.729,37.842h0c.021.008.013,0,0,0" transform="translate(0.645 0.299)" fill="#fff"/><path d="M81.659,38.107c-.027.047.6-.025.106-.251-.033-.014-.014-.007,0,0-.207-.1-2.854-2.149-2.988-1.153-.042.35-.986-.675-1.463-.484-.019-.012-.031.058-.045.094.18.1.449.471.72.456-.136.021-.329.028-.367.088.039-.06.241.43.269.43.117,0,.168-.214.22-.291,0,.535.932.7.932,1.573,0,.331,2.074-.017,1.52-.017.78-.521,1.1.8,1.92.8a.592.592,0,0,0,.158-.17c.007-.208-1.217-.685-.981-1.077" transform="translate(0.61 0.286)" fill="#fff"/><path d="M77.267,36.311l-.022-.013c.007.049.015.04.022.013" transform="translate(0.61 0.287)" fill="#fff"/><path d="M81.729,42.91a2.652,2.652,0,0,1-.059-.65c-.013-.276-1.108-1.665-1.068-1.78-.049-.1-.115-1.271-.189-1.271-.25,0-.731,2.532-1.029,2.231-.335-.327-.806-.478-1.092-.871-.1-.16.646-.7.513-.812a1.6,1.6,0,0,1-.1-.157c-.155,0-.048.214-.151.214-.02-.006-.061-.194-.026-.194-.427,0-.733-.227-1.061-.227-.118,0,.217.239.163.31.009-.008-1.483.739-.878.784-.111.218-.3-.085-.407.154-.073-1.006-1.037.184-1.122.4-.076,0-.141-.1-.186-.1-.158,0,.027.3.023.333-.164-.054-.038-.011-.116.142-.051-.09-.026-.282-.073-.337a7.884,7.884,0,0,1-2.681,1.866c0-.027.05-.229-.009-.225-.094.414-.063.985-.147,1.321-.012.027-.055.051-.081.067-.008-.034-.028-.165-.075-.176-.187-.04.065.263-.056.263-.02-.043-.066-.347-.137-.347a7.583,7.583,0,0,1,.174,2.121c-.307,1.1-.225.706.9.56,1-.145,1.859-.729,2.929-.729a.941.941,0,0,1,.7.264A3.244,3.244,0,0,0,77.7,48.554a.733.733,0,0,0,.9-.115c.1-.122.2-.243.3-.368.737-.007,3.687-3.344,3.584-4.4.03.31-.75-1.175-.75-.76" transform="translate(0.566 0.31)" fill="#fff"/><g transform="translate(4.654 4.496)" style="mix-blend-mode:multiply;isolation:isolate"><g clip-path="url(#c)"><path d="M4.617,9.524V59.6l18.241-5.064V4.46Z" transform="translate(-4.617 -4.46)" fill="#cecece"/></g></g><g transform="translate(45.79 4.496)" style="mix-blend-mode:multiply;isolation:isolate"><g clip-path="url(#d)"><path d="M45.431,10.816V60.893l22.9-6.356V4.46Z" transform="translate(-45.431 -4.461)" fill="#cecece"/></g></g></g></g></g></g></svg>