<svg xmlns="http://www.w3.org/2000/svg" xmlns:xlink="http://www.w3.org/1999/xlink" width="63.39" height="58.316" viewBox="0 0 63.39 58.316"><defs><linearGradient id="a" x1="0.195" y1="-17.906" x2="-0.903" y2="-17.906" gradientUnits="objectBoundingBox"><stop offset="0" stop-color="#d0ad4e"/><stop offset="0.565" stop-color="#9d7c00"/><stop offset="1" stop-color="#d9b25a"/></linearGradient><linearGradient id="b" x1="0.163" y1="-18.615" x2="-0.935" y2="-18.615" gradientUnits="objectBoundingBox"><stop offset="0.008" stop-color="#f6edac"/><stop offset="0.18" stop-color="#d0ad4e"/><stop offset="0.308" stop-color="#fffcc3"/><stop offset="0.451" stop-color="#d9b25a"/><stop offset="0.64" stop-color="#fcf6bb"/><stop offset="0.81" stop-color="#d0ad4e"/><stop offset="1" stop-color="#f7efaf"/></linearGradient><linearGradient id="c" x1="-2.03" y1="-33.568" x2="-0.998" y2="-34.281" gradientUnits="objectBoundingBox"><stop offset="0.113" stop-color="#d0ad4e"/><stop offset="0.281" stop-color="#be8c09"/><stop offset="0.557" stop-color="#ebda8a"/><stop offset="0.684" stop-color="#b80"/><stop offset="1" stop-color="#d9b25a"/></linearGradient></defs><g transform="translate(0 0)"><g transform="translate(0 0)" opacity="0.75"><path d="M661.893,114c7.55,21.489,37.647,15.214,45.2,36.7l18.193-18.555c-8.179-23.28-40.784-16.481-48.964-39.761Z" transform="translate(-661.893 -92.391)" fill="#b1d479"/><path d="M728.745,139.7l-15.454,16.031c-8.7-17.7-34.836-13.935-43.365-31.849L682.313,105.6C691.445,124.777,719.425,120.748,728.745,139.7Zm-12.314,7.279a3.985,3.985,0,0,1,.724,2.7l6.4-6.7a3.353,3.353,0,0,1-2.07-1.479,4.029,4.029,0,0,1,2.317-6.554c-10.052-10.834-28.443-11.4-38.378-22.377-.058,2.786-3.038,5.341-5.137,2.542a4.92,4.92,0,0,1-.852-2.86l-5.377,7.865a2.593,2.593,0,0,1,2.143,1.352c2.117,2.744.624,6.336-1.681,6.908,9.421,10.214,26.687,10.767,36.087,21.007C710.831,146.727,714.283,144.2,716.431,146.976Z" transform="translate(-667.882 -101.441)" fill="#559756"/><path d="M741.939,169.732c-2.759,3.57-2.345,7.633,1.01,8.967s8.406-.318,11.357-3.786c2.965-3.484,2.546-7.54-1.017-8.958S744.685,166.176,741.939,169.732Z" transform="translate(-717.501 -142.458)" fill="#559756"/><g transform="translate(25.363 23.94)"><path d="M750.727,180.185l1.124-1.381a7.082,7.082,0,0,0,3.061.447q.177-.539.352-1.079a6.543,6.543,0,0,1-2.909-.4c-1.2-.483-1.554-1.375-.927-2.158.6-.755,1.64-.951,3.237-.851,2.186.155,3.779-.027,4.76-1.211.936-1.13.629-2.408-.806-3.259l1.123-1.381-1.084-.438-1.073,1.328a6.715,6.715,0,0,0-2.637-.44q-.146.543-.293,1.085a6.063,6.063,0,0,1,2.552.42c1.335.539,1.322,1.371.874,1.917-.581.71-1.509.806-3.4.7-2.23-.138-3.674.208-4.646,1.433a2.169,2.169,0,0,0,.79,3.422l-1.151,1.424Z" transform="translate(-749.498 -168.474)" fill="#b1d479"/></g></g><g transform="translate(4.093 28.02)"><g transform="translate(0)"><path d="M770.53,194.741c.545,8.054-10.164,15.989-10.164,15.989,10.454.313,14.179-9.54,13.748-15.541-.421-5.873-5-14.886-16.786-13.632C757.329,181.557,769.985,186.687,770.53,194.741Z" transform="translate(-744.88 -181.438)" fill="#fcc843"/><g transform="translate(0 0.093)"><path d="M767.481,203.686c1.872,7.388,8.82,12,15.517,10.305s10.61-9.062,8.738-16.451-8.819-12-15.517-10.3S765.609,196.3,767.481,203.686Z" transform="translate(-765.983 -185.263)" fill="#ffd667"/><path d="M781.919,210.684c7.142-1.81,11.329-9.692,9.333-17.571s-9.43-12.816-16.573-11.006-11.328,9.691-9.333,17.57S774.777,212.493,781.919,210.684Zm-6.778-26.756c6.232-1.579,12.718,2.729,14.46,9.6s-1.911,13.752-8.143,15.331-12.719-2.729-14.46-9.6S768.909,185.507,775.141,183.928Z" transform="translate(-764.848 -181.733)" fill="url(#a)"/><g transform="translate(0.371 0.466)"><path d="M783.224,211.125c.36-.092.72-.2,1.068-.325l-.262-.773a11.216,11.216,0,0,1-2.052.518l.138.8C782.486,211.293,782.859,211.217,783.224,211.125Zm1.278-.4.211-.082-.286-.764c-.066.026-.131.052-.2.076Zm-2.609.659-.124-.806-.211.026.112.808C781.745,211.4,781.818,211.391,781.893,211.381Zm4.823-1.776.191-.126-.413-.7c-.059.04-.119.079-.179.118Zm-7.3,1.845.018-.811c-.071-.005-.142-.011-.213-.019l-.031.81C779.264,211.438,779.34,211.445,779.415,211.451Zm7.68-2.1a12.207,12.207,0,0,0,1.741-1.481l-.524-.6a11.589,11.589,0,0,1-1.641,1.395Zm-8.131,2.056.044-.808a11.568,11.568,0,0,1-2.105-.447l-.173.781A12.243,12.243,0,0,0,778.963,211.407ZM789,207.7c.053-.057.106-.113.158-.17l-.543-.585c-.049.053-.1.107-.148.16Zm-12.487,3.158.187-.776-.206-.07-.2.771C776.364,210.813,776.436,210.838,776.509,210.862Zm14.047-5.186.122-.2-.629-.467c-.038.063-.077.126-.116.189Zm-16.381,4.145.32-.717-.192-.111-.332.71Zm16.623-4.548a14,14,0,0,0,1.006-2.151l-.694-.333a13.211,13.211,0,0,1-.948,2.028Zm-17.028,4.309.343-.7a13.209,13.209,0,0,1-1.8-1.334l-.452.622A13.98,13.98,0,0,0,773.769,209.581Zm18.115-6.685c.026-.076.051-.152.077-.228l-.7-.306c-.024.072-.048.143-.073.214Zm-20.2,5.11.463-.613c-.056-.051-.112-.1-.167-.154l-.472.6C771.565,207.9,771.623,207.952,771.683,208.007Zm20.844-7.691c.012-.08.024-.16.035-.241l-.738-.157c-.011.076-.021.151-.033.227Zm-22.637,5.725.566-.5-.138-.186-.574.49C769.792,205.91,769.84,205.976,769.89,206.041Zm22.7-6.207a15.175,15.175,0,0,0,.1-2.454h-.744a14.318,14.318,0,0,1-.09,2.311ZM769.6,205.645l.582-.477A14.322,14.322,0,0,1,769,203.177l-.655.355A15.22,15.22,0,0,0,769.6,205.645Zm23.076-8.512c0-.082-.011-.164-.017-.246l-.743.028c.006.078.011.155.016.232Zm-24.434,6.175.661-.341q-.049-.106-.1-.212l-.667.329C768.174,203.159,768.208,203.233,768.242,203.308Zm24.04-8.866c-.019-.081-.038-.16-.059-.241l-.719.181c.019.076.038.152.056.228Zm-24.972,6.312.715-.2c-.021-.075-.04-.15-.059-.227l-.007-.027-.718.182.007.028C767.268,200.594,767.289,200.674,767.31,200.754Zm24.137-6.6.714-.195a15.7,15.7,0,0,0-.828-2.331l-.667.329A14.868,14.868,0,0,1,791.446,194.157ZM767.9,200.078a14.821,14.821,0,0,1-.354-2.3l-.743.027a15.721,15.721,0,0,0,.375,2.444Zm22.665-8.331.662-.341-.106-.223-.655.354C790.5,191.607,790.536,191.677,790.569,191.747Zm-23.034,5.794c0-.077-.008-.154-.012-.232l-.745,0c0,.082.008.165.013.247Zm21.758-8,.583-.477q-.071-.1-.144-.2l-.574.488C789.2,189.419,789.248,189.481,789.292,189.544ZM767.616,195c.009-.076.019-.152.029-.228l-.737-.158c-.011.081-.022.161-.031.242Zm21.4-5.826.567-.5a14.734,14.734,0,0,0-1.615-1.8l-.473.6A13.8,13.8,0,0,1,789.02,189.171Zm-21.341,5.372a13.859,13.859,0,0,1,.534-2.217l-.7-.307a14.682,14.682,0,0,0-.567,2.352Zm19.654-7.226.463-.612c-.059-.054-.119-.108-.179-.161l-.453.622C787.22,187.215,787.276,187.266,787.332,187.317Zm-19.047,4.8q.038-.107.077-.213l-.694-.333c-.028.074-.054.149-.081.225Zm17.08-6.282.344-.7-.2-.122-.332.71C785.24,185.753,785.3,185.791,785.366,185.83Zm-16.053,4.042.113-.192-.629-.467c-.04.067-.081.134-.12.2Zm15.672-4.269.321-.716a13.11,13.11,0,0,0-2.116-.97l-.2.773A12.352,12.352,0,0,1,784.984,185.6Zm-15.443,3.889a12.347,12.347,0,0,1,1.324-1.749l-.542-.585a13.1,13.1,0,0,0-1.4,1.856Zm13.243-4.872.187-.777-.219-.071-.174.781C782.646,184.575,782.715,184.6,782.784,184.62Zm-11.771,2.963.151-.157-.523-.605-.16.167Zm9.46-3.479.045-.808-.226-.024-.032.809Zm-7.667,1.929.177-.121-.412-.7c-.063.042-.126.085-.188.129Zm7.241-1.97.019-.811a11.839,11.839,0,0,0-2.255.039l.111.808A11.122,11.122,0,0,1,780.047,184.062Zm-6.884,1.731a11.144,11.144,0,0,1,1.889-.973l-.285-.765a11.848,11.848,0,0,0-2,1.032Zm4.549-1.669-.125-.807-.223.032.137.805C777.571,184.144,777.641,184.134,777.712,184.125Zm-2.461.619c.065-.025.132-.049.2-.073l-.261-.773-.211.077Z" transform="translate(-766.778 -183.215)" fill="url(#b)"/></g><g transform="translate(7.952 7.073)"><g transform="translate(0.215 0.357)"><path d="M789.027,211.582l3.967-1.005-.135-.532a2.947,2.947,0,0,1-.144-1.148q.071-.3.523-.412a.676.676,0,0,1,.6.088,1.1,1.1,0,0,1,.354.633,1.33,1.33,0,0,1-.105,1.151,15.484,15.484,0,0,1-1.843,1.719,16.961,16.961,0,0,0-1.775,1.654,3.209,3.209,0,0,0-.646,1.348,3.933,3.933,0,0,0,.076,1.887,3.66,3.66,0,0,0,1.7,2.435,5.313,5.313,0,0,0,3.369.432l.306,1.207,1.826-.463-.316-1.247a5.522,5.522,0,0,0,2.527-1.694,3.582,3.582,0,0,0,.426-3.308l-.159-.628-3.967,1,.2.787a6.242,6.242,0,0,1,.284,1.64q-.043.345-.515.464a.788.788,0,0,1-.654-.067.972.972,0,0,1-.361-.6,4.713,4.713,0,0,1-.2-1.593,2.687,2.687,0,0,1,1.02-1.336q1.583-1.382,2.126-1.98a3.893,3.893,0,0,0,.82-1.506,3.471,3.471,0,0,0,.025-1.9,2.836,2.836,0,0,0-1.578-2,5.758,5.758,0,0,0-3.274-.244l-.26-1.025-1.826.463.259,1.025a5,5,0,0,0-2.5,1.693,2.908,2.908,0,0,0-.348,2.46Q788.885,211.186,789.027,211.582Z" transform="translate(-788.713 -205.346)" fill="#aa7b26"/></g><g transform="translate(0)"><path d="M789.71,210.446l3.967-1.005-.135-.532a2.947,2.947,0,0,1-.144-1.148c.047-.2.221-.335.523-.411a.677.677,0,0,1,.6.088,1.1,1.1,0,0,1,.354.633,1.331,1.331,0,0,1-.106,1.151,15.4,15.4,0,0,1-1.842,1.719,17.025,17.025,0,0,0-1.775,1.654,3.215,3.215,0,0,0-.646,1.348,3.946,3.946,0,0,0,.076,1.888,3.665,3.665,0,0,0,1.7,2.435,5.321,5.321,0,0,0,3.369.431l.306,1.208,1.827-.463-.317-1.247A5.529,5.529,0,0,0,800,216.5a3.583,3.583,0,0,0,.426-3.308l-.159-.628-3.967,1.005.2.787a6.205,6.205,0,0,1,.285,1.64q-.043.345-.514.464a.788.788,0,0,1-.654-.066.968.968,0,0,1-.36-.6,4.687,4.687,0,0,1-.206-1.593,2.687,2.687,0,0,1,1.02-1.336q1.583-1.382,2.126-1.98a3.9,3.9,0,0,0,.82-1.506,3.48,3.48,0,0,0,.025-1.9,2.836,2.836,0,0,0-1.578-2,5.753,5.753,0,0,0-3.275-.244l-.26-1.025-1.826.462.26,1.025a4.992,4.992,0,0,0-2.5,1.694,2.908,2.908,0,0,0-.348,2.46Q789.568,210.051,789.71,210.446Z" transform="translate(-789.396 -204.211)" fill="url(#c)"/></g></g></g></g></g></g></svg>