<svg xmlns="http://www.w3.org/2000/svg" width="105" height="105" viewBox="0 0 105 105"><g transform="translate(6550 8418)"><circle cx="52.5" cy="52.5" r="52.5" transform="translate(-6550 -8418)" fill="#406834"/><g transform="translate(-6529 -8397)"><path d="M3,14V24a2,2,0,0,0,2,2H7l6,5V26H27a2,2,0,0,0,2-2V14a2,2,0,0,0-2-2H5A2,2,0,0,0,3,14Z" fill="#ff8e31"/><path d="M59,3H37a2,2,0,0,0-2,2V15a2,2,0,0,0,2,2H51v5l6-5h2a2,2,0,0,0,2-2V5A2,2,0,0,0,59,3Z" fill="#2199ea"/><path d="M27,12H25.666A13.889,13.889,0,0,1,12.109,22.891H3V24a2,2,0,0,0,2,2H7l6,5V26H27a2,2,0,0,0,2-2V14a2,2,0,0,0-2-2Z" fill="#f77f1b"/><path d="M59,3h-.834A13.889,13.889,0,0,1,44.609,13.891H35V15a2,2,0,0,0,2,2H51v5l6-5h2a2,2,0,0,0,2-2V5A2,2,0,0,0,59,3Z" fill="#098ee8"/><circle cx="7" cy="7" r="7" transform="translate(34 26)" fill="#ffddd2"/><path d="M29,52v2H53V52a12,12,0,1,0-24,0Z" fill="#ffddd2"/><path d="M41,38a6.994,6.994,0,0,1-6.92-6,7,7,0,1,0,13.84,0A6.994,6.994,0,0,1,41,38Z" fill="#ffcbbd"/><path d="M49.148,43.208A11.986,11.986,0,0,0,29,52v2h.05a11.991,11.991,0,0,1,23.9,0H53V52a11.955,11.955,0,0,0-3.854-8.794Z" fill="#ffcbbd"/><circle cx="7" cy="7" r="7" transform="translate(14 33)" fill="#ffddd2"/><path d="M9,59v2H33V59A12,12,0,1,0,9,59Z" fill="#ffddd2"/><circle cx="2" cy="2" r="2" transform="translate(38 8)" fill="#fce230"/><circle cx="2" cy="2" r="2" transform="translate(46 8)" fill="#fce230"/><circle cx="2" cy="2" r="2" transform="translate(54 8)" fill="#fce230"/><path d="M6.731,16.613l2.672.462a.819.819,0,0,1,.676.721l.4,3.779a.82.82,0,0,0,1.512.346l2.145-3.472a.82.82,0,0,1,.886-.367l3.97.943a.819.819,0,0,0,.827-1.312L17.43,14.758a.821.821,0,0,1-.032-.988l1.566-2.215a.819.819,0,0,0-.982-1.229l-2.951,1.22a.819.819,0,0,1-.915-.2l-2.845-3.08a.819.819,0,0,0-1.42.587l.163,4.186a.818.818,0,0,1-.5.789L6.557,15.049a.819.819,0,0,0,.174,1.564Z" fill="#ff5252"/><path d="M19.48,17.3a.8.8,0,0,1-.492.036l-3.97-.943a.818.818,0,0,0-.886.367l-2.145,3.47a.819.819,0,0,1-1.512-.345l-.4-3.779a.819.819,0,0,0-.676-.721l-2.58-.446-.266.11a.819.819,0,0,0,.174,1.564l2.672.462a.819.819,0,0,1,.676.721l.4,3.779a.82.82,0,0,0,1.512.346l2.145-3.472a.82.82,0,0,1,.886-.367l3.97.943a.819.819,0,0,0,.827-1.312Z" fill="#de3a3a"/><path d="M21,45a6.994,6.994,0,0,1-6.92-6,7,7,0,1,0,13.84,0A6.994,6.994,0,0,1,21,45Z" fill="#ffcbbd"/><path d="M29.148,50.208A11.986,11.986,0,0,0,9,59v2h.05a11.991,11.991,0,0,1,23.9,0H33V59a11.955,11.955,0,0,0-3.854-8.794Z" fill="#ffcbbd"/><path d="M49,33a8,8,0,1,0-12.279,6.748,13.107,13.107,0,0,0-8.191,8.674,12.968,12.968,0,0,0-3.241-1.68,8,8,0,1,0-8.578,0A13.011,13.011,0,0,0,8,59v2a1,1,0,0,0,1,1H33a1,1,0,0,0,1-1V59a12.94,12.94,0,0,0-.636-4H53a1,1,0,0,0,1-1V52a13.011,13.011,0,0,0-8.711-12.258A7.994,7.994,0,0,0,49,33ZM15,40a6,6,0,1,1,6,6,6,6,0,0,1-6-6ZM32,60H10V59a11,11,0,0,1,22,0Zm20-8v1H32.521a13.054,13.054,0,0,0-2.286-3.137A10.986,10.986,0,0,1,52,52ZM35,33a6,6,0,1,1,6,6A6,6,0,0,1,35,33Z"/><path d="M5,27H6.638l5.722,4.768A1,1,0,0,0,14,31V27H27a3,3,0,0,0,3-3V14a3,3,0,0,0-3-3H22v2h5a1,1,0,0,1,1,1V24a1,1,0,0,1-1,1H13a1,1,0,0,0-1,1v2.865L7.64,25.232A1,1,0,0,0,7,25H5a1,1,0,0,1-1-1V14a1,1,0,0,1,1-1V11a3,3,0,0,0-3,3V24A3,3,0,0,0,5,27Z"/><path d="M59,2H37a3,3,0,0,0-3,3V15a3,3,0,0,0,3,3H50v4a1,1,0,0,0,1.64.768L57.362,18H59a3,3,0,0,0,3-3V5a3,3,0,0,0-3-3Zm1,13a1,1,0,0,1-1,1H57a1,1,0,0,0-.64.232L52,19.865V17a1,1,0,0,0-1-1H37a1,1,0,0,1-1-1V5a1,1,0,0,1,1-1H59a1,1,0,0,1,1,1Z"/><path d="M40,7a3,3,0,1,0,3,3A3,3,0,0,0,40,7Zm0,4a1,1,0,1,1,1-1A1,1,0,0,1,40,11Z"/><path d="M48,7a3,3,0,1,0,3,3A3,3,0,0,0,48,7Zm0,4a1,1,0,1,1,1-1A1,1,0,0,1,48,11Z"/><path d="M56,7a3,3,0,1,0,3,3,3,3,0,0,0-3-3Zm0,4a1,1,0,1,1,1-1A1,1,0,0,1,56,11Z"/><path d="M5.011,15.7a1.806,1.806,0,0,0,1.5,1.593l2.538.439L9.43,21.37a1.8,1.8,0,0,0,1.4,1.584,1.889,1.889,0,0,0,.419.047,1.79,1.79,0,0,0,1.534-.865l2.077-3.361,3.843.913a1.819,1.819,0,0,0,1.836-2.913l-2.3-2.849,1.487-2.1a1.82,1.82,0,0,0-2.181-2.732l-2.835,1.17L11.955,7.277A1.819,1.819,0,0,0,8.8,8.582l.159,4.06L6.125,13.814A1.8,1.8,0,0,0,5.011,15.7Zm4.83-1.253A1.825,1.825,0,0,0,10.962,12.7l-.144-3.7,2.507,2.718a1.83,1.83,0,0,0,2.033.449l2.374-.982-1.2,1.7a1.828,1.828,0,0,0,.071,2.193l2.055,2.544L15.2,16.8a1.821,1.821,0,0,0-1.968.814l-1.867,3.021-.341-3.252a1.826,1.826,0,0,0-1.5-1.6l-2.057-.355Z"/><path d="M22,2h2V4H22Z"/><path d="M20,4h2V6H20Z"/><path d="M24,4h2V6H24Z"/><path d="M22,6h2V8H22Z"/><path d="M24,14h2v2H24Z"/></g></g></svg>