<svg xmlns="http://www.w3.org/2000/svg" width="105" height="105" viewBox="0 0 105 105"><g transform="translate(-1099 -2859)"><circle cx="52.5" cy="52.5" r="52.5" transform="translate(1099 2859)" fill="#406834"/><g transform="translate(1103.437 2874)"><g transform="translate(14.967)"><g transform="translate(16.107 20.485)"><circle cx="16.956" cy="16.956" r="16.956" fill="#70d6f9"/></g><g transform="translate(29.024 0.731)"><g transform="translate(0)"><circle cx="4.04" cy="4.04" r="4.04" fill="#feb872"/></g></g><g transform="translate(26.099 9.646)"><g transform="translate(0)"><path d="M114.6,32.976h-6.881a3.534,3.534,0,0,0-3.524,3.524v2.428a1.292,1.292,0,0,0,1.292,1.292h11.345a1.292,1.292,0,0,0,1.292-1.292V36.5A3.535,3.535,0,0,0,114.6,32.976Z" transform="translate(-104.191 -32.976)" fill="#fc657e"/></g></g><g transform="translate(29.024 66.072)"><g transform="translate(0)"><circle cx="4.04" cy="4.04" r="4.04" fill="#a57453"/></g></g><g transform="translate(26.099 57.993)"><path d="M116.827,198.262H105.482a1.292,1.292,0,0,0-1.292,1.292v2.428a3.534,3.534,0,0,0,3.524,3.524H114.6a3.534,3.534,0,0,0,3.524-3.524v-2.428A1.292,1.292,0,0,0,116.827,198.262Z" transform="translate(-104.19 -198.262)" fill="#f5c84c"/></g><g transform="translate(0.73 17.066)"><path d="M23.521,58.885A4.039,4.039,0,1,0,25,64.4,4.039,4.039,0,0,0,23.521,58.885Z" transform="translate(-17.462 -58.343)" fill="#f9d0b4"/></g><g transform="translate(6.802 18.805)"><path d="M49.047,65.97l-2.1-1.214a3.534,3.534,0,0,0-4.814,1.29l-3.44,5.96a3.534,3.534,0,0,0,1.29,4.814l2.1,1.214a1.292,1.292,0,0,0,1.765-.473l5.673-9.825a1.292,1.292,0,0,0-.473-1.765Z" transform="translate(-38.221 -64.287)" fill="#5290db"/></g><g transform="translate(57.317 49.736)"><path d="M216.975,170.576a4.039,4.039,0,1,0,1.479,5.518A4.039,4.039,0,0,0,216.975,170.576Z" transform="translate(-210.916 -170.034)" fill="#d68649"/></g><g transform="translate(47.852 42.158)"><path d="M188.272,145.514l-2.1-1.214a1.292,1.292,0,0,0-1.765.473l-5.673,9.825a1.292,1.292,0,0,0,.473,1.765l2.1,1.214a3.534,3.534,0,0,0,4.814-1.29l3.441-5.96A3.534,3.534,0,0,0,188.272,145.514Z" transform="translate(-178.559 -144.127)" fill="#fca265"/></g><g transform="translate(0.73 49.736)"><path d="M25,172.053a4.039,4.039,0,1,0-1.479,5.518A4.039,4.039,0,0,0,25,172.053Z" transform="translate(-17.462 -170.033)" fill="#fce4be"/></g><g transform="translate(6.802 42.158)"><path d="M49.52,154.6l-5.673-9.825a1.292,1.292,0,0,0-1.765-.473l-2.1,1.214a3.534,3.534,0,0,0-1.29,4.814l3.441,5.96a3.534,3.534,0,0,0,4.814,1.29l2.1-1.214A1.292,1.292,0,0,0,49.52,154.6Z" transform="translate(-38.221 -144.127)" fill="#70d6f9"/></g><g transform="translate(57.316 17.066)"><path d="M218.453,60.363a4.039,4.039,0,1,0-1.479,5.518A4.039,4.039,0,0,0,218.453,60.363Z" transform="translate(-210.915 -58.343)" fill="#818182"/></g><g transform="translate(47.852 18.805)"><path d="M189.562,72.006l-3.441-5.96a3.534,3.534,0,0,0-4.814-1.29l-2.1,1.214a1.292,1.292,0,0,0-.473,1.765L184.4,77.56a1.292,1.292,0,0,0,1.765.473l2.1-1.214A3.534,3.534,0,0,0,189.562,72.006Z" transform="translate(-178.559 -64.287)" fill="#87d147"/></g><g transform="translate(15.376 19.754)"><path d="M85.219,67.532a17.687,17.687,0,1,0,17.687,17.687A17.707,17.707,0,0,0,85.219,67.532Zm0,33.912a16.225,16.225,0,1,1,16.225-16.225A16.243,16.243,0,0,1,85.219,101.444Z" transform="translate(-67.532 -67.532)"/></g><g transform="translate(23.05 20.31)"><path d="M95.231,86.566c0-6.686,1.922-12.919,4.9-15.881A.731.731,0,0,0,99.1,69.648C95.81,72.92,93.768,79.4,93.768,86.566c0,7.118,2.023,13.582,5.279,16.868a.731.731,0,1,0,1.039-1.03c-2.995-3.022-4.855-9.092-4.855-15.839Z" transform="translate(-93.768 -69.435)"/></g><g transform="translate(36.501 20.31)"><path d="M141,69.648a.731.731,0,1,0-1.032,1.036c2.975,2.962,4.9,9.2,4.9,15.881,0,6.667-1.915,12.893-4.878,15.862a.731.731,0,0,0,1.035,1.033c3.273-3.278,5.306-9.752,5.306-16.895C146.328,79.4,144.287,72.92,141,69.648Z" transform="translate(-139.753 -69.435)"/></g><g transform="translate(15.943 40.868)"><path d="M103.476,139.978a.732.732,0,0,0-1.034,0c-3.023,2.995-9.092,4.856-15.839,4.856-6.686,0-12.919-1.922-15.881-4.9a.731.731,0,0,0-1.037,1.032c3.272,3.287,9.754,5.328,16.918,5.328,7.118,0,13.582-2.023,16.868-5.279A.732.732,0,0,0,103.476,139.978Z" transform="translate(-69.472 -139.715)"/></g><g transform="translate(15.943 27.417)"><path d="M103.5,99.036c-3.279-3.273-9.753-5.305-16.894-5.305-7.163,0-13.645,2.041-16.917,5.328a.731.731,0,1,0,1.036,1.032c2.962-2.975,9.2-4.9,15.881-4.9,6.667,0,12.893,1.915,15.862,4.878a.731.731,0,0,0,1.033-1.035Z" transform="translate(-69.473 -93.731)"/></g><g transform="translate(32.332 20.049)"><g transform="translate(0)"><path d="M126.231,68.543a.731.731,0,0,0-.731.731V102.6a.731.731,0,0,0,1.463,0V69.274A.731.731,0,0,0,126.231,68.543Z" transform="translate(-125.5 -68.543)"/></g></g><g transform="translate(15.672 36.71)"><path d="M102.6,125.5H69.274a.731.731,0,1,0,0,1.463H102.6a.731.731,0,0,0,0-1.463Z" transform="translate(-68.543 -125.5)"/></g><g transform="translate(28.292)"><path d="M116.461,0a4.771,4.771,0,1,0,4.771,4.771A4.776,4.776,0,0,0,116.461,0Zm0,8.079a3.308,3.308,0,1,1,3.308-3.308,3.312,3.312,0,0,1-3.308,3.308Z" transform="translate(-111.69)"/></g><g transform="translate(25.368 8.915)"><path d="M112.827,30.477h-6.881a4.26,4.26,0,0,0-4.255,4.255v2.427a2.026,2.026,0,0,0,2.023,2.023h11.345a2.026,2.026,0,0,0,2.023-2.023V34.732A4.26,4.26,0,0,0,112.827,30.477Zm2.793,6.682a.561.561,0,0,1-.561.561H103.714a.561.561,0,0,1-.561-.561V34.732a2.8,2.8,0,0,1,2.793-2.793h6.881a2.8,2.8,0,0,1,2.793,2.793v2.427Z" transform="translate(-101.691 -30.477)"/></g><g transform="translate(36.208 12.864)"><path d="M139.482,43.977a.731.731,0,0,0-.731.731v2.961a.731.731,0,0,0,1.463,0V44.708A.731.731,0,0,0,139.482,43.977Z" transform="translate(-138.751 -43.977)"/></g><g transform="translate(28.456 12.864)"><g transform="translate(0)"><path d="M112.98,43.977a.731.731,0,0,0-.731.731v2.961a.731.731,0,1,0,1.463,0V44.708A.731.731,0,0,0,112.98,43.977Z" transform="translate(-112.249 -43.977)"/></g></g><g transform="translate(28.292 65.341)"><path d="M116.461,223.381a4.771,4.771,0,1,0,4.771,4.771A4.776,4.776,0,0,0,116.461,223.381Zm0,8.079a3.308,3.308,0,1,1,3.308-3.308A3.312,3.312,0,0,1,116.461,231.46Z" transform="translate(-111.69 -223.381)"/></g><g transform="translate(25.367 57.262)"><path d="M115.059,195.762H103.713a2.026,2.026,0,0,0-2.023,2.023v2.427a4.26,4.26,0,0,0,4.255,4.255h6.881a4.26,4.26,0,0,0,4.255-4.255v-2.427A2.025,2.025,0,0,0,115.059,195.762Zm.561,4.451a2.8,2.8,0,0,1-2.793,2.793h-6.881a2.8,2.8,0,0,1-2.793-2.793v-2.427a.561.561,0,0,1,.561-.561h11.345a.561.561,0,0,1,.561.561v2.427Z" transform="translate(-101.69 -195.762)"/></g><g transform="translate(36.208 57.595)"><path d="M139.482,196.9a.731.731,0,0,0-.731.731v2.961a.731.731,0,0,0,1.463,0v-2.961A.731.731,0,0,0,139.482,196.9Z" transform="translate(-138.751 -196.9)"/></g><g transform="translate(28.456 57.595)"><g transform="translate(0)"><path d="M112.98,196.9a.731.731,0,0,0-.731.731v2.961a.731.731,0,0,0,1.463,0v-2.961A.731.731,0,0,0,112.98,196.9Z" transform="translate(-112.249 -196.9)"/></g></g><g transform="translate(0 16.333)"><path d="M22.122,56.479a4.771,4.771,0,1,0-2.393,8.9,4.8,4.8,0,0,0,1.243-.165,4.771,4.771,0,0,0,1.15-8.74Zm.479,5.786a3.308,3.308,0,1,1-3.721-4.849,3.327,3.327,0,0,1,.861-.114,3.31,3.31,0,0,1,2.86,4.964Z" transform="translate(-14.967 -55.838)"/></g><g transform="translate(6.07 18.071)"><path d="M48.583,64.792a2.01,2.01,0,0,0-.943-1.229l-2.1-1.214a4.259,4.259,0,0,0-5.812,1.558l-3.44,5.959a4.265,4.265,0,0,0,1.558,5.812l2.1,1.214a2.024,2.024,0,0,0,2.764-.74l5.673-9.825A2.011,2.011,0,0,0,48.583,64.792Zm-1.469.8-5.673,9.825a.561.561,0,0,1-.766.205l-2.1-1.214A2.8,2.8,0,0,1,37.551,70.6l3.441-5.959a2.795,2.795,0,0,1,3.815-1.022l2.1,1.214A.561.561,0,0,1,47.115,65.6Z" transform="translate(-35.717 -61.78)"/></g><g transform="translate(13.618 21.429)"><path d="M65.185,74.84l-2.564-1.481a.731.731,0,1,0-.731,1.267l2.564,1.481a.731.731,0,0,0,.731-1.267Z" transform="translate(-61.524 -73.261)"/></g><g transform="translate(9.742 28.143)"><path d="M51.934,97.791,49.37,96.31a.731.731,0,1,0-.731,1.267L51.2,99.058a.731.731,0,1,0,.731-1.267Z" transform="translate(-48.273 -96.212)"/></g><g transform="translate(56.587 49.007)"><path d="M215.576,168.177a4.771,4.771,0,1,0,1.746,6.517A4.776,4.776,0,0,0,215.576,168.177Zm.479,5.786a3.307,3.307,0,1,1-1.211-4.519A3.288,3.288,0,0,1,216.056,173.963Z" transform="translate(-208.422 -167.539)"/></g><g transform="translate(47.12 41.428)"><path d="M186.868,143.114l-2.1-1.214a2.026,2.026,0,0,0-2.764.74l-5.673,9.825a2.023,2.023,0,0,0,.741,2.764l2.1,1.214a4.258,4.258,0,0,0,5.813-1.558l3.441-5.96A4.26,4.26,0,0,0,186.868,143.114Zm.291,5.081-3.441,5.96a2.8,2.8,0,0,1-3.815,1.022l-2.1-1.214a.561.561,0,0,1-.205-.766l5.673-9.825a.557.557,0,0,1,.34-.261.566.566,0,0,1,.146-.019.556.556,0,0,1,.279.075l2.1,1.214a2.8,2.8,0,0,1,1.022,3.815Z" transform="translate(-176.057 -141.63)"/></g><g transform="translate(52.357 43.796)"><path d="M197.621,151.3l-2.564-1.481a.731.731,0,1,0-.731,1.267l2.564,1.481a.731.731,0,0,0,.731-1.267Z" transform="translate(-193.96 -149.724)"/></g><g transform="translate(48.481 50.509)"><path d="M184.37,174.253l-2.564-1.481a.731.731,0,0,0-.731,1.267l2.564,1.481a.731.731,0,0,0,.731-1.267Z" transform="translate(-180.709 -172.675)"/></g><g transform="translate(0 49.003)"><path d="M23.868,169.915a4.771,4.771,0,1,0-5.366,6.994,4.8,4.8,0,0,0,1.243.165,4.774,4.774,0,0,0,4.124-7.158Zm-.936,3.242a3.307,3.307,0,1,1-3.2-4.166,3.328,3.328,0,0,1,.862.114,3.309,3.309,0,0,1,2.339,4.052Z" transform="translate(-14.967 -167.528)"/></g><g transform="translate(6.069 41.428)"><path d="M48.381,152.466l-5.673-9.825a2.025,2.025,0,0,0-2.764-.74l-2.1,1.214a4.265,4.265,0,0,0-1.558,5.812l3.441,5.96a4.258,4.258,0,0,0,5.813,1.558l2.1-1.214a2.023,2.023,0,0,0,.74-2.764Zm-1.472,1.5-2.1,1.214a2.8,2.8,0,0,1-3.815-1.022l-3.441-5.96a2.8,2.8,0,0,1,1.022-3.815l2.1-1.214a.556.556,0,0,1,.28-.075.567.567,0,0,1,.146.019.556.556,0,0,1,.34.261l5.673,9.825a.562.562,0,0,1-.206.766Z" transform="translate(-35.716 -141.629)"/></g><g transform="translate(9.742 43.796)"><path d="M52.2,150.09a.731.731,0,0,0-1-.268L48.638,151.3a.731.731,0,1,0,.731,1.267l2.564-1.481A.732.732,0,0,0,52.2,150.09Z" transform="translate(-48.273 -149.725)"/></g><g transform="translate(13.618 50.509)"><path d="M65.453,173.041a.731.731,0,0,0-1-.268l-2.564,1.481a.731.731,0,1,0,.731,1.267l2.564-1.481A.732.732,0,0,0,65.453,173.041Z" transform="translate(-61.524 -172.675)"/></g><g transform="translate(56.587 16.333)"><path d="M217.323,58.226a4.769,4.769,0,1,0-1.746,6.516A4.741,4.741,0,0,0,217.323,58.226Zm-2.478,5.25a3.308,3.308,0,1,1,1.211-4.519A3.313,3.313,0,0,1,214.845,63.476Z" transform="translate(-208.422 -55.838)"/></g><g transform="translate(47.12 18.071)"><path d="M188.425,69.867l-3.441-5.959a4.26,4.26,0,0,0-5.813-1.558l-2.1,1.214a2.023,2.023,0,0,0-.741,2.764L182,76.153a2.024,2.024,0,0,0,2.764.74l2.1-1.214A4.26,4.26,0,0,0,188.425,69.867Zm-.992,2.849a2.772,2.772,0,0,1-1.3,1.7l-2.1,1.214a.561.561,0,0,1-.766-.205L177.6,65.6a.561.561,0,0,1,.205-.766l2.1-1.214a2.8,2.8,0,0,1,3.815,1.022l3.441,5.959A2.773,2.773,0,0,1,187.433,72.716Z" transform="translate(-176.057 -61.781)"/></g><g transform="translate(48.481 21.43)"><path d="M184.638,73.629a.732.732,0,0,0-1-.268l-2.564,1.481a.731.731,0,1,0,.731,1.267l2.564-1.481A.732.732,0,0,0,184.638,73.629Z" transform="translate(-180.709 -73.263)"/></g><g transform="translate(52.357 28.143)"><path d="M197.889,96.579a.731.731,0,0,0-1-.268l-2.564,1.481a.731.731,0,1,0,.731,1.267l2.564-1.481A.732.732,0,0,0,197.889,96.579Z" transform="translate(-193.96 -96.214)"/></g><g transform="translate(52.405 59.679)"><path d="M197.862,205.831a2.28,2.28,0,0,1-1.814-1.784c0-.029-.088-.029-.088,0a2.28,2.28,0,0,1-1.814,1.784c-.029,0-.029.059,0,.088a2.28,2.28,0,0,1,1.814,1.784c0,.029.088.029.088,0a2.28,2.28,0,0,1,1.814-1.784C197.891,205.89,197.891,205.831,197.862,205.831Z" transform="translate(-194.125 -204.025)" fill="#87d147"/></g><g transform="translate(42.334)"><g transform="translate(0)"><path d="M163.879,1.609h-.7V.936A.924.924,0,0,0,162.241,0a.937.937,0,0,0-.936.907v.7h-.673a.924.924,0,0,0-.936.936.906.906,0,0,0,.936.936h.673v.673a.924.924,0,0,0,.936.936.937.937,0,0,0,.936-.907v-.7h.673a.924.924,0,0,0,.936-.936A.937.937,0,0,0,163.879,1.609Z" transform="translate(-159.695)" fill="#fc657e"/></g></g><g transform="translate(22.796 72.893)"><path d="M93.895,249.2a.995.995,0,1,0,.995.995A.994.994,0,0,0,93.895,249.2Z" transform="translate(-92.9 -249.2)" fill="#70d6f9"/></g><g transform="translate(49.122 7.898)"><path d="M183.895,27a.995.995,0,1,0,.995.995A.994.994,0,0,0,183.895,27Z" transform="translate(-182.9 -27)" fill="#f5c84c"/></g><g transform="translate(15.089 64.454)"><path d="M71.918,222.939a3.246,3.246,0,0,1-2.6-2.545c0-.059-.117-.059-.117,0a3.246,3.246,0,0,1-2.6,2.545c-.058,0-.058.088,0,.117a3.246,3.246,0,0,1,2.6,2.545c0,.059.117.059.117,0a3.246,3.246,0,0,1,2.6-2.545C71.976,223.026,71.976,222.939,71.918,222.939Z" transform="translate(-66.55 -220.35)" fill="#f5c84c"/></g></g></g></g></svg>