<svg xmlns="http://www.w3.org/2000/svg" width="105" height="105" viewBox="0 0 105 105"><g transform="translate(7251 8418)"><circle cx="52.5" cy="52.5" r="52.5" transform="translate(-7251 -8418)" fill="#406834"/><g transform="translate(-7230 -8396)"><path d="M61,2V14a1,1,0,0,1-1,1H57V2a1,1,0,0,1,1-1h2A1,1,0,0,1,61,2Z" fill="#ff826e"/><path d="M54,6v9H50V6a1,1,0,0,1,1-1h2A1,1,0,0,1,54,6Z" fill="#ff826e"/><path d="M47,10v5H44a1,1,0,0,1-1-1V10a1,1,0,0,1,1-1h2A1,1,0,0,1,47,10Z" fill="#ff826e"/><path d="M15.4,10.2A8,8,0,0,1,9,23a7.715,7.715,0,0,1-2.6-.44,8,8,0,1,1,9-12.36Z" fill="#e6e9ed"/><path d="M12.14,13.49a1.756,1.756,0,0,1,0,3.02L8.37,18.78a1.6,1.6,0,0,1-.8.22A1.566,1.566,0,0,1,6,17.43V12.57A1.566,1.566,0,0,1,7.57,11a1.6,1.6,0,0,1,.8.22Z" fill="#ff826e"/><path d="M33,15a2.015,2.015,0,0,1-2,2,2.006,2.006,0,0,1-2-2V13h4Z" fill="#aab2bd"/><path d="M31,13H29L26.14,9.42A5.161,5.161,0,0,1,25,6.18a3.866,3.866,0,0,1,.03-.48A5.16,5.16,0,0,1,30.18,1h1.64a5.174,5.174,0,0,1,5.15,4.69,3.908,3.908,0,0,1,.03.49,5.161,5.161,0,0,1-1.14,3.24L33,13Z" fill="#ffeaa7"/><circle cx="2" cy="2" r="2" transform="translate(29 5)" fill="#fcd770"/><path d="M43.06,27.51a2.568,2.568,0,0,1,0,4.98L41,33V27Z" fill="#fcd770"/><path d="M29,35v7a1,1,0,0,1-1,1H26a1,1,0,0,1-1-1V35Z" fill="#969faa"/><path d="M37,23V37a6.835,6.835,0,0,0-4.83-2H25V25h7.17A6.835,6.835,0,0,0,37,23Z" fill="#e6e9ed"/><path d="M41,33v5a1,1,0,0,1-1,1H38a1,1,0,0,1-1-1V22a1,1,0,0,1,1-1h2a1,1,0,0,1,1,1V33Z" fill="#ff826e"/><path d="M25,25V35H24a5,5,0,0,1,0-10Z" fill="#ff826e"/><path d="M60.5,32.97,61,37H51l.5-4.03a4.535,4.535,0,0,1,9,0Z" fill="#b4dd7f"/><path d="M56,21a4.026,4.026,0,1,1-.95.12A3.691,3.691,0,0,1,56,21Z" fill="#f0d0b4"/><path d="M53.35,44.29A8,8,0,1,1,49,43,7.975,7.975,0,0,1,53.35,44.29Z" fill="#fcd770"/><path d="M31,50v6a.983.983,0,0,1-.84.98A.414.414,0,0,1,30,57H25l-.76,3.03a1.278,1.278,0,0,1-2.48,0L21,57H16a1,1,0,0,1-1-1V50a1,1,0,0,1,1-1H30A1,1,0,0,1,31,50Z" fill="#e6e9ed"/><path d="M9,29a8,8,0,0,1,.09,16H9A7.994,7.994,0,0,1,5.02,30.07v-.01A7.992,7.992,0,0,1,9,29Z" fill="#69d6f4"/><path d="M14,15a2.781,2.781,0,0,0-1.343-2.372L8.886,10.366A2.565,2.565,0,0,0,5,12.566v4.867a2.565,2.565,0,0,0,3.886,2.2l3.771-2.262A2.781,2.781,0,0,0,14,15Zm-2.372.657L7.857,17.919A.583.583,0,0,1,7,17.434V12.567a.565.565,0,0,1,.857-.486l3.771,2.262a.766.766,0,0,1,0,1.314Z"/><path d="M54.647,44a26.808,26.808,0,0,0,2.418-6h5.068l-.645-5.155a5.516,5.516,0,0,0-2.441-3.909A4.981,4.981,0,0,0,56,20c-.115,0-.223.026-.336.034A27.059,27.059,0,0,0,53.449,16H60a2,2,0,0,0,2-2V2a2,2,0,0,0-2-2H58a2,2,0,0,0-2,2V14H55V6a2,2,0,0,0-2-2H51a2,2,0,0,0-2,2v8H48V10a2,2,0,0,0-2-2h-.87a26.823,26.823,0,0,0-7.265-3.1A6.193,6.193,0,0,0,31.817,0H30.182a6.191,6.191,0,0,0-6.044,4.889,26.692,26.692,0,0,0-8.579,3.968A8.99,8.99,0,1,0,5.182,23.138a26.874,26.874,0,0,0-1.125,6.349,8.987,8.987,0,0,0,4.495,16.49A27.032,27.032,0,0,0,14,51.956V56a2,2,0,0,0,2,2h4.22l.568,2.273a2.28,2.28,0,0,0,4.424,0L25.78,58H30c.049,0,.094-.011.142-.014.286.009.57.014.858.014a26.775,26.775,0,0,0,10.456-2.109A8.993,8.993,0,1,0,54.647,44ZM58,2h2V14H58Zm1.5,31.093L59.867,36H52.133l.363-2.907a3.531,3.531,0,0,1,7.008,0ZM59,25a3,3,0,1,1-3-3A3,3,0,0,1,59,25ZM51,6h2v8H51Zm-7,4h2v4H44ZM30.183,2h1.635a4.182,4.182,0,0,1,3.265,6.8L32.519,12H32V9.816a3,3,0,1,0-2,0V12h-.519L26.917,8.794A4.181,4.181,0,0,1,30.183,2ZM30,14h2v1a1,1,0,0,1-2,0Zm0-7a1,1,0,1,1,1,1A1,1,0,0,1,30,7ZM2,15a7,7,0,1,1,7,7A7.008,7.008,0,0,1,2,15ZM2,37a6.956,6.956,0,0,1,.3-2h1.9a10.567,10.567,0,0,0,0,4h-1.9A6.956,6.956,0,0,1,2,37Zm4,0a8.7,8.7,0,0,1,.241-2H11.76A8.757,8.757,0,0,1,12,37a8.7,8.7,0,0,1-.241,2H6.241A8.7,8.7,0,0,1,6,37Zm3-6.586.465.465A8.691,8.691,0,0,1,11.021,33H6.979a8.691,8.691,0,0,1,1.556-2.122ZM11.021,41a8.667,8.667,0,0,1-1.556,2.121L9,43.586l-.465-.465A8.667,8.667,0,0,1,6.979,41Zm2.2,0h1.513a7.032,7.032,0,0,1-2.87,2.379A10.527,10.527,0,0,0,13.223,41ZM16,37a6.956,6.956,0,0,1-.3,2h-1.9a10.567,10.567,0,0,0,0-4h1.9A6.956,6.956,0,0,1,16,37Zm-2.777-4a10.561,10.561,0,0,0-1.356-2.379A7.037,7.037,0,0,1,14.736,33ZM4.777,33H3.264a7.035,7.035,0,0,1,2.869-2.379A10.561,10.561,0,0,0,4.777,33ZM3.264,41H4.777a10.527,10.527,0,0,0,1.357,2.379A7.032,7.032,0,0,1,3.264,41ZM30,56H24.22l-.947,3.787a.292.292,0,0,1-.545,0L21.78,56H16V50H30Zm2-.03V50a2,2,0,0,0-2-2H16a2,2,0,0,0-1.9,1.414A25,25,0,0,1,10.87,45.8,9,9,0,1,0,6.133,28.476a24.866,24.866,0,0,1,.941-4.689,8.982,8.982,0,0,0,9.683-13.328,24.71,24.71,0,0,1,7.311-3.484,6.2,6.2,0,0,0,1.287,3.069L28,13.351V15a3,3,0,0,0,6,0V13.351l2.646-3.306a6.19,6.19,0,0,0,1.285-3.05,24.669,24.669,0,0,1,4.507,1.773A1.972,1.972,0,0,0,42,10v4a2,2,0,0,0,2,2h6.988a25.014,25.014,0,0,1,2.728,4.578,4.951,4.951,0,0,0-.763,8.358,5.513,5.513,0,0,0-2.441,3.909L49.867,38H54.99a24.856,24.856,0,0,1-2.035,4.928A8.976,8.976,0,0,0,40.561,54.1,24.977,24.977,0,0,1,32,55.97ZM42,51a7.006,7.006,0,0,1,6-6.92V46H46v3a3,3,0,0,0,3,3,1,1,0,0,1,1,1v1H49a1,1,0,0,1-1-1V52H46v1a3,3,0,0,0,2,2.816v2.1A7.006,7.006,0,0,1,42,51Zm8,6.92V56h2V53a3,3,0,0,0-3-3,1,1,0,0,1-1-1V48h1a1,1,0,0,1,1,1v1h2V49a3,3,0,0,0-2-2.816v-2.1a6.991,6.991,0,0,1,0,13.84Z"/><path d="M42,38V33.78l1.3-.325a3.561,3.561,0,0,0,0-6.91L42,26.219V22a2,2,0,0,0-2-2H38a2,2,0,0,0-2,2v.559A5.786,5.786,0,0,1,32.172,24H24a6,6,0,0,0,0,12v6a2,2,0,0,0,2,2h2a2,2,0,0,0,2-2V36h2.172A5.867,5.867,0,0,1,36,37.442V38a2,2,0,0,0,2,2h2A2,2,0,0,0,42,38ZM20,30a4,4,0,0,1,4-4v8A4,4,0,0,1,20,30Zm8,12H26V36h2Zm4.172-8H26V26h6.172A7.776,7.776,0,0,0,36,25V35.011A7.874,7.874,0,0,0,32.172,34Zm10.645-5.515a1.562,1.562,0,0,1,0,3.03l-.817.2V28.281ZM38,22h2l0,16H38Z"/><path d="M28,29h2v2H28Z"/><path d="M32,29h2v2H32Z"/><path d="M18,52h2v2H18Z"/><path d="M22,52h2v2H22Z"/><path d="M26,52h2v2H26Z"/></g></g></svg>