<svg xmlns="http://www.w3.org/2000/svg" width="105" height="105" viewBox="0 0 105 105"><g transform="translate(-398 -2859)"><circle cx="52.5" cy="52.5" r="52.5" transform="translate(398 2859)" fill="#406834"/><g transform="translate(402.682 2860.373)"><path d="M57.08,81.3a20.83,20.83,0,0,1-9.629-4.665A23.67,23.67,0,0,1,40.81,66.168l-.824-2.242,1.189-1.981,9.07-1.814,2.488,1.188.3,1.5a9.578,9.578,0,0,0,2.04,3.834,8.51,8.51,0,0,0,2,1.557V58.972a22.114,22.114,0,0,1-9.131-4.338,14.6,14.6,0,0,1-4.961-11.327,16.314,16.314,0,0,1,1.531-7.187,14.055,14.055,0,0,1,4.6-5.35,20.939,20.939,0,0,1,7.961-3.4v-4.82a31.967,31.967,0,1,0,0,62.3Z" transform="translate(-1.818 -2.185)" fill="#1e81ce"/><path d="M146.307,86.473c0,.955.168,1.686.428,1.862a7.191,7.191,0,0,0,.694.409v-4.5A2.466,2.466,0,0,0,146.307,86.473Z" transform="translate(-92.167 -46.182)" fill="#1e81ce"/><path d="M136.632,55.643l-.032-.027c-1.694-1.479-4.6-2.757-8.879-3.907l-2.273-.507-1.1-1.367V39.013l1.82-1.294a12.888,12.888,0,0,1,2.738,1.406,8.1,8.1,0,0,1,3.677,5.421l.167.943,7.088-1.934-.287-.88a16.665,16.665,0,0,0-6.513-8.9,18,18,0,0,0-7.487-2.839l-1.2-1.384V23.118H119.7V29.6L118.5,30.984a18.5,18.5,0,0,0-7.937,3.131,11.317,11.317,0,0,0-3.71,4.3,13.579,13.579,0,0,0-1.253,5.976,11.751,11.751,0,0,0,4.013,9.241,20.244,20.244,0,0,0,8.712,3.916l.306.076,1.061,1.359V71.407l-1.773,1.314c-.211-.067-.4-.132-.581-.2a11.485,11.485,0,0,1-4.424-2.875,12.012,12.012,0,0,1-2.725-4.851l-.231-.754-7,1.381.319.944a20.95,20.95,0,0,0,5.841,9.27,18.462,18.462,0,0,0,9.39,4.227l1.183,1.382v5.093h4.66V81.495l1.289-1.391a18.785,18.785,0,0,0,9.976-3.373,14.168,14.168,0,0,0,4.217-4.94,13.973,13.973,0,0,0,1.4-6.305,12.171,12.171,0,0,0-4.608-9.842ZM119.7,39.034v8.92l-1.83,1.291a14.735,14.735,0,0,1-3.186-1.528c-1.107-.749-1.645-2.109-1.645-4.156a5.287,5.287,0,0,1,2.679-4.747,11.788,11.788,0,0,1,2.155-1.07Zm13.712,27.056a6.4,6.4,0,0,1-2.541,5.4l-.013.01a10.454,10.454,0,0,1-4.947,1.813l-1.554-1.373V60.822l1.712-1.336.072.018C131.029,60.61,133.408,62.763,133.408,66.089Z" transform="translate(-61.664 -3.161)" fill="#ffa12e"/><g transform="translate(16.351 21.213)"><path d="M35.033,168.692c.073-.444.207-.882.238-1.333a5.972,5.972,0,0,0-.664-2.675.826.826,0,0,0-.253-.38,1.012,1.012,0,0,0-.7-.05,2.37,2.37,0,0,1-2.218-1.052,1.942,1.942,0,0,0-.413-.555c-.59-.44-1.365.246-2.1.317a2.523,2.523,0,0,0,.815,1.814c.423.537.81,1.276.472,1.87a.415.415,0,0,1-.218.2.563.563,0,0,1-.378-.069,5.218,5.218,0,0,0-1.168-.313,31.95,31.95,0,0,0,3.093,5.16c1.229.175,2.427.829,3.649.607.161-.03.35-.11.362-.273a.419.419,0,0,0-.063-.207A5.082,5.082,0,0,1,35.033,168.692Z" transform="translate(-25.578 -122.468)" fill="#00ccb3"/><path d="M140.779,32.081q.67-.181,1.36-.326V27.963c-1.8.14-3.466-.18-3.347,1.6A3.191,3.191,0,0,0,140.779,32.081Z" transform="translate(-103.229 -27.783)" fill="#00ccb3"/><path d="M48.034,80.6a23.638,23.638,0,0,1-6.616-10.4c-.042.052-.086.1-.132.153-.98,1.031-2.668.711-4.034.312A2.8,2.8,0,0,1,35.479,69.6c-.349-.616.114-1.633.8-1.473a7.613,7.613,0,0,0-2.945-1.555,2.774,2.774,0,0,0-.28-1.505,3.56,3.56,0,0,0-2.128.284,4.721,4.721,0,0,1-1.815-3.815L31.844,60c.373-.515,1.266-.148,1.494.444a5.007,5.007,0,0,1,.053,1.891c-.011.636.251,1.392.873,1.525,1.016.217,1.444-1.279,2.3-1.871-.719-.773-.575-1.976-.5-3.029s-.129-2.349-1.111-2.734c.963-.112,1.5-1.166,1.716-2.112a4.991,4.991,0,0,1,1.019-2.672c.314-.3.718-.482,1.054-.754a2.549,2.549,0,0,0,.928-1.831l3.064-.089a1.312,1.312,0,0,0,.7-.151.634.634,0,0,0,.185-.2q-.033-.5-.037-1.011a2.691,2.691,0,0,0-.97-.816,1.329,1.329,0,0,1,1.064-1.321h0a15.7,15.7,0,0,1,1.163-4.6c-.154-.265-.3-.533-.438-.808a1.919,1.919,0,0,0-.622-.848c-.605-.372-1.4.071-2.1-.07a4.368,4.368,0,0,1-1.311-.748,1.154,1.154,0,0,0-1.4-.023c-.3.313-.235.805-.223,1.236A4.144,4.144,0,0,1,34.7,43.5a4.775,4.775,0,0,0-1.9-3.069c-.451-.324-1.026-.685-1-1.24a1.206,1.206,0,0,1,.289-.641c1.253-1.639,3.732-2.225,4.491-4.144.283-.718.459-1.718,1.226-1.807.59-.067,1.042.528,1.227,1.092a3.878,3.878,0,0,0,.681,1.625c.88.889,2.366.138,3.355-.628A3.4,3.4,0,0,1,44.443,31a4.247,4.247,0,0,1-.395,5.565,4.776,4.776,0,0,1,1.971,1.909,14.355,14.355,0,0,1,3.682-3.75q.759-.538,1.568-1c0-.03.008-.061.009-.092.025-1.23-1.823-1.791-1.939-3.015-.055-.576.294-1.218-.025-1.7-.465-.7-1.536-.142-2.379-.116-1.415.044-2.511-1.644-3.91-1.426-.285.775-1.165,1.11-1.9,1.476s-1.514,1.078-1.295,1.874c-1.383.547-1.963-.815-2.461-2.222a32,32,0,0,0-18.612,24.53q.311.447.611.894a22.742,22.742,0,0,1,2.609,5.013,3.6,3.6,0,0,1,.251,1.116c.009.449-.132.889-.15,1.337a2.527,2.527,0,0,0,1.312,2.285,9.549,9.549,0,0,0,1.946.557c2.927.821,4.71,4.067,7.665,4.79a2.065,2.065,0,0,0,1.052,2.5c.852.52,1.875.7,2.737,1.207A17.1,17.1,0,0,0,39.2,74.359a3.514,3.514,0,0,1,1.022.428,1.479,1.479,0,0,1,.2,1.84,4.314,4.314,0,0,1-1.469,1.349c1.408.5,1.894,2.319,3.183,3.075a7.484,7.484,0,0,0,2.636.6,4.6,4.6,0,0,1,2.672,1.3,2.624,2.624,0,0,1,.553,2.8c-.339.719-1.083,1.543-.571,2.151a1.411,1.411,0,0,0,.81.377,3.035,3.035,0,0,0,1.545.072,1.044,1.044,0,0,0,.774-1.179c-.14-.472-.617-1.15-.14-1.274l2.848,1.279a1.753,1.753,0,0,0,.856.22c1.073-.1.987-1.7,1.535-2.644A20.281,20.281,0,0,1,48.034,80.6Z" transform="translate(-18.752 -27.356)" fill="#00ccb3"/></g><path d="M146.7,93.914l.044.03c.174-.017.518-.086.693-.105V92.2c-.318.035-.807.118-1.126.148C146.335,93.388,146.559,93.822,146.7,93.914Z" transform="translate(-92.171 -51.779)"/><path d="M140.343,161.392v-1.639q-2-.214-4.033-.307l.108.353a11.373,11.373,0,0,0,.49,1.308Q138.637,161.2,140.343,161.392Z" transform="translate(-85.135 -99.105)"/><path d="M73.2,43.979a3.977,3.977,0,0,1,1.777,1.864A13.668,13.668,0,0,1,76,44.356a5.693,5.693,0,0,0-1.207-1.287,5.088,5.088,0,0,0-.191-5.89l-1.079-.172a4.221,4.221,0,0,0-1.833,4c-.741.485-1.526.763-1.874.411a2.071,2.071,0,0,1-.35-.844c-.041-.15-.083-.305-.135-.463a2.114,2.114,0,0,0-2.093-1.646c-1.137.13-1.508,1.215-1.754,1.933-.045.132-.089.262-.137.383A5.094,5.094,0,0,1,63.22,42.83a8.882,8.882,0,0,0-2.257,1.9,2,2,0,0,0-.455,1.091A2.241,2.241,0,0,0,61.741,47.7l.1.071a3.985,3.985,0,0,1,1.574,2.539l.791.683a4.956,4.956,0,0,0,4.871-4.921c0-.055,0-.111-.006-.168a2.652,2.652,0,0,1,.007-.463.848.848,0,0,1,.385.132c.1.063.211.141.326.223a3.2,3.2,0,0,0,1.25.629,3.392,3.392,0,0,0,1.183-.02,1.446,1.446,0,0,1,.647-.015,1.519,1.519,0,0,1,.3.477l.018.037a14.239,14.239,0,0,0,.7,1.247,14.112,14.112,0,0,1,.558-1.318c.086-.178.178-.352.271-.524-.022-.042-.044-.084-.065-.127l-.018-.036A2.568,2.568,0,0,0,73.722,45a1.9,1.9,0,0,0-1-.274Q72.9,44,73.1,43.3Zm.792-3.431a3.627,3.627,0,0,1-.058.407l-.082-.016q.07-.2.14-.391Zm-2.941,4.139c-.1-.062-.2-.137-.313-.215-.133-.1-.27-.194-.423-.288a1.92,1.92,0,0,0-2.421.113,2.163,2.163,0,0,0-.451,1.67c0,.049,0,.1.005.146a3.159,3.159,0,0,1-.963,2.263,3.318,3.318,0,0,1-1.64.924,5.576,5.576,0,0,0-2.055-2.854l-.108-.077,0,0q.464-.961.975-1.866c.153-.105.309-.21.468-.315a6.346,6.346,0,0,0,2.735-2.8c.059-.15.112-.3.163-.453.028-.081.065-.19.107-.3q.367.151.738.293l.024.089a3.333,3.333,0,0,0,.764,1.561,2.509,2.509,0,0,0,2.86.369Q71.272,43.79,71.051,44.687Z" transform="translate(-31.786 -12.935)"/><path d="M69.7,97.172H64.155c.02-2.487.131-4.923.326-7.274l1.4-.041a2.564,2.564,0,0,0,.75-.108,17.944,17.944,0,0,1-.12-2.1,18.949,18.949,0,0,1,.218-2.912c-.024,0-.048,0-.072.009a2.133,2.133,0,0,0-1.738,2.159l.4.665a2.084,2.084,0,0,1,.7.553.25.25,0,0,1,.03.093c-.069.008-.161.01-.214.012l-3.064.089-.79.775a1.725,1.725,0,0,1-.627,1.238,4.424,4.424,0,0,1-.391.269,4.587,4.587,0,0,0-.711.527,4.639,4.639,0,0,0-1.157,2.627c-.031.154-.062.307-.1.457-.146.646-.5,1.422-1.016,1.481l-.2,1.568c.523.2.648,1.162.6,1.92l-.015.213a5.5,5.5,0,0,0,.276,2.747c-.154.178-.292.36-.422.533-.207.276-.522.692-.652.666a.878.878,0,0,1-.229-.714c0-.152.016-.314.03-.486a3.71,3.71,0,0,0-.138-1.712,1.955,1.955,0,0,0-1.539-1.2,1.451,1.451,0,0,0-1.238.4L51.841,101.1l-.415.687a5.546,5.546,0,0,0,2.133,4.485l.844.089a2.721,2.721,0,0,1,1.2-.26,1.959,1.959,0,0,1,.051.665l.6.866a6.8,6.8,0,0,1,1.707.726,1.946,1.946,0,0,0-.059,1.917,3.549,3.549,0,0,0,2.254,1.443c1.454.424,3.243.759,4.521-.234-.116-.311-.229-.626-.337-.946l-.766-2.265.958-1.654c-.225-2.518-.352-5.14-.373-7.82h7.08A15.1,15.1,0,0,1,69.7,97.172Zm-9.112-2.6c.036-.162.07-.326.1-.493a3.368,3.368,0,0,1,.681-1.767,3.269,3.269,0,0,1,.468-.337,5.779,5.779,0,0,0,.539-.376,3.224,3.224,0,0,0,.369-.351c-.13,1.933-.206,3.915-.221,5.928H59.735a2.968,2.968,0,0,0-.246-.493A4.094,4.094,0,0,0,60.588,94.568Zm-3.309,11.679a3.567,3.567,0,0,0-.365-1.272l-.586-.436a4.391,4.391,0,0,0-2.109.148,3.921,3.921,0,0,1-1.146-2.409l2.3-1.295.147-.131a.364.364,0,0,1,.188.158,2.413,2.413,0,0,1,.035.99c-.016.191-.033.389-.036.6a2.191,2.191,0,0,0,1.518,2.335c1.148.245,1.837-.673,2.294-1.281a3.458,3.458,0,0,1,.638-.717l.132-1.223c-.428-.461-.365-1.345-.3-2.2L60,99.29c.012-.168.015-.33.014-.489h2.511c.024,3.036.182,6,.463,8.833q-1.659.267-3.285.616l.237-.468a8.459,8.459,0,0,0-2.662-1.535Zm3.331,3.908a5.646,5.646,0,0,1-.767-.269q1.644-.359,3.323-.631.068.572.142,1.137A4.7,4.7,0,0,1,60.61,110.155Z" transform="translate(-25.396 -46.527)"/><path d="M52.334,81.99c.94-.308,1.233-1.333,1.433-2.04l.026-.093q.216-.38.426-.789-.873-.222-1.707-.5a7.661,7.661,0,0,0-.313.939c-.105.371-.265.932-.415.946a1.392,1.392,0,0,1-.448-.152L48.49,79.02l-.537-.046a1.066,1.066,0,0,0-.708.563,1.67,1.67,0,0,0,.151,1.431c.044.1.089.207.113.28a.4.4,0,0,1-.228.19,2.48,2.48,0,0,1-1.126-.089,2.331,2.331,0,0,1-.343-.1,3.32,3.32,0,0,1,.35-.713c.108-.186.221-.378.315-.578a3.408,3.408,0,0,0-.69-3.7,5.37,5.37,0,0,0-3.14-1.551c-.239-.039-.478-.068-.708-.1a4.368,4.368,0,0,1-1.649-.406A4.556,4.556,0,0,1,39.1,72.961a8.416,8.416,0,0,0-.982-1.162,3.56,3.56,0,0,0,.749-.9,2.281,2.281,0,0,0-.4-2.876,2.873,2.873,0,0,0-.993-.472c-.085-.027-.171-.053-.254-.084a4.911,4.911,0,0,1-1.239-.8,9.054,9.054,0,0,0-1.054-.756,8.951,8.951,0,0,0-1.466-.645,7.2,7.2,0,0,1-1.257-.553c-.539-.329-.978-1.011-.756-1.43L30.927,62.1a9.275,9.275,0,0,1-3.57-2.24,11.071,11.071,0,0,0-4.068-2.543c-.237-.066-.47-.116-.695-.164a4.313,4.313,0,0,1-1.09-.329,1.708,1.708,0,0,1-.879-1.532,4.334,4.334,0,0,1,.064-.5,4.752,4.752,0,0,0,.086-.885,4.347,4.347,0,0,0-.3-1.371,23.47,23.47,0,0,0-2.7-5.195c-.142-.213-.288-.425-.433-.637a31.245,31.245,0,0,1,17.309-23.22,3.3,3.3,0,0,0,1.512,1.87,2.1,2.1,0,0,0,1.7-.006l.486-.975c-.065-.237.334-.66.871-.927.086-.043.174-.085.262-.127a4.342,4.342,0,0,0,1.758-1.256,4.121,4.121,0,0,1,1.116.563,4.158,4.158,0,0,0,2.34.854,5.5,5.5,0,0,0,.935-.136,3.208,3.208,0,0,1,.739-.1,2.313,2.313,0,0,1-.046.433,3.352,3.352,0,0,0-.059.88A3.225,3.225,0,0,0,47.5,26.543c.364.344.708.668.7.94a1.784,1.784,0,0,1-.462.8l-.077.094A20.066,20.066,0,0,1,49.8,27.119a3.335,3.335,0,0,0-1.182-1.762c-.361-.34-.7-.662-.729-.951a2.138,2.138,0,0,1,.047-.463,2.121,2.121,0,0,0-.2-1.609,1.912,1.912,0,0,0-2.147-.639,3.667,3.667,0,0,1,2.533-1.272c1.133,0,2.275.78,3.356,2.239a4.193,4.193,0,0,0-.009.7,5.515,5.515,0,0,0,.914,2.66q.8-.281,1.643-.5a3.932,3.932,0,0,1-.931-2.265c-.062-.922.063-1.022,1.67-1.331.143-.028.294-.057.45-.089V19.57a32.781,32.781,0,1,0,0,64.013V80.92a16.02,16.02,0,0,1-3,1.22c.042-.049.084-.1.126-.149Zm-.007-60.944-.055.042-.066-.076Zm-8.307-.034c-.133.153-.267.314-.4.482-.126-.073-.254-.152-.385-.233q.39-.135.782-.249Zm-5.829,1.032a21.6,21.6,0,0,0-1.761,1.37,5.12,5.12,0,0,1-.288-.6Q37.15,22.4,38.192,22.044ZM31.36,66.093a8.519,8.519,0,0,0,1.544.692,7.631,7.631,0,0,1,1.207.523,7.736,7.736,0,0,1,.864.626,6.191,6.191,0,0,0,1.681,1.055c.11.041.224.077.337.113a1.644,1.644,0,0,1,.459.188c.161.129.162.52,0,.8a3.692,3.692,0,0,1-1.211,1.071l.178,1.446A3.428,3.428,0,0,1,37.8,73.933l.055.073a33.482,33.482,0,0,0-3.409,1.3,32.867,32.867,0,0,1-5.415-10.382q.495-.158.995-.308a3.533,3.533,0,0,0,1.337,1.476Zm-2.186-2.918c-.2.063-.41.125-.614.19q-.089-.318-.173-.64a8.484,8.484,0,0,0,.787.45ZM17.05,49.23c.321.522.614,1.033.873,1.532h-.951Q16.993,49.991,17.05,49.23Zm-.077,3.161h1.7c.094.231.183.461.264.689a2.96,2.96,0,0,1,.205.861,3.419,3.419,0,0,1-.065.587,5.7,5.7,0,0,0-.084.7,3.344,3.344,0,0,0,1.745,3.039,5.667,5.667,0,0,0,1.513.482c.21.045.408.087.595.14A9.727,9.727,0,0,1,26.3,61.1l.032.027q.294,1.4.674,2.755c-.171.059-.342.119-.512.18-.109-.3-.227-.576-.337-.836a1.405,1.405,0,0,0-1.714-.933l-.081.01a1.554,1.554,0,0,1-1.438-.681c-.023-.037-.046-.074-.068-.112a2.108,2.108,0,0,0-.544-.657,2.034,2.034,0,0,0-2.08-.024,2.621,2.621,0,0,1-.583.184l-.725.679a2.061,2.061,0,0,0,.075.961,30.965,30.965,0,0,1-2.028-10.265Zm2.853,12.224q-.379-.818-.711-1.659a5.5,5.5,0,0,0,.739,1.124l.051.064a2.512,2.512,0,0,1,.355.584c-.133-.04-.278-.077-.434-.113Zm3,5.131a31.232,31.232,0,0,1-2.03-3.212,1.076,1.076,0,0,0,.249-.046,1.2,1.2,0,0,0,.678-.577c.258-.454.531-1.418-.54-2.777l-.052-.066a5.488,5.488,0,0,1-.47-.657l.167-.065a2.782,2.782,0,0,1,.522-.17c.03.04.075.116.107.169s.063.105.1.157a3.193,3.193,0,0,0,3,1.422l.1-.013.022,0a5.279,5.279,0,0,1,.582,2.255,5.287,5.287,0,0,1-.124.725c-.037.171-.075.347-.106.533a5.909,5.909,0,0,0,.256,2.9,7.243,7.243,0,0,1-1.415-.307C23.53,69.918,23.183,69.82,22.826,69.746Zm1.656,2.1a5.09,5.09,0,0,0,.994.108,3.68,3.68,0,0,0,.664-.059,1.143,1.143,0,0,0,1.028-1.017,1.188,1.188,0,0,0-.145-.628,4.262,4.262,0,0,1-.385-2.568c.024-.145.056-.295.091-.453a6.6,6.6,0,0,0,.157-.956,4.025,4.025,0,0,0-.006-.618q.3-.108.6-.213a35.61,35.61,0,0,0,4.451,9.2q.492.717,1.01,1.382-1.192.6-2.338,1.3a31.408,31.408,0,0,1-6.118-5.476Zm7.654,6.458q.915-.528,1.862-1a23.324,23.324,0,0,0,4.194,3.795,31.02,31.02,0,0,1-6.056-2.8ZM35.548,76.6a31.861,31.861,0,0,1,3.514-1.263,3.518,3.518,0,0,0,.4.281,4.133,4.133,0,0,0,1.248.459,19.644,19.644,0,0,0,3.309,6.061A18.679,18.679,0,0,1,35.548,76.6ZM45,79.268c-.064.135-.154.289-.249.453-.074.126-.158.271-.237.428a19.784,19.784,0,0,1-1.95-3.792,3.719,3.719,0,0,1,2.021,1.01,1.826,1.826,0,0,1,.416,1.9Zm3.312,3.453a1.823,1.823,0,0,0,.82-1.624l1.287.578a3.614,3.614,0,0,1-2.107,1.046Z" transform="translate(0 -0.117)"/><path d="M133.69,51.426c-1.842-1.608-4.906-2.971-9.4-4.177l-2.429-.542V35.534a11.534,11.534,0,0,1,2.655,1.337,6.832,6.832,0,0,1,3.155,4.618l.4,2.263,9.618-2.624-.684-2.1a17.881,17.881,0,0,0-6.993-9.537,19.211,19.211,0,0,0-8.15-3.056V18.627h-7.1v7.857a19.711,19.711,0,0,0-8.614,3.365c-3.635,2.576-5.478,6.369-5.478,11.274A12.923,12.923,0,0,0,105.1,51.281c2.1,1.837,5.217,3.246,9.244,4.189l.42.105V68.342c-.241-.073-.478-.151-.711-.237a10.273,10.273,0,0,1-3.958-2.569,10.81,10.81,0,0,1-2.441-4.366l-.556-1.81-9.45,1.864.766,2.265c2.787,8.271,8.278,13.076,16.352,14.336v6.468h7.1V78.066a20.061,20.061,0,0,0,10.783-3.63,14.644,14.644,0,0,0,6.1-12.22,13.351,13.351,0,0,0-5.057-10.79Zm-2.031,21.71a18.5,18.5,0,0,1-9.921,3.3l-1.506,1.625v4.6h-3.843V77.826l-1.378-1.61a18.116,18.116,0,0,1-9.335-4.154,20.552,20.552,0,0,1-5.724-9.094l-.171-.5,6.185-1.22.124.4a12.416,12.416,0,0,0,2.818,5.013,11.889,11.889,0,0,0,4.579,2.977c.241.089.5.175.8.265l2.1-1.559V55.576L115.154,54l-.42-.105-.025-.006a19.869,19.869,0,0,1-8.541-3.827,11.359,11.359,0,0,1-3.873-8.934,13.179,13.179,0,0,1,1.212-5.8,10.915,10.915,0,0,1,3.579-4.147A18.14,18.14,0,0,1,115,28.1l1.389-1.611V20.256h3.844v6.178l1.4,1.614a17.636,17.636,0,0,1,7.468,2.8,16.27,16.27,0,0,1,6.353,8.689l.154.474-6.245,1.7-.089-.5a8.494,8.494,0,0,0-3.851-5.688A13.244,13.244,0,0,0,122.4,34l-2.165,1.538V46.709l1.274,1.59,2.4.533c4.219,1.134,7.07,2.384,8.716,3.821l.039.033a11.779,11.779,0,0,1,4.461,9.529,13.571,13.571,0,0,1-1.363,6.123,13.764,13.764,0,0,1-4.1,4.8Z" transform="translate(-57.922 0)"/><path d="M138.554,71.765a5.668,5.668,0,0,0-2.869,5.091c0,2.192.6,3.663,1.824,4.493A15.576,15.576,0,0,0,140.985,83l2.176-1.535V72.119l-2.174-1.536A12.19,12.19,0,0,0,138.554,71.765Zm2.978,9.695A14.2,14.2,0,0,1,138.422,80c-.746-.5-1.108-1.534-1.108-3.144a4.05,4.05,0,0,1,2.112-3.715,10.51,10.51,0,0,1,2.106-1.022Z" transform="translate(-84.695 -36.565)"/><path d="M176.18,144.094l-.256-.064-2.025,1.58v11.5l1.83,1.617a10.976,10.976,0,0,0,5.323-1.916l.015-.011a6.783,6.783,0,0,0,2.7-5.721C183.768,147.53,181.285,145.247,176.18,144.094Zm3.89,11.413a9.411,9.411,0,0,1-4.542,1.6v-11.5l.275.069c6.336,1.425,6.336,4.31,6.336,5.4a5.187,5.187,0,0,1-2.069,4.432Z" transform="translate(-111.589 -88.255)"/></g></g></svg>