<svg xmlns="http://www.w3.org/2000/svg" xmlns:xlink="http://www.w3.org/1999/xlink" width="110" height="110" viewBox="0 0 110 110"><defs><filter id="a" x="0" y="0" width="110" height="110" filterUnits="userSpaceOnUse"><feOffset dy="3" input="SourceAlpha"/><feGaussianBlur stdDeviation="3" result="b"/><feFlood flood-opacity="0.161"/><feComposite operator="in" in2="b"/><feComposite in="SourceGraphic"/></filter></defs><g transform="translate(-1167 -856)"><g transform="matrix(1, 0, 0, 1, 1167, 856)" filter="url(#a)"><circle cx="46" cy="46" r="46" transform="translate(9 6)" fill="#e8e8e8"/></g><path d="M-4.065-17.974h3.054A6.713,6.713,0,0,0,3.516-19.49a5.065,5.065,0,0,0,1.648-3.977q0-5.625-5.6-5.625a5.828,5.828,0,0,0-4.208,1.505A5.268,5.268,0,0,0-6.218-23.6h-4.065A8.161,8.161,0,0,1-7.5-29.916,10.126,10.126,0,0,1-.439-32.432a10.006,10.006,0,0,1,7.1,2.4,8.652,8.652,0,0,1,2.571,6.658,7.023,7.023,0,0,1-1.351,4.043A8.159,8.159,0,0,1,4.2-16.414a7.862,7.862,0,0,1,4.076,2.769A7.689,7.689,0,0,1,9.712-8.921,8.727,8.727,0,0,1,6.9-2.087,10.532,10.532,0,0,1-.417.439,10.81,10.81,0,0,1-7.745-2a8.091,8.091,0,0,1-2.823-6.438h4.087A5.229,5.229,0,0,0-4.834-4.395,6.268,6.268,0,0,0-.417-2.878a6.151,6.151,0,0,0,4.5-1.538,5.928,5.928,0,0,0,1.56-4.417,5.379,5.379,0,0,0-1.714-4.285,7.467,7.467,0,0,0-4.944-1.538H-4.065Z" transform="translate(1222 925)" fill="#12263f"/></g></svg>