<svg xmlns="http://www.w3.org/2000/svg" xmlns:xlink="http://www.w3.org/1999/xlink" width="110" height="110" viewBox="0 0 110 110"><defs><filter id="a" x="0" y="0" width="110" height="110" filterUnits="userSpaceOnUse"><feOffset dy="3" input="SourceAlpha"/><feGaussianBlur stdDeviation="3" result="b"/><feFlood flood-opacity="0.161"/><feComposite operator="in" in2="b"/><feComposite in="SourceGraphic"/></filter></defs><g transform="translate(-745 -856)"><g transform="matrix(1, 0, 0, 1, 745, 856)" filter="url(#a)"><circle cx="46" cy="46" r="46" transform="translate(9 6)" fill="#e8e8e8"/></g><path d="M10.986,0H-9.976V-2.922L1.1-15.227a26.309,26.309,0,0,0,3.395-4.537,7.573,7.573,0,0,0,.934-3.615,5.74,5.74,0,0,0-1.516-4.109,5.3,5.3,0,0,0-4.043-1.6,6.278,6.278,0,0,0-4.713,1.725,6.588,6.588,0,0,0-1.681,4.8h-4.065a9.436,9.436,0,0,1,2.845-7.141A10.548,10.548,0,0,1-.132-32.432a10.136,10.136,0,0,1,7.053,2.34,7.982,7.982,0,0,1,2.593,6.229q0,4.724-6.021,11.25L-5.076-3.318H10.986Z" transform="translate(800 925)" fill="#12263f"/></g></svg>