<svg xmlns="http://www.w3.org/2000/svg" width="182.875" height="106" viewBox="0 0 182.875 106"><g transform="translate(-705 -2536.88)"><g transform="translate(747 2536.88)"><g transform="translate(1.71 1.71)"><g transform="translate(75.226 3.419)"><path d="M387.355,24V54.774H360V24Z" transform="translate(-360 -24)" fill="#ccd1d9"/></g><g transform="translate(46.495 3.419)"><path d="M235.607,54.774a11.824,11.824,0,0,0,1.588-5.922c0-.306-.011-.611-.036-.915l.036,0h3.419v-17.1h-10.6l-1.1-2.364A13.566,13.566,0,0,0,225.56,24l0,0h21.89V54.774H235.609Z" transform="translate(-225.56 -24)" fill="#ccd1d9"/></g><g transform="translate(82.065 10.258)"><path d="M392,56h13.677V73.1H392Z" transform="translate(-392 -56)" fill="#69d6f4"/></g><g transform="translate(50.948 10.258)"><path d="M257,56V73.1h-3.419l-.036,0a11.586,11.586,0,0,0-.244-1.65,11.723,11.723,0,0,0-.831-2.443L246.4,56Z" transform="translate(-246.4 -56)" fill="#69d6f4"/></g><g transform="translate(3.419)"><path d="M37.677,28.51v3.426h-1.71a5.129,5.129,0,0,0,0,10.258h1.917a13.594,13.594,0,0,0,8.341,10.258v3.419l-8.277,1.1-1.868.25a11.951,11.951,0,0,1-5.242-9.9l-2.1-1.577a11.839,11.839,0,0,1-3.627-14.481l8.747-18.742a7.833,7.833,0,0,1,10.6-3.7l1.765.883A5.838,5.838,0,0,1,50.353,8h7.679a13.7,13.7,0,0,1,12.4,7.894l1.1,2.364L77.6,31.264a11.725,11.725,0,0,1,.831,2.443,11.59,11.59,0,0,1,.244,1.65c.026.3.036.609.036.915a11.845,11.845,0,0,1-4.738,9.474l-2.1,1.577a11.955,11.955,0,0,1-5.242,9.9l-1.868-.25-8.277-1.1V52.452a13.594,13.594,0,0,0,8.341-10.258h1.917a5.129,5.129,0,0,0,0-10.258h-1.71V28.516H61.613a3.408,3.408,0,0,1-2.639-1.246h0l-1.611.808a4.149,4.149,0,0,1-6.005-3.712V20.675a2.418,2.418,0,0,0-4.127-1.71l-1,1-1-1a2.4,2.4,0,0,0-.784-.524A2.418,2.418,0,0,0,41.1,20.675v4.214a3.625,3.625,0,0,1-3.419,3.62Z" transform="translate(-24 -8)" fill="#b27946"/></g><g transform="translate(44.244 23.935)"><path d="M216.947,120a5.129,5.129,0,0,1,0,10.258H215.03a13.587,13.587,0,0,0,.207-2.368V120Z" transform="translate(-215.03 -120)" fill="#f0d0b4"/></g><g transform="translate(17.097 10.258)"><path d="M115.355,69.677v7.89a13.594,13.594,0,0,1-8.548,12.626v3.419l-5.129,6.839-5.129-6.839V90.194A13.594,13.594,0,0,1,88,77.568V66.252a3.625,3.625,0,0,0,3.419-3.62V58.417a2.418,2.418,0,0,1,4.127-1.71l1,1,1-1a2.419,2.419,0,0,1,4.127,1.71v3.691a4.149,4.149,0,0,0,6.005,3.712l1.611-.808h0a3.408,3.408,0,0,0,2.639,1.246h3.419Z" transform="translate(-88 -56)" fill="#f0d0b4"/></g><g transform="translate(10.258 23.935)"><path d="M63.046,130.258H61.129a5.129,5.129,0,1,1,0-10.258h1.71v7.89A13.587,13.587,0,0,0,63.046,130.258Z" transform="translate(-56 -120)" fill="#f0d0b4"/></g><g transform="translate(3.419 48.974)"><path d="M71.871,256.573v17.1l1.5,1.874a24.373,24.373,0,0,1,5.341,15.223H24a24.366,24.366,0,0,1,4.2-13.677H44.516a3.415,3.415,0,0,0,3.419-3.419v6.839h17.1V253.154H61.613a6.84,6.84,0,0,0-6.839-6.839,13.076,13.076,0,0,0,9.987-9.155l1.868.25,3.631.483a13.65,13.65,0,0,1,5.259,1.846,8.562,8.562,0,0,0,6.61,6.4v2.883a5.838,5.838,0,0,0,1.71,4.127l-2.052,3.419Z" transform="translate(-24 -237.16)" fill="#fcd770"/></g><g transform="translate(0 48.974)"><path d="M18.258,256.573H8v-5.123a13.68,13.68,0,0,1,11.869-13.558l3.631-.483,1.868-.25a13.077,13.077,0,0,0,9.987,9.155,6.84,6.84,0,0,0-6.839,6.839v3.419a6.837,6.837,0,0,0,6.839-6.839,3.418,3.418,0,0,0,3.419,3.419H35.355v13.677a3.419,3.419,0,1,0-6.839,0H18.662c-.135,0-.271,0-.4.013Z" transform="translate(-8 -237.16)" fill="#fcd770"/></g><g transform="translate(27.355 54.71)"><path d="M142.839,267.419v3.419a3.419,3.419,0,1,1-6.839,0v-3.419a3.419,3.419,0,1,1,6.839,0Z" transform="translate(-136 -264)" fill="#ff826e"/></g><g transform="translate(30.774 58.129)"><path d="M162.258,286.839H152a3.418,3.418,0,0,0,3.419-3.419V280A6.84,6.84,0,0,1,162.258,286.839Z" transform="translate(-152 -280)" fill="#ffc729"/></g><g transform="translate(30.774 47.871)"><path d="M157.129,232l8.277,1.1a13.077,13.077,0,0,1-9.987,9.155A3.415,3.415,0,0,0,152,238.839Z" transform="translate(-152 -232)" fill="#ffc729"/></g><g transform="translate(17.368 47.871)"><path d="M97.547,232l5.129,6.839a3.418,3.418,0,0,0-3.419,3.419A13.077,13.077,0,0,1,89.27,233.1Z" transform="translate(-89.27 -232)" fill="#ffc729"/></g><g transform="translate(20.516 58.129)"><path d="M110.839,280v3.419A6.837,6.837,0,0,1,104,290.258v-3.419A6.84,6.84,0,0,1,110.839,280Z" transform="translate(-104 -280)" fill="#ffc729"/></g><g transform="translate(27.355 64.968)"><path d="M153.1,312v27.355H136V312h17.1Z" transform="translate(-136 -312)" fill="#e6e9ed"/></g><g transform="translate(0 68.387)"><path d="M18.258,338.271c.132-.009.269-.013.4-.013h9.854V345.1a3.418,3.418,0,0,0,3.419,3.419h-17.1A6.84,6.84,0,0,1,8,341.677V328H18.258Z" transform="translate(-8 -328)" fill="#f0d0b4"/></g><g transform="translate(20.516 75.226)"><path d="M110.839,363.419v6.839a3.419,3.419,0,0,1-6.839,0v-6.839a3.419,3.419,0,1,1,6.839,0Z" transform="translate(-104 -360)" fill="#f0d0b4"/></g><g transform="translate(51.29 57.958)"><path d="M257.916,289.629l2.052-3.419a5.838,5.838,0,0,1-1.71-4.127V279.2a8.67,8.67,0,0,0,1.71.171H265.1v15.387l-3.06,7.142a7.963,7.963,0,0,1-12.949,2.494L248,303.306V289.629Z" transform="translate(-248 -279.2)" fill="#f0d0b4"/></g><g transform="translate(75.226 58.129)"><path d="M366.839,283.419v6.839a3.419,3.419,0,1,1-6.839,0v-6.839a3.419,3.419,0,1,1,6.839,0Z" transform="translate(-360 -280)" fill="#f0d0b4"/></g><g transform="translate(68.387 58.129)"><path d="M334.839,290.258v5.129a1.709,1.709,0,0,1-1.71,1.71H329.71a1.709,1.709,0,0,1-1.71-1.71V280h6.839v10.258Z" transform="translate(-328 -280)" fill="#969faa"/></g><g transform="translate(71.806 37.613)"><path d="M361.1,184v23.935a11.678,11.678,0,0,0-8.256-3.419H344v-17.1h8.841A11.677,11.677,0,0,0,361.1,184Z" transform="translate(-344 -184)" fill="#e6e9ed"/></g><g transform="translate(88.903 34.194)"><path d="M430.839,188.516v8.548a1.709,1.709,0,0,1-1.71,1.71H425.71a1.709,1.709,0,0,1-1.71-1.71V169.71a1.709,1.709,0,0,1,1.71-1.71h3.419a1.709,1.709,0,0,1,1.71,1.71v18.806Z" transform="translate(-424 -168)" fill="#ff826e"/></g><g transform="translate(54.71 41.032)"><path d="M281.1,200v17.1h-8.548a8.671,8.671,0,0,1-1.71-.171A8.549,8.549,0,0,1,272.548,200Z" transform="translate(-264 -200)" fill="#ff826e"/></g><g transform="translate(95.742 44.452)"><path d="M457.71,216a5.129,5.129,0,0,1,0,10.258H456V216Z" transform="translate(-456 -216)" fill="#fcd770"/></g></g><g transform="translate(0)"><ellipse cx="1.5" cy="2" rx="1.5" ry="2" transform="translate(24 27)"/><circle cx="2" cy="2" r="2" transform="translate(37 27)"/><path d="M144,128h3.419v6.839H144Z" transform="translate(-113.226 -100.645)"/><path d="M121.025,166.313a7.242,7.242,0,0,0,12.956,0l.181-.361-3.058-1.529-.181.361a3.823,3.823,0,0,1-6.839,0l-.181-.361-3.058,1.529Z" transform="translate(-95.018 -129.284)"/><path d="M106,37.613V3.419H75.226V37.613H88.9v.965a9.888,9.888,0,0,1-6.545,2.454H64.968a10.27,10.27,0,0,0-10.223,9.446,15.392,15.392,0,0,0-3.131-.756l-.018,0a13.668,13.668,0,0,0,3.086-7.812l1.446-1.084a13.486,13.486,0,0,0,3.055-3.211H71.806V3.419H48.815A15.415,15.415,0,0,0,39.16,0H31.482a7.492,7.492,0,0,0-4.366,1.389l-.762-.381a9.544,9.544,0,0,0-12.917,4.5L4.691,24.251A13.552,13.552,0,0,0,8.84,40.824l1.446,1.084a13.666,13.666,0,0,0,3.086,7.812l-.018,0A15.435,15.435,0,0,0,0,64.975v18.8a8.563,8.563,0,0,0,6.463,8.29A25.967,25.967,0,0,0,3.419,104.29V106H61.548v-1.71a26.172,26.172,0,0,0-5.607-16.15,9.683,9.683,0,0,0,12.666-5.1l1.982-4.624a3.394,3.394,0,0,0,1.217.228h3.419a3.423,3.423,0,0,0,3.419-3.419v-.294A5.127,5.127,0,0,0,85.484,70.1V63.258A5.12,5.12,0,0,0,85.327,62,9.883,9.883,0,0,1,88.9,64v.965a3.423,3.423,0,0,0,3.419,3.419h3.419a3.423,3.423,0,0,0,3.419-3.419V58.129a6.839,6.839,0,0,0,0-13.677V37.613ZM78.645,34.194V6.839h23.935V34.194ZM64.968,44.452h6.839V58.129H64.968a6.839,6.839,0,1,1,0-13.677ZM23.935,87.194V80.355a1.71,1.71,0,0,1,3.419,0v6.839a1.71,1.71,0,1,1-3.419,0Zm-6.823-53H17.1a3.419,3.419,0,0,1,0-6.839v6.18C17.1,33.756,17.1,33.975,17.112,34.194Zm3.4-10.616A5.344,5.344,0,0,0,23.935,18.6V14.385a.708.708,0,0,1,1.209-.5l2.211,2.21,2.211-2.21a.708.708,0,0,1,1.209.5v3.691a5.859,5.859,0,0,0,8.48,5.241l.579-.29a5.1,5.1,0,0,0,2.909.908h1.71v9.6a11.832,11.832,0,0,1-7.474,11.039L35.9,45v4.007L32.484,53.57l-3.419-4.559V45l-1.075-.43a11.832,11.832,0,0,1-7.474-11.039Zm13.677,39.68a1.71,1.71,0,1,1-3.419,0V59.839a1.71,1.71,0,0,1,3.419,0Zm-7.606-11.85,3.1,4.134a5.161,5.161,0,0,0-1.876,2.182,11.313,11.313,0,0,1-6.357-5.632Zm.767,10.435v1.416a5.138,5.138,0,0,1-3.419,4.836V66.677A5.137,5.137,0,0,1,27.355,61.842Zm3.419,6.545H44.452V92.323H30.774Zm6.545-3.419a5.105,5.105,0,0,0,.294-1.71V61.842a5.154,5.154,0,0,1,3.125,3.125Zm-2.04-9.426,3.1-4.134,5.131.684a11.313,11.313,0,0,1-6.357,5.632A5.159,5.159,0,0,0,35.279,55.542ZM61.284,27.355a13.578,13.578,0,0,0-1.007-3.1L55.343,13.677h6.206V27.355Zm7.1,6.839H60.865a13.5,13.5,0,0,0,.66-3.419h3.443V10.258H53.747L53.1,8.88A15.272,15.272,0,0,0,51.95,6.839H68.387Zm-54.71,6.839v-.855l-2.786-2.089A10.133,10.133,0,0,1,7.789,25.7L16.536,6.954a6.125,6.125,0,0,1,8.289-2.888L27.692,5.5l.871-.871a4.1,4.1,0,0,1,2.918-1.209H39.16a12.011,12.011,0,0,1,10.845,6.907L57.178,25.7a10.133,10.133,0,0,1-3.1,12.391L51.29,40.177v.855a10.258,10.258,0,0,1-3.984,8.116l-7.984-1.064v-.813a15.207,15.207,0,0,0,8-9.658h.547a6.839,6.839,0,0,0,0-13.677V20.516H42.742a1.712,1.712,0,0,1-1.71-1.71V13.677H37.613v5.129a5.109,5.109,0,0,0,.2,1.409l-.087.043a2.44,2.44,0,0,1-3.531-2.182V14.385a4.128,4.128,0,0,0-6.839-3.112,4.128,4.128,0,0,0-6.839,3.112V18.6a1.917,1.917,0,0,1-3.273,1.356l-.647-.647-2.418,2.418.647.647A5.309,5.309,0,0,0,17.1,23.721v.214a6.839,6.839,0,0,0,0,13.677h.547a15.207,15.207,0,0,0,8,9.658v.813l-7.984,1.064a10.258,10.258,0,0,1-3.984-8.116Zm34.194-7.5v-6.18a3.419,3.419,0,1,1,0,6.839h-.015C47.865,33.975,47.871,33.756,47.871,33.535ZM13.806,53.112l4.116-.549a14.719,14.719,0,0,0,6.16,7.174,8.541,8.541,0,0,0-3.566,6.94v5.129h1.71a8.5,8.5,0,0,0,5.129-1.714V75.52a5.126,5.126,0,0,0-6.545,3.125H13.677v-17.1H10.258v6.839H3.419V64.975A12.006,12.006,0,0,1,13.806,53.112ZM3.419,83.774V71.806h6.839v7.125A7.847,7.847,0,0,0,5.31,83.01l3.058,1.529a4.452,4.452,0,0,1,4-2.474h8.145v5.129a5.105,5.105,0,0,0,.294,1.71H8.548A5.135,5.135,0,0,1,3.419,83.774ZM6.9,102.581a22.544,22.544,0,0,1,3.356-10.258H25.645a5.105,5.105,0,0,0,1.71-.294v3.713H47.871V64.968H44.28a8.565,8.565,0,0,0-3.394-5.23,14.719,14.719,0,0,0,6.16-7.174l4.117.549A11.888,11.888,0,0,1,55.194,54.4a10.3,10.3,0,0,0,6.354,6.557v1.59a7.493,7.493,0,0,0,1.331,4.284l-.932,1.553H54.71V61.548H51.29V87.793l1.873,2.341a22.753,22.753,0,0,1,4.9,12.446ZM65.464,81.694A6.252,6.252,0,0,1,55.3,83.653l-.587-.587V71.806h5.2a14.059,14.059,0,0,0-1.776,6.839h3.419a10.637,10.637,0,0,1,1.516-5.472l4.056-6.761-.944-.944a4.1,4.1,0,0,1-1.209-2.918v-1h3.419V74.875Zm9.761-6.469H71.806V61.548h3.419ZM82.065,70.1a1.71,1.71,0,0,1-3.419,0V63.258a1.71,1.71,0,0,1,3.419,0Zm.293-11.968H75.226V44.452h7.132A13.306,13.306,0,0,0,88.9,42.744V59.836a13.306,13.306,0,0,0-6.545-1.707Zm20.223-6.839a3.423,3.423,0,0,1-3.419,3.419V47.871A3.423,3.423,0,0,1,102.581,51.29ZM95.742,64.968H92.323V37.613h3.419Z" transform="translate(0)"/><path d="M401.1,48H384V68.516h17.1Zm-3.419,17.1H387.419V51.419h10.258Z" transform="translate(-301.935 -37.742)"/></g></g><path d="M18,35.438A17.438,17.438,0,1,1,35.438,18,17.434,17.434,0,0,1,18,35.438Zm2.032-10.1L14.723,20.25H27.563a1.683,1.683,0,0,0,1.688-1.687V17.438a1.683,1.683,0,0,0-1.687-1.687H14.723l5.309-5.091a1.689,1.689,0,0,0,.028-2.412l-.773-.766a1.681,1.681,0,0,0-2.384,0L7.573,16.8a1.681,1.681,0,0,0,0,2.384l9.33,9.33a1.681,1.681,0,0,0,2.384,0l.773-.766A1.689,1.689,0,0,0,20.032,25.341Z" transform="translate(704.438 2584.817)" fill="#eb6f2d"/><path d="M18,35.438A17.438,17.438,0,1,0,.563,18,17.434,17.434,0,0,0,18,35.438Zm-2.032-10.1,5.309-5.091H8.438A1.683,1.683,0,0,1,6.75,18.563V17.438A1.683,1.683,0,0,1,8.438,15.75H21.277l-5.309-5.091a1.689,1.689,0,0,1-.028-2.412l.773-.766a1.681,1.681,0,0,1,2.384,0l9.33,9.323a1.681,1.681,0,0,1,0,2.384l-9.33,9.33a1.681,1.681,0,0,1-2.384,0l-.773-.766A1.689,1.689,0,0,1,15.968,25.341Z" transform="translate(852.438 2584.817)" fill="#eb6f2d"/></g></svg>