<svg xmlns="http://www.w3.org/2000/svg" width="105" height="105" viewBox="0 0 105 105"><g transform="translate(6901 8418)"><circle cx="52.5" cy="52.5" r="52.5" transform="translate(-6901 -8418)" fill="#406834"/><g transform="translate(-6932.006 -8403.998)"><path d="M270.273,356.427l8.366,14.49-9.739-2.609-2.609,9.739-10.3-17.836" transform="translate(-171.987 -303.49)" fill="#f5737f"/><path d="M111.887,356.427l-8.366,14.49,9.739-2.609,2.609,9.739,10.3-17.836" transform="translate(-42.161 -303.49)" fill="#f5737f"/><path d="M95.57,10.884a5.671,5.671,0,0,1,8.1,2.17,5.671,5.671,0,0,0,5.3,3.061,5.671,5.671,0,0,1,5.928,5.928,5.671,5.671,0,0,0,3.061,5.3,5.671,5.671,0,0,1,2.17,8.1,5.671,5.671,0,0,0,0,6.121,5.671,5.671,0,0,1-2.17,8.1,5.671,5.671,0,0,0-3.061,5.3,5.671,5.671,0,0,1-5.928,5.928,5.671,5.671,0,0,0-5.3,3.061,5.671,5.671,0,0,1-8.1,2.17,5.671,5.671,0,0,0-6.121,0,5.671,5.671,0,0,1-8.1-2.17,5.671,5.671,0,0,0-5.3-3.061,5.671,5.671,0,0,1-5.928-5.928,5.671,5.671,0,0,0-3.061-5.3,5.671,5.671,0,0,1-2.17-8.1,5.671,5.671,0,0,0,0-6.121,5.671,5.671,0,0,1,2.17-8.1,5.671,5.671,0,0,0,3.061-5.3,5.671,5.671,0,0,1,5.928-5.928,5.671,5.671,0,0,0,5.3-3.061,5.671,5.671,0,0,1,8.1-2.17,5.671,5.671,0,0,0,6.121,0Z" transform="translate(-8.504 -8.504)" fill="#ffcb7c"/><circle cx="20.496" cy="20.496" r="20.496" transform="translate(63.51 9.502)" fill="#fff"/><path d="M224.479,151.647a9.661,9.661,0,0,0,5.293,1.579h7.616a3.34,3.34,0,0,0,3.34-3.34V143.5a3.34,3.34,0,0,0-3.34-3.34H233.4l1.424-4.175a2.539,2.539,0,0,0-4.585-2.119,15.151,15.151,0,0,1-4.891,5.034l-.908.577" transform="translate(-145.121 -112.925)" fill="#ffcbbe"/><path d="M184.842,173.507a1.278,1.278,0,0,0-1.278-1.278h-4.4a1.278,1.278,0,0,0-1.278,1.278v12.166a1.278,1.278,0,0,0,1.278,1.278h4.4a1.278,1.278,0,0,0,1.278-1.278Z" transform="translate(-105.484 -146.65)" fill="#f5737f"/><path d="M112.875,27.74a7.156,7.156,0,0,0-2.738-10.219,4.2,4.2,0,0,1-2.259-3.913A7.156,7.156,0,0,0,100.4,6.126a4.2,4.2,0,0,1-3.913-2.259A7.156,7.156,0,0,0,86.265,1.129a4.2,4.2,0,0,1-4.518,0A7.156,7.156,0,0,0,71.528,3.867a4.2,4.2,0,0,1-3.913,2.259,7.156,7.156,0,0,0-7.481,7.481,4.2,4.2,0,0,1-2.259,3.913A7.156,7.156,0,0,0,55.137,27.74a4.2,4.2,0,0,1,0,4.518,7.156,7.156,0,0,0,2.738,10.219,4.2,4.2,0,0,1,2.259,3.913,7.152,7.152,0,0,0,7.336,7.484l-7.4,12.811a1.485,1.485,0,0,0,1.671,2.177l8.3-2.225,2.225,8.3a1.485,1.485,0,0,0,2.721.358L84.006,59.69,93.017,75.3a1.485,1.485,0,0,0,2.721-.358l2.225-8.3,8.3,2.225a1.485,1.485,0,0,0,1.671-2.177l-7.4-12.811a7.152,7.152,0,0,0,7.336-7.484,4.2,4.2,0,0,1,2.259-3.913,7.156,7.156,0,0,0,2.738-10.219,4.2,4.2,0,0,1,0-4.518ZM74.215,70.708l-1.681-6.275a1.485,1.485,0,0,0-1.819-1.05l-6.275,1.681L70.39,54.757a4.176,4.176,0,0,1,1.138,1.372A7.155,7.155,0,0,0,80.742,59.4ZM97.3,63.383a1.485,1.485,0,0,0-1.819,1.05L93.8,70.708,87.27,59.4a7.155,7.155,0,0,0,9.214-3.274,4.164,4.164,0,0,1,1.139-1.371l5.95,10.305Zm13.077-29.522a4.186,4.186,0,0,1-1.6,5.977,7.176,7.176,0,0,0-3.862,6.689,4.186,4.186,0,0,1-4.376,4.376,7.182,7.182,0,0,0-6.69,3.862,4.186,4.186,0,0,1-5.977,1.6,7.149,7.149,0,0,0-3.733-1.126l-.056,0-.07,0-.078,0-.052,0a7.15,7.15,0,0,0-3.735,1.126,4.186,4.186,0,0,1-5.977-1.6,7.177,7.177,0,0,0-6.359-3.87q-.165,0-.331.008A4.186,4.186,0,0,1,63.1,46.527a7.176,7.176,0,0,0-3.862-6.69,4.186,4.186,0,0,1-1.6-5.977,7.175,7.175,0,0,0,0-7.724,4.186,4.186,0,0,1,1.6-5.977A7.176,7.176,0,0,0,63.1,13.47a4.186,4.186,0,0,1,4.376-4.376,7.178,7.178,0,0,0,6.69-3.862,4.186,4.186,0,0,1,5.977-1.6,7.175,7.175,0,0,0,7.724,0h0a4.186,4.186,0,0,1,5.977,1.6,7.176,7.176,0,0,0,6.69,3.862,4.186,4.186,0,0,1,4.376,4.376,7.176,7.176,0,0,0,3.862,6.69,4.186,4.186,0,0,1,1.6,5.977,7.175,7.175,0,0,0,0,7.724Z" transform="translate(0)"/><path d="M167.89,143.437a2.766,2.766,0,0,0,2.763,2.763h4.4a2.755,2.755,0,0,0,2.077-.947,11.117,11.117,0,0,0,4.493.947h7.616a4.83,4.83,0,0,0,4.825-4.825v-6.391a4.83,4.83,0,0,0-4.825-4.825h-1.912l.754-2.21a4.024,4.024,0,0,0-7.266-3.359,13.736,13.736,0,0,1-4.2,4.4,2.746,2.746,0,0,0-1.561-.485h-4.4a2.766,2.766,0,0,0-2.763,2.763v12.166Zm15.474-17.326a1.054,1.054,0,0,1,1.9.88l-1.09,3.2a1.485,1.485,0,0,0,.275,2.944h4.784a1.857,1.857,0,0,1,1.854,1.854v6.391a1.857,1.857,0,0,1-1.854,1.854H181.62a8.15,8.15,0,0,1-3.807-.942V131.753l.181-.115a16.722,16.722,0,0,0,5.37-5.528Zm-12.5,5.368h3.982v11.677h0v.073h-3.982Z" transform="translate(-96.97 -104.414)"/><path d="M129.975,53.985a21.764,21.764,0,0,0-9.721,2.261,1.485,1.485,0,1,0,1.315,2.663,18.823,18.823,0,0,1,8.406-1.954,19.011,19.011,0,1,1-19.011,19.011,18.822,18.822,0,0,1,1.954-8.406,1.485,1.485,0,1,0-2.663-1.315,21.766,21.766,0,0,0-2.261,9.721,21.982,21.982,0,1,0,21.982-21.982Z" transform="translate(-45.969 -45.968)"/><path d="M149.9,97.376a1.486,1.486,0,1,0-1.05-.435A1.5,1.5,0,0,0,149.9,97.376Z" transform="translate(-80.385 -80.385)"/></g></g></svg>