<svg xmlns="http://www.w3.org/2000/svg" width="105" height="105" viewBox="0 0 105 105"><g transform="translate(-748 -2859)"><circle cx="52.5" cy="52.5" r="52.5" transform="translate(748 2859)" fill="#406834"/><g transform="translate(761.063 2879.826)"><g transform="translate(9.746 0.943)"><g transform="translate(0 8.817)"><path d="M30.1,80.819l2.817-2.894a.894.894,0,0,1,1.508.4l.992,3.915,3.887-1.1a.894.894,0,0,1,1.1,1.1l-1.1,3.887,3.915.992a.894.894,0,0,1,.4,1.508l-2.894,2.817,2.894,2.817a.894.894,0,0,1-.4,1.508l-3.915.992,1.1,3.887a.894.894,0,0,1-1.1,1.1l-3.887-1.1-.992,3.915a.894.894,0,0,1-1.508.4L30.1,102.086l-2.817,2.894a.894.894,0,0,1-1.508-.4l-.992-3.915-3.887,1.1a.894.894,0,0,1-1.1-1.1l1.1-3.887-3.915-.992a.894.894,0,0,1-.4-1.508l2.894-2.817-2.894-2.817a.894.894,0,0,1,.4-1.508l3.915-.992-1.1-3.887a.894.894,0,0,1,1.1-1.1l3.887,1.1.992-3.915a.894.894,0,0,1,1.508-.4Z" transform="translate(-16.3 -77.653)" fill="#fb4a59"/><path d="M154.3,94.269a.894.894,0,0,1-.4,1.508l-3.914.993,1.1,3.886a.894.894,0,0,1-1.1,1.1l-3.886-1.1-.993,3.915a.894.894,0,0,1-1.508.4l-.581-.6,1.374-6.039a.447.447,0,0,1,.557-.331l2.567.725a.447.447,0,0,0,.553-.552l-.729-2.578a.447.447,0,0,1,.32-.555l2.6-.658a.447.447,0,0,0,.2-.754l-1.921-1.869a.448.448,0,0,1,0-.64l1.921-1.869a.447.447,0,0,0-.2-.754l-2.6-.658a.447.447,0,0,1-.32-.555l.729-2.578a.448.448,0,0,0-.553-.552l-2.577.728a.447.447,0,0,1-.555-.321l-1.492-5.923.706-.725a.894.894,0,0,1,1.508.4l.993,3.915,3.886-1.1a.894.894,0,0,1,1.1,1.1l-1.1,3.886,3.914.993a.894.894,0,0,1,.4,1.508l-2.894,2.817Z" transform="translate(-126.977 -77.653)" fill="#f82f40"/></g><g transform="translate(19.222)"><g transform="translate(0 32.69)"><path d="M169.246,354.326h41.027l-3-12.656a11.573,11.573,0,0,0-9.5-8.767l-1.063-.163H177.135l-1.063.163a11.564,11.564,0,0,0-6.825,3.68Z" transform="translate(-169.246 -324.555)" fill="#64b9fc"/><path d="M232.247,332.74v6.568c-1.8-1.056-4.551.039-6.05.8a.628.628,0,0,1-.9-.667,12.4,12.4,0,0,1,3.11-6.7Z" transform="translate(-218.243 -324.555)" fill="#31a7fb"/><path d="M345.081,340.106c-1.5-.759-4.25-1.854-6.05-.8V332.74h3.843a12.417,12.417,0,0,1,3.111,6.7A.629.629,0,0,1,345.081,340.106Z" transform="translate(-317.693 -324.555)" fill="#31a7fb"/><path d="M280.681,332.74h7.333v21.586h-7.333Z" transform="translate(-266.676 -324.555)" fill="#f8f3f1"/><path d="M373.164,354.326h-4.047l-3-12.656a11.576,11.576,0,0,0-9.5-8.767l-1.062-.163H359.6l1.062.163a11.576,11.576,0,0,1,9.5,8.767Z" transform="translate(-332.138 -324.555)" fill="#31a7fb"/><g transform="translate(12.247)"><path d="M277.494,274.152a4.34,4.34,0,0,1-2.226-3.8v-2.732h-6.295v2.732a4.373,4.373,0,0,1-2.281,3.835v.26a5.4,5.4,0,1,0,10.8,0v-.291Z" transform="translate(-266.693 -267.616)" fill="#fc9085"/><g transform="translate(1.381 0.001)"><path d="M285.769,273.005a15,15,0,0,1-8.087,0,4.36,4.36,0,0,0,.9-2.652V267.62h6.294v2.732A4.379,4.379,0,0,0,285.769,273.005Z" transform="translate(-277.682 -267.62)" fill="#fc7c6a"/></g></g></g><g transform="translate(0.764)"><g transform="translate(1.203 2.145)"><path d="M200.845,32.066c-.988,2.533,1.3,13.209,1.031,12.22h24.909c-.243.943,2.468-10.93.377-15.667-1.9-4.3-10.935-4.465-13.831-3.7C209.218,26,202.39,28.1,200.845,32.066Z" transform="translate(-198.624 -24.567)" fill="#6c3328"/><g transform="translate(0 19.719)"><path d="M210.786,181.472h.015C210.814,181.556,210.811,181.561,210.786,181.472Z" transform="translate(-207.533 -181.472)" fill="#873f30"/><path d="M408.869,181.472c-.017.065-.02.063-.011,0Z" transform="translate(-380.708 -181.472)" fill="#873f30"/><path d="M184.9,181.472h.015C184.93,181.556,184.927,181.561,184.9,181.472Z" transform="translate(-184.902 -181.472)" fill="#873f30"/><path d="M382.974,181.472h.011C382.968,181.537,382.966,181.535,382.974,181.472Z" transform="translate(-358.077 -181.472)" fill="#873f30"/></g></g><g transform="translate(0 11.167)"><g transform="translate(0 4.034)"><ellipse cx="4.059" cy="3.459" rx="4.059" ry="3.459" transform="matrix(0.338, -0.941, 0.941, 0.338, 24.588, 7.689)" fill="#fc9085"/><path d="M210.787,181.48h.015C210.815,181.564,210.811,181.568,210.787,181.48Z" transform="translate(-206.331 -174.816)" fill="#fc9085"/><ellipse cx="3.459" cy="4.059" rx="3.459" ry="4.059" transform="matrix(0.941, -0.338, 0.338, 0.941, 0, 2.339)" fill="#fc9085"/></g><path d="M228.124,96.359a4.461,4.461,0,0,0-4.461,4.461v6.916s0,12.944,10.836,12.944,10.836-12.944,10.836-12.944V100.82a4.461,4.461,0,0,0-4.461-4.461Z" transform="translate(-217.588 -96.359)" fill="#fda79b"/><path d="M245.156,96.972c-.664,2.617-2.7,4.9-7.727,4.9-4.791,0-7.745-1.732-11.449-2.637a4.46,4.46,0,0,1,4.17-2.873H242.9A4.429,4.429,0,0,1,245.156,96.972Z" transform="translate(-219.614 -96.36)" fill="#fc9085"/></g><path d="M211.977,7.5c8.3,0,8.127,4.026,8.127,6.9,0,3.42-1.51,7.227-8,7.227-5.678,0-8.777-2.432-13.6-3.04a1.716,1.716,0,0,1-1.316-2.451c1.545-3.214,5.525-8.637,14.789-8.637Z" transform="translate(-194.29 -7.5)" fill="#ba5d4f"/><path d="M313.376,14.4c0,3.42-1.51,7.228-8,7.228-.587,0-1.147-.026-1.683-.073,5.33-.546,6.626-4.071,6.626-7.263,0-2.519.13-5.914-5.271-6.789.065,0,.132,0,.2,0,8.3,0,8.127,4.026,8.127,6.9Z" transform="translate(-287.562 -7.5)" fill="#a34f41"/><path d="M288.5,219.651a3.074,3.074,0,0,1-3.074-3.074v-1h6.148v1a3.074,3.074,0,0,1-3.074,3.074Z" transform="translate(-271.586 -189.428)" fill="#f8f3f1"/></g></g><g transform="translate(26.264 37.343)"><path d="M232.245,312.1v-6.713a.628.628,0,0,0-.563-.625l-1.121-.117a2.428,2.428,0,0,0-1.947.675,12.215,12.215,0,0,0-3.322,6.912.628.628,0,0,0,.9.667C227.694,312.141,230.445,311.046,232.245,312.1Z" transform="translate(-225.283 -304.633)" fill="#b5dbfd"/><path d="M339.034,312.1v-6.713a.628.628,0,0,1,.563-.625l1.121-.117a2.428,2.428,0,0,1,1.947.675,12.216,12.216,0,0,1,3.322,6.912.628.628,0,0,1-.9.667C343.585,312.141,340.834,311.046,339.034,312.1Z" transform="translate(-324.738 -304.633)" fill="#b5dbfd"/></g></g><g transform="translate(8.804)"><path d="M115.233,329.063v6.484a2.762,2.762,0,0,1-.712,1.853l-1.595,1.773v9.3h-9.233V341.4l-4.181-4.181A4.013,4.013,0,0,1,98.33,334.3a4.141,4.141,0,0,1,1.236-2.841l2.351-2.351v-.636a2.286,2.286,0,0,1,2.18-2.3,2.24,2.24,0,0,1,1.61.613,2.183,2.183,0,0,1,3.353.1,2.111,2.111,0,0,1,3.078.467,1.98,1.98,0,0,1,1.231-.324A2.029,2.029,0,0,1,115.233,329.063Z" transform="translate(-87.078 -285.065)" fill="#fda79b"/><path d="M190.968,331.592v6.532a2.762,2.762,0,0,1-.712,1.853l-1.595,1.773v9.3H184.95v-8.753a1.416,1.416,0,0,1,.362-.945l1.234-1.37a2.767,2.767,0,0,0,.711-1.853v-7.176A2.052,2.052,0,0,0,185.883,329a2,2,0,0,1,.235-.014,2.116,2.116,0,0,1,1.754.935,2,2,0,0,1,3.1,1.669Z" transform="translate(-162.813 -287.642)" fill="#fc9085"/><path d="M72.488,158.321H70.533a.943.943,0,1,0,0,1.885h.989a1.192,1.192,0,0,1-2.36-.237v-2.04a1.192,1.192,0,0,1,2.247-.555.943.943,0,0,0,1.667-.88,3.077,3.077,0,0,0-5.8,1.435v2.04a3.077,3.077,0,1,0,6.154,0v-.706A.942.942,0,0,0,72.488,158.321Z" transform="translate(-59.928 -135.391)"/><path d="M124.841,154.851a3.08,3.08,0,0,0-3.077,3.077v2.04a3.077,3.077,0,0,0,6.154,0v-2.04A3.08,3.08,0,0,0,124.841,154.851Zm1.192,5.117a1.192,1.192,0,0,1-2.384,0v-2.04a1.192,1.192,0,0,1,2.384,0Z" transform="translate(-107.568 -135.39)"/><path d="M452.8,376.874l-3-12.655a12.578,12.578,0,0,0-2.545-5.1.943.943,0,0,0-1.451,1.2,10.68,10.68,0,0,1,2.162,4.331l3,12.656a.943.943,0,1,0,1.834-.435Z" transform="translate(-390.689 -313.688)"/><path d="M412.56,417.515a.943.943,0,0,0-.943.943v9.989a.943.943,0,0,0,1.885,0v-9.989A.943.943,0,0,0,412.56,417.515Z" transform="translate(-360.993 -365.043)"/><path d="M55.566,3.076a5.006,5.006,0,0,0-.722-.914C53.391.707,50.962,0,47.419,0,37.648,0,33.427,5.746,31.78,9.171a2.68,2.68,0,0,0,.062,2.436,2.713,2.713,0,0,0,.151.245c-.008.166-.025.455-.027.641l-2.429.687L28.783,10.2a1.837,1.837,0,0,0-3.1-.83l-2.141,2.2L21.4,9.373a1.837,1.837,0,0,0-3.1.83l-.755,2.976L14.6,12.344a1.837,1.837,0,0,0-2.267,2.267l.834,2.955-2.977.754a1.837,1.837,0,0,0-.829,3.1l2.2,2.141L9.36,25.7a1.836,1.836,0,0,0,.829,3.1l2.976.755L12.332,32.5A1.836,1.836,0,0,0,14.6,34.772l2.954-.834.755,2.977a1.837,1.837,0,0,0,3.1.829l2.141-2.2,2.141,2.2a1.837,1.837,0,0,0,3.1-.829l.755-2.976,2.953.834a1.836,1.836,0,0,0,2.268-2.266l-.834-2.954,1.9-.482c.135.413.29.833.466,1.254a10.837,10.837,0,0,0,6.243,6.362,3.424,3.424,0,0,1-.167.779l-.982-.1a3.36,3.36,0,0,0-2.7.937,11.5,11.5,0,0,0-2.233,3.124,2.866,2.866,0,0,0-1.291-.405,2.913,2.913,0,0,0-1.063.122,3.048,3.048,0,0,0-3.171-.494,3.125,3.125,0,0,0-3.54-.119,3.174,3.174,0,0,0-1.59-.369A3.245,3.245,0,0,0,22.7,43.4v.245l-2.075,2.075a5.052,5.052,0,0,0-1.512,3.492,4.943,4.943,0,0,0,1.458,3.6l3.905,3.905V63.4a.943.943,0,1,0,1.885,0V56.334a.942.942,0,0,0-.276-.666L21.9,51.487A3.073,3.073,0,0,1,21,49.246a3.177,3.177,0,0,1,.96-2.19l.742-.742v2.664a.943.943,0,0,0,1.885,0V43.4a1.346,1.346,0,0,1,1.265-1.363,1.3,1.3,0,0,1,.935.356.943.943,0,0,0,1.352-.059,1.24,1.24,0,0,1,1.907.058.942.942,0,0,0,1.332.153,1.162,1.162,0,0,1,.733-.26,1.175,1.175,0,0,1,.973.52.943.943,0,0,0,1.3.259,1.045,1.045,0,0,1,.651-.17,1.083,1.083,0,0,1,.983,1.1v6.484a1.821,1.821,0,0,1-.47,1.223l-1.595,1.773a.942.942,0,0,0-.242.63v2.233a.943.943,0,1,0,1.885,0V54.47l1.352-1.5a3.7,3.7,0,0,0,.955-2.485V47.13a6.517,6.517,0,0,1,4.128-.756V63.4a.943.943,0,1,0,1.885,0V46.2a6.362,6.362,0,0,0,5.448-.022V63.4a.943.943,0,1,0,1.885,0V46.372c1.084-.314,2.748.042,4.683,1.022a1.571,1.571,0,0,0,2.258-1.662,16.29,16.29,0,0,0-.715-2.8A10.6,10.6,0,0,1,60.651,44a.943.943,0,1,0,.873-1.671,12.482,12.482,0,0,0-3.889-1.276l-1.083-.166A11.215,11.215,0,0,0,54.6,38.3a3.363,3.363,0,0,0-2.7-.937l-.979.1a3.468,3.468,0,0,1-.165-.778,10.837,10.837,0,0,0,6.244-6.362,18.892,18.892,0,0,0,1.185-4.251c.129.013.258.021.387.021a4.985,4.985,0,0,0,4.507-3.453,5.355,5.355,0,0,0,.009-3.7,4.169,4.169,0,0,0-2.1-2.345c.459-4.521.242-7.83-.644-9.838-.715-1.621-2.421-2.885-4.771-3.685Zm.922,4.6a15.265,15.265,0,0,0-.115-2.253,4.51,4.51,0,0,1,2.239,2.1c.732,1.658.907,4.659.512,8.7a4.152,4.152,0,0,0-.711.09,5.375,5.375,0,0,0-2.748-4.45,10.016,10.016,0,0,0,.823-4.187ZM33.3,18.221a2.2,2.2,0,0,1,1.56.053v5.213c0,.037,0,.295.029.714A3.037,3.037,0,0,1,31.988,22a3.469,3.469,0,0,1-.021-2.392A2.275,2.275,0,0,1,33.3,18.221Zm1.567-1.91a4.144,4.144,0,0,0-.756-.092c-.155-1.287-.242-2.375-.261-3.25a18.175,18.175,0,0,1,2.07.391A5.386,5.386,0,0,0,34.872,16.31ZM32.523,27.962a.943.943,0,0,0-.675,1.17l1.074,3.8-3.8-1.074a.943.943,0,0,0-1.17.675l-.972,3.831L24.22,33.534a.942.942,0,0,0-1.351,0l-2.757,2.833-.972-3.831a.943.943,0,0,0-1.17-.675l-3.8,1.074,1.074-3.8a.943.943,0,0,0-.675-1.17l-3.83-.971,2.832-2.757a.942.942,0,0,0,0-1.351l-2.833-2.757,3.831-.97a.943.943,0,0,0,.676-1.17l-1.074-3.8,3.8,1.075a.943.943,0,0,0,1.17-.675l.972-3.832,2.756,2.833a.942.942,0,0,0,1.351,0l2.756-2.833.972,3.832a.943.943,0,0,0,1.17.675l2.924-.827q.075.991.222,2.187A4.176,4.176,0,0,0,30.2,18.944a5.355,5.355,0,0,0,.009,3.7,4.985,4.985,0,0,0,4.506,3.453c.129,0,.258-.009.387-.021.059.368.132.763.224,1.178ZM37.76,43.088A10.47,10.47,0,0,1,40,39.649a1.482,1.482,0,0,1,1.192-.413l.839.087v5.117a8.2,8.2,0,0,0-4.128.643V44a3.017,3.017,0,0,0-.142-.91Zm13.489-3.765.84-.088a1.482,1.482,0,0,1,1.192.413,11.082,11.082,0,0,1,2.937,5.789A10.245,10.245,0,0,0,52.1,44.371a5.257,5.257,0,0,0-.855.067Zm-7.334-.283a7.415,7.415,0,0,0,.457-1.862,13.278,13.278,0,0,0,4.54,0,7.5,7.5,0,0,0,.451,1.862v4.94a4.483,4.483,0,0,1-5.449.03s0-4.97,0-4.97Zm5.4-23.134a8.421,8.421,0,0,0,5.3-2.468,3.5,3.5,0,0,1,1.918,3.132v6.915a18,18,0,0,1-1.3,6.156c-1.64,3.88-4.531,5.847-8.591,5.847s-6.952-1.967-8.592-5.847a17.994,17.994,0,0,1-1.3-6.155V16.57a3.507,3.507,0,0,1,1.184-2.628c.4.13.807.266,1.216.4A30.8,30.8,0,0,0,44.616,15.8a.943.943,0,0,0,.277-1.865,28.9,28.9,0,0,1-5.143-1.373,28.527,28.527,0,0,0-5.686-1.463.739.739,0,0,1-.566-.389.78.78,0,0,1-.018-.718c1.455-3.026,5.2-8.1,13.939-8.1,2.976,0,5.026.542,6.092,1.609,1.1,1.1,1.094,2.663,1.092,4.176,0,3.648-1.819,5.9-5.407,6.357a.943.943,0,0,0,.118,1.878ZM61.3,22a3.038,3.038,0,0,1-2.906,2.2c.027-.419.029-.678.029-.714V18.274a2.2,2.2,0,0,1,1.56-.053,2.275,2.275,0,0,1,1.338,1.391A3.471,3.471,0,0,1,61.3,22Z" transform="translate(-8.804 0)"/><path d="M285.014,208.079h-6.148a.943.943,0,0,0-.943.943v1a4.017,4.017,0,0,0,8.033,0v-1A.943.943,0,0,0,285.014,208.079Zm-.943,1.941a2.131,2.131,0,0,1-4.263,0v-.056h4.263Z" transform="translate(-244.101 -181.928)"/><path d="M337.112,154.713a3.711,3.711,0,0,0-4.227,0,.943.943,0,1,0,1.108,1.525,1.831,1.831,0,0,1,2.011,0,.943.943,0,1,0,1.108-1.525Z" transform="translate(-291.816 -134.691)"/><path d="M252.271,156.029a.943.943,0,0,0-.209-1.317,3.711,3.711,0,0,0-4.227,0,.943.943,0,1,0,1.108,1.525,1.831,1.831,0,0,1,2.011,0,.942.942,0,0,0,1.317-.209Z" transform="translate(-217.455 -134.691)"/><path d="M300.4,184.988h.736a.943.943,0,0,0,0-1.885H300.4a.943.943,0,1,0,0,1.885Z" transform="translate(-262.926 -160.091)"/><path d="M207.918,477.094a.943.943,0,0,0-.943.943v2.5a.943.943,0,0,0,1.885,0v-2.5A.943.943,0,0,0,207.918,477.094Z" transform="translate(-182.07 -417.135)"/></g></g></g></svg>