<svg xmlns="http://www.w3.org/2000/svg" xmlns:xlink="http://www.w3.org/1999/xlink" width="131" height="103" viewBox="0 0 131 103"><defs><filter id="a" x="0" y="0" width="103" height="103" filterUnits="userSpaceOnUse"><feOffset dy="3" input="SourceAlpha"/><feGaussianBlur stdDeviation="3" result="b"/><feFlood flood-opacity="0.161"/><feComposite operator="in" in2="b"/><feComposite in="SourceGraphic"/></filter><filter id="c" x="105" y="0" width="26" height="103" filterUnits="userSpaceOnUse"><feOffset dy="3" input="SourceAlpha"/><feGaussianBlur stdDeviation="3" result="d"/><feFlood flood-opacity="0.161"/><feComposite operator="in" in2="d"/><feComposite in="SourceGraphic"/></filter></defs><g transform="translate(-276 -3819)"><g transform="matrix(1, 0, 0, 1, 276, 3819)" filter="url(#a)"><circle cx="42.5" cy="42.5" r="42.5" transform="translate(9 6)" fill="#eb6f2d"/></g><g transform="matrix(1, 0, 0, 1, 276, 3819)" filter="url(#c)"><rect width="8" height="85" transform="translate(114 6)" fill="#ffb338"/></g><g transform="translate(293.819 3833.476)"><g transform="translate(0.632 0.59)"><path d="M35.879,56.5a.56.56,0,0,1-.28-1.043L53.452,45.151a.56.56,0,0,1,.621.927L52.4,47.37l1.606-.924a.56.56,0,0,1,.657.9L51.89,49.865l1.705-.983a.56.56,0,0,1,.56.968l-6.2,3.583a.56.56,0,0,1-.656-.9l2.778-2.53-4.333,2.5a.56.56,0,0,1-.623-.927l1.67-1.291L36.155,56.426a.553.553,0,0,1-.277.075Z" transform="translate(3.571 4.74)" fill="#23848e"/><path d="M46.6,51.431a.56.56,0,0,1-.319-1.019l2.8-1.943a.56.56,0,0,1-.071-.925l3.062-2.425-.28.162a.56.56,0,0,1-.6-.943l1.405-.985a.56.56,0,0,1-.438-.989l5.239-4.228-3.471,2a.56.56,0,0,1-.626-.925l3.429-2.687L54.453,37.84a.56.56,0,0,1-.645-.908l4.322-3.724-3.359,1.939a.56.56,0,0,1-.617-.932l.48-.363a.56.56,0,0,1-.474-.97l1.588-1.405-1,.574a.56.56,0,0,1-.658-.9l.648-.593-.132.077a.56.56,0,0,1-.672-.889l.858-.821-.429.247a.56.56,0,0,1-.7-.854l1.66-1.889-1.417.817a.56.56,0,0,1-.687-.868l1.189-1.262-1,.575a.56.56,0,0,1-.658-.9l.128-.118a.56.56,0,0,1-.547-.944l.224-.214-.053.029a.56.56,0,0,1-.708-.845l1.344-1.583-1.464.845a.56.56,0,0,1-.7-.85l1.2-1.393-1.4.807a.56.56,0,0,1-.643-.91l.091-.078-.112.062a.56.56,0,0,1-.643-.911l1.567-1.336-1.864,1.076a.56.56,0,0,1-.644-.909l2.093-1.791-2.548,1.484a.56.56,0,0,1-.656-.9l2.639-2.392-3.4,1.962A.56.56,0,0,1,46,15l2.876-2.68-3.888,2.245a.56.56,0,0,1-.672-.885l2.987-2.93-4.343,2.507a.56.56,0,0,1-.68-.877l.661-.672-1.386.8a.56.56,0,0,1-.672-.888l.414-.4-1.15.664a.56.56,0,0,1-.659-.9l.224-.208-1,.575a.56.56,0,0,1-.655-.9l.15-.135-1.014.586a.56.56,0,0,1-.672-.879l.954-.963-2.411,1.382a.56.56,0,0,1-.722-.827l1.594-2.049-4.449,2.568a.56.56,0,0,1-.672-.881l2.015-2-5.572,3.21a.56.56,0,0,1-.61-.937l.325-.236-4.11,2.372a.56.56,0,0,1-.56-.968l13.241-7.64a.56.56,0,0,1,.61.937l-.329.238.165-.094a.56.56,0,0,1,.672.881L34.647,7.032l3.21-1.859A.56.56,0,0,1,38.579,6L36.985,8.051,40.521,6.01a.56.56,0,0,1,.677.878l-.952.962,1.981-1.143a.56.56,0,0,1,.655.9l-.151.138.759-.438a.56.56,0,0,1,.659.9l-.224.2.777-.448a.56.56,0,0,1,.672.888l-.417.4.977-.56a.56.56,0,0,1,.678.877l-.661.672L50.56,7.573a.56.56,0,0,1,.672.885l-2.984,2.926,4.327-2.5a.56.56,0,0,1,.662.9L50.361,12.46l3.678-2.127a.56.56,0,0,1,.656.9l-2.64,2.4,3.269-1.887a.56.56,0,0,1,.644.909l-2.091,1.791,1.95-1.126a.56.56,0,0,1,.643.91l-1.575,1.344.073-.041a.56.56,0,0,1,.643.91l-.722.616a.56.56,0,0,1,.3.911l-1.2,1.384,1.387-.8a.56.56,0,0,1,.706.846l-1.344,1.581,1.476-.852a.56.56,0,0,1,.663.9l-.224.214.068-.038a.56.56,0,0,1,.658.9l-.112.105a.56.56,0,0,1,.589.915l-1.19,1.262,1.055-.609a.56.56,0,0,1,.7.854l-1.666,1.9,1.515-.873a.56.56,0,0,1,.666.889l-.857.82.54-.311a.56.56,0,0,1,.658.9l-.649.595,1.359-.784a.56.56,0,0,1,.652.9l-1.59,1.408,2.749-1.587a.56.56,0,0,1,.617.932l-.271.2.579-.336a.56.56,0,0,1,.645.909L59.044,33.9l4.008-2.314a.56.56,0,0,1,.626.925L60.246,35.2l2.816-1.634a.56.56,0,0,1,.63.919l-5.24,4.231,4.238-2.445a.56.56,0,0,1,.6.943l-4.512,3.164a.566.566,0,0,1,.1.112.56.56,0,0,1-.112.754L55.7,43.669l1.665-.96a.56.56,0,0,1,.6.944l-.986.685a.56.56,0,0,1,.245,1.043L46.88,51.356a.56.56,0,0,1-.283.075Z" transform="translate(1.983 -0.295)" fill="#23848e"/><path d="M25.266,5.671a.56.56,0,0,1-.448-.9l1.5-2.034a.56.56,0,0,1-.15-1.029L27.866.734a.56.56,0,0,1,.731.817L27.316,3.28,31.838.67a.56.56,0,1,1,.56.968L25.546,5.6a.56.56,0,0,1-.28.075Z" transform="translate(2.302 -0.583)" fill="#23848e"/><path d="M33.311,66.468A.56.56,0,0,1,33,65.443l11.325-7.692L30.152,65.933a.56.56,0,0,1-.583-.955l10.089-6.52L29.251,64.466a.56.56,0,0,1-.628-.923l3.352-2.659-3.39,1.958a.56.56,0,0,1-.647-.906l1.722-1.5-2.282,1.318a.56.56,0,0,1-.731-.818L28.3,58.7l-3.834,2.214a.56.56,0,0,1-.659-.9l.535-.495-1.41.814a.56.56,0,0,1-.721-.83L23.6,57.736l-2.8,1.612a.56.56,0,0,1-.672-.885l.56-.551-1.224.706a.56.56,0,0,1-.662-.9l.2-.193-.691.4a.56.56,0,0,1-.711-.841l1.18-1.423-5.633,3.258a.56.56,0,0,1-.672-.883L15.674,54.9l-4.283,2.472a.56.56,0,0,1-.672-.886l3.1-3.023-3.99,2.306a.56.56,0,0,1-.639-.915l1.773-1.479L8.84,54.606A.56.56,0,0,1,8.2,53.7l2.084-1.785-1.405.811a.56.56,0,0,1-.64-.912l1.243-1.048A.552.552,0,0,1,9,50.548a.56.56,0,0,1,.041-.734l1.27-1.308-.766.441a.56.56,0,0,1-.7-.854l1.173-1.333-1.31.756a.56.56,0,0,1-.691-.867L9.06,45.534l-1.043.6a.56.56,0,0,1-.711-.842l1.556-1.881-1.61.93a.56.56,0,0,1-.7-.857l1.475-1.66-1.379.8a.56.56,0,0,1-.655-.9l.2-.181a.56.56,0,0,1-.592-.9l2.05-2.463L5.526,39.42a.56.56,0,0,1-.681-.874l1.9-1.959-3.4,1.955a.56.56,0,0,1-.655-.9L5.7,34.927,1.65,37.261a.56.56,0,0,1-.642-.912l4.213-3.567-3.807,2.2a.56.56,0,0,1-.639-.911L5.64,30.027l-4.2,2.428a.56.56,0,0,1-.626-.926l5.074-3.977a.56.56,0,0,1-.462-.981L8.755,23.8,6.786,24.941a.56.56,0,0,1-.619-.929l5.165-3.933-3.4,1.96a.56.56,0,0,1-.574-.961l1.293-.8a.568.568,0,0,1-.54-.262.56.56,0,0,1,.165-.76L21.552,10.41,9.721,17.24a.56.56,0,0,1-.6-.94l4.217-3.007L9.079,15.746a.56.56,0,0,1-.64-.914l2.439-2.055-2.253,1.3a.56.56,0,0,1-.666-.889l3.359-3.21a.534.534,0,0,1-.1-.128.56.56,0,0,1,.2-.765L13.58,7.841a.56.56,0,0,1,.672.889l-2.141,2.041,3.695-2.127a.56.56,0,0,1,.64.912L14,11.611l8.878-5.128a.56.56,0,0,1,.6.94l-4.221,3.011L36.04.749a.56.56,0,0,1,.59.951L23.363,10.544,37.684,2.276a.56.56,0,0,1,.574.961L19.2,15.052a.56.56,0,0,1-.2.591l-5.158,3.929.054-.031a.56.56,0,0,1,.637.916L11.2,23.224l.8-.462a.56.56,0,0,1,.626.926l-4.9,3.84,3.081-1.779a.56.56,0,0,1,.637.916L6.582,30.7l3.48-2.009a.56.56,0,0,1,.642.912L6.488,33.172,9.735,31.3a.56.56,0,0,1,.655.9L7.371,34.924l2.305-1.331a.56.56,0,0,1,.681.874l-1.9,1.958,1.353-.784a.56.56,0,0,1,.711.842L8.466,38.947l1.72-.992a.56.56,0,0,1,.655.9l-.224.2a.575.575,0,0,1,.567.19.56.56,0,0,1-.016.726L9.693,41.639,11,40.882a.56.56,0,0,1,.71.842l-1.557,1.883,1.581-.914a.56.56,0,0,1,.69.867l-1.038,1.114,1.028-.593a.56.56,0,0,1,.7.854l-1.173,1.337,1.3-.749a.56.56,0,0,1,.681.874L12.654,47.7l1.482-.855a.56.56,0,0,1,.642.914l-.977.823,1.159-.672a.56.56,0,0,1,.644.91l-2.087,1.791,2.531-1.456a.56.56,0,0,1,.638.914l-1.775,1.47,2.239-1.292a.56.56,0,0,1,.672.886l-3.1,3.023,4.192-2.42a.56.56,0,0,1,.672.883L16.393,55.76l4.548-2.626a.56.56,0,0,1,.71.842L20.472,55.4,22.7,54.114a.56.56,0,0,1,.662.9l-.2.191.836-.483a.56.56,0,0,1,.672.885l-.56.552,1.456-.839a.56.56,0,0,1,.72.83l-1.4,1.77,3.247-1.876a.56.56,0,0,1,.659.9l-.534.494,1.815-1.047a.56.56,0,0,1,.73.817l-1.648,2.235L34.1,56.578a.56.56,0,0,1,.647.907l-1.721,1.5L38,56.111a.56.56,0,0,1,.627.924L35.266,59.7,58.439,46.322a.56.56,0,0,1,.583.955L48.935,53.8l8.1-4.676a.56.56,0,0,1,.595.948L39.005,62.716a.56.56,0,0,1-.1.57l-.915,1.064a.545.545,0,0,1,.193.2.56.56,0,0,1-.2.764l-1.7.983a.56.56,0,0,1-.7-.85l.336-.393-2.324,1.344a.56.56,0,0,1-.275.073Z" transform="translate(-0.584 -0.572)" fill="#23848e"/></g><path d="M32.118,52.541a.56.56,0,0,1-.336-1.008l3.8-2.819L29.3,52.34a.56.56,0,0,1-.6-.946l1.517-1.041-2.905,1.679a.56.56,0,0,1-.609-.937L31.1,47.9l-6.145,3.547a.56.56,0,0,1-.611-.936l3.812-2.793-5.226,3.016a.56.56,0,0,1-.6-.94l1.943-1.385L21.415,50.05a.56.56,0,0,1-.615-.933l2.368-1.767L19.9,49.235a.56.56,0,0,1-.627-.924l2.351-1.851-3.2,1.843a.56.56,0,0,1-.621-.928l.705-.541-1.189.685a.56.56,0,0,1-.672-.883l1.7-1.679a.56.56,0,0,1-.408-1.029l3.576-2.065a.56.56,0,0,1,.672.883l-1.637,1.612L25.335,41.6a.56.56,0,0,1,.62.928l-.7.536,2.54-1.461a.56.56,0,0,1,.626.924l-2.351,1.85,4.81-2.773a.56.56,0,0,1,.615.933l-2.374,1.77,4.682-2.7a.56.56,0,0,1,.6.94l-1.943,1.386L36.5,41.608a.56.56,0,0,1,.611.936L33.3,45.335l6.412-3.7a.56.56,0,0,1,.609.937l-4.391,3.2,6.2-3.583a.56.56,0,0,1,.6.946l-1.522,1.043,2.239-1.3a.56.56,0,0,1,.614.934L40.267,46.63,44.8,44.013a.56.56,0,0,1,.633.919l-3.1,2.5L45.859,45.4a.56.56,0,1,1,.56.97L36.69,51.986a.56.56,0,0,1-.631-.919l3.1-2.5-6.755,3.9a.55.55,0,0,1-.282.073Z" transform="translate(1.951 4.906)" fill="#ea4c58"/><path d="M30.795,46.119a.56.56,0,0,1-.424-.925l.793-.92L28.934,45.56a.56.56,0,0,1-.648-.9l.784-.689-1.12.647a.56.56,0,0,1-.733-.813l1.172-1.626-1.019.588a.56.56,0,0,1-.816-.645l.27-.9a.56.56,0,0,1-.016-.977l.56-.327a.56.56,0,0,1,.818.645l-.16.532,2.062-1.189a.56.56,0,0,1,.733.812l-1.168,1.619,3.807-2.2a.56.56,0,0,1,.648.906l-.784.687.137-.078a.56.56,0,0,1,.7.85l-1.008,1.174a.56.56,0,0,1,.215,1.04l-2.3,1.325a.547.547,0,0,1-.28.075Z" transform="translate(3.152 4.702)" fill="#603b35"/><path d="M31.3,43.377a.56.56,0,0,1-.336-1.008l.841-.636-2.249,1.3a.56.56,0,0,1-.612-.934l2.647-1.96-3.8,2.192a.56.56,0,0,1-.6-.94l5.176-3.676L26.235,41.25a.56.56,0,0,1-.6-.94l6.656-4.719L24.9,39.855a.56.56,0,0,1-.61-.936l8.181-5.986-8.723,5.038a.56.56,0,0,1-.6-.942l6.195-4.38L23.154,36.22a.56.56,0,0,1-.627-.924l6.138-4.831-6.692,3.863a.56.56,0,0,1-.608-.938l1.911-1.383L20.828,33.42a.56.56,0,0,1-.648-.906l3.508-3.059L20.37,31.366a.56.56,0,0,1-.637-.915l.719-.6-.082.046a.56.56,0,0,1-.709-.844L21.6,26.746a.56.56,0,0,1,.237-.7l.764-.44a.56.56,0,0,1,.708.844l-.75.9,3.023-1.741a.56.56,0,0,1,.637.915l-.721.6L28.117,25.6a.56.56,0,0,1,.647.906l-3.506,3.058L32.132,25.6a.56.56,0,0,1,.608.938l-1.911,1.383,4.031-2.324a.56.56,0,0,1,.626.924l-6.137,4.831,9.976-5.76a.56.56,0,0,1,.6.942l-6.2,4.383,7.143-4.125a.56.56,0,0,1,.61.936L33.3,33.713l8.835-5.1a.56.56,0,0,1,.6.942L36.086,34.27l6.046-3.492a.56.56,0,0,1,.6.94L37.551,35.4l1.96-1.131a.56.56,0,0,1,.614.934L37.481,37.16l1.581-.911a.56.56,0,0,1,.617.93L38.335,38.2a.56.56,0,0,1,.274,1.043L31.578,43.3a.552.552,0,0,1-.28.076Z" transform="translate(2.315 2.989)" fill="#8c564d"/><path d="M21.971,25.572a.56.56,0,0,1-.317-1.021L23,23.628l-1.628.937a.56.56,0,0,1-.6-.944l.677-.471-.074.041a.56.56,0,0,1-.644-.909l3.143-2.7-2.015,1.16a.56.56,0,0,1-.645-.908l1.4-1.2a.56.56,0,0,1,.037-.946l3.286-1.9a.56.56,0,0,1,.646.908l-.094.081,2.048-1.17a.56.56,0,0,1,.644.909l-3.143,2.695,6.245-3.6a.56.56,0,0,1,.6.943l-.672.467,2.409-1.391a.56.56,0,0,1,.6.946l-1.344.928,2.6-1.5a.56.56,0,0,1,.6.946l-.764.525,1.462-.843a.56.56,0,0,1,.625.925L34.6,20.513l4.6-2.666a.56.56,0,0,1,.634.918l-2.817,2.309,3.147-1.817a.56.56,0,0,1,.656.9l-1.913,1.739,1.827-1.055a.56.56,0,0,1,.71.844l-1.029,1.232.486-.28a.56.56,0,0,1,.817.638l-.253.887a.56.56,0,0,1,.019.981l-.56.321a.56.56,0,0,1-.817-.638l.15-.527-2.027,1.17a.56.56,0,0,1-.71-.844l1.029-1.232-3.6,2.077a.56.56,0,0,1-.656-.9l1.912-1.738L31.63,25.474A.56.56,0,0,1,31,24.557l2.824-2.3-5.6,3.232a.56.56,0,0,1-.624-.925L31.387,21.6l-6.748,3.892a.56.56,0,0,1-.6-.946l.762-.525L22.249,25.5a.553.553,0,0,1-.278.076Z" transform="translate(2.434 1.796)" fill="#ffd15f"/><path d="M29.926,25.8a.56.56,0,0,1-.43-.917l1.837-2.217-3.962,2.287a.56.56,0,0,1-.652-.9l2.549-2.267-1.9,1.095a.56.56,0,0,1-.661-.9l3-2.774L27.371,20.55a.56.56,0,0,1-.672-.889l2.4-2.3-1.739,1.008a.56.56,0,0,1-.765-.761l1.142-2-.058.032a.56.56,0,0,1-.56-.968l1.855-1.07a.56.56,0,0,1,.765.761l-1.142,2,3.988-2.3a.56.56,0,0,1,.672.889l-2.406,2.3,2.6-1.5a.56.56,0,0,1,.661.9l-3,2.777,2.351-1.356a.56.56,0,0,1,.652.9L31.577,21.23l1.9-1.1a.56.56,0,0,1,.711.842l-1.837,2.217,1.135-.656a.56.56,0,0,1,.818.639l-.336,1.157a.56.56,0,0,1,.079,1.008l-.636.367a.56.56,0,0,1-.818-.638l.249-.87L30.2,25.723a.548.548,0,0,1-.278.074Z" transform="translate(3.151 1.556)" fill="#e5b64f"/><path d="M35.09,51.077a.56.56,0,0,1-.405-.946L36.428,48.3l-1.058.61a.56.56,0,0,1-.692-.862l1.954-2.127-1.262.726a.56.56,0,0,1-.693-.862L35.84,44.5l-.474.273a.56.56,0,0,1-.822-.623l.312-1.232a.552.552,0,0,1-.255-.231.56.56,0,0,1,.2-.765l.56-.322a.56.56,0,0,1,.823.623l-.233.916L38.4,41.732a.56.56,0,0,1,.693.861l-1.167,1.282,1.3-.748a.56.56,0,0,1,.692.863l-1.947,2.131,1.266-.731a.56.56,0,0,1,.686.87l-1.747,1.832,1.065-.615A.56.56,0,0,1,40,48.25l-.428.709A.56.56,0,0,1,39.8,50l-1.45.837a.56.56,0,0,1-.758-.775l.321-.531L35.37,51a.549.549,0,0,1-.28.076Z" transform="translate(4.109 4.905)" fill="#ffd15f"/><path d="M25.2,51.869a.56.56,0,0,1-.551-.657l.128-.729-1.135.656a.56.56,0,0,1-.746-.794l.844-1.272-2.28,1.314a.56.56,0,0,1-.672-.882l1.232-1.22-.654.376a.56.56,0,0,1-.663-.9l.9-.851-.242.139a.56.56,0,0,1-.7-.86l1.693-1.876-1,.575a.56.56,0,0,1-.8-.7l.382-.921a.56.56,0,0,1-.144-1.028l.923-.522a.56.56,0,0,1,.8.7l-.283.685,2.64-1.525a.56.56,0,0,1,.7.86l-1.694,1.878,1.353-.784a.56.56,0,0,1,.663.9l-.9.849.245-.142a.56.56,0,0,1,.672.882l-1.238,1.223.573-.336A.56.56,0,0,1,26,47.7l-.844,1.272.112-.062a.56.56,0,0,1,.831.582l-.2,1.167a.56.56,0,0,1-.058.932l-.345.2a.56.56,0,0,1-.288.079Z" transform="translate(2.433 4.903)" fill="#ffd15f"/><path d="M20.944,28.061a.56.56,0,0,1-.356-.992l.122-.1-1.086.627a.56.56,0,0,1-.655-.9l.531-.48-.13.075a.56.56,0,0,1-.784-.736l.582-1.159a.567.567,0,0,1-.5-.28.56.56,0,0,1,.2-.764l1.3-.75a.56.56,0,0,1,.784.734l-.523,1.046,3.085-1.78a.56.56,0,0,1,.655.9l-.532.481,2.39-1.375a.56.56,0,0,1,.635.916l-.122.1L28.3,22.609a.56.56,0,0,1,.672.888L27.7,24.728l3.659-2.119a.56.56,0,0,1,.705.848l-1.65,1.926,4.807-2.773a.56.56,0,0,1,.727.822l-1.666,2.2,5.24-3.023a.56.56,0,0,1,.722.829l-1.673,2.146L43.1,22.971a.56.56,0,0,1,.732.813l-1.4,1.915.94-.542a.56.56,0,0,1,.56.968l-3.221,1.857a.56.56,0,0,1-.733-.813l1.394-1.918-4.732,2.731a.558.558,0,0,1-.722-.824L37.6,25.012l-5.161,2.97a.56.56,0,0,1-.726-.822l1.675-2.2-5.241,3.023a.56.56,0,0,1-.705-.848l1.65-1.926L24.28,27.983a.56.56,0,0,1-.672-.888l1.274-1.225-3.658,2.113A.56.56,0,0,1,20.944,28.061Z" transform="translate(2.195 2.632)" fill="#d3a548"/><path d="M21.871,54.216C52.139,68.089,72.34,22.134,40.911,9.882,12.531.124-5.359,40.78,21.871,54.216ZM24.74,46.4h1.438v8.078a23.075,23.075,0,0,1-2.856-1.071V46.525A8.429,8.429,0,0,1,24.74,46.4ZM21.7,52.583a23.013,23.013,0,0,1-3.226-2.178A6.976,6.976,0,0,1,21.7,47.047Zm6.1,2.327V46.4h.645c.235,4.556,7.406,4.19,8.227.159h.7v8.466A22.492,22.492,0,0,1,27.8,54.91ZM22.2,32.778c0-.472-.269-3.038.607-3.038,6.309-.047,12.639-.049,18.947,0,1.941-.151,1.679,6.115-.259,5.862-.3,0-1.12.148-1.12.6-.336,10.825-15.153,10.366-15.594-.171a.459.459,0,0,0-.514-.428c-1.6.006-2.063-1.518-2.063-2.825Zm-.638-7.542c7.054,0,14.318.022,21.385-.01,1.645-.291,1.267,2.649.938,3.512-7.381-.008-14.826.008-22.189,0-.881-.017-.979-3.824-.13-3.5Zm1.818-2.543a5.887,5.887,0,0,1,5.032-5.163q0,3.366,0,6.729c-1.7,0-3.389,0-5.089-.016a11.366,11.366,0,0,1,.062-1.551Zm7.563-7.656c5.982-1.3,3.838,5.6,4.186,9.222H30.039c.476-2.913-1.1-6.923.91-9.222Zm5.808,4.926V17.573a6.358,6.358,0,0,1,5.091,6.658c-1.7.068-3.388.011-5.091.029ZM32.286,45.416a9.741,9.741,0,0,0,2.849-.506c.821,5.4-5.4,5.269-5.1.185a8.312,8.312,0,0,0,2.247.321ZM39,54.621V46.56a10.1,10.1,0,0,1,2.851.253v6.773A19.308,19.308,0,0,1,39,54.621Zm7.637-3.974a22.048,22.048,0,0,1-3.161,2.127V47.434a7.27,7.27,0,0,1,3.157,3.213ZM13.058,20.8C31.952-8.263,72.11,25.485,47.9,49.554c-2.231-4.024-7-4.328-11.141-4.07q.012-.637,0-1.27a9.558,9.558,0,0,0,5.232-7.738c2.84-.626,3.135-4.611,2.162-6.864,2.4-.571,2.321-5.884-.672-5.425a7.278,7.278,0,0,0-6.782-7.8c-.6-3.2-7.132-2.776-8.114-.01a7.626,7.626,0,0,0-6.894,7.891c-2.83-.274-3.4,5.289-.567,5.451-1.2,2.078-.976,6.5,2.068,6.848a9.83,9.83,0,0,0,5.229,7.892v1.185c-4.06-.266-8.516.216-10.933,3.937A23.273,23.273,0,0,1,13.058,20.8Z" transform="translate(0.98 0.94)" fill="#262626"/><path d="M3.933,39.078c.441.175.874.172.916.749A31.31,31.31,0,0,0,8.96,49.6c-1.706,3.3-2.015,5.038,1.257,7.524,2,2.6,4.568,2.141,7.135.692a26.488,26.488,0,0,0,9.814,3.966c.947,1.163.73,3.432,2.253,4.212,4.031,1.057,9.853.982,10.447-4.3a31.573,31.573,0,0,0,9.369-3.838c4.018,3.107,8.221-.547,10.267-4.091.57-1.622-1.188-3.081-1.35-4.579a28.179,28.179,0,0,0,4.19-10c4.713-.677,4.966-4.713,4.382-8.652C66.345,28.6,64.185,28.6,62.778,27.8c-1.405-1.939-1.5-5.6-3.157-7.868-3.023-3.6.533-3.807-.177-7.181C57.178,9.4,53.82,6.21,49.775,9.233a26.469,26.469,0,0,0-9.8-3.959c-.952-1.163-.734-3.434-2.256-4.218C33.679.005,27.857.081,27.268,5.366A31.574,31.574,0,0,0,17.9,9.2C13.881,6.1,9.678,9.752,7.632,13.3c-.57,1.622,1.188,3.081,1.35,4.579A28.215,28.215,0,0,0,4.8,27.869C.874,28.51-.239,31.435.314,35.005c-.406,2.432,1.551,3.574,3.619,4.073ZM1.939,32.007c-.384-2.679,2.07-3.114,4.006-3.891C7.5,25.14,7.9,21.21,10.089,18.358c1.393-3.443-3.756-4.092,1.632-8.173,1.166-1.591,2.734-1.58,4.27-.544,3.583,1.06,6.815-3.3,10.612-3.5C30.24,6.462,28.681.7,32.48,1.429c3.326-.579,4.95.662,5.7,3.858,2.351,1.7,6.289,1.8,8.845,3.754,4.644,3.3,4.726-4.1,10.283,3.492,1.8,1.775-.886,3.75-.653,5.567a30.628,30.628,0,0,1,4.164,10.116c4.255,1.217,4.749,2.463,4.38,6.83.448,2.825-2.239,2.965-4.1,3.93-1.353,3.007-1.876,6.691-3.927,9.511-1.807,3.2,3.695,4.274-1.574,8.2-2.225,3.612-4.7-1.078-7.216.805-2.978,2.222-6.758,2.817-10.016,4.171-1.008,1.679-.944,4.5-3.712,3.956-6.909.784-3.471-2.881-6.749-4.579-3.663-.521-6.766-2.864-10.041-4.1-1.815.224-3.6,2.43-5.2.464C4.741,50.829,13.75,52.56,8.6,45.607a33.767,33.767,0,0,1-2.278-6.77c-3.9-1.12-5.038-2.606-4.382-6.83Z" transform="translate(0 0)" fill="#262626"/></g></g></svg>