<svg xmlns="http://www.w3.org/2000/svg" xmlns:xlink="http://www.w3.org/1999/xlink" width="161" height="161" viewBox="0 0 161 161"><defs><filter id="a" x="0" y="0" width="161" height="161" filterUnits="userSpaceOnUse"><feOffset dy="3" input="SourceAlpha"/><feGaussianBlur stdDeviation="3" result="b"/><feFlood flood-opacity="0.161"/><feComposite operator="in" in2="b"/><feComposite in="SourceGraphic"/></filter></defs><g transform="translate(-982 -3138)"><g transform="matrix(1, 0, 0, 1, 982, 3138)" filter="url(#a)"><circle cx="71.5" cy="71.5" r="71.5" transform="translate(9 6)" fill="#eb6f2d"/></g><g transform="translate(1031 3184)"><path d="M47,1.744l-14,20h4v20.67H57V21.744h4Z" fill="#ccd1d9"/><path d="M51,31.744v4H43v-4h8Z" fill="#ffeaa7"/><path d="M46.79,31.324l.21.42H43l-2-4a3.613,3.613,0,0,1,3.24-2h.88A16.9,16.9,0,0,0,46.79,31.324Z" fill="#b4dd7f"/><path d="M53,25.744a9.954,9.954,0,0,1-1.66,5.5l-.34.5H47l-.21-.42a16.9,16.9,0,0,1-1.67-5.58,16.647,16.647,0,0,1-.12-2,16.832,16.832,0,0,1,6.25,1,5.544,5.544,0,0,1,1.75,1Z" fill="#a0d468"/><path d="M37,42.414l6-6.67h8l6,6.67.03.03a11.567,11.567,0,0,1-8.59,19.3H45.56A11.566,11.566,0,0,1,34,50.184a11.392,11.392,0,0,1,.77-4.14,11.517,11.517,0,0,1,2.2-3.6Z" fill="#b4dd7f"/><path d="M7,47.744H23v4H7Z" fill="#fcd770"/><path d="M7,43.744H23v4H7Z" fill="#ffc729"/><path d="M29,47.744v6H23V35.264A15.943,15.943,0,0,1,29,47.744Z" fill="#fcd770"/><path d="M10.65,33.394,15,39.744l4.35-6.35c.15-.05.29-.09.43-.15A15.834,15.834,0,0,1,23,35.264v8.48H7v-8.48a15.305,15.305,0,0,1,3.22-2.02c.14.06.28.1.43.15Z" fill="#fcd770"/><path d="M7,53.744H1v-6a15.943,15.943,0,0,1,6-12.48v18.48Z" fill="#fcd770"/><path d="M23,53.744v8H7v-10H23Z" fill="#969faa"/><path d="M7.75,11.374A4.984,4.984,0,0,0,5,15.834v1.91H4a2.99,2.99,0,0,0-2.21.97l-.56-2.82A12.086,12.086,0,0,1,1,13.574,11.835,11.835,0,0,1,12.83,1.744h4.34A11.847,11.847,0,0,1,29,13.574a12.086,12.086,0,0,1-.23,2.32l-.56,2.82a2.99,2.99,0,0,0-2.21-.97H25a4,4,0,0,0-4-4H12A5,5,0,0,1,7.75,11.374Z" fill="#b27946"/><path d="M7,53.744v4H6a3,3,0,0,1-3-3v-1Z" fill="#f0d0b4"/><path d="M27,53.744v1a3,3,0,0,1-3,3H23v-4Z" fill="#f0d0b4"/><path d="M19.35,33.394,15,39.744l-4.35-6.35a7.907,7.907,0,0,0,2.35.35h4A7.907,7.907,0,0,0,19.35,33.394Z" fill="#f0d0b4"/><path d="M26,17.744a3,3,0,0,1,0,6H25v-6Z" fill="#f0d0b4"/><path d="M25,23.744v2a8,8,0,0,1-5.22,7.5c-.14.06-.28.1-.43.15a7.907,7.907,0,0,1-2.35.35H13a7.907,7.907,0,0,1-2.35-.35c-.15-.05-.29-.09-.43-.15A8,8,0,0,1,5,25.744v-9.91a4.984,4.984,0,0,1,2.75-4.46A5,5,0,0,0,12,13.744h9a4,4,0,0,1,4,4Z" fill="#f0d0b4"/><path d="M5,17.744v6H4a3,3,0,1,1,0-6Z" fill="#f0d0b4"/><path d="M48,44.928V42.744H46v2H44v3a3,3,0,0,0,3,3,1,1,0,0,1,1,1v1H47a1,1,0,0,1-1-1v-1H44v1a3,3,0,0,0,2,2.816v2.184h2v-2h2v-3a3,3,0,0,0-3-3,1,1,0,0,1-1-1v-1h1a1,1,0,0,1,1,1v1h2v-1A3,3,0,0,0,48,44.928Z"/><circle cx="1" cy="1" r="1" transform="translate(10 18.744)"/><circle cx="1" cy="1" r="1" transform="translate(17.999 18.744)"/><path d="M21.91,33.276A8.994,8.994,0,0,0,26,25.743v-1a3.992,3.992,0,0,0,3.277-6.283l.474-2.373A12.83,12.83,0,0,0,17.171.742H12.829A12.831,12.831,0,0,0,.249,16.088L.724,18.46A3.992,3.992,0,0,0,4,24.744v1a8.995,8.995,0,0,0,4.09,7.533A17.074,17.074,0,0,0,0,47.744v7H2a4,4,0,0,0,4,4H6v4H24v-4h0a4,4,0,0,0,4-4h2v-7A17.077,17.077,0,0,0,21.91,33.276ZM15,37.974l-2.221-3.241c.074,0,.146.011.221.011h4c.075,0,.147-.009.221-.011Zm-1,2.08v2.69H8V35.75a14.878,14.878,0,0,1,2.136-1.336Zm-6,4.69h6v2H8Zm0,4h6v2H8Zm8,0h6v2H16Zm0-2v-2h6v2Zm0-4v-2.69l3.864-5.641A14.878,14.878,0,0,1,22,35.749v6.994H16Zm10-20v-4a2,2,0,0,1,0,4Zm-8.828-20A10.831,10.831,0,0,1,27.789,15.7l-.27,1.351a3.968,3.968,0,0,0-1.52-.3h-.1a5.009,5.009,0,0,0-4.9-4H12a4,4,0,0,1-4-4V3.894a10.754,10.754,0,0,1,4.829-1.15ZM2,20.744a2,2,0,0,1,2-2v4A2,2,0,0,1,2,20.744Zm2-4.91v.91a3.963,3.963,0,0,0-1.519.3L2.21,15.7A10.814,10.814,0,0,1,6,5.178V8.744A5.954,5.954,0,0,0,6.441,11,5.965,5.965,0,0,0,4,15.834Zm2,9.91v-9.91a3.978,3.978,0,0,1,1.5-3.125A5.986,5.986,0,0,0,12,14.744h9a3,3,0,0,1,3,3v8a7.008,7.008,0,0,1-7,7H13a7.008,7.008,0,0,1-7-7Zm-4,22A15.042,15.042,0,0,1,6,37.57V52.744H2Zm4,9a2,2,0,0,1-2-2H6Zm10,4v-3a3,3,0,0,0-3-3v2a1,1,0,0,1,1,1v3H8v-8H22v8Zm8-4v-2h2A2,2,0,0,1,24,56.744Zm4-4H24V37.569a15.046,15.046,0,0,1,4,10.174Z"/><path d="M19,24.744H17a2,2,0,0,1-2,2H13v2h2A4,4,0,0,0,19,24.744Z"/><path d="M58,22.744h4.921L47,0,31.079,22.744H36V42.051a12.55,12.55,0,0,0,9.563,20.693h2.875A12.55,12.55,0,0,0,58,42.051Zm-23.079-2L47,3.487,59.079,20.743H56V39.8L52,35.36V32.046l.168-.252A10.875,10.875,0,0,0,54,25.744V25.33l-.293-.293c-.234-.235-2.473-2.293-8.707-2.293H44v1c0,.338.01.677.03,1.014A4.584,4.584,0,0,0,40.106,27.3l-.224.447L42,31.98v3.38L38,39.8V20.744Zm8.7,10L42.141,27.79a2.6,2.6,0,0,1,2.1-1.046h.021a18.067,18.067,0,0,0,1.168,4Zm.382,2h6v2H44Zm3.626-2a16.012,16.012,0,0,1-1.593-5.979,12.051,12.051,0,0,1,5.954,1.465A8.891,8.891,0,0,1,50.5,30.685l-.039.059Zm.812,30H45.563a10.563,10.563,0,0,1-7.852-17.629l5.734-6.371h7.11l5.734,6.371a10.563,10.563,0,0,1-7.851,17.629Z"/></g></g></svg>