<svg xmlns="http://www.w3.org/2000/svg" width="17" height="22.369" viewBox="0 0 17 22.369"><g transform="translate(-7.313 -3.938)"><path d="M21.664,9.475h5.089a.277.277,0,0,0,.28-.28h0a1.655,1.655,0,0,0-.6-1.281L22.167,4.358a1.8,1.8,0,0,0-1.152-.414h0a.413.413,0,0,0-.414.414V8.413A1.062,1.062,0,0,0,21.664,9.475Z" transform="translate(-2.72 -0.001)" fill="#fff"/><path d="M16.428,8.411V3.938H9.1A1.8,1.8,0,0,0,7.313,5.727V24.516A1.8,1.8,0,0,0,9.1,26.306H22.523a1.8,1.8,0,0,0,1.789-1.789V10.928H18.944A2.52,2.52,0,0,1,16.428,8.411Z" fill="#fff"/></g></svg>