<svg xmlns="http://www.w3.org/2000/svg" width="129.721" height="130" viewBox="0 0 129.721 130"><g transform="translate(-0.549)"><path d="M182.012,30.053v76.712c0,.153,0,.306-.01.46a9.9,9.9,0,0,1-9.894,9.443h-55.68a9.9,9.9,0,0,1-9.9-9.9V17.948a9.89,9.89,0,0,1,9.9-9.9h44.228a9.872,9.872,0,0,1,4.3.985c2.676,1.288,3.429,2.915,8.238,7.832,5.532,6.007,6.852,6.622,7.98,9.223A9.8,9.8,0,0,1,182.012,30.053Z" transform="translate(-79.066 -6.002)" fill="#ffc477"/><path d="M204.516,30.053v76.712c0,.153,0,.306-.01.46a9.935,9.935,0,0,1-2.236.253H146.59a9.9,9.9,0,0,1-9.9-9.9V8.758c0-.156,0-.309.01-.462a9.949,9.949,0,0,1,2.236-.253H183.16a9.919,9.919,0,0,1,7.237,3.145l5.3,5.672,6.07,6.351a9.967,9.967,0,0,1,2.747,6.841Z" transform="translate(-101.57 -6.001)" fill="#ffdaaa"/><path d="M314.778,188.893v55.685a14,14,0,0,1-14,14H264.411a14,14,0,0,1-14-14V188.893a13.991,13.991,0,0,1,14-14h36.371A14,14,0,0,1,314.778,188.893Z" transform="translate(-186.423 -130.489)" fill="#4cba68"/><path d="M331.783,188.893v55.685a13.922,13.922,0,0,1-2.711,8.278,13.938,13.938,0,0,1-5.5,1.123H287.2a14,14,0,0,1-14-14V184.3a13.923,13.923,0,0,1,2.711-8.278,13.938,13.938,0,0,1,5.5-1.123h36.371A14,14,0,0,1,331.783,188.893Z" transform="translate(-203.428 -130.489)" fill="#7ccc92"/><path d="M366.766,368.062v6.54a2.092,2.092,0,0,1-2.091,2.093h-6.543a2.093,2.093,0,0,1-2.093-2.093v-6.54a2.093,2.093,0,0,1,2.093-2.093h6.543A2.092,2.092,0,0,1,366.766,368.062Z" transform="translate(-265.229 -273.047)" fill="#2c733f"/><path d="M333.424,211.591V218.6a4.513,4.513,0,0,1-4.513,4.513h-36.1A4.515,4.515,0,0,1,288.3,218.6v-7.007a4.515,4.515,0,0,1,4.513-4.513h36.1A4.513,4.513,0,0,1,333.424,211.591Z" transform="translate(-214.687 -154.5)" fill="#1e81ce"/><path d="M355.927,211.591V218.6a4.513,4.513,0,0,1-4.513,4.513H322.971a4.515,4.515,0,0,1-4.513-4.513v-7.007a4.515,4.515,0,0,1,4.513-4.513h28.442A4.513,4.513,0,0,1,355.927,211.591Z" transform="translate(-237.19 -154.5)" fill="#3d9ae2"/><g transform="translate(73.61 75.818)"><path d="M299.026,368.062v6.54a2.093,2.093,0,0,1-2.093,2.093H290.39A2.094,2.094,0,0,1,288.3,374.6v-6.54a2.1,2.1,0,0,1,2.093-2.093h6.543A2.093,2.093,0,0,1,299.026,368.062Z" transform="translate(-288.297 -348.866)" fill="#2c733f"/><path d="M366.766,300.7v6.54a2.092,2.092,0,0,1-2.091,2.093h-6.543a2.093,2.093,0,0,1-2.093-2.093V300.7a2.093,2.093,0,0,1,2.093-2.093h6.543A2.092,2.092,0,0,1,366.766,300.7Z" transform="translate(-338.839 -298.608)" fill="#2c733f"/></g><path d="M435.323,300.7v6.54a2.093,2.093,0,0,1-2.093,2.093h-6.54a2.093,2.093,0,0,1-2.093-2.093V300.7a2.093,2.093,0,0,1,2.093-2.093h6.54A2.093,2.093,0,0,1,435.323,300.7Z" transform="translate(-316.379 -222.79)" fill="#ee8700"/><g transform="translate(73.61 75.818)"><path d="M299.026,300.7v6.54a2.093,2.093,0,0,1-2.093,2.093H290.39a2.094,2.094,0,0,1-2.093-2.093V300.7a2.1,2.1,0,0,1,2.093-2.093h6.543A2.093,2.093,0,0,1,299.026,300.7Z" transform="translate(-288.297 -298.608)" fill="#2c733f"/><path d="M366.766,432.122v6.543a2.092,2.092,0,0,1-2.091,2.093h-6.543a2.093,2.093,0,0,1-2.093-2.093v-6.543a2.092,2.092,0,0,1,2.093-2.091h6.543A2.092,2.092,0,0,1,366.766,432.122Z" transform="translate(-338.839 -396.662)" fill="#2c733f"/><path d="M299.026,432.122v6.543a2.093,2.093,0,0,1-2.093,2.093H290.39a2.094,2.094,0,0,1-2.093-2.093v-6.543a2.094,2.094,0,0,1,2.093-2.091h6.543A2.092,2.092,0,0,1,299.026,432.122Z" transform="translate(-288.297 -396.662)" fill="#2c733f"/></g><path d="M435.323,369.077v20.312a3.569,3.569,0,0,1-3.569,3.571h-3.589a3.569,3.569,0,0,1-3.569-3.571V369.077a3.11,3.11,0,0,1,3.109-3.109h4.508A3.108,3.108,0,0,1,435.323,369.077Z" transform="translate(-316.379 -273.046)" fill="#ee8700"/><g transform="translate(73.61 75.818)"><path d="M366.766,368.062v1.945a2.092,2.092,0,0,1-2.091,2.093h-6.543a2.093,2.093,0,0,1-2.093-2.093v-1.945a2.093,2.093,0,0,1,2.093-2.093h6.543A2.092,2.092,0,0,1,366.766,368.062Z" transform="translate(-338.839 -348.866)" fill="#317f46"/><path d="M299.026,368.062v1.945a2.093,2.093,0,0,1-2.093,2.093H290.39a2.094,2.094,0,0,1-2.093-2.093v-1.945a2.1,2.1,0,0,1,2.093-2.093h6.543A2.093,2.093,0,0,1,299.026,368.062Z" transform="translate(-288.297 -348.866)" fill="#317f46"/><path d="M366.766,300.7v1.945a2.092,2.092,0,0,1-2.091,2.093h-6.543a2.093,2.093,0,0,1-2.093-2.093V300.7a2.093,2.093,0,0,1,2.093-2.093h6.543A2.092,2.092,0,0,1,366.766,300.7Z" transform="translate(-338.839 -298.608)" fill="#317f46"/></g><path d="M435.323,300.7v1.945a2.093,2.093,0,0,1-2.093,2.093h-6.54a2.093,2.093,0,0,1-2.093-2.093V300.7a2.093,2.093,0,0,1,2.093-2.093h6.54A2.093,2.093,0,0,1,435.323,300.7Z" transform="translate(-316.379 -222.79)" fill="#ff9811"/><g transform="translate(73.61 75.818)"><path d="M299.026,300.7v1.945a2.093,2.093,0,0,1-2.093,2.093H290.39a2.094,2.094,0,0,1-2.093-2.093V300.7a2.1,2.1,0,0,1,2.093-2.093h6.543A2.093,2.093,0,0,1,299.026,300.7Z" transform="translate(-288.297 -298.608)" fill="#317f46"/><path d="M366.766,432.122v1.948a2.092,2.092,0,0,1-2.091,2.093h-6.543a2.093,2.093,0,0,1-2.093-2.093v-1.948a2.092,2.092,0,0,1,2.093-2.091h6.543A2.092,2.092,0,0,1,366.766,432.122Z" transform="translate(-338.839 -396.662)" fill="#317f46"/><path d="M299.026,432.122v1.948a2.093,2.093,0,0,1-2.093,2.093H290.39a2.094,2.094,0,0,1-2.093-2.093v-1.948a2.094,2.094,0,0,1,2.093-2.091h6.543A2.092,2.092,0,0,1,299.026,432.122Z" transform="translate(-288.297 -396.662)" fill="#317f46"/></g><path d="M435.323,369.077v15.717a3.569,3.569,0,0,1-3.569,3.571h-3.589a3.569,3.569,0,0,1-3.569-3.571V369.077a3.11,3.11,0,0,1,3.109-3.109h4.508A3.108,3.108,0,0,1,435.323,369.077Z" transform="translate(-316.379 -273.046)" fill="#ff9811"/><path d="M352.88,28.978H340.469a3.808,3.808,0,0,1-3.808-3.808V11.924a9.892,9.892,0,0,1,2.936,2.158l5.3,5.673,6.07,6.352A9.806,9.806,0,0,1,352.88,28.978Z" transform="translate(-250.771 -8.896)" fill="#ffb655"/><path d="M108.87,466.5a4.863,4.863,0,0,1-4.85,4.85H74.306a4.85,4.85,0,0,1,0-9.7H104.02A4.864,4.864,0,0,1,108.87,466.5Z" transform="translate(-51.411 -344.435)" fill="#aa6100"/><path d="M108.87,428.3a4.863,4.863,0,0,1-4.85,4.85H74.306a4.85,4.85,0,0,1,0-9.7H104.02A4.864,4.864,0,0,1,108.87,428.3Z" transform="translate(-51.411 -315.93)" fill="#cc7400"/><path d="M108.87,390.092a4.863,4.863,0,0,1-4.85,4.85H74.306a4.85,4.85,0,0,1,0-9.7H104.02A4.864,4.864,0,0,1,108.87,390.092Z" transform="translate(-51.411 -287.427)" fill="#ee8700"/><path d="M108.87,351.886a4.863,4.863,0,0,1-4.85,4.85H74.306a4.864,4.864,0,0,1-4.85-4.85,4.863,4.863,0,0,1,4.85-4.85H104.02A4.865,4.865,0,0,1,108.87,351.886Z" transform="translate(-51.411 -258.921)" fill="#ff9811"/><path d="M104.019,318.534H74.306a4.864,4.864,0,0,1-4.85-4.85h0a4.864,4.864,0,0,1,4.85-4.85h29.713a4.864,4.864,0,0,1,4.85,4.85h0A4.864,4.864,0,0,1,104.019,318.534Z" transform="translate(-51.411 -230.419)" fill="#ffa733"/><path d="M46.419,392.746a15.781,15.781,0,0,0-16.447-15.113H23.789c-14.02.608-20.555,18.071-9.819,27.6a15.748,15.748,0,0,0,11.171,3.977h4.832V409.2c.441.018.886.022,1.335,0a16.053,16.053,0,0,0,2.936-.4,15.8,15.8,0,0,0,12.179-14.813v-.018C46.437,393.567,46.437,393.159,46.419,392.746Z" transform="translate(-6.024 -281.739)" fill="#cc7400"/><path d="M85.918,395.194v.018a15.8,15.8,0,0,1-12.179,14.813,15.809,15.809,0,0,1-12.164-14.709c0-.036-.005-.069-.005-.1v-.018a15.808,15.808,0,0,1,12.177-15.939,15.806,15.806,0,0,1,12.169,14.711C85.933,394.38,85.933,394.788,85.918,395.194Z" transform="translate(-45.52 -282.96)" fill="#ee8700"/><path d="M114.359,42.493h-9.371V24.052a11.977,11.977,0,0,0-3.311-8.253L95.622,9.463c-5.139-5.294-5.787-6.79-8.848-8.276A11.974,11.974,0,0,0,81.59,0H37.361A11.961,11.961,0,0,0,25.415,11.947V76.372H22.9A6.888,6.888,0,0,0,18,88.115a6.867,6.867,0,0,0-2,4.85,7.071,7.071,0,0,0,.135,1.363C1.182,95.85-4.777,114.362,6.17,124.409a17.258,17.258,0,0,0,12.452,4.562l33.987-.013A6.888,6.888,0,0,0,57.5,117.216a6.856,6.856,0,0,0,1.991-4.508h2.586v1.381A15.929,15.929,0,0,0,77.988,130h36.371a15.929,15.929,0,0,0,15.911-15.911V58.4A15.928,15.928,0,0,0,114.359,42.493ZM87.933,7.222c8.021,8.478,9.828,10.39,10.167,10.75,0,0,0,0,.005.005h0a.056.056,0,0,0,.01.013l0,0a.043.043,0,0,0,.015.015.035.035,0,0,1,.008.01s.005,0,.005.005.005,0,.008.008.008.008.01.01H87.933V7.222ZM22.9,80.457H52.609a2.808,2.808,0,1,1,0,5.616H22.9a2.808,2.808,0,1,1,0-5.616Zm0,9.7H52.609a2.808,2.808,0,1,1,0,5.616H32.085a16.633,16.633,0,0,0-2.586-.934,17.216,17.216,0,0,0-4.084-.6c-.4-.01-.8-.008-1.2.01H20.4a2.761,2.761,0,0,1-.314-1.284A2.813,2.813,0,0,1,22.9,90.157Zm32.522,12.508a2.811,2.811,0,0,1-2.808,2.808H41.18a17.179,17.179,0,0,0-3.467-5.616h14.9A2.813,2.813,0,0,1,55.417,102.665ZM12.96,99a17.622,17.622,0,0,0-3.216,4.125H7.364A13.487,13.487,0,0,1,12.96,99Zm-7.768,7.954H8.166a17.63,17.63,0,0,0-.557,3.061H4.467A13.419,13.419,0,0,1,5.192,106.954Zm.329,10.122a13.4,13.4,0,0,1-.96-3.232H7.681a15.41,15.41,0,0,0,.73,3.232ZM8.069,120.9c1.253,0,1.981.005,2.152-.005a17.245,17.245,0,0,0,2.747,3.324A13.491,13.491,0,0,1,8.069,120.9Zm17.425,4.24A13.536,13.536,0,0,1,11.38,112.19c-.513-11.924,13.728-18.791,22.7-10.558C42.916,109.747,37.535,124.649,25.494,125.145Zm27.115-.271H36.126a17.494,17.494,0,0,0,4.388-5.616H52.609a2.808,2.808,0,0,1,0,5.616Zm2.785-12.166a2.809,2.809,0,0,1-2.785,2.466H41.923a17.545,17.545,0,0,0,.248-5.616H52.609A2.81,2.81,0,0,1,55.394,112.708Zm6.683-4.085H58.39a6.776,6.776,0,0,0-.891-1.108,6.877,6.877,0,0,0,0-9.7,6.878,6.878,0,0,0,0-9.7,6.9,6.9,0,0,0-4.891-11.742H29.5V11.947a7.872,7.872,0,0,1,7.862-7.862H83.849v16a2.042,2.042,0,0,0,2.042,2.042h14.77c.426,1.654.163,1.108.242,20.368H77.988A15.929,15.929,0,0,0,62.077,58.4v50.22Zm64.364,5.466a12.1,12.1,0,0,1-12.082,12.082H77.988a12.1,12.1,0,0,1-12.082-12.082V58.4A12.1,12.1,0,0,1,77.988,46.322h36.371A12.1,12.1,0,0,1,126.441,58.4v55.685Z"/><path d="M294.13,215.572h-6.946a2.606,2.606,0,0,1-2.6-2.6v-7.007a2.606,2.606,0,0,1,2.6-2.6h36.1a2.6,2.6,0,0,1,2.6,2.6v7.007a2.6,2.6,0,0,1-2.6,2.6h-20.9a1.914,1.914,0,1,0,0,3.829h20.9a6.435,6.435,0,0,0,6.428-6.428v-7.007a6.435,6.435,0,0,0-6.428-6.428h-36.1a6.428,6.428,0,0,0-6.428,6.428v7.007a6.428,6.428,0,0,0,6.428,6.428h6.946a1.914,1.914,0,1,0,0-3.829Z" transform="translate(-209.061 -148.874)"/><path d="M284.765,372.984h6.543a4.011,4.011,0,0,0,4.008-4.008v-6.54a4.011,4.011,0,0,0-4.008-4.008h-6.543a4.013,4.013,0,0,0-4.008,4.008v6.54A4.013,4.013,0,0,0,284.765,372.984Zm-.179-10.548a.179.179,0,0,1,.179-.179h6.543a.179.179,0,0,1,.179.179v6.54a.179.179,0,0,1-.179.179h-6.543a.179.179,0,0,1-.179-.179Z" transform="translate(-209.061 -267.422)"/><path d="M427.6,291.068h-6.54a4.011,4.011,0,0,0-4.008,4.008v6.54a4.011,4.011,0,0,0,4.008,4.008h6.54a4.011,4.011,0,0,0,4.008-4.008v-6.54A4.011,4.011,0,0,0,427.6,291.068Zm.179,10.548a.178.178,0,0,1-.179.179h-6.54a.179.179,0,0,1-.179-.179c.079-6.471-.166-6.719.179-6.719h6.54a.178.178,0,0,1,.179.179Z" transform="translate(-310.753 -217.164)"/><path d="M284.765,305.623h6.543a4.011,4.011,0,0,0,4.008-4.008v-6.54a4.011,4.011,0,0,0-4.008-4.008h-6.543a4.013,4.013,0,0,0-4.008,4.008v6.54A4.012,4.012,0,0,0,284.765,305.623Zm-.179-10.548a.179.179,0,0,1,.179-.179h6.543a.179.179,0,0,1,.179.179v6.54a.179.179,0,0,1-.179.179h-6.543a.179.179,0,0,1-.179-.179Z" transform="translate(-209.061 -217.164)"/><path d="M294.287,423.841a4.006,4.006,0,0,0-3-1.35h-6.543a4,4,0,0,0-3,1.35c-1.391,1.56-.919,3.26-1.011,4.084v5.113a4.013,4.013,0,0,0,4.008,4.008h6.543a4.011,4.011,0,0,0,4.008-4.008v-5.113C295.2,427.119,295.67,425.4,294.287,423.841Zm-3,9.376c-6.463-.079-6.721.166-6.721-.179,0-6.926-.077-6.719.179-6.719h6.543c.314,0,.12.436.179,1.606C291.466,427.926,291.632,433.218,291.287,433.218Z" transform="translate(-209.041 -315.218)"/><path d="M426.587,358.428h-4.508a5.03,5.03,0,0,0-5.024,5.024v20.312a5.491,5.491,0,0,0,5.483,5.486h3.589a5.49,5.49,0,0,0,5.483-5.486V363.452A5.029,5.029,0,0,0,426.587,358.428Zm1.195,25.336a1.656,1.656,0,0,1-1.654,1.657h-3.589a1.658,1.658,0,0,1-1.654-1.657V363.452a1.2,1.2,0,0,1,1.195-1.195h4.508a1.2,1.2,0,0,1,1.195,1.195v20.312Z" transform="translate(-310.752 -267.421)"/><path d="M170.817,180.425h0c-2.334-.858-4.021-1.477-4.021-3.64,0-1.971,1.309-2.97,3.891-2.97,2.74,0,3.478,1.206,4.444,1.206a1.839,1.839,0,0,0,1.632-1.886c0-1.6-2.6-2.386-4.928-2.595V169.1a1.814,1.814,0,0,0-3.628,0v1.667a5.934,5.934,0,0,0-4.928,6.206c0,4.456,3.28,5.689,5.917,6.68,2.581.97,4.62,1.736,4.62,4.683,0,2.434-1.352,3.668-4.018,3.668-3.9,0-3.939-2.635-5.427-2.635a1.914,1.914,0,0,0-1.664,1.886c0,1.509,2.247,3.492,5.5,4.006v1.39a1.814,1.814,0,1,0,3.628,0v-1.427c3.5-.658,5.5-3.227,5.5-7.08C177.333,182.819,173.72,181.492,170.817,180.425Z" transform="translate(-120.985 -124.813)"/><path d="M359.031,422.491h-6.543a4.005,4.005,0,0,0-3,1.35c-1.386,1.562-.916,3.26-1.008,4.084v5.113a4.011,4.011,0,0,0,4.008,4.008h6.543a4.011,4.011,0,0,0,4.005-4.008V426.5a4.012,4.012,0,0,0-4.005-4.005Zm0,10.727c-6.463-.079-6.721.166-6.721-.179V426.5a.179.179,0,0,1,.179-.176h6.543a.177.177,0,0,1,.176.176C359.13,432.975,359.37,433.218,359.031,433.218Z" transform="translate(-259.585 -315.218)"/><path d="M359.049,291.068h-6.543a4.011,4.011,0,0,0-4.008,4.008v6.54a4.011,4.011,0,0,0,4.008,4.008h6.543a3.947,3.947,0,0,0,1.458-.276,4.012,4.012,0,0,0,2.548-3.732v-6.54A4.013,4.013,0,0,0,359.049,291.068Zm.176,10.548a.177.177,0,0,1-.176.179h-6.543a.179.179,0,0,1-.179-.179v-6.54c0-.345.237-.1,6.721-.179a.177.177,0,0,1,.176.179v6.54Z" transform="translate(-259.603 -217.164)"/><path d="M360.507,358.7a3.947,3.947,0,0,0-1.458-.276h-6.543a4.011,4.011,0,0,0-4.008,4.008v6.54a4.011,4.011,0,0,0,4.008,4.008h6.543a4.011,4.011,0,0,0,4.005-4.008v-6.54A4.012,4.012,0,0,0,360.507,358.7Zm-1.281,10.272a.177.177,0,0,1-.176.179h-6.543a.179.179,0,0,1-.179-.179v-6.54a.179.179,0,0,1,.179-.179h6.543a.177.177,0,0,1,.176.179Z" transform="translate(-259.603 -267.421)"/><path d="M321.961,106.871h4.809a1.914,1.914,0,1,0,0-3.829h-4.809a1.914,1.914,0,1,0,0,3.829Z" transform="translate(-238.375 -76.879)"/><path d="M158.084,106.871h33.951a1.914,1.914,0,1,0,0-3.829H158.084a1.914,1.914,0,1,0,0,3.829Z" transform="translate(-116.108 -76.879)"/><path d="M164.17,144.3a1.914,1.914,0,0,0,0-3.829h-6.086a1.914,1.914,0,1,0,0,3.829Z" transform="translate(-116.108 -104.805)"/><path d="M246.8,142.386a1.915,1.915,0,0,0-1.914-1.914H212.213a1.914,1.914,0,0,0,0,3.829h32.675A1.915,1.915,0,0,0,246.8,142.386Z" transform="translate(-156.493 -104.805)"/><path d="M81.526,404.9c0-.481.177-.619.343-.711a3.29,3.29,0,0,1,2.775.188,2.189,2.189,0,0,0,1.036.315c1.888,0,3.382-3.509-1.129-4.284v-.121a1.94,1.94,0,1,0-3.88,0v.368a4.353,4.353,0,0,0-2.959,4.36c0,3.265,2.372,4.157,4.1,4.807,1.652.621,2.223.892,2.223,2.016,0,.7-.189,1.353-1.563,1.353-2,0-1.762-1.582-3.259-1.582a2,2,0,0,0-1.85,1.983c0,1.326,1.379,2.585,3.3,3.1v.145a1.94,1.94,0,0,0,3.88,0v-.2a4.8,4.8,0,0,0,3.3-4.913C87.855,405.9,81.526,406.775,81.526,404.9Z" transform="translate(-57.315 -297.2)"/></g></svg>