<svg xmlns="http://www.w3.org/2000/svg" xmlns:xlink="http://www.w3.org/1999/xlink" width="131" height="103" viewBox="0 0 131 103"><defs><filter id="a" x="0" y="0" width="103" height="103" filterUnits="userSpaceOnUse"><feOffset dy="3" input="SourceAlpha"/><feGaussianBlur stdDeviation="3" result="b"/><feFlood flood-opacity="0.161"/><feComposite operator="in" in2="b"/><feComposite in="SourceGraphic"/></filter><filter id="c" x="105" y="0" width="26" height="103" filterUnits="userSpaceOnUse"><feOffset dy="3" input="SourceAlpha"/><feGaussianBlur stdDeviation="3" result="d"/><feFlood flood-opacity="0.161"/><feComposite operator="in" in2="d"/><feComposite in="SourceGraphic"/></filter></defs><g transform="translate(-276 -3926)"><g transform="matrix(1, 0, 0, 1, 276, 3926)" filter="url(#a)"><circle cx="42.5" cy="42.5" r="42.5" transform="translate(9 6)" fill="#eb6f2d"/></g><g transform="matrix(1, 0, 0, 1, 276, 3926)" filter="url(#c)"><rect width="8" height="85" transform="translate(114 6)" fill="#ffb338"/></g><g transform="translate(301 3948)"><rect width="43" height="20" rx="2" transform="translate(7 2.5)" fill="#009698"/><path d="M60.042,22v2.425a1.622,1.622,0,0,1-1.617,1.617H56A4.042,4.042,0,0,1,60.042,22Z" transform="translate(-10.35 -3.833)" fill="#c6c5ca"/><path d="M60.042,4.617V7.042A4.042,4.042,0,0,1,56,3h2.425a1.622,1.622,0,0,1,1.617,1.617Z" transform="translate(-10.35 -0.192)" fill="#c6c5ca"/><circle cx="2" cy="2" r="2" transform="translate(42 10.5)" fill="#ffde55"/><path d="M39.929,13.467a6.467,6.467,0,0,1-6.467,6.467h-.04A6.467,6.467,0,0,1,33.462,7h.04a6.467,6.467,0,0,1,6.426,6.467Z" transform="translate(-4.787 -0.958)" fill="#ffde55"/><path d="M40.067,13.6A6.467,6.467,0,0,1,33.6,20.071h-.04a6.467,6.467,0,0,1-5.86-3.815,6.472,6.472,0,0,0,2.627.582h.04a6.472,6.472,0,0,0,5.9-9.118,6.455,6.455,0,0,1,3.8,5.885Z" transform="translate(-4.926 -1.096)" fill="#ebbf00"/><circle cx="2" cy="2" r="2" transform="translate(11 10.5)" fill="#ffde55"/><path d="M10.617,3h2.425A4.042,4.042,0,0,1,9,7.042V4.617A1.622,1.622,0,0,1,10.617,3Z" transform="translate(-1.342 -0.192)" fill="#c6c5ca"/><circle cx="11.5" cy="11.5" r="11.5" transform="translate(27 26.5)" fill="#ffde55"/><circle cx="11.5" cy="11.5" r="11.5" transform="translate(27 26.5)" fill="#ffde55"/><path d="M59.976,45.658H56.743a8.056,8.056,0,0,0-1.083-4.042L58.457,40A11.2,11.2,0,0,1,59.976,45.658Z" transform="translate(-10.285 -7.283)" fill="#ffde55"/><path d="M56.743,47h3.233a11.2,11.2,0,0,1-1.52,5.658l-2.8-1.617A8.056,8.056,0,0,0,56.743,47Z" transform="translate(-10.285 -8.625)" fill="#c6c5ca"/><path d="M57.755,39.019l-2.8,1.617A8.237,8.237,0,0,0,52,37.677l1.617-2.8A11.172,11.172,0,0,1,57.755,39.019Z" transform="translate(-9.583 -6.302)" fill="#c6c5ca"/><path d="M54.958,52l2.8,1.617a11.172,11.172,0,0,1-4.139,4.139L52,54.958A8.237,8.237,0,0,0,54.958,52Z" transform="translate(-9.583 -9.583)" fill="#ffde55"/><path d="M51.042,55.66l1.617,2.8A11.2,11.2,0,0,1,47,59.976V56.743A8.056,8.056,0,0,0,51.042,55.66Z" transform="translate(-8.625 -10.285)" fill="#c6c5ca"/><path d="M52.658,34.52l-1.617,2.8A8.056,8.056,0,0,0,47,36.233V33A11.2,11.2,0,0,1,52.658,34.52Z" transform="translate(-8.625 -5.942)" fill="#ffde55"/><path d="M45.658,56.743v3.233A11.2,11.2,0,0,1,40,58.457l1.617-2.8a8.056,8.056,0,0,0,4.042,1.083Z" transform="translate(-7.283 -10.285)" fill="#ffde55"/><path d="M45.658,33v3.233a8.056,8.056,0,0,0-4.042,1.083L40,34.52A11.2,11.2,0,0,1,45.658,33Z" transform="translate(-7.283 -5.942)" fill="#c6c5ca"/><path d="M39.019,34.88l1.617,2.8a8.237,8.237,0,0,0-2.958,2.959l-2.8-1.617a11.172,11.172,0,0,1,4.139-4.139Z" transform="translate(-6.302 -6.302)" fill="#ffde55"/><path d="M40.635,54.958l-1.617,2.8a11.172,11.172,0,0,1-4.139-4.139L37.677,52A8.237,8.237,0,0,0,40.635,54.958Z" transform="translate(-6.302 -9.583)" fill="#c6c5ca"/><path d="M34.52,40l2.8,1.617a8.056,8.056,0,0,0-1.083,4.042H33A11.2,11.2,0,0,1,34.52,40Z" transform="translate(-5.942 -7.283)" fill="#c6c5ca"/><path d="M37.316,51.042l-2.8,1.617A11.2,11.2,0,0,1,33,47h3.233A8.056,8.056,0,0,0,37.316,51.042Z" transform="translate(-5.942 -8.625)" fill="#ffde55"/><path d="M53.586,45.229a8.083,8.083,0,0,1-14.4,5.044,7.962,7.962,0,0,0,3.08.614A8.083,8.083,0,0,0,48.583,37.76,8.076,8.076,0,0,1,53.586,45.229Z" transform="translate(-7.128 -6.854)" fill="#ffcd00"/><rect width="23" height="31" rx="2" transform="translate(3 18.5)" fill="#ff7956"/><path d="M29.85,24.617V52.1a1.622,1.622,0,0,1-1.617,1.617H25A1.622,1.622,0,0,0,26.617,52.1V24.617A1.622,1.622,0,0,0,25,23h3.233A1.622,1.622,0,0,1,29.85,24.617Z" transform="translate(-4.408 -4.025)" fill="#ff5023"/><path d="M23,50h3.233v5.658H23Z" transform="translate(-4.025 -9.2)" fill="#57a4ff"/><path d="M23,43h3.233v2.425H23Z" transform="translate(-4.025 -7.858)" fill="#57a4ff"/><rect width="16" height="9" rx="4" transform="translate(6 22.5)" fill="#46f8ff"/><path d="M25.467,30.233v3.233A3.233,3.233,0,0,1,22.233,36.7H19a3.233,3.233,0,0,0,3.233-3.233V30.233A3.233,3.233,0,0,0,19,27h3.233A3.233,3.233,0,0,1,25.467,30.233Z" transform="translate(-3.258 -4.792)" fill="#00d7df"/><g transform="translate(5.986 34.554)"><rect width="4" height="4" rx="1.5" transform="translate(7.014 7.946)" fill="#ffde55"/><rect width="4" height="4" rx="1.5" transform="translate(7.014 -0.054)" fill="#ffde55"/><rect width="4" height="4" rx="1.5" transform="translate(0.014 7.946)" fill="#ffde55"/><rect width="4" height="4" rx="1.5" transform="translate(0.014 -0.054)" fill="#ffde55"/></g><path d="M19.742,26h-9.7A4.047,4.047,0,0,0,6,30.042v3.233a4.047,4.047,0,0,0,4.042,4.042h9.7a4.047,4.047,0,0,0,4.042-4.042V30.042A4.047,4.047,0,0,0,19.742,26Zm2.425,7.275A2.425,2.425,0,0,1,19.742,35.7h-9.7a2.425,2.425,0,0,1-2.425-2.425V30.042a2.425,2.425,0,0,1,2.425-2.425h9.7a2.425,2.425,0,0,1,2.425,2.425Z" transform="translate(-0.767 -4.6)"/><path d="M9.637,42H8.021A2.021,2.021,0,0,0,6,44.021v1.617a2.021,2.021,0,0,0,2.021,2.021H9.637a2.021,2.021,0,0,0,2.021-2.021V44.021A2.021,2.021,0,0,0,9.638,42Zm.4,3.638a.4.4,0,0,1-.4.4H8.021a.4.4,0,0,1-.4-.4V44.021a.4.4,0,0,1,.4-.4H9.637a.4.4,0,0,1,.4.4Z" transform="translate(-0.767 -7.667)"/><path d="M9.637,51H8.021A2.021,2.021,0,0,0,6,53.021v1.617a2.021,2.021,0,0,0,2.021,2.021H9.637a2.021,2.021,0,0,0,2.021-2.021V53.021A2.021,2.021,0,0,0,9.638,51Zm.4,3.638a.4.4,0,0,1-.4.4H8.021a.4.4,0,0,1-.4-.4V53.021a.4.4,0,0,1,.4-.4H9.637a.4.4,0,0,1,.4.4Z" transform="translate(-0.767 -9.392)"/><path d="M17.637,42H16.021A2.021,2.021,0,0,0,14,44.021v1.617a2.021,2.021,0,0,0,2.021,2.021h1.617a2.021,2.021,0,0,0,2.021-2.021V44.021A2.021,2.021,0,0,0,17.637,42Zm.4,3.638a.4.4,0,0,1-.4.4H16.021a.4.4,0,0,1-.4-.4V44.021a.4.4,0,0,1,.4-.4h1.617a.4.4,0,0,1,.4.4Z" transform="translate(-2.3 -7.667)"/><path d="M17.637,51H16.021A2.021,2.021,0,0,0,14,53.021v1.617a2.021,2.021,0,0,0,2.021,2.021h1.617a2.021,2.021,0,0,0,2.021-2.021V53.021A2.021,2.021,0,0,0,17.637,51Zm.4,3.638a.4.4,0,0,1-.4.4H16.021a.4.4,0,0,1-.4-.4V53.021a.4.4,0,0,1,.4-.4h1.617a.4.4,0,0,1,.4.4Z" transform="translate(-2.3 -9.392)"/><path d="M26.042,49H22.808a.808.808,0,0,0-.808.808v5.658a.808.808,0,0,0,.808.808h3.233a.808.808,0,0,0,.808-.808V49.808A.808.808,0,0,0,26.042,49Zm-.808,5.658H23.617V50.617h1.617Z" transform="translate(-3.833 -9.008)"/><path d="M21.233,29H19.617A1.617,1.617,0,0,0,18,30.617V33.85a1.617,1.617,0,0,0,1.617,1.617h1.617A1.617,1.617,0,0,0,22.85,33.85V30.617A1.617,1.617,0,0,0,21.233,29Zm-1.617,4.85V30.617h1.617V33.85Z" transform="translate(-3.067 -5.175)"/><path d="M26.042,42H22.808a.808.808,0,0,0-.808.808v2.425a.808.808,0,0,0,.808.808h3.233a.808.808,0,0,0,.808-.808V42.808A.808.808,0,0,0,26.042,42Zm-.808,2.425H23.617v-.808h1.617Z" transform="translate(-3.833 -7.667)"/><path d="M44.125,56.25A12.125,12.125,0,1,0,32,44.125,12.125,12.125,0,0,0,44.125,56.25Zm-8.663-6.189,1.407-.813A8.972,8.972,0,0,0,39,51.381l-.813,1.407a10.589,10.589,0,0,1-2.727-2.727Zm9.471-14.786V33.658a10.4,10.4,0,0,1,3.724,1l-.808,1.4A8.811,8.811,0,0,0,44.933,35.275Zm-1.617,0a8.811,8.811,0,0,0-2.91.787l-.808-1.4a10.4,10.4,0,0,1,3.718-1Zm.808,1.575a7.275,7.275,0,1,1-7.275,7.275A7.275,7.275,0,0,1,44.125,36.85Zm8.85,8.083h1.617a10.4,10.4,0,0,1-1,3.724l-1.4-.808A8.811,8.811,0,0,0,52.975,44.933Zm0-1.617a8.811,8.811,0,0,0-.787-2.91l1.4-.808a10.4,10.4,0,0,1,1,3.718Zm-9.659,9.659v1.617a10.4,10.4,0,0,1-3.724-1l.808-1.4A8.811,8.811,0,0,0,43.317,52.975Zm1.617,0a8.811,8.811,0,0,0,2.91-.787l.808,1.4a10.405,10.405,0,0,1-3.718,1Zm-9.659-9.659H33.658a10.4,10.4,0,0,1,1-3.724l1.4.808A8.811,8.811,0,0,0,35.275,43.317Zm0,1.617a8.811,8.811,0,0,0,.787,2.91l-1.4.808a10.4,10.4,0,0,1-1-3.718Zm14.786,7.855-.813-1.407a8.973,8.973,0,0,0,2.133-2.133l1.407.813a10.589,10.589,0,0,1-2.727,2.727Zm2.727-14.6L51.381,39a8.973,8.973,0,0,0-2.133-2.133l.813-1.407a10.589,10.589,0,0,1,2.727,2.727Zm-14.6-2.727L39,36.869A8.972,8.972,0,0,0,36.869,39l-1.407-.813A10.589,10.589,0,0,1,38.189,35.462Z" transform="translate(-5.75 -5.75)"/><path d="M45.617,51.317h1.617V49.7a1.617,1.617,0,0,0,1.617-1.617V46.467a1.617,1.617,0,0,0-1.617-1.617H45.617V43.233H48.85V41.617H47.233V40H45.617v1.617A1.617,1.617,0,0,0,44,43.233V44.85a1.617,1.617,0,0,0,1.617,1.617h1.617v1.617H44V49.7h1.617Z" transform="translate(-8.05 -7.283)"/><path d="M15.233,11a3.233,3.233,0,1,0,3.233,3.233A3.233,3.233,0,0,0,15.233,11Zm0,4.85a1.617,1.617,0,1,1,1.617-1.617A1.617,1.617,0,0,1,15.233,15.85Z" transform="translate(-1.917 -1.725)"/><path d="M53.233,17.467A3.233,3.233,0,1,0,50,14.233,3.233,3.233,0,0,0,53.233,17.467Zm0-4.85a1.617,1.617,0,1,1-1.617,1.617A1.617,1.617,0,0,1,53.233,12.617Z" transform="translate(-9.2 -1.725)"/><path d="M35.233,18.7v-.808a1.617,1.617,0,0,0,1.617-1.617V14.658a1.617,1.617,0,0,0-1.617-1.617H33.617V11.425H36.85V9.808H35.233V9H33.617v.808A1.617,1.617,0,0,0,32,11.425v1.617a1.617,1.617,0,0,0,1.617,1.617h1.617v1.617H32v1.617h1.617V18.7Z" transform="translate(-5.75 -1.342)"/><path d="M48.075,2H9.275A2.432,2.432,0,0,0,6.85,4.425V18.167H4.425A2.432,2.432,0,0,0,2,20.592V48.075A2.432,2.432,0,0,0,4.425,50.5h19.4a2.432,2.432,0,0,0,2.425-2.425V23.017H48.075A2.432,2.432,0,0,0,50.5,20.592V4.425A2.432,2.432,0,0,0,48.075,2ZM8.467,4.425a.808.808,0,0,1,.808-.808h1.5A3.247,3.247,0,0,1,8.467,5.928Zm16.167,43.65a.808.808,0,0,1-.808.808H4.425a.808.808,0,0,1-.808-.808V20.592a.808.808,0,0,1,.808-.808h19.4a.808.808,0,0,1,.808.808ZM23.017,12.508a5.658,5.658,0,1,1,5.658,5.658,5.658,5.658,0,0,1-5.658-5.658Zm25.867,8.083a.808.808,0,0,1-.808.808h-1.5a3.247,3.247,0,0,1,2.312-2.312Zm0-3.161A4.844,4.844,0,0,0,44.914,21.4H26.25v-.808a2.364,2.364,0,0,0-.461-1.407,7.331,7.331,0,1,0-1.633-.986,2.193,2.193,0,0,0-.331-.032H8.467V7.586a4.844,4.844,0,0,0,3.969-3.969H44.914a4.844,4.844,0,0,0,3.969,3.969Zm0-11.5a3.247,3.247,0,0,1-2.312-2.312h1.5a.808.808,0,0,1,.808.808Z"/></g></g></svg>