<svg xmlns="http://www.w3.org/2000/svg" width="243.506" height="213.101" viewBox="0 0 243.506 213.101"><g transform="translate(-50.23 -73.514)"><g transform="translate(81.522 166.508)"><g transform="translate(54.197)"><path d="M221.959,218.639l-7.411,9.207-30.9,8.6,4.616,49.918c1.424,19.566,3.426,24.363,4.806,37.372v10.607h87.777L293.1,233.011l-30.269-6.961-6.512-7.411Z" transform="translate(-183.644 -218.639)" fill="#ff725e"/></g><g transform="translate(91.202 10.378)"><path d="M241.392,242.284l3.781,49.989,4.042,25.375,29.675-82.813-23.938,28.372Z" transform="translate(-241.392 -234.835)" fill="#fff"/></g><g transform="translate(98.595 7.411)"><path d="M252.931,319.554a1.57,1.57,0,0,1,.117-.243l.372-.7,1.456-2.661,5.41-9.758,17.957-32.133,9.789-17.436.035.193-4.261-3.6-.157-.132.176-.1L289.9,249.4l-.062.126c-.664-5.911-1.205-10.737-1.583-14.1l-.415-3.867c-.042-.431-.075-.766-.1-1.011-.021-.228-.021-.346-.021-.346s.027.115.06.342c.033.243.078.577.136,1.006.113.9.276,2.2.484,3.859.4,3.363.985,8.185,1.7,14.09l.01.083-.072.044-6.055,3.606.02-.236,4.272,3.586.1.082-.062.112-9.767,17.449-18.043,32.085-5.5,9.707-1.511,2.63-.4.681A1.625,1.625,0,0,1,252.931,319.554Z" transform="translate(-252.93 -230.204)" fill="#263238"/></g><g transform="translate(80.026 9.207)"><path d="M242.521,320.561a1.5,1.5,0,0,1-.085-.235l-.217-.7-.805-2.693-2.9-9.923c-1.2-4.2-2.7-9.166-4.23-14.744-1.43-5.6-2.794-11.795-4.237-18.3-1.957-8.919-3.726-17.271-5.2-24.34l-.026-.122.118-.042,4.043-1.414-.017.242-4.922-2.609-.092-.049.038-.1,3.661-9.2,1.005-2.481.269-.641a1.333,1.333,0,0,1,.1-.214,1.253,1.253,0,0,1-.07.226l-.238.652c-.224.589-.541,1.428-.949,2.5-.845,2.19-2.059,5.335-3.565,9.236l-.054-.145,4.939,2.579.269.14-.287.1-4.036,1.434.092-.164c1.5,7.061,3.285,15.409,5.242,24.326,1.443,6.5,2.8,12.7,4.209,18.292,1.51,5.556,2.985,10.553,4.159,14.755s2.134,7.586,2.8,9.954c.32,1.164.57,2.074.745,2.711l.186.707A1.347,1.347,0,0,1,242.521,320.561Z" transform="translate(-223.952 -233.007)" fill="#263238"/></g><g transform="translate(0 17.811)"><path d="M153.262,246.435s-6.8,3.307-11.586,18.544c-3.479,11.07-17.631,49.192-17.631,49.192L108.373,309.6s-11.536,14.366-8.924,19.372,21.7,15.361,21.7,15.361H143.51a18.368,18.368,0,0,0,6.391-9.315l12.783-43.049Z" transform="translate(-99.064 -246.435)" fill="#ff725e"/></g><g transform="translate(150.644 14.372)"><path d="M347.165,241.068A27.537,27.537,0,0,1,357,251.174c3.9,6.941,35.062,57.651,37.644,69.676,3.856,17.957-3.848,21.537-3.848,21.537H380.031l-26.65-.15-3.363-20.858,11.848-2.529L339.908,294.5l-1.455,2.483-4.3-34.761Z" transform="translate(-334.158 -241.068)" fill="#ff725e"/></g><g transform="translate(57.015 38.75)"><path d="M188.049,279.112c.092-.008.886,8.615,1.774,19.259s1.532,19.281,1.44,19.288-.886-8.614-1.773-19.261S187.958,279.119,188.049,279.112Z" transform="translate(-188.04 -279.112)" fill="#263238"/></g><g transform="translate(156.262 29.099)"><path d="M348.744,264.051c.091.012-1.136,10.771-2.742,24.03s-2.982,24-3.073,23.992,1.136-10.768,2.742-24.032S348.653,264.04,348.744,264.051Z" transform="translate(-342.925 -264.051)" fill="#263238"/></g><g transform="translate(168.768 90.739)"><path d="M363.864,385.215a4.862,4.862,0,0,1,.3-.383c.193-.253.479-.627.8-1.14a18.645,18.645,0,0,0,2.063-4.665,22.751,22.751,0,0,0,.742-3.45,16.157,16.157,0,0,0,.174-4.022,9.483,9.483,0,0,0-1.485-4.129,11.207,11.207,0,0,0-3.378-3.306c-.1-.06-.2-.12-.285-.167l-.356-.195.386-.113a83.787,83.787,0,0,1,16.46-3.072c2.133-.182,3.862-.263,5.056-.3.6-.021,1.061-.024,1.375-.028a2.7,2.7,0,0,1,.48.013,2.563,2.563,0,0,1-.477.053l-1.371.09c-1.192.077-2.916.193-5.041.4a89.367,89.367,0,0,0-16.389,3.159l.031-.308c.1.056.2.115.306.179a11.448,11.448,0,0,1,3.477,3.412,9.738,9.738,0,0,1,1.517,4.273,16.213,16.213,0,0,1-.206,4.1,22.3,22.3,0,0,1-.79,3.478,17.739,17.739,0,0,1-2.18,4.668,10.609,10.609,0,0,1-.857,1.111A1.826,1.826,0,0,1,363.864,385.215Z" transform="translate(-362.441 -360.245)" fill="#263238"/></g><g transform="translate(98.506 96.53)"><path d="M252.959,388.461c-.092,0-.167-4.293-.167-9.589s.075-9.59.167-9.59.167,4.293.167,9.59S253.051,388.461,252.959,388.461Z" transform="translate(-252.792 -369.282)" fill="#263238"/></g><g transform="translate(121.96 66.495)"><path d="M316.117,329.087a4.526,4.526,0,0,1-.02-.455c-.006-.315-.014-.739-.024-1.28-.013-1.13-.031-2.737-.055-4.76l.1.1-26.555.068c.074-.074-.167.167.165-.167v1.658q0,.825,0,1.637,0,1.626,0,3.2l-.163-.163,18.9.074,5.6.047,1.517.022.4.011a.849.849,0,0,1,.142.01,3.875,3.875,0,0,1-.5.021l-1.482.022-5.559.047-19.017.074H289.4v-.165q0-1.572,0-3.2,0-.813,0-1.637v-1.658c.335-.333.094-.092.169-.167l26.555.068h.1v.1c-.024,2.048-.042,3.675-.055,4.819-.01.531-.018.949-.024,1.258A3.03,3.03,0,0,1,316.117,329.087Z" transform="translate(-289.393 -322.41)" fill="#263238"/></g><g transform="translate(53.453 19.273)"><path d="M186.052,265.334c-.09.019-.961-3.686-1.944-8.274s-1.709-8.325-1.619-8.344.961,3.685,1.945,8.274S186.143,265.315,186.052,265.334Z" transform="translate(-182.482 -248.716)" fill="#263238"/></g><g transform="translate(100.067 26.723)" opacity="0.3"><path d="M255.228,327.755l37.9-58.136-5.47-5.285,3.126-3.993-6.063,3.593,4.267,3.593Z" transform="translate(-255.228 -260.342)"/></g><g transform="translate(6.436 96.085)" opacity="0.3"><path d="M109.108,368.588v3.229l43.022.136v-3.365Z" transform="translate(-109.108 -368.588)"/></g></g><g transform="translate(140.173 73.514)"><g transform="translate(0 13.603)"><path d="M190.807,151.451a6.373,6.373,0,0,0,5.989-2.675,7.591,7.591,0,0,1-4.6-.254c-1.392-.71-2.18-2.76-1.089-3.879.852-.873,2.255-.722,3.472-.812a7.51,7.51,0,0,0,6.387-4.9c1.03-2.958.088-6.185-.282-9.3A25.6,25.6,0,0,1,211.4,106.005l19.484-11.263c7.067,9.044,9.27,21.233,7.8,32.616s-6.294,22.084-12.1,31.985a38,38,0,0,1-5.879,8.089,15.045,15.045,0,0,1-8.756,4.493,9.03,9.03,0,0,1,1.442-8.154,19.664,19.664,0,0,1-14.49-5.19l4.176-3.2A15.251,15.251,0,0,1,190.807,151.451Z" transform="translate(-190.594 -94.742)" fill="#263238"/></g><g transform="translate(17.147 14.242)"><path d="M275.457,120.029a18.257,18.257,0,0,0-13.25-17.2l-24.426-6.98c-10.6-1.452-18.075,11.426-19.076,22.079-1.112,11.836-1.945,24.334-.813,33.226,2.278,17.879,15.845,20.562,15.845,20.562,0-.026-.452,16.113-.591,21.309l12.425,25.979,24.076-33.229,5.867-65.532C275.529,119.942,275.475,120.434,275.457,120.029Z" transform="translate(-217.353 -95.739)" fill="#af7e69"/><g transform="translate(6.043 34.941)"><path d="M226.788,152.262a2.282,2.282,0,0,0,2.129,2.37,2.184,2.184,0,0,0,2.415-1.985,2.284,2.284,0,0,0-2.127-2.37A2.184,2.184,0,0,0,226.788,152.262Z" transform="translate(-226.784 -150.268)" fill="#263238"/></g><g transform="translate(3.792 26.975)"><path d="M223.3,140.1c.274.306,2.042-.92,4.5-.838,2.454.046,4.217,1.365,4.493,1.073.135-.129-.137-.675-.9-1.27a6.258,6.258,0,0,0-3.585-1.227,6.008,6.008,0,0,0-3.59,1.038C223.44,139.432,223.168,139.962,223.3,140.1Z" transform="translate(-223.27 -137.836)" fill="#263238"/></g><g transform="translate(26.805 34.941)"><path d="M259.189,152.263a2.281,2.281,0,0,0,2.129,2.37,2.184,2.184,0,0,0,2.415-1.985,2.285,2.285,0,0,0-2.127-2.372A2.184,2.184,0,0,0,259.189,152.263Z" transform="translate(-259.185 -150.268)" fill="#263238"/></g><g transform="translate(27.112 27.64)"><path d="M259.7,141.139c.275.306,2.045-.92,4.5-.837,2.453.047,4.216,1.365,4.492,1.073.135-.129-.134-.675-.9-1.27a6.265,6.265,0,0,0-3.585-1.228,6.022,6.022,0,0,0-3.591,1.039C259.835,140.471,259.562,141,259.7,141.139Z" transform="translate(-259.663 -138.874)" fill="#263238"/></g><g transform="translate(12.715 28.547)"><path d="M243.4,160.713c.015-.139-1.5-.449-3.966-.842-.625-.084-1.214-.227-1.307-.657a3.19,3.19,0,0,1,.475-1.846l2-4.717c2.784-6.718,4.819-12.251,4.548-12.359s-2.749,5.246-5.533,11.965q-1.006,2.485-1.924,4.748a3.631,3.631,0,0,0-.4,2.451,1.573,1.573,0,0,0,1,.948,4.246,4.246,0,0,0,1.06.181C241.841,160.794,243.385,160.853,243.4,160.713Z" transform="translate(-237.196 -140.289)" fill="#263238"/></g><g transform="translate(16.27 70.321)"><path d="M266.639,205.482s-6.139,12.056-23.895,9.844l.114-4.186A44.845,44.845,0,0,0,266.639,205.482Z" transform="translate(-242.744 -205.482)" fill="#7c5142"/></g><g transform="translate(28.158 20.284)"><path d="M261.306,129.095c.222.675,2.683.434,5.552.87,2.88.379,5.176,1.293,5.577.706.179-.281-.206-.922-1.126-1.6a9.769,9.769,0,0,0-8.478-1.2C261.76,128.267,261.212,128.775,261.306,129.095Z" transform="translate(-261.296 -127.395)" fill="#263238"/></g><g transform="translate(4.784 19.335)"><path d="M224.875,128.33c.415.57,2.124.044,4.159.079,2.036-.036,3.745.49,4.159-.081.183-.278-.072-.845-.809-1.4a6.019,6.019,0,0,0-6.7,0C224.946,127.485,224.692,128.051,224.875,128.33Z" transform="translate(-224.818 -125.914)" fill="#263238"/></g><g transform="translate(21.807 51.231)"><path d="M257.705,178.224a3.2,3.2,0,0,0-3.241-2.527,3.35,3.35,0,0,0-2.628,1.758,4.119,4.119,0,0,0-.238,3.2l.045.231a3.649,3.649,0,0,0,4.081.991A3.412,3.412,0,0,0,257.705,178.224Z" transform="translate(-251.384 -175.69)" fill="#7c5142"/></g><g transform="translate(20.284 49.624)"><path d="M249.008,179.986c.008-.373,2.487-.183,4.413-2.167s1.861-4.645,2.209-4.637c.158-.022.435.627.378,1.744a6.194,6.194,0,0,1-1.7,3.882,5.393,5.393,0,0,1-3.689,1.658C249.573,180.48,248.98,180.155,249.008,179.986Z" transform="translate(-249.008 -173.181)" fill="#263238"/></g></g><g transform="translate(8.052)"><path d="M262.147,83.7c-2.748-4.366-9.24-8.924-14.322-9.812-5.793-1.013-9.284-.02-13.094,3.458,0,0-2.964,2.86-5.742,3.4s-5.1.082-8.416,1.778c-4.527,2.315-6.512,8.369-8.609,13-2.607,5.757-6.321,11.054-8.022,17.14s-.8,13.564,4.333,17.256c-.879-4.664-1.612-9.794.31-14.015a12.224,12.224,0,0,0,.31,5.051c.96-2.739,1.972-5.564,3.96-7.679,1.876-1.994,4.468-3.185,6.4-5.125,2.839-2.848,4.146-7.191,7.6-9.258,3.589-2.15,8.127-1.078,12.311-1.058A23.588,23.588,0,0,0,257.5,89l-1.041-.088A29.183,29.183,0,0,0,262.147,83.7Z" transform="translate(-203.16 -73.514)" fill="#263238"/></g><g transform="translate(53.315 8.801)"><path d="M313.689,132.161c-1.6-5.233-4.4-10.023-6.156-15.205-1.708-5.047-2.414-10.442-4.683-15.263C299.8,95.205,294.092,86.8,285.2,87.267l-.607.534a19,19,0,0,0-8.959,1.069L275.5,95.8l-1.7,1.5c.715,1.374,1.391,2.7,2.045,4.011a43.823,43.823,0,0,0,2.266,7.627,19.788,19.788,0,0,0,4.265,6.485c15.314,36.66,1.424,38.976,8.323,59.988l4.339-12.029a21.448,21.448,0,0,0,8.583-9.245l.765,3.811a22.1,22.1,0,0,0,5.982-13.654l1.99,3.658C315.5,143.476,315.286,137.394,313.689,132.161Z" transform="translate(-273.796 -87.248)" fill="#263238"/></g><g transform="translate(66.652 51.369)"><path d="M295.037,154.685c.238-.6,11.307-4.237,11.12,7.411-.183,11.317-11.533,8.764-11.547,8.439S295.037,154.685,295.037,154.685Z" transform="translate(-294.61 -153.68)" fill="#af7e69"/><g transform="translate(3.562 3.724)"><path d="M300.18,168.4c.051-.035.195.142.525.3a1.968,1.968,0,0,0,1.473.059c1.2-.416,2.247-2.294,2.341-4.333a6.506,6.506,0,0,0-.5-2.832,2.276,2.276,0,0,0-1.453-1.542,1,1,0,0,0-1.174.518c-.158.313-.09.541-.151.559-.033.028-.239-.195-.139-.66a1.256,1.256,0,0,1,.459-.7,1.484,1.484,0,0,1,1.1-.267,2.77,2.77,0,0,1,2.026,1.794,6.7,6.7,0,0,1,.623,3.167c-.117,2.279-1.324,4.39-2.969,4.832a2.114,2.114,0,0,1-1.8-.334C300.2,168.677,300.141,168.423,300.18,168.4Z" transform="translate(-300.169 -159.491)" fill="#7c5142"/></g><g transform="translate(2.725 14.562)"><g transform="translate(0.205 0.086)"><path d="M301.054,176.564a2.227,2.227,0,1,1-.533.153" transform="translate(-299.182 -176.54)" fill="#fff"/></g><path d="M300.407,176.668a3.047,3.047,0,0,0-1.06,1.491,1.917,1.917,0,0,0,.391,1.788,1.979,1.979,0,0,0,3.511-1.009,1.919,1.919,0,0,0-.618-1.723,3.044,3.044,0,0,0-1.691-.7c-.006-.028.177-.112.534-.11a2.309,2.309,0,0,1,1.4.534,2.261,2.261,0,0,1,.85,2.066,2.431,2.431,0,0,1-4.346,1.249,2.265,2.265,0,0,1-.377-2.2,2.312,2.312,0,0,1,.9-1.194C300.2,176.667,300.4,176.641,300.407,176.668Z" transform="translate(-298.863 -176.406)" fill="#263238"/></g></g><g transform="translate(54.192 8.999)"><path d="M275.188,100.246c.225.089,1.271-3.746,4.423-7.3,3.1-3.606,6.76-5.159,6.642-5.37a6.289,6.289,0,0,0-2.387.955,18.351,18.351,0,0,0-8.053,9.225A6.323,6.323,0,0,0,275.188,100.246Z" transform="translate(-275.166 -87.557)" fill="#455a64"/></g></g><g transform="translate(50.231 190.052)"><g transform="translate(9.597 26.002)"><path d="M98.3,345.728,89.859,335.8s-5.927,0-8.89-2.815-8.445-5.482-6.222-10.519c0,0-2.664-3.111-.517-6.519l.072-.889s-6.667-2.815-4.741-6.223,5.63-1.926,5.63-1.926-7.28-4.919-8.593-6.267c-3.508-3.6.264-6.029,4.166-3.872,6.455,3.569,28.279,13.843,29.761,21.25v3.227s6.075,7.44,6.075,7.884S106.156,341.135,98.3,345.728Z" transform="translate(-65.207 -295.96)" fill="#af7e69"/></g><g transform="translate(0 0.137)"><path d="M50.232,256.414c-.267-.334,33.141,53.517,33.141,53.517L84.89,328h52.136l-4.837-20.568s-9.013-24.159-8.911-24.441c.2-.549-16.866-27.395-16.866-27.395Z" transform="translate(-50.231 -255.596)" fill="#fff"/></g><g transform="translate(0.001)"><path d="M50.233,256.337s.351-.017,1.022-.033l2.969-.062,11.315-.2,40.871-.658h.076l.04.064c4.466,7.042,9.377,14.76,14.466,23.1.632,1.045,1.267,2.1,1.879,3.181.152.272.3.543.443.831a1.966,1.966,0,0,1,.1.236.266.266,0,0,1,.018.117c-.013.084,0,.054.008.06s.006,0,.006,0l.016.054.138.438.615,1.772,2.613,7.186,5.514,14.875,0,.01,0,.01c1.467,6.239,3.007,12.782,4.574,19.442.089.377.177.755.265,1.125l.048.206h-.21l-52.136-.014h-.141l-.012-.14q-.789-9.481-1.5-18.07l.021.063L59.232,271.068,52.553,260.2l-1.742-2.868-.44-.739a1.756,1.756,0,0,1-.138-.256L83.494,309.78l.018.028,0,.035q.726,8.577,1.528,18.067l-.153-.14,52.136-.013-.163.205-.265-1.126-4.571-19.443.006.02-5.507-14.879-2.609-7.192q-.309-.893-.616-1.78l-.142-.454-.017-.058a.584.584,0,0,1-.015-.113v-.057c-.117-.051.17.039.1.017a.235.235,0,0,0-.089-.013c-.044,0-.01.027-.019.022l-.008-.021a1.538,1.538,0,0,0-.082-.193c-.132-.272-.283-.543-.433-.813-.607-1.076-1.242-2.13-1.871-3.174-5.077-8.337-9.978-16.063-14.43-23.112l.116.063-40.922.534-11.3.129-2.955.024C50.571,256.345,50.233,256.337,50.233,256.337Z" transform="translate(-50.232 -255.382)" fill="#263238"/></g><g transform="translate(22.634 28.056)"><path d="M131.3,299.98a2.47,2.47,0,0,1-.466.021l-1.333-.006-4.9-.093c-4.14-.094-9.858-.251-16.175-.354s-12.038-.09-16.175.041c-2.068.056-3.741.142-4.9.208l-1.331.077a2.4,2.4,0,0,1-.466,0,2.539,2.539,0,0,1,.46-.071l1.327-.139c1.154-.106,2.828-.227,4.9-.314,4.141-.192,9.867-.233,16.189-.138s12.038.3,16.177.451l4.9.2,1.332.069A2.409,2.409,0,0,1,131.3,299.98Z" transform="translate(-85.553 -299.166)" fill="#263238"/></g><g transform="translate(41.893 48.915)"><path d="M148.5,335.653c-.011.092-7.384-.714-16.467-1.8s-16.44-2.038-16.429-2.129,7.382.713,16.468,1.8S148.515,335.561,148.5,335.653Z" transform="translate(-115.608 -331.718)" fill="#263238"/></g><g transform="translate(26.751 48.639)"><g transform="translate(0 0.004)"><path d="M91.978,339.143l9.755-.621a4.237,4.237,0,0,0,2.868-.914,2.6,2.6,0,0,0-.668-3.621l-11.177-2.694" transform="translate(-91.978 -331.293)" fill="#af7e69"/></g><path d="M92.755,331.291a4.92,4.92,0,0,1,.864.149l2.361.518,7.991,1.867.022.006.018.01a2.321,2.321,0,0,1,.937,1.08,3.168,3.168,0,0,1,.289,1.424,2.032,2.032,0,0,1-.577,1.431,2.888,2.888,0,0,1-1.31.689,16.016,16.016,0,0,1-2.686.276l-4.519.252-3.048.141a7.162,7.162,0,0,1-1.121.006A7.341,7.341,0,0,1,93.09,339l3.041-.247,4.514-.323a16.435,16.435,0,0,0,2.621-.285,2.58,2.58,0,0,0,1.164-.613,1.706,1.706,0,0,0,.473-1.2,2.507,2.507,0,0,0-1.05-2.2l.04.015-7.964-1.978-2.338-.614A5.026,5.026,0,0,1,92.755,331.291Z" transform="translate(-91.978 -331.287)" fill="#7c5142"/></g><g transform="translate(22.634 45.137)"><g transform="translate(0 0.005)"><path d="M94.191,325.83a48.036,48.036,0,0,1,8.665,2.443,1.922,1.922,0,0,1,1.281,2.235,1.553,1.553,0,0,1-.641,1.193,3.1,3.1,0,0,1-1.367.378,35.369,35.369,0,0,1-8.292-.5c-2.794-.386-6.665,0-8.284.855" transform="translate(-85.553 -325.83)" fill="#af7e69"/></g><path d="M85.553,332.426a1.154,1.154,0,0,1,.276-.167,6.38,6.38,0,0,1,.859-.333,15.736,15.736,0,0,1,3.33-.574,20.548,20.548,0,0,1,2.336-.049,25.762,25.762,0,0,1,2.665.274,35.712,35.712,0,0,0,6.062.4,13.243,13.243,0,0,0,1.572-.144,1.479,1.479,0,0,0,1.148-.722,1.994,1.994,0,0,0-.52-2.454,6.413,6.413,0,0,0-1.222-.528l-1.216-.436c-.788-.272-1.527-.509-2.206-.711-1.358-.4-2.474-.677-3.247-.859a10.372,10.372,0,0,1-1.2-.3,1.18,1.18,0,0,1,.32.025c.208.026.513.076.9.145.783.143,1.912.381,3.285.759.687.189,1.435.413,2.23.676l1.228.422a6.435,6.435,0,0,1,1.3.55,1.9,1.9,0,0,1,.825,1.281,2.717,2.717,0,0,1-.185,1.573,1.42,1.42,0,0,1-.588.624,2.638,2.638,0,0,1-.788.277,13.158,13.158,0,0,1-1.623.152,34.194,34.194,0,0,1-6.118-.43c-.934-.132-1.807-.27-2.636-.3a21.873,21.873,0,0,0-2.309.008,17.747,17.747,0,0,0-3.31.465C85.956,332.245,85.567,332.453,85.553,332.426Z" transform="translate(-85.553 -325.823)" fill="#7c5142"/></g><g transform="translate(18.868 37.058)"><g transform="translate(0 0.002)"><path d="M80.888,313.216l7.689,4.289a7.827,7.827,0,0,1,3.068,2.479,2.691,2.691,0,0,1-.477,3.573,3.853,3.853,0,0,1-3.036.1,74.541,74.541,0,0,1-8.457-2.687" transform="translate(-79.676 -313.216)" fill="#af7e69"/></g><path d="M79.676,320.969a7.9,7.9,0,0,1,1.08.336c.689.231,1.686.568,2.928.951s2.728.811,4.394,1.226a4.742,4.742,0,0,0,2.566.145,1.779,1.779,0,0,0,.991-.809,2.444,2.444,0,0,0,.293-1.324,3.4,3.4,0,0,0-1.235-2.39,11.96,11.96,0,0,0-2.209-1.477l-3.975-2.257-2.666-1.547a7.368,7.368,0,0,1-.955-.607,7.438,7.438,0,0,1,1.018.494l2.718,1.455,4.009,2.2a11.978,11.978,0,0,1,2.279,1.5A4.558,4.558,0,0,1,91.846,320a3.333,3.333,0,0,1,.415,1.476,2.769,2.769,0,0,1-.339,1.505,2.11,2.11,0,0,1-1.173.953A4.979,4.979,0,0,1,88,323.782c-1.669-.434-3.154-.887-4.39-1.3s-2.224-.784-2.9-1.053c-.338-.136-.6-.244-.775-.323A.992.992,0,0,1,79.676,320.969Z" transform="translate(-79.676 -313.214)" fill="#7c5142"/></g></g><g transform="translate(234.57 261.191)"><path d="M356.423,385.6l-3.654-1.034-11.614-1.084-3.248-4.317,2.263-9.316,14.512-3.451C361.386,371.167,359.576,379.113,356.423,385.6Z" transform="translate(-337.908 -366.4)" fill="#af7e69"/></g><g transform="translate(211.143 254.158)"><g transform="translate(0 2.728)"><g transform="translate(0.152 0.054)"><path d="M309.6,359.833a9.986,9.986,0,0,0-4.076.32,5.41,5.41,0,0,0-3.229,4.229c-.375,2.988-.493,5.41-.707,8.192a2.62,2.62,0,0,0,.759,1.965c.913.933,2.574.621,3.517-.281a8.719,8.719,0,0,0,1.822-3.424c.454-1.224.937-4.154,1.646-4.409,2.022-.729,4.773,2.753,6.294,1.044l2.757-6.726C314.115,360.323,313.878,360.252,309.6,359.833Z" transform="translate(-301.586 -359.766)" fill="#af7e69"/></g><path d="M309.519,359.8a.5.5,0,0,1,.157,0l.456.028,1.751.145,6.43.618.163.015-.062.152-2.73,6.738-.009.022-.018.021a1.571,1.571,0,0,1-1.324.517,4.2,4.2,0,0,1-1.364-.412,14.873,14.873,0,0,0-2.587-1.125l-.341-.054-.34,0a2.755,2.755,0,0,0-.328.067c-.118.022-.144.068-.226.151a4.534,4.534,0,0,0-.571,1.315c-.3.959-.494,1.972-.857,2.976a12.159,12.159,0,0,1-1.188,2.613,4.047,4.047,0,0,1-.989,1.048,3.324,3.324,0,0,1-1.316.552,2.536,2.536,0,0,1-1.41-.122,2.275,2.275,0,0,1-1.041-.926,2.753,2.753,0,0,1-.426-1.286c-.01-.469.054-.854.076-1.278.124-1.654.233-3.23.377-4.7q.107-1.1.235-2.127a5.722,5.722,0,0,1,.5-1.934,5.174,5.174,0,0,1,4.8-3.117,12.164,12.164,0,0,1,1.622.031c.185.017.325.033.419.047a.454.454,0,0,1,.141.03,4.813,4.813,0,0,1-.564-.01,15.179,15.179,0,0,0-1.61.032,5.511,5.511,0,0,0-2.413.647,5.362,5.362,0,0,0-2.177,2.438,5.475,5.475,0,0,0-.463,1.866q-.117,1.02-.215,2.122c-.132,1.468-.23,3.042-.345,4.7-.019.4-.082.855-.069,1.237a2.443,2.443,0,0,0,.383,1.135,1.953,1.953,0,0,0,.893.8,2.219,2.219,0,0,0,1.23.1,3.174,3.174,0,0,0,2.088-1.464,11.957,11.957,0,0,0,1.15-2.543c.349-.961.547-1.983.854-2.958a4.7,4.7,0,0,1,.636-1.43.8.8,0,0,1,.167-.156.546.546,0,0,1,.213-.1,2.872,2.872,0,0,1,.4-.079c.133,0,.266-.006.4,0l.383.062a14.819,14.819,0,0,1,2.648,1.155,3.929,3.929,0,0,0,1.255.39,1.257,1.257,0,0,0,1.075-.409l-.027.044,2.785-6.715.1.167c-2.714-.277-4.905-.549-6.419-.725l-1.745-.21-.453-.062A.549.549,0,0,1,309.519,359.8Z" transform="translate(-301.348 -359.681)" fill="#7c5142"/></g><g transform="translate(4.05)"><g transform="translate(0.137 0.091)"><path d="M336.352,359.179a4.082,4.082,0,0,0-3.387.97s-.729-3.2-3.287-3.834c-1.857-.458-4.219,1.448-4.219,1.448s-1.6-3.205-5.876-1.87c-3.535,1.1-10.952,23.031-11.589,24.5-.729,1.683,2.269,3.791,3.923,2.092,1.733-1.78,7.56-11.519,7.56-11.519L315.6,384.626a2.615,2.615,0,0,0,.038,1.35,2.848,2.848,0,0,0,5.083.4c2.4-3.257,4.854-9.969,4.854-9.969l2.362-5.151s-4.409,13.647-2.807,14.89,3.66.763,5.129-2.443,6.812-13.355,6.812-13.355l2.538-1.335-.935,3.205s-4.86,2.538-3.766,4.808,3.386,1.6,5.636.534,4.209-6.334,5.411-8.5c1.075-1.94,1.178-7.646-3.43-7.863a3.521,3.521,0,0,0-2.639,1.051l-.23.23S338.9,359.633,336.352,359.179Z" transform="translate(-307.882 -355.567)" fill="#af7e69"/></g><path d="M336.275,359.128s.1.016.3.061a1.835,1.835,0,0,1,.371.113,2.857,2.857,0,0,1,.494.225,4.941,4.941,0,0,1,2.188,2.884l-.087-.023a3.786,3.786,0,0,1,2.363-1.291,4.291,4.291,0,0,1,3.128.959,5.149,5.149,0,0,1,1.521,3.517,8.023,8.023,0,0,1-.136,2.15,5.207,5.207,0,0,1-.34,1.083c-.158.361-.352.674-.517,1.03-.682,1.391-1.339,2.9-2.181,4.4a14.469,14.469,0,0,1-1.471,2.206,5.31,5.31,0,0,1-1.011.95,8.3,8.3,0,0,1-1.267.62,6.182,6.182,0,0,1-2.834.585,2.406,2.406,0,0,1-1.392-.616,2.957,2.957,0,0,1-.495-.6l-.19-.339c-.047-.126-.086-.257-.128-.386a2.189,2.189,0,0,1,.311-1.548,5.427,5.427,0,0,1,1.012-1.216,13.278,13.278,0,0,1,2.618-1.845l-.068.083.931-3.206.2.165-2.536,1.338.06-.06-3.929,7.579q-.992,1.968-2.012,3.993-.493,1.021-.992,2.057a7.057,7.057,0,0,1-1.341,1.936,3.048,3.048,0,0,1-2.2.955,2.792,2.792,0,0,1-1.194-.344,3.075,3.075,0,0,1-.522-.347,1.129,1.129,0,0,1-.306-.612,8.032,8.032,0,0,1,.046-2.443c.108-.8.258-1.6.424-2.4.685-3.184,1.6-6.372,2.611-9.587l.308.12-2.361,5.151.005-.012c-.538,1.449-1.169,2.978-1.853,4.5-.508,1.121-1.043,2.225-1.634,3.294q-.444.8-.941,1.571a6.21,6.21,0,0,1-1.187,1.424,2.93,2.93,0,0,1-1.746.679,3.154,3.154,0,0,1-1.783-.54,2.655,2.655,0,0,1-1.136-1.471,2.779,2.779,0,0,1-.077-.934,4.533,4.533,0,0,1,.2-.886c1.284-4.522,2.535-8.926,3.743-13.178l.29.125q-2.225,3.691-4.455,7.158c-.75,1.151-1.5,2.282-2.3,3.364a4.928,4.928,0,0,1-1.436,1.453,2.4,2.4,0,0,1-2.026.017,2.9,2.9,0,0,1-1.48-1.348,1.8,1.8,0,0,1-.158-1.019c.092-.359.219-.616.326-.921l1.285-3.5c.849-2.3,1.689-4.509,2.536-6.625s1.695-4.136,2.563-6.043a47.744,47.744,0,0,1,2.765-5.319,8.46,8.46,0,0,1,1.764-2.156,1.948,1.948,0,0,1,.613-.33l.644-.165a6.726,6.726,0,0,1,1.291-.138,4.507,4.507,0,0,1,3.986,2.248l-.128-.028a7.906,7.906,0,0,1,2.8-1.417,3.205,3.205,0,0,1,1.415-.045,3.562,3.562,0,0,1,1.2.517,4.869,4.869,0,0,1,1.508,1.682,7.1,7.1,0,0,1,.684,1.706l-.068-.026a4.989,4.989,0,0,1,2.538-1.011,2.156,2.156,0,0,1,.875.076s-.07-.015-.214-.031a3.149,3.149,0,0,0-.657,0,5.034,5.034,0,0,0-2.49,1.037l-.051.038-.017-.063a7.057,7.057,0,0,0-.693-1.671,4.771,4.771,0,0,0-1.484-1.628,3.438,3.438,0,0,0-1.155-.489,3.059,3.059,0,0,0-1.351.054,7.775,7.775,0,0,0-2.727,1.4l-.079.06-.049-.088a4.332,4.332,0,0,0-3.835-2.128,6.532,6.532,0,0,0-1.25.14l-.626.163a1.741,1.741,0,0,0-.548.3,8.309,8.309,0,0,0-1.7,2.108,47.7,47.7,0,0,0-2.731,5.3c-.86,1.905-1.7,3.924-2.54,6.039S310.4,374,309.558,376.3l-1.278,3.506c-.1.292-.245.611-.31.871a1.511,1.511,0,0,0,.136.844,2.611,2.611,0,0,0,1.33,1.2,2.106,2.106,0,0,0,1.778-.012,4.726,4.726,0,0,0,1.328-1.367c.788-1.072,1.536-2.2,2.282-3.351,1.487-2.3,2.962-4.7,4.441-7.154l.615-1.024-.325,1.149c-1.2,4.251-2.451,8.654-3.731,13.175a4.29,4.29,0,0,0-.192.831,2.442,2.442,0,0,0,.068.823,2.337,2.337,0,0,0,1,1.277,2.822,2.822,0,0,0,1.589.483,2.6,2.6,0,0,0,1.547-.6,5.955,5.955,0,0,0,1.118-1.349q.487-.755.927-1.549c.584-1.059,1.117-2.155,1.621-3.27.68-1.512,1.31-3.041,1.844-4.477l0-.007,0-.006,2.363-5.15.308.12c-1.009,3.2-1.924,6.389-2.607,9.553-.167.791-.315,1.583-.422,2.372a7.837,7.837,0,0,0-.054,2.329.847.847,0,0,0,.2.441,2.772,2.772,0,0,0,.464.307,2.472,2.472,0,0,0,1.055.308,2.733,2.733,0,0,0,1.971-.864c1.09-1.057,1.566-2.57,2.274-3.9l2.02-3.993,3.944-7.575.021-.04.04-.021,2.539-1.333.295-.154-.094.319-.939,3.2-.016.054-.052.029a13.022,13.022,0,0,0-2.563,1.8,5.2,5.2,0,0,0-.967,1.153,1.93,1.93,0,0,0-.285,1.359,2.344,2.344,0,0,0,1.98,1.749,5.97,5.97,0,0,0,2.715-.56,8.112,8.112,0,0,0,1.227-.592,5.13,5.13,0,0,0,.966-.9,14.289,14.289,0,0,0,1.455-2.165c.841-1.49,1.5-2.987,2.195-4.381.163-.349.374-.69.519-1.021a5.049,5.049,0,0,0,.332-1.041,7.878,7.878,0,0,0,.144-2.1,4.99,4.99,0,0,0-1.447-3.414,4.157,4.157,0,0,0-3.01-.945,3.679,3.679,0,0,0-2.3,1.235l-.06.065-.028-.089a4.342,4.342,0,0,0-3.258-3.309Z" transform="translate(-307.668 -355.424)" fill="#7c5142"/><g transform="translate(19.581 9.111)"><path d="M341.242,369.643a15.8,15.8,0,0,1-1.222,4.273c-.443,1.145-.88,2.165-1.2,2.9a5.432,5.432,0,0,1-.581,1.168,27.943,27.943,0,0,1,1.473-4.187c.44-1.141.82-2.177,1.077-2.935A6.354,6.354,0,0,1,341.242,369.643Z" transform="translate(-338.226 -369.643)" fill="#7c5142"/></g><g transform="translate(11.615 7.736)"><path d="M329.193,367.5c.088.044-.726,1.837-1.626,4.09a27.162,27.162,0,0,1-1.765,4.037,5.277,5.277,0,0,1,.368-1.241c.264-.752.633-1.789,1.087-2.921s.916-2.135,1.278-2.848A4.782,4.782,0,0,1,329.193,367.5Z" transform="translate(-325.794 -367.497)" fill="#7c5142"/></g></g></g></g></svg>