<svg xmlns="http://www.w3.org/2000/svg" width="157" height="114.307" viewBox="0 0 157 114.307"><g transform="translate(-285 -7765)"><rect width="157" height="114" transform="translate(285 7765)" fill="#fcc843"/><g transform="translate(287.212 7750.886)"><g transform="translate(27.434 45.451)"><g transform="translate(64.858 0)"><g transform="translate(0 22.953)"><g transform="translate(0.08 0.086)"><path d="M330.276,218.869a5.989,5.989,0,0,1-1.567.261l-.641,1.326-2.374-.549.007-1.473a5.963,5.963,0,0,1-1.293-.923l-1.39.485-1.29-2.067,1.046-1.036a5.956,5.956,0,0,1-.261-1.567l-1.326-.641.549-2.374,1.473.006a5.976,5.976,0,0,1,.923-1.293l-.485-1.39,2.067-1.291,1.036,1.046a5.963,5.963,0,0,1,1.567-.261l.641-1.326,2.374.549-.007,1.473a5.977,5.977,0,0,1,1.293.923l1.39-.484,1.29,2.067-1.046,1.036a5.944,5.944,0,0,1,.261,1.567l1.326.641-.549,2.374-1.473-.007a5.976,5.976,0,0,1-.923,1.293l.484,1.39-2.067,1.29-1.036-1.045ZM329.8,215.4a2.614,2.614,0,1,0-3.6-.833A2.614,2.614,0,0,0,329.8,215.4Z" transform="translate(-321.186 -205.802)" fill="none"/></g><g transform="translate(4.629 4.785)"><path d="M345.668,231.791a1.973,1.973,0,0,1-.576.3,2.6,2.6,0,0,1-1.752-.022,2.634,2.634,0,0,1-1.025-.681,2.677,2.677,0,0,1-.653-1.252,2.68,2.68,0,0,1,.128-1.554,2.667,2.667,0,0,1,2.695-1.683,2.679,2.679,0,0,1,1.453.567,2.676,2.676,0,0,1,.838,1.137,2.633,2.633,0,0,1,.161,1.219,2.6,2.6,0,0,1-.749,1.584,1.97,1.97,0,0,1-.519.387c-.011-.015.195-.128.477-.427a2.6,2.6,0,0,0,.686-1.553,2.553,2.553,0,0,0-.979-2.237,2.551,2.551,0,0,0-1.378-.53,2.532,2.532,0,0,0-2.547,1.59,2.555,2.555,0,0,0-.129,1.471,2.554,2.554,0,0,0,1.58,1.862,2.606,2.606,0,0,0,1.7.066C345.467,231.91,345.66,231.775,345.668,231.791Z" transform="translate(-341.601 -226.887)" fill="#e0e0e0"/></g><path d="M330,218.569a.526.526,0,0,1,.068.061l.2.194.785.773-.03,0,2.059-1.3-.016.045-.49-1.388-.009-.025.018-.02a5.965,5.965,0,0,0,.911-1.286l.014-.026h.03l1.473,0-.052.041.544-2.375.032.066-1.328-.638-.034-.016v-.038a5.929,5.929,0,0,0-.261-1.55l-.012-.037.028-.028,1.044-1.038-.01.083L333.67,208l.082.029-1.39.486-.041.014-.032-.029a5.938,5.938,0,0,0-1.278-.91l-.039-.02v-.044c0-.461,0-.965.006-1.473l.057.072-2.374-.548.084-.04-.64,1.326-.02.041h-.045a5.909,5.909,0,0,0-1.546.257h0l-.076-.019h0l0,0,0,0-.008-.008-.016-.016-.033-.033-.065-.066-.13-.131-.26-.262-.517-.521.093.011-2.067,1.29.031-.087.484,1.39.015.042-.031.033a5.9,5.9,0,0,0-.912,1.277l-.021.039h-.044l-1.473-.008.07-.055-.551,2.373-.037-.078,1.325.642.037.018v.041a5.912,5.912,0,0,0,.256,1.55l.012.038-.028.028-1.047,1.034.009-.077,1.286,2.07-.068-.024,1.391-.481.031-.011.024.022a5.949,5.949,0,0,0,1.28.918l.027.014v.03l-.012,1.473-.034-.043,2.372.56-.038.018.649-1.322.006-.013h.014a6.2,6.2,0,0,0,1.185-.146l.287-.069a.573.573,0,0,1,.1-.022.783.783,0,0,1-.092.034c-.062.02-.157.049-.285.081a5.775,5.775,0,0,1-1.189.17l.021-.014-.632,1.33-.012.024-.026-.006-2.377-.539-.034-.008v-.036c0-.456,0-.938,0-1.473l.026.044a6.021,6.021,0,0,1-1.307-.927l.054.012-1.389.488-.043.015-.025-.039-1.294-2.065-.027-.042.035-.035,1.044-1.038-.016.065a6.027,6.027,0,0,1-.266-1.584l.038.058-1.327-.639-.05-.024.012-.054.547-2.374.013-.055h.057l1.473.006-.064.039a6.04,6.04,0,0,1,.933-1.31l-.016.074-.485-1.39-.02-.056.05-.031,2.067-1.291.051-.032.042.043.517.521.26.262.13.131.065.066.033.033.016.016.008.008,0,0,0,0h0l-.075-.019h0a6.044,6.044,0,0,1,1.585-.264l-.065.042.641-1.326.026-.054.058.013,2.374.55.057.013v.059c0,.508-.005,1.012-.008,1.473l-.039-.064a6.088,6.088,0,0,1,1.308.935l-.072-.015,1.391-.483.053-.018.029.047,1.288,2.069.028.045-.038.038-1.047,1.035.016-.065a6.037,6.037,0,0,1,.261,1.584l-.035-.054,1.325.643.043.021-.011.046-.554,2.372-.01.042h-.043l-1.473-.011.044-.026a6.03,6.03,0,0,1-.934,1.3l.009-.045.479,1.392.01.029-.026.016-2.074,1.278-.016.01-.013-.014-.76-.784-.195-.2A.755.755,0,0,1,330,218.569Z" transform="translate(-320.828 -205.416)" fill="#e0e0e0"/></g><g transform="translate(1.169)"><path d="M338.926,120.9a8.45,8.45,0,0,1-2.215.369l-.906,1.875-3.357-.777.009-2.082a8.445,8.445,0,0,1-1.829-1.3l-1.966.685-1.824-2.922,1.478-1.465a8.436,8.436,0,0,1-.369-2.216l-1.875-.906.776-3.356,2.082.009a8.443,8.443,0,0,1,1.3-1.829l-.685-1.966,2.923-1.825,1.465,1.479a8.424,8.424,0,0,1,2.215-.369l.906-1.875,3.357.776-.01,2.083a8.469,8.469,0,0,1,1.829,1.3l1.966-.685,1.825,2.923-1.478,1.465a8.426,8.426,0,0,1,.369,2.216l1.875.906-.776,3.356-2.083-.009a8.443,8.443,0,0,1-1.3,1.829l.685,1.965-2.923,1.824-1.466-1.478Zm-.669-4.9a3.7,3.7,0,1,0-5.092-1.178A3.7,3.7,0,0,0,338.257,116Z" transform="translate(-326.073 -102.421)" fill="#e0e0e0" fill-rule="evenodd"/></g><g transform="translate(15.092 19.748)"><path d="M395.388,200.863a4.5,4.5,0,0,1-1.179.2l-.482,1-1.786-.413,0-1.108a4.489,4.489,0,0,1-.973-.694l-1.046.365-.971-1.555.786-.78a4.482,4.482,0,0,1-.2-1.179l-1-.482.413-1.785,1.108,0a4.5,4.5,0,0,1,.694-.973l-.365-1.046,1.555-.971.78.787a4.478,4.478,0,0,1,1.179-.2l.482-1,1.786.413-.005,1.108a4.5,4.5,0,0,1,.973.694l1.046-.364.971,1.555-.787.779a4.482,4.482,0,0,1,.2,1.179l1,.482-.413,1.786-1.108,0a4.493,4.493,0,0,1-.694.973l.364,1.046-1.555.971-.78-.786Zm-.356-2.606a1.966,1.966,0,1,0-2.709-.626A1.966,1.966,0,0,0,395.032,198.257Z" transform="translate(-388.55 -191.034)" fill="#ebebeb" fill-rule="evenodd"/></g></g><g transform="translate(13.64 9.856)"><g transform="translate(0.011)"><path d="M95.8,146.65c.023.023-1.022,1.093-2.334,2.391s-2.393,2.331-2.416,2.308,1.022-1.093,2.334-2.391S95.778,146.627,95.8,146.65Z" transform="translate(-91.051 -146.649)" fill="#e0e0e0"/></g><g transform="translate(0 0.012)"><path d="M95.773,151.378c-.023.023-1.109-1.006-2.426-2.3S90.979,146.724,91,146.7s1.109,1.005,2.427,2.3S95.8,151.355,95.773,151.378Z" transform="translate(-91 -146.701)" fill="#e0e0e0"/></g></g><g transform="translate(16.947 38.883)"><g transform="translate(0.236)"><path d="M112.844,277.53c0,.032-1.337-.083-2.978-.256s-2.969-.34-2.966-.371,1.336.083,2.978.256S112.847,277.5,112.844,277.53Z" transform="translate(-106.9 -276.897)" fill="#e0e0e0"/></g><g transform="translate(0 2.239)"><path d="M111.783,287.575c0,.032-1.337-.083-2.978-.256s-2.969-.339-2.966-.371,1.336.083,2.978.256S111.787,287.543,111.783,287.575Z" transform="translate(-105.84 -286.942)" fill="#e0e0e0"/></g></g><g transform="translate(0 34.597)"><path d="M36.615,257.67s-1.765-.127-1.6,3.832a45.844,45.844,0,0,0,.566,6.067s-.052.878-.732.706-1.959-1.027-2.59-.388c-.655.662-.422,1.678.447,2.874s2.676,3.888,2.839,4.132.224.689-.258.645-3.735-1.146-4.165.429,2.537,4.51,2.856,4.837.335.534.206.731-1.188-.276-2.126-.551-2.074-.431-2.246.5,1.135,3.649,6.031,6.508l2.355,1.176,2.229-1.422c4.585-3.334,5.614-6.171,5.35-7.079s-1.379-.639-2.285-.271-1.911.945-2.06.761-.152-.391.132-.749,2.944-3.575,2.358-5.1-3.712-.1-4.187-.01-.456-.362-.322-.616,1.667-3.118,2.411-4.395.875-2.311.157-2.9c-.692-.572-1.879.406-2.538.645s-.8-.629-.8-.629a45.847,45.847,0,0,0-.043-6.094c-.234-3.955-2.02-3.636-2.02-3.636" transform="translate(-29.794 -257.664)" fill="#ebebeb"/><g transform="translate(6.959 3.552)"><path d="M61.023,273.6s0,.028.009.083l.019.243c.015.218.036.532.064.935.054.812.123,1.987.2,3.44.162,2.905.35,6.921.544,11.356s.372,8.452.517,11.358c.074,1.45.133,2.625.175,3.441.02.4.036.718.047.936,0,.1.008.185.01.243s0,.083,0,.083,0-.028-.009-.082l-.019-.243c-.015-.218-.036-.532-.064-.935-.054-.812-.123-1.987-.2-3.44-.161-2.905-.35-6.921-.544-11.358s-.372-8.45-.517-11.356c-.074-1.45-.133-2.625-.175-3.441-.02-.4-.036-.718-.047-.936,0-.1-.008-.185-.01-.244S61.023,273.6,61.023,273.6Z" transform="translate(-61.022 -273.602)" fill="#e0e0e0"/></g><g transform="translate(4.203 11.49)"><path d="M48.655,309.221a.769.769,0,0,1,.146.122c.091.082.218.206.374.359.311.308.729.745,1.181,1.235l1.152,1.26.351.38a.767.767,0,0,1,.123.146.778.778,0,0,1-.148-.121c-.09-.083-.218-.206-.372-.361-.308-.311-.72-.753-1.172-1.243l-1.16-1.252-.353-.379A.77.77,0,0,1,48.655,309.221Z" transform="translate(-48.655 -309.221)" fill="#e0e0e0"/></g><g transform="translate(7.763 10.948)"><path d="M64.631,310.757c-.018-.017.844-.919,1.924-2.014s1.97-1.969,1.988-1.952-.844.919-1.924,2.015S64.649,310.775,64.631,310.757Z" transform="translate(-64.631 -306.791)" fill="#e0e0e0"/></g><g transform="translate(7.754 19.164)"><path d="M64.588,346.234a.806.806,0,0,1,.164-.1l.461-.259c.389-.218.925-.522,1.5-.878s1.094-.694,1.465-.942l.439-.293a.8.8,0,0,1,.168-.1.817.817,0,0,1-.147.128c-.1.077-.242.186-.423.317-.362.262-.872.61-1.454.967s-1.123.653-1.521.857c-.2.1-.361.181-.475.234A.8.8,0,0,1,64.588,346.234Z" transform="translate(-64.588 -343.659)" fill="#e0e0e0"/></g><g transform="translate(3.852 19.351)"><path d="M47.078,344.5a.7.7,0,0,1,.163.076c.1.054.248.135.427.237.359.2.851.491,1.392.812s1.028.617,1.378.835c.175.109.316.2.412.262a.694.694,0,0,1,.145.107.674.674,0,0,1-.163-.076c-.1-.054-.248-.135-.427-.237-.359-.2-.851-.491-1.392-.812s-1.028-.617-1.378-.835c-.175-.109-.316-.2-.413-.262A.686.686,0,0,1,47.078,344.5Z" transform="translate(-47.078 -344.495)" fill="#e0e0e0"/></g><g transform="translate(3.078 25.375)"><path d="M43.6,371.53a1.111,1.111,0,0,1,.207.1l.548.3c.461.259,1.094.622,1.791,1.027s1.326.777,1.779,1.05l.534.327a1.121,1.121,0,0,1,.189.131,1.124,1.124,0,0,1-.207-.1l-.548-.3c-.461-.259-1.095-.622-1.792-1.027s-1.326-.777-1.778-1.05l-.534-.327A1.147,1.147,0,0,1,43.6,371.53Z" transform="translate(-43.605 -371.53)" fill="#e0e0e0"/></g><g transform="translate(8.025 24.797)"><path d="M65.806,372.346a1.32,1.32,0,0,1,.2-.137l.573-.349c.483-.294,1.149-.7,1.872-1.175s1.368-.914,1.832-1.237l.55-.382a1.315,1.315,0,0,1,.208-.132,1.277,1.277,0,0,1-.187.16c-.124.1-.306.238-.534.406-.455.337-1.095.789-1.82,1.261s-1.4.873-1.889,1.154c-.246.14-.447.251-.587.324A1.272,1.272,0,0,1,65.806,372.346Z" transform="translate(-65.806 -368.933)" fill="#e0e0e0"/></g><g transform="translate(5.049 32.274)"><path d="M58.968,402.485H52.451l2.127,16.1h2.263Z" transform="translate(-52.451 -402.485)" fill="#e0e0e0"/><g transform="translate(0.338 1.315)"><path d="M53.968,409.051s.007.023.035.057a.413.413,0,0,0,.157.113.789.789,0,0,0,.688-.085,5.252,5.252,0,0,1,.845-.556,1.851,1.851,0,0,1,1.2.024,5.141,5.141,0,0,1,1.116.541,7.713,7.713,0,0,0,.907.487,2.507,2.507,0,0,0,.669.193,1.245,1.245,0,0,0,.189.013c.043,0,.066,0,.066-.005a3.407,3.407,0,0,1-.894-.269,8.922,8.922,0,0,1-.887-.5,4.954,4.954,0,0,0-1.135-.558,1.912,1.912,0,0,0-1.265-.014,1.66,1.66,0,0,0-.476.294,3.741,3.741,0,0,1-.373.289.766.766,0,0,1-.635.11A.642.642,0,0,1,53.968,409.051Z" transform="translate(-53.967 -408.387)" fill="#f5f5f5"/></g><g transform="translate(0.575 3.762)"><path d="M55.034,420.55c.008.005.051-.066.153-.173a1.448,1.448,0,0,1,.521-.33,2.326,2.326,0,0,1,.906-.137,9.532,9.532,0,0,1,1.134.154,3.9,3.9,0,0,0,1.161.048,3.2,3.2,0,0,0,.913-.261,2.915,2.915,0,0,0,.549-.327.793.793,0,0,0,.174-.157,5.824,5.824,0,0,1-.753.414,3.341,3.341,0,0,1-.9.232,4,4,0,0,1-1.133-.056,8.546,8.546,0,0,0-1.148-.147,2.3,2.3,0,0,0-.937.165,1.368,1.368,0,0,0-.523.372.933.933,0,0,0-.1.144C55.039,420.529,55.03,420.548,55.034,420.55Z" transform="translate(-55.033 -419.369)" fill="#f5f5f5"/></g><g transform="translate(0.945 6.082)"><path d="M61.524,430.227a.55.55,0,0,0-.18-.093,1.923,1.923,0,0,0-.54-.116,3.447,3.447,0,0,0-.817.047c-.3.049-.63.133-.972.206a4.1,4.1,0,0,1-.971.109,2.112,2.112,0,0,1-.77-.167,1.78,1.78,0,0,1-.585-.435.5.5,0,0,0,.11.17,1.379,1.379,0,0,0,.442.333,2.079,2.079,0,0,0,.8.2,3.928,3.928,0,0,0,1-.1c.346-.074.669-.16.967-.214a3.746,3.746,0,0,1,.8-.068A2.987,2.987,0,0,1,61.524,430.227Z" transform="translate(-56.69 -429.778)" fill="#f5f5f5"/></g><g transform="translate(1.151 8.386)"><path d="M57.618,440.493a1.057,1.057,0,0,1,.633-.064,3.048,3.048,0,0,1,.662.247,2.515,2.515,0,0,0,.859.237,2.579,2.579,0,0,0,1.559-.361,2.221,2.221,0,0,0,.388-.3c.079-.084.12-.133.115-.138a5.692,5.692,0,0,1-.54.371,2.67,2.67,0,0,1-1.512.32,12.415,12.415,0,0,1-1.518-.452.969.969,0,0,0-.492.043A.324.324,0,0,0,57.618,440.493Z" transform="translate(-57.618 -440.114)" fill="#f5f5f5"/></g><g transform="translate(1.515 10.954)"><path d="M59.248,452.54a1.248,1.248,0,0,0,.543-.108c.328-.109.733-.361,1.206-.549a1.96,1.96,0,0,1,.692-.145,1.275,1.275,0,0,1,.557.127,1.232,1.232,0,0,1,.4.347.3.3,0,0,0-.062-.137.9.9,0,0,0-.305-.276,1.279,1.279,0,0,0-.591-.159,1.943,1.943,0,0,0-.732.144c-.491.2-.883.454-1.2.578S59.245,452.523,59.248,452.54Z" transform="translate(-59.248 -451.64)" fill="#f5f5f5"/></g><g transform="translate(1.834 13.288)"><path d="M60.681,462.116a1.519,1.519,0,0,0,.413.134,7.59,7.59,0,0,0,2.077.2,1.52,1.52,0,0,0,.431-.051c0-.032-.66,0-1.466-.085S60.689,462.085,60.681,462.116Z" transform="translate(-60.681 -462.112)" fill="#f5f5f5"/></g></g></g></g><g transform="translate(26.757 128.103)"><path d="M125.818,473.362c0,.032-22.178.058-49.528.058s-49.533-.026-49.533-.058S48.93,473.3,76.29,473.3,125.818,473.33,125.818,473.362Z" transform="translate(-26.757 -473.304)" fill="#263238"/></g><g transform="translate(51.273 29.114)"><g transform="translate(0)"><g transform="translate(3.474 22.894)"><path d="M152.355,138.335s.607-3.635.751-3.912a13,13,0,0,1,2.018-2.011c.2-.035,2.839-.864,2.693-.452s-2,.968-2,.968l-.176.221a12.442,12.442,0,0,1,1.977-.5c.362.012.427.388.144.5s-1.679.515-1.73.6,1.554-.372,1.755-.363c.271.012.468.355.191.472-.164.069-1.716.425-1.716.425a13.641,13.641,0,0,1,1.441-.112c.239.065.219.354-.044.424-.18.048-1.128.088-1.369.153,0,0-.179.153-.173.633a6.825,6.825,0,0,1-.617,1.759Z" transform="translate(-152.355 -131.846)" fill="#ffbe9d"/><g transform="translate(2.57 0.122)"><path d="M166.777,132.393a1.332,1.332,0,0,1-.388.338,3.154,3.154,0,0,1-.495.271c-.2.074-.415.149-.643.228l-.487.165.026-.016a7.774,7.774,0,0,1-.9.836,7.615,7.615,0,0,1,.816-.914l.01-.01.016-.006.481-.168.64-.217a3.9,3.9,0,0,0,.49-.24C166.613,132.5,166.765,132.379,166.777,132.393Z" transform="translate(-163.888 -132.392)" fill="#eb996e"/></g></g><g transform="translate(2.718)"><path d="M203.02,99.727l-35.973-3.706a2,2,0,0,1-1.787-2.2l6.23-60.479a2.845,2.845,0,0,1,3.122-2.538l34.3,3.533a2.845,2.845,0,0,1,2.538,3.122l-6.23,60.479A2,2,0,0,1,203.02,99.727Z" transform="translate(-161.619 -30.418)" fill="#e8505b"/><path d="M203.02,99.727l-35.973-3.706a2,2,0,0,1-1.787-2.2l6.23-60.479a2.845,2.845,0,0,1,3.122-2.538l34.3,3.533a2.845,2.845,0,0,1,2.538,3.122l-6.23,60.479A2,2,0,0,1,203.02,99.727Z" transform="translate(-161.619 -30.418)" opacity="0.4"/><path d="M186.733,98.049l-35.974-3.706a2,2,0,0,1-1.787-2.2l6.23-60.479a2.845,2.845,0,0,1,3.121-2.538l34.3,3.533a2.845,2.845,0,0,1,2.538,3.122l-6.23,60.479A2,2,0,0,1,186.733,98.049Z" transform="translate(-148.962 -29.114)" fill="#e8505b"/><g transform="translate(5.923 51.141)"><rect width="13.549" height="5.986" rx="2.42" transform="translate(0.613 0) rotate(5.882)" fill="#e8505b"/></g><g transform="translate(5.923 51.141)" opacity="0.4"><rect width="13.549" height="5.986" rx="2.42" transform="translate(0.613 0) rotate(5.882)"/></g><g transform="translate(7.305 6.712)"><g transform="translate(0.061 0.064)"><rect width="13.471" height="34.343" transform="translate(0 13.401) rotate(-84.118)" fill="#fafafa"/></g><path d="M215.964,76.217s.006-.082.021-.239l.067-.694.264-2.663.988-9.809.036.044-34.161-3.5h0l.064-.052-1.383,13.4-.05-.061,24.481,2.548,7.109.748,1.9.2.493.054c.111.013.169.021.169.021s-.054,0-.163-.013l-.487-.047-1.893-.188-7.1-.716-24.524-2.5-.055-.006.006-.055c.431-4.186.9-8.714,1.378-13.4l.006-.058.058.006h0l34.158,3.537.04,0,0,.04c-.438,4.161-.791,7.514-1.034,9.829-.123,1.151-.218,2.044-.283,2.652l-.075.686C215.974,76.141,215.964,76.217,215.964,76.217Z" transform="translate(-181.741 -59.234)" fill="#263238"/></g><g transform="translate(7.23 25.625)"><g transform="translate(0.897 0.092)"><rect width="5.837" height="5.837" rx="2.082" transform="translate(0.598 0) rotate(5.882)" fill="#e8505b"/></g><g transform="translate(0.897 0.092)" opacity="0.4"><rect width="5.837" height="5.837" rx="2.082" transform="translate(0.598 0) rotate(5.882)"/></g><g transform="translate(0 0)"><rect width="5.837" height="5.837" rx="2.082" transform="matrix(0.995, 0.102, -0.102, 0.995, 0.598, 0)" fill="#263238"/></g><g transform="translate(2.649 1.9)"><path d="M194.382,152.732l-.249,2.42-.56-.058.2-1.97-.484-.05.046-.449Z" transform="translate(-193.292 -152.625)" fill="#fff"/></g></g><g transform="translate(15.327 26.459)"><g transform="translate(0.897 0.092)"><rect width="5.837" height="5.837" rx="2.082" transform="matrix(0.995, 0.102, -0.102, 0.995, 0.598, 0)" fill="#e8505b"/></g><g transform="translate(0.897 0.092)" opacity="0.4"><rect width="5.837" height="5.837" rx="2.082" transform="matrix(0.995, 0.102, -0.102, 0.995, 0.598, 0)"/></g><g transform="translate(0 0)"><rect width="5.837" height="5.837" rx="2.082" transform="matrix(0.995, 0.102, -0.102, 0.995, 0.598, 0)" fill="#263238"/></g><g transform="translate(2.536 1.947)"><path d="M230.994,158.693l-.047.456-1.829-.189.037-.363,1.024-.786c.235-.182.286-.3.3-.42.02-.19-.1-.314-.356-.341a.6.6,0,0,0-.527.191l-.381-.305a1.13,1.13,0,0,1,1.007-.35c.539.055.87.369.825.808a.971.971,0,0,1-.483.722l-.611.468Z" transform="translate(-229.118 -156.579)" fill="#fff"/></g></g><g transform="translate(23.721 27.323)"><g transform="translate(0.897 0.092)"><rect width="5.837" height="5.837" rx="2.082" transform="translate(0.598 0) rotate(5.882)" fill="#e8505b"/></g><g transform="translate(0.897 0.092)" opacity="0.4"><rect width="5.837" height="5.837" rx="2.082" transform="translate(0.598 0) rotate(5.882)"/></g><g transform="translate(0 0)"><rect width="5.837" height="5.837" rx="2.082" transform="translate(0.598 0) rotate(5.882)" fill="#263238"/></g><g transform="translate(2.441 1.91)"><path d="M268.336,162.157c-.042.408-.4.749-1.083.678a1.675,1.675,0,0,1-.9-.354l.262-.406a1.182,1.182,0,0,0,.669.289c.28.029.465-.068.485-.265s-.1-.311-.422-.344l-.256-.026.038-.37.556-.512-1.03-.106.046-.45,1.694.175-.037.363-.61.566A.691.691,0,0,1,268.336,162.157Z" transform="translate(-266.357 -160.291)" fill="#fff"/></g></g><g transform="translate(32.135 28.188)"><g transform="translate(0.876 0.092)"><rect width="5.837" height="5.837" rx="2.082" transform="translate(0.598 0) rotate(5.882)" fill="#e8505b"/></g><g transform="translate(0.876 0.092)" opacity="0.4"><rect width="5.837" height="5.837" rx="2.082" transform="translate(0.598 0) rotate(5.882)"/></g><g transform="translate(0 0)"><rect width="5.837" height="5.837" rx="2.082" transform="matrix(0.995, 0.102, -0.102, 0.995, 0.598, 0)" fill="#263238"/></g><g transform="translate(1.869 1.553)"><g transform="translate(0 1.309)"><rect width="0.223" height="2.607" transform="translate(0 0.222) rotate(-84.118)" fill="#fff"/></g><g transform="translate(1.002)"><path d="M306.887,163.037a.423.423,0,1,1-.377-.464A.422.422,0,0,1,306.887,163.037Z" transform="translate(-306.044 -162.571)" fill="#fff"/></g><g transform="translate(0.769 2.261)"><path d="M305.842,173.183a.423.423,0,1,1-.377-.464A.423.423,0,0,1,305.842,173.183Z" transform="translate(-304.999 -172.717)" fill="#fff"/></g></g></g><g transform="translate(6.354 34.131)"><g transform="translate(0.897 0.092)"><rect width="5.837" height="5.837" rx="2.082" transform="matrix(0.995, 0.102, -0.102, 0.995, 0.598, 0)" fill="#e8505b"/></g><g transform="translate(0.897 0.092)" opacity="0.4"><rect width="5.837" height="5.837" rx="2.082" transform="matrix(0.995, 0.102, -0.102, 0.995, 0.598, 0)"/></g><g transform="translate(0 0)"><rect width="5.837" height="5.837" rx="2.082" transform="matrix(0.995, 0.102, -0.102, 0.995, 0.598, 0)" fill="#263238"/></g><g transform="translate(2.005 1.967)"><path d="M188.715,193.119l-.394-.041-.052.508-.546-.056.052-.508-1.3-.134.039-.377,1.3-1.417.587.06-1.208,1.346.65.067.046-.453.529.055-.047.453.394.041Z" transform="translate(-186.471 -191.094)" fill="#fff"/></g></g><g transform="translate(14.451 34.965)"><g transform="translate(0.897 0.092)"><rect width="5.837" height="5.837" rx="2.082" transform="translate(0.598 0) rotate(5.882)" fill="#e8505b"/></g><g transform="translate(0.897 0.092)" opacity="0.4"><rect width="5.837" height="5.837" rx="2.082" transform="translate(0.598 0) rotate(5.882)"/></g><g transform="translate(0 0)"><rect width="5.837" height="5.837" rx="2.082" transform="translate(0.598 0) rotate(5.882)" fill="#263238"/></g><g transform="translate(2.191 1.903)"><path d="M225.622,196.377c-.044.429-.4.77-1.089.7a1.681,1.681,0,0,1-.9-.354l.266-.406a1.169,1.169,0,0,0,.665.289c.28.029.465-.071.485-.268s-.092-.327-.531-.372l-.619-.064.265-1.349,1.476.152-.046.449-1.01-.1-.085.456.2.02C225.416,195.6,225.666,195.948,225.622,196.377Z" transform="translate(-223.637 -194.55)" fill="#fff"/></g></g><g transform="translate(22.845 35.829)"><g transform="translate(0.897 0.092)"><rect width="5.837" height="5.837" rx="2.082" transform="translate(0.598 0) rotate(5.882)" fill="#e8505b"/></g><g transform="translate(0.897 0.092)" opacity="0.4"><rect width="5.837" height="5.837" rx="2.082" transform="translate(0.598 0) rotate(5.882)"/></g><g transform="translate(0 0)"><rect width="5.837" height="5.837" rx="2.082" transform="matrix(0.995, 0.102, -0.102, 0.995, 0.598, 0)" fill="#263238"/></g><g transform="translate(2.377 1.959)"><path d="M264.108,200.466a.836.836,0,0,1-1,.711,1.048,1.048,0,0,1-.958-1.311,1.184,1.184,0,0,1,1.369-1.176,1.314,1.314,0,0,1,.657.235l-.25.39a.8.8,0,0,0-.441-.168.646.646,0,0,0-.753.632.821.821,0,0,1,.62-.153A.772.772,0,0,1,264.108,200.466Zm-.546-.028a.367.367,0,0,0-.374-.405.381.381,0,0,0-.456.32c-.021.207.119.376.388.4A.364.364,0,0,0,263.563,200.437Z" transform="translate(-262.14 -198.681)" fill="#fff"/></g></g><g transform="translate(31.239 36.694)"><g transform="translate(0.897 0.092)"><rect width="5.837" height="5.837" rx="2.082" transform="matrix(0.995, 0.102, -0.102, 0.995, 0.598, 0)" fill="#e8505b"/></g><g transform="translate(0.897 0.092)" opacity="0.4"><rect width="5.837" height="5.837" rx="2.082" transform="matrix(0.995, 0.102, -0.102, 0.995, 0.598, 0)"/></g><g transform="translate(0 0)"><rect width="5.837" height="5.837" rx="2.082" transform="matrix(0.995, 0.102, -0.102, 0.995, 0.598, 0)" fill="#263238"/></g><g transform="translate(2.11 2.121)"><g transform="translate(0 0.187)"><rect width="2.607" height="0.223" transform="matrix(0.785, -0.619, 0.619, 0.785, 0, 1.614)" fill="#fff"/></g><g transform="translate(0.184 0)"><rect width="0.223" height="2.607" transform="matrix(0.776, -0.631, 0.631, 0.776, 0, 0.141)" fill="#fff"/></g></g></g><g transform="translate(5.485 42.568)"><g transform="translate(0.897 0.092)"><rect width="5.837" height="5.837" rx="2.082" transform="matrix(0.995, 0.102, -0.102, 0.995, 0.598, 0)" fill="#e8505b"/></g><g transform="translate(0.897 0.092)" opacity="0.4"><rect width="5.837" height="5.837" rx="2.082" transform="matrix(0.995, 0.102, -0.102, 0.995, 0.598, 0)"/></g><g transform="translate(0 0)"><rect width="5.837" height="5.837" rx="2.082" transform="matrix(0.995, 0.102, -0.102, 0.995, 0.598, 0)" fill="#263238"/></g><g transform="translate(2.097 1.848)"><path d="M185.011,228.616l-.037.363-1.111,1.964-.608-.063,1.07-1.874-.8-.083-.041.394-.5-.051.088-.85Z" transform="translate(-182.984 -228.416)" fill="#fff"/></g></g><g transform="translate(13.582 43.402)"><g transform="translate(0.897 0.092)"><rect width="5.837" height="5.837" rx="2.082" transform="matrix(0.995, 0.102, -0.102, 0.995, 0.598, 0)" fill="#e8505b"/></g><g transform="translate(0.897 0.092)" opacity="0.4"><rect width="5.837" height="5.837" rx="2.082" transform="matrix(0.995, 0.102, -0.102, 0.995, 0.598, 0)"/></g><g transform="translate(0 0)"><rect width="5.837" height="5.837" rx="2.082" transform="translate(0.598 0) rotate(5.882)" fill="#263238"/></g><g transform="translate(2.323 1.935)"><path d="M222.375,234.425c-.047.456-.484.7-1.1.638s-.987-.392-.94-.848a.618.618,0,0,1,.425-.533.561.561,0,0,1-.229-.527c.044-.425.452-.652,1-.6s.909.363.866.788a.565.565,0,0,1-.335.468A.616.616,0,0,1,222.375,234.425Zm-.565-.076c.022-.214-.141-.364-.421-.393s-.463.085-.485.3.137.367.413.4S221.788,234.564,221.81,234.35Zm-.724-1.112c-.019.183.115.312.343.336s.392-.075.411-.258-.121-.32-.349-.343S221.105,233.047,221.086,233.237Z" transform="translate(-220.331 -232.552)" fill="#fff"/></g></g><g transform="translate(21.976 44.266)"><g transform="translate(0.897 0.092)"><rect width="5.837" height="5.837" rx="2.082" transform="translate(0.598 0) rotate(5.882)" fill="#e8505b"/></g><g transform="translate(0.897 0.092)" opacity="0.4"><rect width="5.837" height="5.837" rx="2.082" transform="translate(0.598 0) rotate(5.882)"/></g><g transform="translate(0 0)"><rect width="5.837" height="5.837" rx="2.082" transform="matrix(0.995, 0.102, -0.102, 0.995, 0.598, 0)" fill="#263238"/></g><g transform="translate(2.309 1.922)"><path d="M259.957,237.688a1.182,1.182,0,0,1-1.368,1.176,1.3,1.3,0,0,1-.654-.235l.25-.39a.789.789,0,0,0,.44.168.649.649,0,0,0,.753-.635.832.832,0,0,1-.624.156.772.772,0,0,1-.756-.839.836.836,0,0,1,1-.711A1.047,1.047,0,0,1,259.957,237.688Zm-.582-.486c.021-.207-.119-.375-.385-.4a.366.366,0,1,0-.068.723A.378.378,0,0,0,259.375,237.2Z" transform="translate(-257.935 -236.371)" fill="#fff"/></g></g><g transform="translate(30.37 45.131)"><g transform="translate(0.897 0.092)"><rect width="5.837" height="5.837" rx="2.082" transform="matrix(0.995, 0.102, -0.102, 0.995, 0.598, 0)" fill="#e8505b"/></g><g transform="translate(0.897 0.092)" opacity="0.4"><rect width="5.837" height="5.837" rx="2.082" transform="matrix(0.995, 0.102, -0.102, 0.995, 0.598, 0)"/></g><g transform="translate(0 0)"><rect width="5.837" height="5.837" rx="2.082" transform="matrix(0.995, 0.102, -0.102, 0.995, 0.598, 0)" fill="#263238"/></g><g transform="translate(1.895 2.958)"><g transform="translate(0 0)"><rect width="0.223" height="2.607" transform="translate(0 0.222) rotate(-84.123)" fill="#fff"/></g></g></g><g transform="translate(21.099 52.777)"><g transform="translate(0.897 0.092)"><rect width="5.837" height="5.837" rx="2.082" transform="translate(0.598 0) rotate(5.882)" fill="#e8505b"/></g><g transform="translate(0.897 0.092)" opacity="0.4"><rect width="5.837" height="5.837" rx="2.082" transform="translate(0.598 0) rotate(5.882)"/></g><g transform="translate(0 0)"><rect width="5.837" height="5.837" rx="2.082" transform="translate(0.598 0) rotate(5.882)" fill="#263238"/></g></g><g transform="translate(29.493 53.642)"><g transform="translate(0.897 0.092)"><rect width="5.837" height="5.837" rx="2.082" transform="translate(0.598 0) rotate(5.882)" fill="#e8505b"/></g><g transform="translate(0.897 0.092)" opacity="0.4"><rect width="5.837" height="5.837" rx="2.082" transform="translate(0.598 0) rotate(5.882)"/></g><g transform="translate(0 0)"><rect width="5.837" height="5.837" rx="2.082" transform="matrix(0.995, 0.102, -0.102, 0.995, 0.598, 0)" fill="#455a64"/></g><g transform="translate(1.826 2.638)"><g transform="translate(0.102 0)"><g transform="translate(0)"><rect width="0.223" height="2.607" transform="translate(0 0.222) rotate(-84.125)" fill="#fff"/></g></g><g transform="translate(0 0.987)"><g transform="translate(0 0)"><rect width="0.223" height="2.607" transform="translate(0 0.222) rotate(-84.125)" fill="#fff"/></g></g></g></g><g transform="translate(4.296 50.973)"><rect width="14.09" height="5.986" rx="2.5" transform="matrix(0.995, 0.102, -0.102, 0.995, 0.613, 0)" fill="#263238"/></g><g transform="translate(11.079 53.351)"><path d="M198.685,269.665c.082-.8.572-1.206,1.166-1.145s.991.56.908,1.358-.568,1.206-1.166,1.145S198.6,270.463,198.685,269.665Zm1.511.156c.057-.55-.114-.8-.394-.827s-.493.18-.55.73.113.8.39.826S200.14,270.37,200.2,269.82Z" transform="translate(-198.675 -268.514)" fill="#fff"/></g><g transform="translate(22.993 54.672)"><g transform="translate(1.045 0)"><rect width="2.607" height="0.223" transform="translate(0 2.589) rotate(-83.269)" fill="#fff"/></g><g transform="translate(0 1.063)"><rect width="0.223" height="2.607" transform="translate(0 0.222) rotate(-84.121)" fill="#fff"/></g></g><g transform="translate(20.707 14.847)"><path d="M242.975,95.848l-.373,3.618-.171-.018.356-3.458-.91-.094.016-.16Z" transform="translate(-241.878 -95.737)" fill="#263238"/><path d="M251.534,100.641l-.017.16-2.45-.252.013-.124,1.711-1.4c.49-.4.611-.653.641-.947.05-.481-.254-.825-.885-.891a1.343,1.343,0,0,0-1.131.322l-.107-.126a1.538,1.538,0,0,1,1.259-.356c.693.071,1.1.473,1.035,1.057a1.492,1.492,0,0,1-.7,1.056l-1.558,1.276Z" transform="translate(-247.466 -96.73)" fill="#263238"/><path d="M264.181,100.828c-.062.6-.53.98-1.325.9a1.636,1.636,0,0,1-1.2-.631l.106-.115a1.507,1.507,0,0,0,1.11.585c.692.071,1.09-.233,1.143-.755s-.262-.9-1.028-.978l-.2-.021.013-.124,1.278-1.352-2-.205.017-.16,2.223.229-.013.124-1.283,1.357C263.867,99.767,264.243,100.223,264.181,100.828Z" transform="translate(-257.245 -97.472)" fill="#263238"/><path d="M278.394,102.905l-.786-.081-.108,1.044-.17-.018.107-1.044-2.078-.214.013-.124,2.253-2.244.2.021-2.223,2.215,1.85.191.095-.92.171.018-.095.92.786.081Z" transform="translate(-267.898 -99.225)" fill="#263238"/><path d="M290.823,115.975a.988.988,0,0,1-.051.188l-.258.674-.134-.014.234-.7a.174.174,0,0,1-.132-.186.17.17,0,0,1,.188-.153A.173.173,0,0,1,290.823,115.975Z" transform="translate(-279.571 -111.318)" fill="#263238"/><path d="M297.874,104.912l-.786-.081-.107,1.044-.171-.018.108-1.044-2.078-.214.013-.124,2.253-2.244.2.021-2.224,2.215,1.85.191.095-.92.171.018-.095.92.786.081Z" transform="translate(-283.037 -100.785)" fill="#263238"/><path d="M311.659,105.81c-.061.589-.516,1-1.338.917a1.64,1.64,0,0,1-1.2-.63l.111-.114a1.5,1.5,0,0,0,1.1.584c.708.073,1.093-.264,1.145-.775.057-.558-.239-.923-1.273-1.03l-.7-.072.367-1.686,1.866.192-.017.16L310,103.179l-.3,1.369.558.058C311.369,104.72,311.725,105.169,311.659,105.81Z" transform="translate(-294.136 -101.385)" fill="#263238"/></g></g><g transform="translate(0 14.282)"><g transform="translate(0 79.107)"><path d="M138.182,448.17l-1.417,5.239,4.6.42.968-4.987Z" transform="translate(-136.765 -448.17)" fill="#e8505b"/><g transform="translate(0.175 4.692)"><path d="M142.115,469.765a3.243,3.243,0,0,1-.674-.023c-.415-.033-.987-.1-1.616-.178l-1.609-.216a3.8,3.8,0,0,1-.664-.115,3.286,3.286,0,0,1,.674.025c.415.034.986.1,1.616.179l1.609.215A3.84,3.84,0,0,1,142.115,469.765Z" transform="translate(-137.551 -469.225)" fill="#263238"/></g><g transform="translate(0 4.697)" opacity="0.6"><path d="M136.765,469.789l4.6.42.075-.384-4.546-.578-.128.49" transform="translate(-136.765 -469.248)" fill="#fff"/></g><g transform="translate(2.285 1.017)"><path d="M147.021,456.723a39.087,39.087,0,0,1,.981-3.989,39.019,39.019,0,0,1-.981,3.989Z" transform="translate(-147.018 -452.734)" fill="#263238"/></g><g transform="translate(0.596 2.669)"><path d="M143.329,462.676a2.216,2.216,0,0,0,.01-.974,1.939,1.939,0,0,0-.5-.912,1.884,1.884,0,0,0-1.146-.526,1.962,1.962,0,0,0-1.233.28,2.136,2.136,0,0,0-.717.762,2.724,2.724,0,0,0-.291.934s-.006-.024-.007-.07a1.383,1.383,0,0,1,.011-.2,2.093,2.093,0,0,1,.219-.7,2.149,2.149,0,0,1,.731-.81,2.028,2.028,0,0,1,1.3-.3,1.9,1.9,0,0,1,1.714,1.529,1.818,1.818,0,0,1,0,.735,1.225,1.225,0,0,1-.057.192C143.342,462.655,143.332,462.677,143.329,462.676Z" transform="translate(-139.441 -460.146)" fill="#263238"/></g></g><g transform="translate(16.247 78.378)"><path d="M213.836,445.033l-.273,4.126s4.106,1.363,4.13,2.13l-8.023.058.162-6.446Z" transform="translate(-209.67 -444.901)" fill="#e8505b"/><g transform="translate(1.181 3.824)" opacity="0.6"><path d="M215.213,462.07a.328.328,0,0,0-.238.367.315.315,0,0,0,.362.239.345.345,0,0,0,.25-.39.327.327,0,0,0-.4-.207" transform="translate(-214.97 -462.058)" fill="#fff"/></g><g transform="translate(0 5.797)" opacity="0.6"><path d="M209.67,471.562l.042-.649,7.723.213a.555.555,0,0,1,.3.436Z" transform="translate(-209.67 -470.913)" fill="#fff"/></g><g transform="translate(3.28 4.181)"><path d="M225.133,463.7c0,.039-.2.051-.4.171s-.3.281-.34.265.03-.241.27-.382S225.143,463.665,225.133,463.7Z" transform="translate(-224.389 -463.66)" fill="#263238"/></g><g transform="translate(4.307 4.577)"><path d="M229.545,465.456c.008.038-.164.1-.3.261s-.182.336-.221.333-.057-.225.118-.423S229.545,465.418,229.545,465.456Z" transform="translate(-228.998 -465.438)" fill="#263238"/></g><g transform="translate(5.259 4.948)"><path d="M233.312,467.772c-.036.007-.084-.19.023-.4s.293-.291.308-.258-.1.144-.186.319S233.351,467.77,233.312,467.772Z" transform="translate(-233.27 -467.106)" fill="#263238"/></g><g transform="translate(3.147 3.121)"><path d="M224.628,459.059c-.017.035-.2-.024-.417-.016s-.4.073-.416.039.151-.169.412-.175S224.648,459.029,224.628,459.059Z" transform="translate(-223.793 -458.906)" fill="#263238"/></g><g transform="translate(0.124 0.866)" opacity="0.3"><path d="M214.212,448.869l-.048.735-3.94-.155.015-.663Z" transform="translate(-210.225 -448.786)"/></g><g transform="translate(2.817 1.764)"><path d="M223.515,453.492a.753.753,0,0,1-.4-.014,1.8,1.8,0,0,1-.416-.142,1.883,1.883,0,0,1-.227-.129.493.493,0,0,1-.118-.1.171.171,0,0,1-.012-.209.215.215,0,0,1,.174-.084.516.516,0,0,1,.15.025,1.415,1.415,0,0,1,.61.347c.181.178.24.326.226.333s-.1-.113-.29-.261a1.6,1.6,0,0,0-.352-.213,1.5,1.5,0,0,0-.228-.078c-.084-.025-.156-.028-.179.01-.008.014-.01.02.008.045a.4.4,0,0,0,.087.072,2.1,2.1,0,0,0,.209.128,2.226,2.226,0,0,0,.384.161A2.738,2.738,0,0,1,223.515,453.492Z" transform="translate(-222.309 -452.815)" fill="#263238"/></g><g transform="translate(3.875 1.23)"><path d="M227.152,451.686a.641.641,0,0,1-.094-.391,1.3,1.3,0,0,1,.178-.679.331.331,0,0,1,.262-.2.188.188,0,0,1,.164.117.548.548,0,0,1,.037.148.894.894,0,0,1-.008.271.922.922,0,0,1-.184.41c-.163.2-.328.245-.331.232s.126-.092.252-.287a.923.923,0,0,0,.138-.374.828.828,0,0,0,0-.232c-.01-.086-.04-.155-.072-.148s-.11.06-.145.127a1.339,1.339,0,0,0-.106.215,1.438,1.438,0,0,0-.09.4C227.136,451.533,227.174,451.68,227.152,451.686Z" transform="translate(-227.058 -450.421)" fill="#263238"/></g></g><g transform="translate(0.571 13.483)"><path d="M141.774,154.467s-.87,4.747-1.568,7.62c-.543,2.231-1.948,6.412.595,7.627s5.962-3.687,5.962-3.687l1.451-11.172c-1.011.189-2.155,1.36-3.374,3.083l.221-4.238Z" transform="translate(-139.327 -153.7)" fill="#455a64"/></g><g transform="translate(35.442 16.155)"><path d="M298.371,170.8l-1.338.638L295.8,169.5l.72-1.491c.068-.138.142-.294.218-.472a2.038,2.038,0,0,0,.159-.656,3.11,3.11,0,0,0-.021-.839c-.066-.249.2-.453.376-.308a2.178,2.178,0,0,1,.246,1.648c-.133.821.824-.05,1.178-.361a7.635,7.635,0,0,1,1.672-1.186c.262.052.255.35-.105.653s-1.38,1.287-1.212,1.47h.008a1.006,1.006,0,0,1,.873.78c.091.4.165.963-.063,1.147A13.217,13.217,0,0,1,298.371,170.8Z" transform="translate(-295.802 -165.69)" fill="#ffbe9d"/></g><g transform="translate(10.2)"><g transform="translate(1.848 1.821)"><path d="M190.861,102.8l-.035,11.613,4.982.238.144-2.825a1.9,1.9,0,0,0,2.226-1.292c.292-1.05.219-9.163.219-9.163Z" transform="translate(-190.826 -101.372)" fill="#ffbe9d"/></g><path d="M193.078,96.166a9.866,9.866,0,0,1-1.934,1.964l-.722,1.935c-.627-.491-1.469-.463-1.629.639-.115.8.875.957.875.957a14.437,14.437,0,0,1-1.806,2.707,2.673,2.673,0,0,1-2.4,1.128h-1.086s-2.223-1.857-1.783-6.749,4.837-3.464,5.886-4.686C190.187,92.07,194.2,93.849,193.078,96.166Z" transform="translate(-182.533 -93.199)" fill="#263238"/><g transform="translate(0.304 1.868)"><path d="M183.9,109.352s.048,0,.139,0a2.172,2.172,0,0,0,.394-.045,2.819,2.819,0,0,0,1.276-.676A7.118,7.118,0,0,0,187,106.9c.211-.351.432-.721.7-1.08a4.139,4.139,0,0,1,.978-.975,4.038,4.038,0,0,1,1.27-.541c.433-.113.858-.182,1.26-.26a4.738,4.738,0,0,0,2.012-.752,2.176,2.176,0,0,0,.814-1.176,1.676,1.676,0,0,0,.048-.393c0-.091,0-.139,0-.139s.006.047.014.139a1.6,1.6,0,0,1-.039.4,2.176,2.176,0,0,1-.812,1.2,4.734,4.734,0,0,1-2.024.768c-.4.079-.827.149-1.256.262a4.007,4.007,0,0,0-1.256.536,4.115,4.115,0,0,0-.968.963c-.266.356-.486.725-.7,1.075a7.064,7.064,0,0,1-1.309,1.734,2.8,2.8,0,0,1-1.294.669,2,2,0,0,1-.4.037C183.947,109.357,183.9,109.352,183.9,109.352Z" transform="translate(-183.899 -101.583)" fill="#455a64"/></g><g transform="translate(0.048 1.221)"><path d="M182.748,103.117s.079-.031.231-.082a3.349,3.349,0,0,1,.683-.162,1.547,1.547,0,0,1,1.069.231.892.892,0,0,1,.381.57.8.8,0,0,1-.22.728.623.623,0,0,1-.391.157.814.814,0,0,1-.426-.114,1.28,1.28,0,0,1-.569-.721,1.811,1.811,0,0,1-.043-.99,1.724,1.724,0,0,1,.537-.9,1.792,1.792,0,0,1,1.005-.45,3.088,3.088,0,0,1,1.145.148,7.9,7.9,0,0,0,1.158.278,4.686,4.686,0,0,0,1.221,0,4.034,4.034,0,0,0,1.175-.325,1.389,1.389,0,0,0,.787-.825,1.072,1.072,0,0,0-.262-1.045.916.916,0,0,0-1.006-.149.761.761,0,0,0-.371.348.84.84,0,0,0-.08.492,1.138,1.138,0,0,0,.507.8,1.66,1.66,0,0,0,.871.245,2.607,2.607,0,0,0,.836-.125,3.015,3.015,0,0,0,1.237-.753,3.2,3.2,0,0,0,.639-.9,3.39,3.39,0,0,0,.234-.658c.03-.157.049-.239.049-.239s-.012.083-.039.242a3.263,3.263,0,0,1-.227.664,3.192,3.192,0,0,1-.637.906,3.036,3.036,0,0,1-1.245.766,2.634,2.634,0,0,1-.847.13,1.694,1.694,0,0,1-.891-.248,1.177,1.177,0,0,1-.527-.825.881.881,0,0,1,.083-.516.8.8,0,0,1,.391-.368.959.959,0,0,1,1.055.156,1.116,1.116,0,0,1,.275,1.089,1.432,1.432,0,0,1-.811.854,4.07,4.07,0,0,1-1.189.329,4.728,4.728,0,0,1-1.233,0,7.933,7.933,0,0,1-1.164-.279,3.044,3.044,0,0,0-1.129-.148,1.741,1.741,0,0,0-1.467,2.283,1.244,1.244,0,0,0,.551.7.777.777,0,0,0,.407.111.592.592,0,0,0,.37-.147.772.772,0,0,0,.213-.7.865.865,0,0,0-.367-.554,1.533,1.533,0,0,0-1.052-.234,3.518,3.518,0,0,0-.682.153Z" transform="translate(-182.748 -98.68)" fill="#455a64"/></g></g><g transform="translate(0.203 37.161)"><path d="M144.881,260.452l-6.633,43.562,5.509.7,7.773-36.539,1.957,36.784,5.97-.1-.99-44.3Z" transform="translate(-138.121 -260.34)" fill="#263238"/><path d="M152.937,304.681l-.006-.107-1.912-35.943L143.4,304.446l-5.724-.726,6.664-43.771,13.791.1.995,44.521Zm-1.785-37.746,2,37.519,5.751-.1-.985-44.08-13.382-.1-6.6,43.354,5.293.672Z" transform="translate(-137.677 -259.949)" fill="#263238"/><g transform="translate(19.504 5.458)"><path d="M225.254,323.426c-.032,0-.058-8.728-.058-19.493s.026-19.495.058-19.495.058,8.727.058,19.495S225.286,323.426,225.254,323.426Z" transform="translate(-225.196 -284.439)" fill="#455a64"/></g><g transform="translate(4.424 8.125)"><path d="M157.528,332.57a.617.617,0,0,1,.013-.095l.05-.276.2-1.059.781-3.888c.669-3.281,1.616-7.81,2.7-12.8s2.111-9.507,2.868-12.769l.907-3.861.254-1.048.069-.272a.611.611,0,0,1,.027-.092.574.574,0,0,1-.016.095l-.058.274-.233,1.053-.872,3.869c-.736,3.267-1.746,7.782-2.834,12.775s-2.048,9.517-2.737,12.794l-.817,3.881-.226,1.054-.062.274A.564.564,0,0,1,157.528,332.57Z" transform="translate(-157.527 -296.409)" fill="#455a64"/></g><g transform="translate(8.964 7.784)"><path d="M184.3,294.891a1.073,1.073,0,0,1-.252.033l-.688.049c-.581.039-1.385.079-2.268.165s-1.679.206-2.256.282l-.685.087a1.077,1.077,0,0,1-.253.017,1.055,1.055,0,0,1,.246-.061c.16-.032.392-.074.679-.123.575-.1,1.37-.228,2.257-.316s1.693-.114,2.275-.131c.292-.008.527-.012.69-.012A1.067,1.067,0,0,1,184.3,294.891Z" transform="translate(-177.9 -294.879)" fill="#455a64"/></g><g transform="translate(17.2 2.626)"><path d="M218.121,274.072a.471.471,0,0,1-.171.043,2.365,2.365,0,0,1-.481.021,2.79,2.79,0,0,1-2.459-1.767,2.377,2.377,0,0,1-.133-.463.47.47,0,0,1-.014-.176c.021,0,.059.244.222.607a2.9,2.9,0,0,0,2.39,1.718C217.87,274.095,218.118,274.052,218.121,274.072Z" transform="translate(-214.859 -271.731)" fill="#455a64"/></g></g><g transform="translate(3.471 13.785)"><g transform="translate(2.358)"><path d="M162.922,179.4l15.259-.049-.835-10.071c-.092-2.3-.078-2.579-.135-4.707,0,0,2.166,2.619,3.87,4.456a3.471,3.471,0,0,0,4.03.773l8.916-6.22-1.67-4.271-8.1,4.96c-.371-.231-3.526-4.73-5.705-6.927a7.713,7.713,0,0,0-5.256-2.273,38.422,38.422,0,0,0-4.922.2,5.15,5.15,0,0,0-4.583,4.694c-.158,1.883-.031,4.069-.031,7.784Z" transform="translate(-162.922 -155.058)" fill="#455a64"/><g transform="translate(0.684 5.922)"><path d="M166.024,181.633s0,.041,0,.118,0,.2,0,.337c0,.293,0,.716,0,1.24.006,1.047.048,2.493.093,4.09s.054,3.046.014,4.092c-.018.523-.041.947-.066,1.239l-.028.336c-.007.077-.013.117-.013.117s0-.041,0-.118.011-.2.019-.337c.019-.292.037-.715.051-1.238.032-1.047.018-2.493-.027-4.09s-.082-3.044-.08-4.091c0-.524.006-.948.016-1.24,0-.135.008-.247.011-.337S166.024,181.633,166.024,181.633Z" transform="translate(-165.99 -181.633)" fill="#263238"/></g><g transform="translate(20.998 9.244)"><path d="M257.145,197.949a.965.965,0,0,1,.032-.21c.026-.129.064-.306.11-.5s.089-.371.123-.5a.948.948,0,0,1,.064-.2.991.991,0,0,1-.033.211c-.026.129-.064.305-.11.5s-.089.37-.123.5A.975.975,0,0,1,257.145,197.949Z" transform="translate(-257.143 -196.538)" fill="#263238"/></g><g transform="translate(21.442 9.164)"><path d="M259.505,197.8a14.789,14.789,0,0,1-.368-1.615,14.815,14.815,0,0,1,.368,1.615Z" transform="translate(-259.136 -196.18)" fill="#263238"/></g><g transform="translate(10.989 0.464)"><path d="M215.91,166.571s-.03-.025-.084-.077l-.233-.226c-.2-.2-.491-.484-.837-.851a14.009,14.009,0,0,1-1.138-1.358,7.87,7.87,0,0,1-1.035-1.9,5.309,5.309,0,0,1-.341-2.135,4.407,4.407,0,0,1,.384-1.724,2.534,2.534,0,0,1,.75-.922,2.457,2.457,0,0,1,.271-.179c.064-.037.1-.055.1-.055s-.138.075-.359.248a2.564,2.564,0,0,0-.731.922,4.419,4.419,0,0,0-.37,1.711,5.308,5.308,0,0,0,.342,2.117,7.917,7.917,0,0,0,1.026,1.895,14.466,14.466,0,0,0,1.127,1.36c.343.369.629.659.826.861l.227.232C215.885,166.541,215.91,166.571,215.91,166.571Z" transform="translate(-212.234 -157.142)" fill="#263238"/></g></g><g transform="translate(6.146 4.542)"><path d="M180.878,176.648a5.137,5.137,0,0,1-.956-1.206,5.123,5.123,0,0,1,.956,1.206Z" transform="translate(-179.919 -175.441)" fill="#fafafa"/></g><g transform="translate(9.043 9.685)"><path d="M194.451,198.516a10.071,10.071,0,0,1-1.528,1.525,10.069,10.069,0,0,1,1.528-1.525Z" transform="translate(-192.922 -198.515)" fill="#fafafa"/></g><g transform="translate(13.106 13.93)"><path d="M211.975,218.968c-.033.01-.155-.335-.382-.718s-.464-.661-.439-.685a2.287,2.287,0,0,1,.821,1.4Z" transform="translate(-211.152 -217.564)" fill="#fafafa"/></g><g transform="translate(4.795 12.408)"><path d="M174.29,213.023a4.305,4.305,0,0,1-.4-2.286c.035,0,.046.521.158,1.151S174.322,213.011,174.29,213.023Z" transform="translate(-173.856 -210.737)" fill="#fafafa"/></g><g transform="translate(9.582 15.271)"><path d="M195.606,225.493a2.831,2.831,0,0,1-.171-1.911c.034,0-.015.434.034.96S195.639,225.482,195.606,225.493Z" transform="translate(-195.34 -223.582)" fill="#fafafa"/></g><g transform="translate(5.986 19.522)"><path d="M181.237,243.932a12.4,12.4,0,0,1-2.035-1.272,12.444,12.444,0,0,1,2.035,1.272Z" transform="translate(-179.202 -242.658)" fill="#fafafa"/></g><g transform="translate(13.025 19.724)"><path d="M212.969,243.569c.014.031-.5.288-1.1.668s-1.055.734-1.077.708a6.02,6.02,0,0,1,2.179-1.375Z" transform="translate(-210.789 -243.566)" fill="#fafafa"/></g><g transform="translate(3.943 23.36)"><path d="M172.262,260.333a11.116,11.116,0,0,1-2.226-.444,11.116,11.116,0,0,1,2.226.444Z" transform="translate(-170.036 -259.882)" fill="#fafafa"/></g><g transform="translate(10.154 21.501)"><path d="M198.736,253.065a2.893,2.893,0,0,1-.827-1.526c.032-.01.17.353.4.771S198.763,253.044,198.736,253.065Z" transform="translate(-197.904 -251.539)" fill="#fafafa"/></g><g transform="translate(15.62 23.404)"><path d="M223.219,260.077a1.661,1.661,0,0,1-.347.506c-.216.259-.411.452-.436.431a1.661,1.661,0,0,1,.347-.506C223,260.249,223.195,260.056,223.219,260.077Z" transform="translate(-222.434 -260.075)" fill="#fafafa"/></g><g transform="translate(5.538 8.082)"><path d="M178.144,191.327c.018.027-.181.191-.444.366a1.465,1.465,0,0,1-.509.27c-.018-.027.181-.191.444-.367A1.466,1.466,0,0,1,178.144,191.327Z" transform="translate(-177.19 -191.323)" fill="#fafafa"/></g><g transform="translate(9.619 1.544)"><path d="M196.14,164.328a8.138,8.138,0,0,1-.627-2.34,28.885,28.885,0,0,1,.627,2.34Z" transform="translate(-195.507 -161.988)" fill="#fafafa"/></g><g transform="translate(12.34 7.376)"><path d="M209.24,188.49c-.014.031-.339-.094-.757-.172s-.766-.085-.767-.119a2.178,2.178,0,0,1,1.524.292Z" transform="translate(-207.716 -188.156)" fill="#fafafa"/></g><g transform="translate(14.694 4.201)"><path d="M219.929,174.167a2.311,2.311,0,0,1-1.653-.255c.013-.032.366.1.821.168S219.926,174.132,219.929,174.167Z" transform="translate(-218.275 -173.907)" fill="#fafafa"/></g><g transform="translate(18.864 5.67)"><path d="M237.013,182.914a5.584,5.584,0,0,1,.391-2.414c.033.01-.109.539-.215,1.2S237.048,182.915,237.013,182.914Z" transform="translate(-236.99 -180.499)" fill="#fafafa"/></g><g transform="translate(20.369 10.802)"><path d="M245.244,205.079a10.067,10.067,0,0,1-1.5-1.549,10.063,10.063,0,0,1,1.5,1.549Z" transform="translate(-243.741 -203.528)" fill="#fafafa"/></g><g transform="translate(23.455 12.024)"><path d="M258.49,209.012a5.96,5.96,0,0,1-.9,1.394,5.966,5.966,0,0,1,.9-1.394Z" transform="translate(-257.589 -209.012)" fill="#fafafa"/></g><g transform="translate(26.376 8.854)"><path d="M271.557,196.556a8.346,8.346,0,0,1-.857-1.766,8.33,8.33,0,0,1,.857,1.766Z" transform="translate(-270.697 -194.789)" fill="#fafafa"/></g><g transform="translate(29.132 8.628)"><path d="M285.091,194.144a9.161,9.161,0,0,1-2.027-.36,9.161,9.161,0,0,1,2.027.36Z" transform="translate(-283.064 -193.775)" fill="#fafafa"/></g><g transform="translate(0 11.189)"><path d="M152.345,207.247a10.339,10.339,0,0,1,.933-1.981,10.344,10.344,0,0,1-.933,1.981Z" transform="translate(-152.342 -205.266)" fill="#fafafa"/></g><g transform="translate(0.817 8.095)"><path d="M157.274,192.79a7.72,7.72,0,0,1-1.264-1.406,7.743,7.743,0,0,1,1.264,1.406Z" transform="translate(-156.008 -191.383)" fill="#fafafa"/></g><g transform="translate(1.144 15.391)"><path d="M158.243,224.122c.02.025-.134.187-.345.362s-.4.3-.419.273.134-.187.345-.362S158.222,224.1,158.243,224.122Z" transform="translate(-157.477 -224.119)" fill="#fafafa"/></g><g transform="translate(2.1 5.602)"><path d="M162.276,180.2c.025.02-.069.179-.209.354s-.275.3-.3.282.069-.179.209-.354S162.251,180.18,162.276,180.2Z" transform="translate(-161.763 -180.198)" fill="#fafafa"/></g><g transform="translate(14.259 6.618)" opacity="0.3"><path d="M216.327,184.754c.942,2.962,1.67,6.07,2.613,9.032l-.225-6.134A14.706,14.706,0,0,1,216.327,184.754Z" transform="translate(-216.327 -184.754)"/></g></g><g transform="translate(2.396 17.585)"><path d="M147.518,178.8a.475.475,0,0,1,.029-.073l.091-.205c.079-.178.2-.434.349-.748.3-.628.74-1.487,1.264-2.413s1.036-1.743,1.42-2.325c.192-.291.35-.525.462-.684l.129-.183a.511.511,0,0,1,.048-.062.5.5,0,0,1-.04.067l-.122.188-.449.692c-.376.586-.883,1.4-1.407,2.33s-.966,1.78-1.275,2.4l-.363.741-.1.2A.516.516,0,0,1,147.518,178.8Z" transform="translate(-147.518 -172.108)" fill="#263238"/></g><g transform="translate(2.442 21.441)"><path d="M149.182,189.412c0,.007-.094.038-.243.1a3.1,3.1,0,0,0-1.033.719c-.112.118-.175.2-.181.193s.01-.024.037-.062a1.778,1.778,0,0,1,.12-.153,2.609,2.609,0,0,1,1.045-.727,1.809,1.809,0,0,1,.185-.059A.211.211,0,0,1,149.182,189.412Z" transform="translate(-147.725 -189.411)" fill="#263238"/></g><g transform="translate(2.659 16.87)"><path d="M150.147,168.9a13.2,13.2,0,0,1-1.449,2,13.211,13.211,0,0,1,1.449-2Z" transform="translate(-148.696 -168.899)" fill="#fafafa"/></g></g><g transform="translate(5.719 24.875)"><path d="M162.427,143.6a.537.537,0,0,0,.566-.267c.124-.186.182-.409.293-.6.331-.583,1.084-.836,1.387-1.434.042-.083.068-.2,0-.258s-.166-.018-.244.021l-1.985.994" transform="translate(-162.427 -140.945)" fill="#ffbe9d"/><path d="M162.44,141.839a.885.885,0,0,1,.2-.13c.135-.076.332-.182.577-.311l.862-.447.25-.127a.44.44,0,0,1,.324-.078.187.187,0,0,1,.121.172.384.384,0,0,1-.04.177,1.441,1.441,0,0,1-.179.274,8.5,8.5,0,0,1-.9.788,1.676,1.676,0,0,0-.324.382c-.079.134-.131.277-.193.4a.782.782,0,0,1-.47.466.281.281,0,0,1-.244-.019.651.651,0,0,0,.229-.028.756.756,0,0,0,.4-.456c.055-.124.1-.27.184-.418a1.722,1.722,0,0,1,.335-.415,9.883,9.883,0,0,0,.881-.782,1.371,1.371,0,0,0,.163-.247c.04-.083.039-.169-.01-.179s-.142.026-.227.069l-.252.124-.874.423c-.25.119-.453.213-.595.275A.891.891,0,0,1,162.44,141.839Z" transform="translate(-162.426 -140.736)" fill="#eb996e"/></g></g></g><g transform="translate(98.591 89.903)"><g transform="translate(0)"><g transform="translate(6.486 26.383)"><g transform="translate(0.024 0.024)"><rect width="14.106" height="1.938" fill="#263238"/></g><path d="M392.354,422.263H378.2v-1.987h14.154Zm-14.106-.048h14.057v-1.89H378.248Z" transform="translate(-378.2 -420.277)" fill="#263238"/></g><g transform="translate(7.818 27.7)"><path d="M384.176,426.188l2.03,10.017h7.512l1.963-9.371Z" transform="translate(-384.176 -426.188)" fill="#263238"/></g><g transform="translate(7.818 36.769)"><path d="M384.176,466.883l1.083,1.489h9.131l1.291-1.489Z" transform="translate(-384.176 -466.883)" fill="#455a64"/></g><g transform="translate(12.946 7.265)"><path d="M407.274,355.218c-.028,0-.063-4.641-.079-10.363s-.007-10.364.021-10.364.063,4.639.079,10.364S407.3,355.218,407.274,355.218Z" transform="translate(-407.187 -334.49)" fill="#263238"/></g><g transform="translate(14.877 16.38)"><path d="M417.148,375.392a.5.5,0,0,1-.038.108l-.126.3-.092.216-.094.263-.109.3c-.038.107-.068.224-.1.345a14.027,14.027,0,0,0-.395,1.727,21.077,21.077,0,0,0-.218,2.16,29.093,29.093,0,0,0,.112,3.945c.045.5.091.911.125,1.191.014.132.026.239.035.324a.5.5,0,0,1,.006.114.468.468,0,0,1-.026-.111l-.054-.322c-.045-.28-.1-.686-.157-1.19a25.962,25.962,0,0,1-.141-3.957,19.652,19.652,0,0,1,.228-2.17,13.006,13.006,0,0,1,.418-1.733c.039-.121.072-.237.112-.345l.117-.3.1-.262c.035-.079.07-.15.1-.214l.143-.294A.479.479,0,0,1,417.148,375.392Z" transform="translate(-415.849 -375.392)" fill="#263238"/></g><g transform="translate(13.983 12.627)"><path d="M413.673,358.551a.981.981,0,0,1-.045.153l-.147.431-.108.311-.113.375c-.082.269-.178.574-.263.917l-.142.536-.132.587c-.1.4-.17.843-.261,1.3-.155.922-.292,1.941-.387,3.015s-.128,2.1-.142,3.038.009,1.777.047,2.484c.012.353.035.673.053.953s.034.522.052.719.026.341.035.454a.945.945,0,0,1,.005.159.966.966,0,0,1-.025-.157l-.053-.453c-.024-.2-.048-.438-.069-.718s-.051-.6-.068-.954c-.047-.707-.067-1.551-.069-2.488s.045-1.968.134-3.046.235-2.1.4-3.023c.094-.459.168-.9.271-1.3l.138-.587.148-.536c.09-.343.19-.648.278-.915l.122-.373.116-.309.165-.426A.938.938,0,0,1,413.673,358.551Z" transform="translate(-411.842 -358.551)" fill="#263238"/></g><g transform="translate(9.453 7.892)"><path d="M394.2,358.227a.217.217,0,0,1-.008-.054l-.013-.16c-.01-.148-.024-.353-.042-.614l-.141-2.26c-.123-1.908-.3-4.544-.621-7.443-.164-1.449-.354-2.826-.552-4.074-.105-.623-.2-1.216-.309-1.767s-.206-1.065-.3-1.533-.2-.889-.279-1.259-.161-.688-.227-.947l-.147-.6-.036-.156a.221.221,0,0,1-.009-.054.227.227,0,0,1,.019.051l.045.154.165.593c.072.258.156.574.244.944s.2.789.294,1.257.214.979.317,1.533.211,1.145.318,1.768c.2,1.249.4,2.627.561,4.078.321,2.9.487,5.541.592,7.45.052.955.088,1.728.11,2.262.01.261.017.467.022.616,0,.066,0,.118,0,.16A.216.216,0,0,1,394.2,358.227Z" transform="translate(-391.515 -337.306)" fill="#263238"/></g><g transform="translate(8.481 8.335)"><path d="M391.59,340.454a1.4,1.4,0,0,0-1.386-1.16,2.181,2.181,0,0,0-1.679.911,5.254,5.254,0,0,0-.809,1.795,12.192,12.192,0,0,0-.5,4.776,7.229,7.229,0,0,0,1.988,4.306.814.814,0,0,0,.685.313.828.828,0,0,0,.361-.223,10.687,10.687,0,0,0,3.469-8.128,3.3,3.3,0,0,0-.435-1.749c-.337-.507-1.123-1.045-1.7-.842" transform="translate(-387.153 -339.294)" fill="#e8505b"/></g><g transform="translate(4.378)"><g transform="translate(0.015 1.824)"><path d="M372.4,312.481l-.93,1.684c-.022.039-.05.083-.095.087s-.085-.042-.112-.083l-2.459-3.773.567-.321Z" transform="translate(-368.806 -310.075)" fill="#e8505b"/></g><g transform="translate(0.015 1.824)" opacity="0.2"><path d="M372.4,312.481l-.93,1.684c-.022.039-.05.083-.095.087s-.085-.042-.112-.083l-2.459-3.773.567-.321Z" transform="translate(-368.806 -310.075)"/></g><path d="M377.336,309.156l-8.386-4.949a.39.39,0,0,1-.2-.206c-.034-.124.06-.244.149-.336a5.78,5.78,0,0,1,4.482-1.761,5.12,5.12,0,0,1,4.052,2.52,4.619,4.619,0,0,1-.092,4.731" transform="translate(-368.738 -301.891)" fill="#e8505b"/><g transform="translate(1.42 0.706)"><path d="M375.109,305.09a.468.468,0,0,1,.11-.014c.072,0,.179-.017.317-.015a6.28,6.28,0,0,1,1.164.092,6.8,6.8,0,0,1,5.428,4.912,6.32,6.32,0,0,1,.208,1.149,2.29,2.29,0,0,1,.013.245.414.414,0,0,1-.065.183,1.418,1.418,0,0,0,.013-.423,7.154,7.154,0,0,0-.237-1.133,6.851,6.851,0,0,0-5.372-4.861,7.159,7.159,0,0,0-1.151-.123C375.262,305.094,375.109,305.1,375.109,305.09Z" transform="translate(-375.109 -305.06)" fill="#263238"/></g><g transform="translate(4.443 3.847)"><path d="M391.695,319.156a2.03,2.03,0,0,1-.424.193c-.267.105-.641.24-1.058.373s-.8.238-1.08.306a2.018,2.018,0,0,1-.457.087,2.269,2.269,0,0,1,.438-.156l1.068-.334,1.065-.344A2.258,2.258,0,0,1,391.695,319.156Z" transform="translate(-388.676 -319.154)" fill="#263238"/></g><g transform="translate(6.125 0.302)"><path d="M396.241,303.245a5.857,5.857,0,0,1,.047,1.875,17.6,17.6,0,0,1-.047-1.875Z" transform="translate(-396.224 -303.245)" fill="#263238"/></g><g transform="translate(0.138 1.189)"><path d="M369.357,308.259a3.752,3.752,0,0,1,.609-.215c.381-.117.911-.266,1.5-.409s1.132-.252,1.525-.32a3.771,3.771,0,0,1,.64-.087,4.51,4.51,0,0,1-.626.156c-.388.087-.925.207-1.515.349s-1.122.28-1.507.379A4.518,4.518,0,0,1,369.357,308.259Z" transform="translate(-369.357 -307.226)" fill="#263238"/></g></g><g transform="translate(0 7.444)"><path d="M358.532,335.919a3.44,3.44,0,0,0-2.388-.619,7.3,7.3,0,0,0-2.614.675,8.058,8.058,0,0,0-3.588,2.824,4.714,4.714,0,0,0-.506,4.411.63.63,0,0,0,.286.347.684.684,0,0,0,.473-.036,26.482,26.482,0,0,0,4.707-1.876,8.881,8.881,0,0,0,3.618-3.458,2.974,2.974,0,0,0,.381-1.147,1.426,1.426,0,0,0-.369-1.121" transform="translate(-349.095 -335.294)" fill="#e8505b"/><g transform="translate(0.556 0.455)"><path d="M360.484,337.336a.6.6,0,0,1-.116.047l-.337.116-.244.081c-.088.032-.183.072-.285.111-.2.082-.44.165-.689.285l-.394.18c-.137.063-.273.141-.418.214-.292.143-.587.326-.9.512A14.227,14.227,0,0,0,353.553,342c-.224.288-.443.557-.622.828-.091.134-.186.259-.266.387l-.228.368c-.151.231-.263.455-.371.647-.052.1-.1.185-.146.269l-.112.232-.158.32a.6.6,0,0,1-.061.109.563.563,0,0,1,.043-.117l.141-.328.1-.236c.041-.085.09-.175.14-.273.1-.195.211-.422.359-.657l.224-.374c.079-.129.172-.257.263-.393.177-.275.4-.548.619-.839a13.792,13.792,0,0,1,3.571-3.142c.318-.185.616-.366.911-.507.146-.072.284-.149.423-.21l.4-.175c.252-.117.491-.2.7-.273.1-.037.2-.074.289-.1l.248-.073.343-.1A.578.578,0,0,1,360.484,337.336Z" transform="translate(-351.588 -337.335)" fill="#263238"/></g><g transform="translate(0.28 3.504)"><path d="M353.887,351.02a33.771,33.771,0,0,1-3.537,1.034,33.805,33.805,0,0,1,3.537-1.034Z" transform="translate(-350.35 -351.018)" fill="#263238"/></g><g transform="translate(3.699 3.648)"><path d="M365.74,355.393a2.8,2.8,0,0,1-.039-.546c-.009-.338-.011-.805,0-1.321s.042-.982.07-1.319a2.8,2.8,0,0,1,.069-.544,3.129,3.129,0,0,1,0,.548c-.011.37-.025.82-.041,1.318s-.024.948-.033,1.318A3.156,3.156,0,0,1,365.74,355.393Z" transform="translate(-365.694 -351.663)" fill="#263238"/></g><g transform="translate(6.759 1.441)"><path d="M379.728,346.008c-.028,0-.116-.947-.2-2.12s-.124-2.125-.1-2.127.116.947.2,2.12S379.755,346.006,379.728,346.008Z" transform="translate(-379.426 -341.761)" fill="#263238"/></g><g transform="translate(2.933 1.331)"><path d="M362.256,341.286a3.158,3.158,0,0,1,.562-.017c.347,0,.825.013,1.354.03s1.007.039,1.353.059a3.1,3.1,0,0,1,.56.054,3.125,3.125,0,0,1-.562.017c-.347,0-.826-.013-1.355-.03s-1.008-.039-1.354-.059A3.123,3.123,0,0,1,362.256,341.286Z" transform="translate(-362.256 -341.269)" fill="#263238"/></g></g><g transform="translate(10.856 9.519)"><path d="M397.846,355.43a.467.467,0,0,1-.012-.112c0-.084-.009-.191-.015-.322-.013-.28-.016-.686,0-1.188s.043-1.1.1-1.759.16-1.384.3-2.138.306-1.465.477-2.107.355-1.212.523-1.686.313-.854.423-1.113l.128-.3a.5.5,0,0,1,.051-.1.473.473,0,0,1-.032.109l-.11.3c-.1.262-.235.645-.392,1.121s-.33,1.047-.5,1.687-.329,1.35-.468,2.1-.232,1.472-.3,2.13-.106,1.253-.125,1.753-.028.9-.027,1.185c0,.131,0,.238,0,.322A.486.486,0,0,1,397.846,355.43Z" transform="translate(-397.808 -344.605)" fill="#263238"/></g><g transform="translate(8.794 14.853)"><path d="M391.1,368.54a2.3,2.3,0,0,1-.335.367c-.217.216-.525.507-.876.815s-.68.576-.923.762a2.307,2.307,0,0,1-.408.284,2.592,2.592,0,0,1,.363-.339l.9-.783.894-.791A2.613,2.613,0,0,1,391.1,368.54Z" transform="translate(-388.557 -368.539)" fill="#263238"/></g><g transform="translate(11.62 13.585)"><path d="M403.608,366.258a3.954,3.954,0,0,1-.356-.493l-.829-1.209-.846-1.2a3.914,3.914,0,0,1-.339-.506,3.425,3.425,0,0,1,.4.463c.232.3.544.712.872,1.183s.61.907.806,1.228A3.393,3.393,0,0,1,403.608,366.258Z" transform="translate(-401.238 -362.852)" fill="#263238"/></g><g transform="translate(8.607 10.266)"><path d="M391.71,347.96c.015.023-.867.617-1.969,1.326s-2.009,1.265-2.024,1.241.866-.617,1.969-1.326S391.7,347.936,391.71,347.96Z" transform="translate(-387.717 -347.959)" fill="#263238"/></g><g transform="translate(12.489 10.413)"><path d="M407.733,351.156a32.8,32.8,0,0,1-2.6-2.537,32.814,32.814,0,0,1,2.6,2.537Z" transform="translate(-405.135 -348.619)" fill="#263238"/></g><g transform="translate(15.712 7.357)"><path d="M419.6,340.443l.757-.063a3.741,3.741,0,0,0,1.529-.468,6.123,6.123,0,0,1,.712-.358,9.163,9.163,0,0,1,2.987-.359,12.371,12.371,0,0,0,4.752-1.215.461.461,0,0,0,.207-.188c.156-.283-.133-.535-.382-.689a15.592,15.592,0,0,0-4.019-1.972,5.266,5.266,0,0,0-4.322.525c-1.449,1-1.976,3.044-2.221,4.786" transform="translate(-419.598 -334.903)" fill="#e8505b"/><g transform="translate(0.016 0.717)"><path d="M430.616,340.2a.778.778,0,0,1-.128-.06l-.359-.188c-.311-.164-.759-.405-1.325-.677a12.389,12.389,0,0,0-2.051-.79,6.77,6.77,0,0,0-2.659-.215,4.544,4.544,0,0,0-2.424,1.041,5.39,5.39,0,0,0-1.262,1.773,14.823,14.823,0,0,0-.549,1.38l-.135.382a.744.744,0,0,1-.053.131.727.727,0,0,1,.034-.138l.117-.388a12.651,12.651,0,0,1,.522-1.4,5.366,5.366,0,0,1,1.265-1.812,4.6,4.6,0,0,1,2.472-1.071,6.766,6.766,0,0,1,2.7.226,11.931,11.931,0,0,1,2.058.816c.564.281,1.007.532,1.313.706l.35.2A.741.741,0,0,1,430.616,340.2Z" transform="translate(-419.67 -338.122)" fill="#263238"/></g><g transform="translate(4.777 0.829)"><path d="M445.4,341.566c-.015.023-1.006-.617-2.211-1.43s-2.17-1.491-2.155-1.514,1.005.617,2.211,1.43S445.416,341.543,445.4,341.566Z" transform="translate(-441.034 -338.621)" fill="#263238"/></g><g transform="translate(6.632 0.77)"><path d="M450.812,338.364a2.408,2.408,0,0,1-.721.13,2.439,2.439,0,0,1-.735-.01,4.717,4.717,0,0,1,.726-.074A4.8,4.8,0,0,1,450.812,338.364Z" transform="translate(-449.356 -338.357)" fill="#263238"/></g><g transform="translate(3.015 0.212)"><path d="M433.865,335.855a1.911,1.911,0,0,1-.325.507,2.17,2.17,0,0,1-.411.468,1.919,1.919,0,0,1,.325-.507A2.177,2.177,0,0,1,433.865,335.855Z" transform="translate(-433.127 -335.854)" fill="#263238"/></g><g transform="translate(1.629 2.226)"><path d="M429.918,347.022a2.606,2.606,0,0,1-.476-.258c-.286-.174-.673-.428-1.086-.728s-.777-.583-1.039-.791a2.935,2.935,0,0,1-.411-.353,2.866,2.866,0,0,1,.454.3l1.055.766c.412.3.79.561,1.065.749A3.227,3.227,0,0,1,429.918,347.022Z" transform="translate(-426.906 -344.892)" fill="#263238"/></g></g><g transform="translate(15.053 15.771)"><path d="M418.416,373a1.6,1.6,0,0,0-1.732,1.243,3.507,3.507,0,0,0,.447,2.154,10.989,10.989,0,0,0,2.986,3.906,7.384,7.384,0,0,0,4.565,1.681c-.305-1.418.081-2.9-.089-4.339a5.644,5.644,0,0,0-5-4.949c-.461-.05-.994-.122-1.178.3" transform="translate(-416.643 -372.659)" fill="#e8505b"/><g transform="translate(1.772 0.342)"><path d="M430.863,383.178a.5.5,0,0,1-.1-.048,1.891,1.891,0,0,1-.27-.181,2.812,2.812,0,0,1-.713-.953c-.115-.224-.244-.466-.369-.735l-.388-.859a8.334,8.334,0,0,0-.477-.918,7.176,7.176,0,0,0-.657-.893c-.494-.581-1.025-1.083-1.484-1.563a10.216,10.216,0,0,1-1.132-1.358,5,5,0,0,1-.553-1.056,3.227,3.227,0,0,1-.1-.31.471.471,0,0,1-.023-.111c.009,0,.05.148.156.406a5.468,5.468,0,0,0,.575,1.03,10.763,10.763,0,0,0,1.14,1.334c.462.475,1,.976,1.495,1.562a7.144,7.144,0,0,1,.664.907,8.194,8.194,0,0,1,.478.931l.38.862c.121.267.246.513.357.737a2.92,2.92,0,0,0,.675.956C430.726,383.1,430.869,383.168,430.863,383.178Z" transform="translate(-424.596 -374.193)" fill="#263238"/></g><g transform="translate(4.302 4.938)"><path d="M435.951,398.029a2.161,2.161,0,0,1,.066-.486c.057-.3.149-.706.275-1.15s.259-.841.366-1.125a2.17,2.17,0,0,1,.2-.449,2.618,2.618,0,0,1-.13.472c-.089.288-.212.686-.337,1.129s-.228.846-.3,1.138A2.614,2.614,0,0,1,435.951,398.029Z" transform="translate(-435.948 -394.82)" fill="#263238"/></g><g transform="translate(4.436 3.883)"><path d="M440.014,390.868a2.977,2.977,0,0,1-.509-.117c-.311-.081-.741-.193-1.219-.3s-.914-.191-1.23-.251a3,3,0,0,1-.509-.113,2.452,2.452,0,0,1,.521.042c.32.042.76.115,1.241.223s.909.231,1.216.33A2.475,2.475,0,0,1,440.014,390.868Z" transform="translate(-436.548 -390.082)" fill="#263238"/></g><g transform="translate(1.623 1.94)"><path d="M423.931,385.1a2.951,2.951,0,0,1,.078-.562c.064-.345.165-.819.3-1.336s.279-.981.392-1.312a2.961,2.961,0,0,1,.207-.529,3.426,3.426,0,0,1-.139.55c-.1.337-.228.8-.362,1.317s-.246.985-.327,1.326A3.429,3.429,0,0,1,423.931,385.1Z" transform="translate(-423.928 -381.363)" fill="#263238"/></g><g transform="translate(2.231 1.204)"><path d="M430.668,378.494c0,.028-.9-.045-2.013-.163s-2.005-.235-2-.263.9.045,2.013.163S430.671,378.467,430.668,378.494Z" transform="translate(-426.653 -378.063)" fill="#263238"/></g></g><g transform="translate(6.487 28.287)"><path d="M392.355,428.871c0,.028-3.168.05-7.076.05s-7.076-.023-7.076-.05,3.168-.05,7.076-.05S392.355,428.844,392.355,428.871Z" transform="translate(-378.203 -428.821)" fill="#455a64"/></g><g transform="translate(8.9 32.364)"><path d="M398.564,447.166c0,.028-2.135.05-4.768.05s-4.768-.023-4.768-.05,2.134-.05,4.768-.05S398.564,447.138,398.564,447.166Z" transform="translate(-389.029 -447.116)" fill="#455a64"/></g><g transform="translate(8.983 32.947)"><path d="M398.771,449.782c0,.028-2.1.05-4.684.05s-4.685-.022-4.685-.05,2.1-.05,4.685-.05S398.771,449.755,398.771,449.782Z" transform="translate(-389.402 -449.732)" fill="#455a64"/></g><g transform="translate(8.655 31.883)"><path d="M397.8,445.01c0,.028-2.208.05-4.931.05s-4.932-.023-4.932-.05,2.208-.05,4.932-.05S397.8,444.982,397.8,445.01Z" transform="translate(-387.932 -444.96)" fill="#455a64"/></g></g></g><g transform="translate(34.885 32.611)"><g transform="translate(74.599 0)"><g transform="translate(0 3.28)"><path d="M404.654,59.6c0,.032-1.5.05-3.341.04s-3.341-.044-3.34-.076,1.5-.05,3.341-.04S404.654,59.569,404.654,59.6Z" transform="translate(-397.973 -59.523)" fill="#263238"/></g><g transform="translate(3.273)"><path d="M412.762,51.487c-.032,0-.073-1.495-.092-3.34s-.008-3.341.024-3.341.073,1.495.092,3.34S412.794,51.486,412.762,51.487Z" transform="translate(-412.661 -44.806)" fill="#263238"/></g></g><g transform="translate(80.755 50.161)"><g transform="translate(0 1.005)"><path d="M429.645,276.468A44.644,44.644,0,0,1,425.6,274.4a44.549,44.549,0,0,1,4.048,2.068Z" transform="translate(-425.596 -274.398)" fill="#263238"/></g><g transform="translate(1.02)"><path d="M430.175,273.97a44.535,44.535,0,0,1,2.006-4.08,44.6,44.6,0,0,1-2.006,4.08Z" transform="translate(-430.174 -269.89)" fill="#263238"/></g></g><g transform="translate(0 35.521)"><g transform="translate(0 2.02)"><path d="M68.034,213.266c.012.03-1.055.483-2.382,1.012s-2.413.934-2.425.9,1.054-.483,2.382-1.012S68.023,213.236,68.034,213.266Z" transform="translate(-63.228 -213.264)" fill="#263238"/></g><g transform="translate(0.672)"><path d="M67.918,204.772c-.01,0-.038-.065-.118-.167a.839.839,0,0,0-.447-.29.789.789,0,1,0,.47,1.178.837.837,0,0,0,.125-.518c-.012-.129-.039-.2-.029-.2a.415.415,0,0,1,.074.2.835.835,0,0,1-.1.566.876.876,0,0,1-.726.439.889.889,0,0,1-.621-1.557.876.876,0,0,1,.828-.181.835.835,0,0,1,.462.342A.416.416,0,0,1,67.918,204.772Z" transform="translate(-66.243 -204.199)" fill="#263238"/></g><g transform="translate(2.343 4.192)"><path d="M75.415,223.582c-.01,0-.038-.065-.119-.167a.839.839,0,0,0-.447-.29.789.789,0,1,0,.47,1.178.838.838,0,0,0,.125-.518c-.012-.129-.039-.2-.029-.2a.418.418,0,0,1,.074.2.836.836,0,0,1-.1.566.876.876,0,0,1-.726.439.889.889,0,0,1-.621-1.557.877.877,0,0,1,.828-.181.833.833,0,0,1,.462.343A.422.422,0,0,1,75.415,223.582Z" transform="translate(-73.74 -223.008)" fill="#263238"/></g></g></g><g transform="translate(38.139 35.9)"><g transform="translate(0 0)"><path d="M91.843,70.655s.025.06.068.176l.185.515.7,1.978.014.041-.043-.006-2.87-.39.028-.008a7.44,7.44,0,0,1-3.434,1.5,7.139,7.139,0,0,1-1.068.091c-.183,0-.367-.014-.553-.02l-.28-.014c-.094-.008-.187-.027-.281-.039a7.087,7.087,0,0,1-2.252-.678,7.63,7.63,0,0,1-2.044-1.447,7.5,7.5,0,0,1,1.207-11.564,7.319,7.319,0,0,1,2.173-.966l.283-.072.141-.036.143-.022.569-.086c.19-.016.38-.021.568-.031a3.749,3.749,0,0,1,.562.006,5.408,5.408,0,0,1,.553.041l.542.083c.179.029.351.086.525.127l.259.067c.084.027.167.06.25.09a7.369,7.369,0,0,1,1.822.931,7.452,7.452,0,0,1,3.169,5.665,7.079,7.079,0,0,1-.2,2.27,7.2,7.2,0,0,1-.49,1.357c-.072.148-.131.26-.172.332s-.066.111-.066.111.016-.039.054-.115.094-.189.162-.339a7.561,7.561,0,0,0,.468-1.357,7.113,7.113,0,0,0,.183-2.255A7.4,7.4,0,0,0,89.552,61a7.3,7.3,0,0,0-1.8-.914c-.082-.029-.163-.061-.247-.088l-.256-.065c-.172-.04-.341-.1-.518-.124l-.535-.081a5.325,5.325,0,0,0-.546-.039,3.7,3.7,0,0,0-.554,0c-.186.011-.373.016-.56.032l-.561.086-.141.022-.139.036-.278.072a7.213,7.213,0,0,0-2.139.954,7.4,7.4,0,0,0-1.192,11.391A7.529,7.529,0,0,0,82.1,73.706a7,7,0,0,0,2.219.675c.093.013.185.031.277.04l.277.014c.184.006.365.026.546.022a7.032,7.032,0,0,0,1.055-.087,7.387,7.387,0,0,0,3.4-1.467l.012-.01.015,0,2.868.41-.029.035-.674-1.995L91.9,70.83C91.859,70.714,91.843,70.655,91.843,70.655Z" transform="translate(-77.83 -59.566)" fill="#263238"/><g transform="translate(5.931 4.888)"><g transform="translate(0 0.845)"><path d="M106.387,85.318a.3.3,0,0,1,.169.269v1.484a.3.3,0,0,1-.379.287.926.926,0,0,0-.727.111.835.835,0,0,0-.4.53.854.854,0,0,0,.152.649.951.951,0,0,0,.612.406,1.117,1.117,0,0,0,1.168-.755.3.3,0,0,1,.568.181,1.717,1.717,0,0,1-1.829,1.163,1.538,1.538,0,0,1-1.009-.656,1.451,1.451,0,0,1-.245-1.108,1.431,1.431,0,0,1,.671-.918,1.561,1.561,0,0,1,.819-.229V85.587a.3.3,0,0,1,.427-.269Z" transform="translate(-104.444 -85.289)" fill="#e8505b"/></g><g transform="translate(1.532)"><path d="M111.321,81.749a.244.244,0,1,1,.25.238A.244.244,0,0,1,111.321,81.749Z" transform="translate(-111.321 -81.499)" fill="#e8505b"/></g></g></g></g></g></g></svg>