<svg xmlns="http://www.w3.org/2000/svg" width="190" height="166.186" viewBox="0 0 190 166.186"><g transform="translate(-1020 -4650)"><rect width="190" height="143" transform="translate(1020 4673)" fill="#eef3eb"/><g transform="translate(975.483 4604.367)"><g transform="translate(44.595 53.158)"><g transform="translate(0 0)"><path d="M48.253,75.692a1.273,1.273,0,0,0,.124.043,1.645,1.645,0,0,0,.61.118h7.774l1.147,1.338.034.034a.313.313,0,0,0,.163.072.309.309,0,0,0,.125.044.3.3,0,0,0,.124.045.322.322,0,0,0,.125.043.3.3,0,0,0,.125.044.3.3,0,0,0,.125.044.309.309,0,0,0,.124.044.3.3,0,0,0,.125.043.3.3,0,0,0,.124.044.307.307,0,0,0,.125.044,16.683,16.683,0,0,1,.249.089.319.319,0,0,0,.126.043,101.267,101.267,0,0,1,.373.132A.3.3,0,0,0,60.1,78a.313.313,0,0,0,.124.044.3.3,0,0,0,.125.043.3.3,0,0,0,.124.044.307.307,0,0,0,.125.045.313.313,0,0,0,.4-.062l1.939-2.262h.476A1.66,1.66,0,0,0,65.069,74.2V67.1A1.661,1.661,0,0,0,63.9,65.519a1.08,1.08,0,0,0-.124-.043,1.3,1.3,0,0,0-.124-.043c-.041-.017-.083-.032-.125-.045s-.083-.03-.126-.043-.082-.031-.124-.044-.081-.031-.123-.044-.083-.031-.126-.044-.084-.031-.126-.044-.08-.03-.122-.043-.082-.031-.126-.044-.082-.031-.124-.045S62.444,65,62.4,64.99s-.082-.03-.124-.043-.081-.031-.124-.044-.083-.031-.126-.044a1.27,1.27,0,0,0-.126-.044c-.039-.016-.08-.03-.122-.043s-.083-.032-.125-.045-.083-.03-.125-.043-.082-.031-.126-.045a1.637,1.637,0,0,0-.609-.118H46.368a1.661,1.661,0,0,0-1.656,1.656v7.1a1.662,1.662,0,0,0,1.173,1.584c.041.016.08.03.122.043s.083.031.126.044a1.294,1.294,0,0,0,.124.044c.041.016.084.031.126.044s.082.031.125.044.082.031.122.043.084.032.128.045.082.031.124.045.08.03.123.043.083.031.125.045.082.03.125.043.083.032.126.044.082.031.126.044.081.031.122.044.084.032.128.044a1.28,1.28,0,0,0,.122.044c.041.016.082.031.126.044s.082.031.125.044S48.21,75.678,48.253,75.692Z" transform="translate(-44.712 -64.521)" fill="#62aee1" fill-rule="evenodd"/></g></g><g transform="translate(196.428 168.22)"><path d="M444.859,354.267a1.3,1.3,0,0,1,.123.044,1.661,1.661,0,0,1,1.173,1.583v7.1a1.661,1.661,0,0,1-1.656,1.656h-9.6l-1.939,2.262-.034.034a.617.617,0,0,1-.49-.016,13.11,13.11,0,0,0-.249-.088.316.316,0,0,1-.124-.044.312.312,0,0,1-.125-.044.3.3,0,0,1-.125-.044.315.315,0,0,1-.125-.043.32.32,0,0,1-.124-.045.3.3,0,0,1-.125-.044,67.807,67.807,0,0,0-.25-.088.319.319,0,0,1-.124-.043.3.3,0,0,1-.125-.045.311.311,0,0,1-.125-.043.307.307,0,0,1-.124-.044.322.322,0,0,1-.125-.044.328.328,0,0,1-.125-.044.306.306,0,0,1-.124-.044.3.3,0,0,1-.125-.044.3.3,0,0,1-.124-.044.3.3,0,0,1-.2-.106l-1.611-1.878-.043-.017c-.043-.013-.085-.028-.126-.044s-.082-.028-.123-.043-.083-.027-.123-.044-.086-.028-.129-.045-.082-.027-.122-.043-.084-.028-.125-.045-.084-.028-.125-.044-.083-.027-.125-.043-.084-.028-.125-.045-.083-.027-.123-.043a1.662,1.662,0,0,1-1.171-1.584v-7.1a1.659,1.659,0,0,1,1.656-1.655H441.88a1.645,1.645,0,0,1,.61.116c.042.014.084.028.125.044s.083.028.124.045a1.231,1.231,0,0,1,.126.044c.041.013.082.028.122.043s.084.028.126.044a1.3,1.3,0,0,1,.125.045,1.279,1.279,0,0,1,.123.043c.042.012.084.027.124.043s.084.028.126.045.084.028.125.044a1.214,1.214,0,0,1,.126.044c.041.012.081.027.121.043s.084.028.126.044.085.028.126.044.082.028.123.044.084.028.124.043a1.28,1.28,0,0,1,.126.045c.043.013.084.028.125.044S444.818,354.252,444.859,354.267Z" transform="translate(-425.798 -353.315)" fill="#62aee1" fill-rule="evenodd"/></g><g transform="translate(69.052 48.428)"><g transform="translate(0)"><path d="M111.525,72.025c15-2.7,30.966-5.581,48.006-8.653l58.889-10.615c3.065-.553,5.6,1.03,5.6,3.492v148.9c0,2.463-2.518,4.226-5.583,3.952-21.068-1.89-40.663-3.65-58.914-5.288L111.5,199.5a4.02,4.02,0,0,1-3.636-3.894c0-1.932-1.2-5.652-1.234-7.6-.281-18.1-.539-35.079-.535-53.042,0-16.412.03-35.123.451-51.325.089-3.416,1.33-3.887,1.33-7.353A4.561,4.561,0,0,1,111.525,72.025Z" transform="translate(-106.097 -52.647)" fill="#b7e3f9" fill-rule="evenodd"/></g></g><g transform="translate(68.147 49.172)"><g transform="translate(0 0)"><path d="M107.425,73.642q22.208-4,47.411-8.549l58.105-10.471c3.018-.544,5.5,1.029,5.5,3.474q0,36.977.012,73.924v73.909c0,2.444-2.483,4.2-5.5,3.925l-58.129-5.217q-25.255-2.264-47.411-4.256a3.98,3.98,0,0,1-3.589-3.869V77.876a4.5,4.5,0,0,1,3.6-4.234Zm-1.462,18.52V137.1c0,14.984,0,21.862,0,36.846q22.813,1.161,48.872,2.486c18.643.942,38.713,1.956,60.327,3.055-.012-18.465-.007-28.854-.007-47.321V76.727c-21.626,3.054-41.671,5.891-60.315,8.532C137.453,87.719,121.2,90.009,105.963,92.162Z" transform="translate(-103.825 -54.515)" fill="#cdeaf9" fill-rule="evenodd"/></g></g><g transform="translate(74.219 184.06)"><g transform="translate(0)"><path d="M119.885,393.073,132.92,394l13.8.98a.966.966,0,0,1,.9.916h0a.8.8,0,0,1-.9.771l-13.8-1.027-13.035-.972a.885.885,0,0,1-.82-.851h0a.752.752,0,0,1,.82-.745Zm31.227,2.22,3.494.249a1,1,0,0,1,.939.932h0a.828.828,0,0,1-.939.781l-3.494-.261a.975.975,0,0,1-.926-.911h0A.829.829,0,0,1,151.111,395.293Z" transform="translate(-119.065 -393.071)" fill="#8c9bb0" fill-rule="evenodd"/></g></g><g transform="translate(74.219 187.332)"><g transform="translate(0)"><path d="M119.611,401.286q9.055.705,18.632,1.455a.629.629,0,0,1,.583.6h0a.52.52,0,0,1-.583.51l-18.632-1.5a.593.593,0,0,1-.546-.579h0A.489.489,0,0,1,119.611,401.286Z" transform="translate(-119.065 -401.284)" fill="#dcddeb" fill-rule="evenodd"/></g></g><g transform="translate(87.955 71.036)"><g transform="translate(0)"><path d="M168,109.778c1.153-.187,1.081-.179,2.268-.373a.759.759,0,0,1,.939.714h0a1.119,1.119,0,0,1-.951,1c-1.176.188-1.1.178-2.256.361a.736.736,0,0,1-.926-.7h0a1.085,1.085,0,0,1,.926-1.01Zm-13.589,2.231c4.93-.8,4.762-.794,9.919-1.634a.737.737,0,0,1,.915.706h0a1.083,1.083,0,0,1-.928.987l-9.906,1.582a.7.7,0,0,1-.868-.675h0A1.039,1.039,0,0,1,154.409,112.009Z" transform="translate(-153.541 -109.392)" fill="#8c9bb0" fill-rule="evenodd"/></g></g><g transform="translate(87.955 76.019)"><g transform="translate(0)"><path d="M154.112,122.98q3.4-.532,6.891-1.075a.479.479,0,0,1,.582.469h0a.694.694,0,0,1-.582.649q-3.493.535-6.891,1.059a.467.467,0,0,1-.571-.462h0A.69.69,0,0,1,154.112,122.98Z" transform="translate(-153.541 -121.898)" fill="#dcddeb" fill-rule="evenodd"/></g></g><g transform="translate(70.281 71.383)"><path d="M109.185,125.7V170.64l0,36.846q22.813,1.161,48.872,2.486c18.643.942,38.713,1.956,60.327,3.055-.012-18.465-.007-28.854-.007-47.321V110.264c-21.626,3.054-41.671,5.891-60.315,8.532C140.675,121.257,124.419,123.547,109.185,125.7Z" transform="translate(-109.181 -110.264)" fill="#d7eefb" fill-rule="evenodd"/></g><g transform="translate(98.716 127.575)" opacity="0.5"><path d="M220.946,264a5.14,5.14,0,0,0-1.8.322,1.385,1.385,0,0,0-1.558-.347,2.308,2.308,0,0,0-3.7-1.655,1.366,1.366,0,0,0-1.107-.565,1.42,1.42,0,0,0-.224.019,2.978,2.978,0,0,0-3.618-4.016,1.353,1.353,0,0,0-1.225-.78h-.04c.007-.108.011-.216.011-.325a5.352,5.352,0,0,0-10.7,0c0,.042,0,.084,0,.124a3.287,3.287,0,0,0-2.34.279,4.287,4.287,0,0,0-7.535,3.864c-.043,0-.086,0-.13,0a2.111,2.111,0,0,0-2.111,2.111,2.178,2.178,0,0,0,.038.4l-.044,0a1.218,1.218,0,0,0-1.217,1.177,3.1,3.1,0,0,0-.565-.053,2.875,2.875,0,0,0-1.985.75c-1.371,1.3.125,1.634,1.569,1.634h39.87c1.5,0,3.651.247,2.159-1.326A5.147,5.147,0,0,0,220.946,264Z" transform="translate(-180.552 -251.299)" fill="#82c8ef" fill-rule="evenodd"/></g><g transform="translate(49.187 104.895)" opacity="0.5"><g transform="translate(0)"><path d="M92.414,205.746a4.608,4.608,0,0,0-1.611.289,1.241,1.241,0,0,0-1.4-.311,2.065,2.065,0,0,0-3.314-1.483,1.219,1.219,0,0,0-1.192-.489,2.669,2.669,0,0,0-3.241-3.6,1.21,1.21,0,0,0-1.1-.7h-.035c.006-.1.01-.192.01-.29a4.793,4.793,0,0,0-9.586,0c0,.037,0,.074,0,.112a2.941,2.941,0,0,0-2.1.249,3.84,3.84,0,0,0-6.748,3.462c-.038,0-.078,0-.116,0a1.893,1.893,0,0,0-1.857,2.249H60.1a1.091,1.091,0,0,0-1.09,1.053,2.7,2.7,0,0,0-.5-.047,2.574,2.574,0,0,0-1.779.672c-1.228,1.162.113,1.463,1.4,1.463H93.834c1.345,0,3.271.221,1.933-1.188A4.611,4.611,0,0,0,92.414,205.746Z" transform="translate(-56.237 -194.375)" fill="#82c8ef" fill-rule="evenodd"/></g></g><g transform="translate(70.281 142.945)"><path d="M109.183,303.1l0,12.434q22.813,1.161,48.872,2.486l5.858.3c-8.219-6.666-33.65-27.277-34.811-28.051a2.39,2.39,0,0,0-2.7.077S116.477,297.728,109.183,303.1Z" transform="translate(-109.181 -289.877)" fill="#62aee1" fill-rule="evenodd"/><g transform="translate(0 0.43)"><path d="M109.183,303.752l0,12.434,19.747,1.007c.556-5.571,1.341-13.467,1.367-13.839a.88.88,0,0,0-.578-.808,29.813,29.813,0,0,1-3.157-.963c-.732-.347-.539-1.425-.539-1.425s1.387-7.239,1.387-8.356a.74.74,0,0,0-1-.808S116.477,298.377,109.183,303.752Z" transform="translate(-109.181 -290.955)" fill="#82c8ef" fill-rule="evenodd"/></g></g><g transform="translate(84.94 150.642)"><g transform="translate(0)"><path d="M145.974,327.908q13.634.7,28.315,1.438l25.323,1.28c-10.684-8.653-25.285-20.457-26.159-21.039a2.391,2.391,0,0,0-2.695.078S146.741,327.524,145.974,327.908Z" transform="translate(-145.974 -309.196)" fill="#62aee1" fill-rule="evenodd"/></g><g transform="translate(0 0.43)"><path d="M145.974,328.557q13.468.688,27.957,1.42c.376-3.788.7-7.068.715-7.3a.88.88,0,0,0-.579-.809,29.813,29.813,0,0,1-3.157-.963c-.732-.347-.539-1.425-.539-1.425s1.387-7.239,1.387-8.356a.74.74,0,0,0-1-.808S146.741,328.173,145.974,328.557Z" transform="translate(-145.974 -310.275)" fill="#82c8ef" fill-rule="evenodd"/></g></g><g transform="translate(94.047 125.397)"><g transform="translate(0)"><path d="M209.227,258.529a5.152,5.152,0,0,0-1.8.322,1.388,1.388,0,0,0-1.558-.347,2.307,2.307,0,0,0-3.7-1.655,1.367,1.367,0,0,0-1.107-.565,1.421,1.421,0,0,0-.224.018,2.98,2.98,0,0,0-3.619-4.016,1.352,1.352,0,0,0-1.226-.779h-.039c.007-.107.011-.216.011-.324a5.352,5.352,0,0,0-10.7,0c0,.041,0,.082,0,.124a3.288,3.288,0,0,0-2.34.279,4.288,4.288,0,0,0-7.535,3.865c-.043,0-.086,0-.13,0a2.111,2.111,0,0,0-2.111,2.112,2.148,2.148,0,0,0,.038.4h-.044a1.217,1.217,0,0,0-1.217,1.177,3.064,3.064,0,0,0-.565-.053,2.875,2.875,0,0,0-1.986.749c-1.371,1.3.126,1.634,1.568,1.634h39.87c1.5,0,3.652.247,2.16-1.326A5.147,5.147,0,0,0,209.227,258.529Z" transform="translate(-168.833 -245.832)" fill="#fff" fill-rule="evenodd"/></g></g><g transform="translate(97.399 98.944)"><g transform="translate(0)"><path d="M178.038,179.438s26.952,6.742,25.1,19.129c0,0,3.006-10.9-25.894-16.725Z" transform="translate(-177.245 -179.438)" fill="#82c8ef" fill-rule="evenodd"/></g></g><g transform="translate(70.281 71.383)" opacity="0.5"><path d="M112.05,127.752q24.436-3.454,48.872-6.9,28.725-4.068,57.45-8.127v-2.457c-21.626,3.054-41.671,5.891-60.315,8.532-17.383,2.461-33.639,4.751-48.872,6.9V170.64l0,36.846,2.243.114.005-79.133A.72.72,0,0,1,112.05,127.752Z" transform="translate(-109.181 -110.264)" fill="#62aee1" fill-rule="evenodd"/></g><g transform="translate(44.517 102.717)"><path d="M80.693,200.279a4.62,4.62,0,0,0-1.61.288,1.239,1.239,0,0,0-1.4-.31,2.066,2.066,0,0,0-3.316-1.482,1.224,1.224,0,0,0-1.191-.49,2.669,2.669,0,0,0-3.242-3.6,1.21,1.21,0,0,0-1.1-.7h-.035c.006-.1.009-.193.009-.29a4.792,4.792,0,1,0-9.585,0c0,.036,0,.074,0,.11a2.951,2.951,0,0,0-2.1.25,3.84,3.84,0,0,0-6.747,3.461c-.038,0-.077,0-.116,0a1.89,1.89,0,0,0-1.891,1.891,1.871,1.871,0,0,0,.034.359h-.039a1.091,1.091,0,0,0-1.09,1.054,2.678,2.678,0,0,0-.505-.047,2.578,2.578,0,0,0-1.78.671c-1.228,1.161.114,1.463,1.405,1.463H82.114c1.346,0,3.271.221,1.933-1.188A4.609,4.609,0,0,0,80.693,200.279Z" transform="translate(-44.517 -188.908)" fill="#fff" fill-rule="evenodd"/></g><g transform="translate(194.262 166.679)"><path d="M439.422,350.4c.042.013.083.027.124.043a1.662,1.662,0,0,1,1.171,1.584v7.1a1.659,1.659,0,0,1-1.655,1.655h-9.6l-1.938,2.263-.034.034a.312.312,0,0,1-.366.028.3.3,0,0,1-.124-.045.3.3,0,0,1-.125-.043.326.326,0,0,1-.125-.043,86.819,86.819,0,0,0-.249-.089.312.312,0,0,1-.125-.044.29.29,0,0,1-.124-.044.307.307,0,0,1-.125-.043.328.328,0,0,1-.125-.044.305.305,0,0,1-.125-.045.3.3,0,0,1-.124-.043.321.321,0,0,1-.125-.043,31.291,31.291,0,0,0-.25-.089.319.319,0,0,1-.124-.043.305.305,0,0,1-.125-.045.314.314,0,0,1-.124-.043.311.311,0,0,1-.125-.045.29.29,0,0,1-.124-.044.3.3,0,0,1-.125-.043.31.31,0,0,1-.2-.106l-1.611-1.879-.043-.016c-.042-.013-.084-.028-.125-.045s-.082-.027-.122-.043a1.27,1.27,0,0,1-.125-.045c-.043-.013-.085-.028-.128-.045s-.082-.027-.121-.042-.084-.028-.126-.045-.085-.029-.127-.044-.083-.028-.123-.045a1.322,1.322,0,0,1-.127-.044c-.041-.012-.081-.027-.122-.043a1.661,1.661,0,0,1-1.172-1.584v-7.1a1.66,1.66,0,0,1,1.655-1.656h14.427a1.639,1.639,0,0,1,.609.117c.043.013.084.028.125.045s.084.028.126.044.084.028.125.044.082.027.123.044.084.027.125.043.084.028.125.045.084.027.124.044.083.027.125.043.084.028.126.043.084.028.125.045.085.028.126.043.081.028.122.043.084.028.125.045.085.027.127.044.082.027.122.043.084.027.125.044.084.028.125.044.084.028.126.044S439.382,350.384,439.422,350.4Z" transform="translate(-420.361 -349.447)" fill="#cf5869" fill-rule="evenodd"/></g><g transform="translate(50.608 79.372)"><g transform="translate(35.155 12.916)"><path d="M148.041,163.53l1.237-.8.231.091-.554.934a2.731,2.731,0,0,1-.441.05C148.5,163.784,148.041,163.53,148.041,163.53Z" transform="translate(-148.041 -162.732)" fill="#fff" fill-rule="evenodd"/></g><g transform="translate(35.155 12.916)"><path d="M148.041,163.53l1.237-.8.087.034-1.1.82a.124.124,0,0,0-.033.053Z" transform="translate(-148.041 -162.732)" fill="#fff" fill-rule="evenodd"/></g><g transform="translate(35.126 13.714)"><path d="M154.429,168.746l-5.517-3.783-.915-.227a.448.448,0,0,0,.1.469c.084.095,1.936,1.664,4.09,3.483Z" transform="translate(-147.969 -164.736)" fill="#fff" fill-rule="evenodd"/></g><g transform="translate(35.126 13.714)"><path d="M148.225,164.793l-.227-.057a.448.448,0,0,0,.1.469c.084.095,1.936,1.664,4.09,3.483l.66.017c-2.392-1.913-4.49-3.593-4.564-3.66C148.109,164.889,148.222,164.8,148.225,164.793Z" transform="translate(-147.969 -164.736)" fill="#dcddeb" fill-rule="evenodd"/></g><g transform="translate(0.031)"><path d="M59.883,131.172l1.328-.857.248.1-.6,1a2.92,2.92,0,0,1-.473.055C60.372,131.444,59.883,131.172,59.883,131.172Z" transform="translate(-59.883 -130.315)" fill="#fff" fill-rule="evenodd"/></g><g transform="translate(0.031)"><path d="M59.883,131.172l1.328-.857.093.037-1.177.88a.128.128,0,0,0-.036.056Z" transform="translate(-59.883 -130.315)" fill="#fff" fill-rule="evenodd"/></g><g transform="translate(0 0.857)"><path d="M74.357,141.994l-13.541-9.287-.981-.243a.48.48,0,0,0,.1.5c.219.247,11.718,9.91,11.718,9.91Z" transform="translate(-59.805 -132.465)" fill="#fff" fill-rule="evenodd"/></g><g transform="translate(0 0.857)"><path d="M60.079,132.526l-.243-.061a.48.48,0,0,0,.1.5c.219.247,11.718,9.91,11.718,9.91l.764-.251c-1.432-1.143-12.109-9.674-12.283-9.831S60.076,132.529,60.079,132.526Z" transform="translate(-59.805 -132.465)" fill="#dcddeb" fill-rule="evenodd"/></g><g transform="translate(7.518 10.185)"><path d="M88.613,156.18c-1.207-.262-3.674-.626-5.391.257a15.455,15.455,0,0,0-3.71,2.668,3.456,3.456,0,0,0-.417,3.821c.981,1.585,3.623,2.906,5.977,3.487s24.354,4.868,24.354,4.868a2.981,2.981,0,0,0,1.241-.123c.675-.214,7.775-2.947,7.775-2.947a.684.684,0,0,0,.391-.588.666.666,0,0,0,.539-.53,6.183,6.183,0,0,0,0-1.261s.138-1.214-2.728-2.06S88.613,156.18,88.613,156.18Z" transform="translate(-78.674 -155.878)" fill="#fff" fill-rule="evenodd"/></g><g transform="translate(8.365 13.646)"><path d="M81.2,169.12a12.621,12.621,0,0,0,5.148,2.519c2.354.581,24.354,4.868,24.354,4.868a2.981,2.981,0,0,0,1.241-.123c.675-.214,7.775-2.947,7.775-2.947a.684.684,0,0,0,.391-.588.666.666,0,0,0,.539-.53,3.191,3.191,0,0,0,.035-.517,1.243,1.243,0,0,0-1.009.164,22.278,22.278,0,0,1-2.4,1.373,2.592,2.592,0,0,1-1.428.059s-30.38-6.41-31.374-6.724-.824-.927-.824-.927.082-.594.139-.92-.147-.255-.147-.255-1.91.837-2.379,1.094a1.074,1.074,0,0,0-.447.913A6.556,6.556,0,0,0,81.2,169.12Z" transform="translate(-80.799 -164.565)" fill="#dcddeb" fill-rule="evenodd"/></g><g transform="translate(42.374 6.504)"><path d="M166.159,157.348a2.7,2.7,0,0,0,1.847-.778c.85-.826,8.567-9.871,8.567-9.871a.3.3,0,0,1,.316-.025c.186.088,1.422.608,1.422.608s.105.043.017.2-7.006,11.7-7.006,11.7a.568.568,0,0,0,.021.5,6.858,6.858,0,0,0-2.619-1.147,8.753,8.753,0,0,1-2.085-.583A2.224,2.224,0,0,1,166.159,157.348Z" transform="translate(-166.159 -146.641)" fill="#dcddeb" fill-rule="evenodd"/></g><g transform="translate(42.374 6.504)"><path d="M166.159,157.348a2.7,2.7,0,0,0,1.847-.778c.85-.826,8.567-9.871,8.567-9.871a.3.3,0,0,1,.316-.025l-8.651,10.178a3.024,3.024,0,0,1-1.787.922h0A3.523,3.523,0,0,1,166.159,157.348Z" transform="translate(-166.159 -146.641)" fill="#fff" fill-rule="evenodd"/></g><g transform="translate(10.458 11.416)"><path d="M87.231,158.969a5.24,5.24,0,0,0,1.3.969c.761.385,3.976,1.547,3.976,1.547s-.292,1.264-.291,1.206-2.992-.819-4.43-1.473a3.2,3.2,0,0,1-1.735-1.412Z" transform="translate(-86.054 -158.969)" fill="#8c9bb0" fill-rule="evenodd"/></g><g transform="translate(25.739 20.245)"><path d="M131.772,183.465a1.115,1.115,0,0,0-.207-.548c-.169-.177-5.261-1.726-5.261-1.726a1.614,1.614,0,0,0-1.354.216c-.618.456-.852,2.04.084,2.324s4.492,1.063,4.492,1.063Z" transform="translate(-124.408 -181.128)" fill="#fff" fill-rule="evenodd"/></g><g transform="translate(46.279 21.525)"><path d="M177.483,184.34l11.18,4.532-.607.176-12.094-4.158a.5.5,0,0,1,.173-.316A10.469,10.469,0,0,1,177.483,184.34Z" transform="translate(-175.961 -184.34)" fill="#fff" fill-rule="evenodd"/></g><g transform="translate(46.279 21.759)"><path d="M188.055,189.4l-12.094-4.158a.5.5,0,0,1,.173-.316l11.918,4.3Z" transform="translate(-175.961 -184.928)" fill="#dcddeb" fill-rule="evenodd"/></g><g transform="translate(58.37 24.55)"><path d="M206.308,193.445l.791-1.511.192.005-.372,1.5-.607.177Z" transform="translate(-206.308 -191.934)" fill="#fff" fill-rule="evenodd"/></g><g transform="translate(28.544 21.517)"><path d="M163.3,196.489s-26.144-10.659-26.536-10.823-1.183-.425-1.183-.425l-2.972-.906a.508.508,0,0,0-.424.085c-.158.15-.642.638-.642.638s-.15.208-.068.364a1.8,1.8,0,0,0,.628.681c.285.142,29.872,10.763,29.872,10.763Z" transform="translate(-131.447 -184.321)" fill="#fff" fill-rule="evenodd"/></g><g transform="translate(28.544 22.255)"><path d="M131.54,186.172s-.15.208-.068.364a1.8,1.8,0,0,0,.628.681c.285.142,29.872,10.763,29.872,10.763l.023-.282s-29.607-10.975-30.084-11.132S131.54,186.172,131.54,186.172Z" transform="translate(-131.447 -186.172)" fill="#dcddeb" fill-rule="evenodd"/></g><g transform="translate(59.069 31.963)"><path d="M208.084,212.357l.9-1.641a.288.288,0,0,1,.216-.138l.384-.038s.111-.015.1.118-.3,1.6-.3,1.6l-1.325.378Z" transform="translate(-208.061 -210.54)" fill="#fff" fill-rule="evenodd"/></g></g><g transform="translate(74.94 174.966)"><path d="M124.408,370.659l.077.019a1.873,1.873,0,0,1,.389.135,1.77,1.77,0,0,1,1.584-.32l.071.017.076.02c.024,0,.049.012.073.018s.05.012.075.019l.072.017.078.02.073.018.073.018.075.018.077.02c.024,0,.049.012.073.018l.073.018.075.018.076.02.074.018.074.019c.025.005.05.012.075.019l.073.017.077.019.073.018a1.889,1.889,0,0,1,.937.525h0a1.687,1.687,0,0,1,0,2.445c-.17.154-.322.3-.488.45-.844.776-1.675,1.536-2.508,2.295l-.043-.046-.031.027-.044-.046-.03.028-.044-.046-.03.027-.043-.046-.031.027-.043-.046-.03.028-.044-.047-.03.029-.044-.046-.03.027-.043-.046-.03.027-.044-.046-.031.028-.044-.047-.03.028-.044-.046-.031.027-.043-.046-.03.028-.044-.046-.031.028-.044-.046-.031.027-.044-.046-.031.028-.044-.047-.03.028-.043-.046-.031.027-.044-.046-.03.027-.044-.045-.03.027-.043-.046-.031.028-.043-.046-.03.027c-.82-.862-1.652-1.72-2.472-2.588-.155-.163-.3-.331-.464-.5a1.673,1.673,0,0,1,0-2.414c.025-.023.049-.045.075-.066A1.7,1.7,0,0,1,123,370.31l.076.019.076.02.069.016c.025.006.051.012.075.019s.05.012.075.019.051.012.075.019l.076.018.073.018.076.019.072.018.075.019.072.017.078.02c.024.006.05.012.075.019s.048.011.073.018.05.012.075.019l.073.017.074.018Z" transform="translate(-120.875 -370.247)" fill="#cf5869" fill-rule="evenodd"/></g><g transform="translate(84.642 174.865)"><path d="M151.193,370.514l.064.019a4.213,4.213,0,0,1,1.824,1.07,3.832,3.832,0,0,1,1.141,2.678,3.36,3.36,0,0,1-.237,1.255,3.084,3.084,0,0,1-.582.956c.083.309.166.618.25.914a.285.285,0,0,1-.226.368.343.343,0,0,1-.166-.011l-.03-.009-.033-.01-.029-.008-.034-.01-.028-.009-.034-.009-.029-.009-.034-.009-.029-.01a.22.22,0,0,1-.034-.009l-.029-.01a.207.207,0,0,1-.034-.009l-.03-.009c-.012,0-.023-.005-.033-.009l-.029-.009a.222.222,0,0,1-.033-.009l-.028-.009a.194.194,0,0,1-.034-.01l-.03-.008-.034-.01-.029-.009a.234.234,0,0,1-.034-.01l-.028-.009-.034-.009-.029-.009-.034-.01-.028-.009-.034-.009-.029-.009a.245.245,0,0,1-.034-.009l-.029-.01-.033-.009-.028-.009a.251.251,0,0,1-.034-.009l-.029-.009-.028-.007a3.818,3.818,0,0,1-1.786.309,4.124,4.124,0,0,1-.909-.163l-.066-.02-.065-.018-.064-.019-.067-.02-.051-.015-.069-.02-.066-.02-.067-.02-.045-.012-.072-.022-.062-.018-.064-.019-.06-.017-.066-.02-.069-.02-.05-.015-.069-.02-.07-.02-.059-.017-.066-.02a4.107,4.107,0,0,1-1.844-1.112,3.754,3.754,0,0,1-1.1-2.647,3.372,3.372,0,0,1,1.1-2.519,3.663,3.663,0,0,1,2.7-.935,4.117,4.117,0,0,1,.975.168l.066.02.059.017.065.019.06.017.071.02.059.017.063.019.067.02.06.017.064.019.061.018.062.018.067.02.061.017.061.018.062.018.068.02.061.018.056.016Zm.105,1.114a3.646,3.646,0,0,0-.846-.621c-.034,0-.069-.006-.1-.006a3.077,3.077,0,0,0-2.246.772,2.839,2.839,0,0,0-.916,2.1,3.149,3.149,0,0,0,.916,2.208,3.453,3.453,0,0,0,.862.643l.064,0a3.532,3.532,0,0,0,.843-.051,2.568,2.568,0,0,0,.761-.267.358.358,0,0,1,.262-.01l.016,0,.047.014.016,0a.322.322,0,0,1,.047.013l.016.006a.2.2,0,0,1,.047.013l.017,0a.208.208,0,0,1,.046.014l.017,0a.259.259,0,0,1,.046.014l.016,0a.294.294,0,0,1,.046.014l.017,0a.305.305,0,0,1,.046.014l.017.005a.2.2,0,0,1,.046.013l.016,0a.4.4,0,0,1,.047.013l.016.006a.4.4,0,0,1,.047.013l.016,0,.019,0c-.059-.172-.106-.345-.152-.517h0a.3.3,0,0,1,.071-.273,2.729,2.729,0,0,0,.571-.9,3.031,3.031,0,0,0,.2-1.045A3.216,3.216,0,0,0,151.3,371.628Z" transform="translate(-145.226 -369.993)" fill="#dcddeb" fill-rule="evenodd"/></g><g transform="translate(93.872 175.291)"><g transform="translate(0)"><path d="M173.93,378.629Zm-1.486-.367Zm1.56.385Zm-1.485-.367Zm.074.019Zm.074.018Zm.074.018Zm.075.019Zm.075.018Zm.073.019Zm.075.018Zm.074.019Zm.075.018Zm.074.019Zm.074.019Zm.074.018Zm.075.019Zm.073.018Zm.075.019Zm.074.019Zm.075.018Zm.073.019Zm1.105-6.258q-1.924-.115-3.808-.237c.492.457.984.914,1.483,1.369l2.326-1.132Zm-2.516,5.909c-.3-1.29-.606-2.579-.891-3.878-1.022-.925-2.031-1.859-3.053-2.79h0a.382.382,0,0,1-.107-.244.3.3,0,0,1,.332-.288q3.958.24,8.021.474h0a.082.082,0,0,1,.059.016h.048v0a.042.042,0,0,1,.025.012l.01,0h.015l.012,0h.013v0a.038.038,0,0,1,.025.012H177v0a.042.042,0,0,1,.026.012h.01v0h.038v0a.044.044,0,0,1,.026.012h.049v0a.04.04,0,0,1,.025.013h.025l.012,0h.012v0a.05.05,0,0,1,.026.013h.024l.012,0h.012v0a.051.051,0,0,1,.026.012h.049v0a.051.051,0,0,1,.026.012h.048v0a.053.053,0,0,1,.026.012h.049v0a.041.041,0,0,1,.025.012h.01v0h.015l.012,0h.012v0a.049.049,0,0,1,.027.012h.01v0h.038v0a.043.043,0,0,1,.025.013h.025l.012,0h.012a.04.04,0,0,1,.025.014h.024l.012,0h.013v0a.04.04,0,0,1,.025.013h.048v0a.05.05,0,0,1,.027.012h.036l.012,0v0a.06.06,0,0,1,.026.012H178v0h.039v0a.041.041,0,0,1,.026.012h.01v0h.015l.012,0h.013v0a.046.046,0,0,1,.025.012h.048v0a.048.048,0,0,1,.027.012h.024l.012,0h.012v0a.038.038,0,0,1,.025.012h.025s.012,0,.012,0h.012v0a.039.039,0,0,1,.025.012h.024l.012,0h.012v.013h.036c0,.013,0,.013.012.014h.012c0,.013,0,.013.012.014h.012c0,.014,0,.014.012.015h.025v.013h0c0,.014,0,.014.012.014s0,.014.012.015,0,.013.012.013h.012v.014h.012v.013h.012v.027a.029.029,0,0,1,.024.028c0,.014,0,.027.012.027h0v.014c0,.013,0,.013.012.014v.027h0v.041h0v.054a.415.415,0,0,1-.048.106c-1.343,2.127-2.661,4.256-3.981,6.36a.337.337,0,0,1-.394.117.349.349,0,0,1-.074-.018.461.461,0,0,1-.075-.019.334.334,0,0,1-.074-.019.381.381,0,0,1-.074-.018.385.385,0,0,1-.073-.019.327.327,0,0,1-.075-.019.3.3,0,0,1-.074-.018.344.344,0,0,1-.074-.018.394.394,0,0,1-.074-.019.442.442,0,0,1-.074-.018.408.408,0,0,1-.075-.018.346.346,0,0,1-.073-.019.3.3,0,0,1-.076-.019.343.343,0,0,1-.074-.018.355.355,0,0,1-.073-.018.4.4,0,0,1-.075-.019.431.431,0,0,1-.075-.018.407.407,0,0,1-.073-.019.327.327,0,0,1-.075-.019.262.262,0,0,1-.074-.019.323.323,0,0,1-.131-.045.382.382,0,0,1-.167-.224Zm1.541-2.64.815-1.31-1,.482Q173.893,375.21,173.985,375.623Z" transform="translate(-168.394 -371.062)" fill="#dcddeb" fill-rule="evenodd"/></g></g><g transform="translate(164.347 178.827)"><path d="M356.062,380.757a.5.5,0,0,1,.074.019.414.414,0,0,1,.374.37v7.687h0a.3.3,0,0,1-.1.225.513.513,0,0,1-.483.081.534.534,0,0,1-.075-.019.524.524,0,0,1-.074-.019.555.555,0,0,1-.074-.018.537.537,0,0,1-.074-.018.652.652,0,0,1-.074-.019.6.6,0,0,1-.075-.019,13.907,13.907,0,0,1-.148-.037.61.61,0,0,1-.075-.018.626.626,0,0,1-.073-.019.582.582,0,0,1-.074-.018.519.519,0,0,1-.075-.018.665.665,0,0,1-.074-.019.492.492,0,0,1-.074-.018c-.025,0-.051-.011-.074-.018a.751.751,0,0,1-.076-.019.553.553,0,0,1-.073-.019.389.389,0,0,1-.075-.019.409.409,0,0,1-.074-.018.544.544,0,0,1-.075-.019.5.5,0,0,1-.22-.093q-1.584-1.155-3.159-2.32c-1.168.728-2.335,1.443-3.493,2.156a.449.449,0,0,1-.309.086.464.464,0,0,1-.119-.023.6.6,0,0,1-.074-.018.535.535,0,0,1-.075-.019.515.515,0,0,1-.074-.019.43.43,0,0,1-.075-.018.5.5,0,0,1-.074-.018.411.411,0,0,1-.074-.019.529.529,0,0,1-.075-.018,11.293,11.293,0,0,1-.148-.037.4.4,0,0,1-.075-.019.481.481,0,0,1-.074-.018.494.494,0,0,1-.075-.019.378.378,0,0,1-.073-.018.455.455,0,0,1-.076-.018,8.523,8.523,0,0,1-.147-.037.451.451,0,0,1-.075-.019.525.525,0,0,1-.074-.018.547.547,0,0,1-.073-.019.42.42,0,0,1-.076-.019.435.435,0,0,1-.382-.386v-7.557a.367.367,0,0,1,.427-.327l4.361.22,4.444.224a.508.508,0,0,1,.14.026.587.587,0,0,1,.073.019.4.4,0,0,1,.076.019.424.424,0,0,1,.073.018.553.553,0,0,1,.075.019.48.48,0,0,1,.074.018.508.508,0,0,1,.074.018.549.549,0,0,1,.075.018.677.677,0,0,1,.074.019.514.514,0,0,1,.074.018.557.557,0,0,1,.074.019.7.7,0,0,1,.074.018.592.592,0,0,1,.075.019.493.493,0,0,1,.074.018.535.535,0,0,1,.075.019.66.66,0,0,1,.074.018.6.6,0,0,1,.074.018.66.66,0,0,1,.075.019.511.511,0,0,1,.073.018A.689.689,0,0,1,356.062,380.757Z" transform="translate(-345.278 -379.938)" fill="#dcddeb" fill-rule="evenodd"/></g><g transform="translate(84.642 174.865)"><path d="M149.028,370a4.177,4.177,0,0,1,2.732,1.219A3.835,3.835,0,0,1,152.9,373.9a3.356,3.356,0,0,1-.238,1.255,3.094,3.094,0,0,1-.581.955c.083.309.165.618.249.914a.285.285,0,0,1-.226.369.369.369,0,0,1-.167-.012c-.369-.116-.736-.232-1.082-.347a4.193,4.193,0,0,1-.819.263,4.055,4.055,0,0,1-3.707-1.194,3.754,3.754,0,0,1-1.1-2.647,3.372,3.372,0,0,1,1.1-2.519,3.663,3.663,0,0,1,2.7-.935Zm2.27,1.63a3.483,3.483,0,0,0-2.27-1.013,3.084,3.084,0,0,0-2.246.773,2.836,2.836,0,0,0-.915,2.1,3.148,3.148,0,0,0,.915,2.208,3.457,3.457,0,0,0,2.246,1.031,3.532,3.532,0,0,0,.843-.051,2.568,2.568,0,0,0,.761-.267.358.358,0,0,1,.262-.01c.226.067.439.134.665.2-.059-.175-.107-.349-.154-.524h0a.293.293,0,0,1,.071-.272,2.74,2.74,0,0,0,.571-.9,3,3,0,0,0,.2-1.045A3.22,3.22,0,0,0,151.3,371.628Z" transform="translate(-145.226 -369.993)" fill="#8c9bb0" fill-rule="evenodd"/></g><g transform="translate(93.872 175.291)"><g transform="translate(0)"><path d="M169.594,371.731c.76.706,1.521,1.414,2.3,2.111,1.189-.577,2.377-1.155,3.6-1.751-2-.117-3.968-.233-5.9-.361Zm2.851,6.531c-.3-1.29-.606-2.579-.891-3.878-1.022-.925-2.031-1.859-3.053-2.79h0a.382.382,0,0,1-.107-.244.3.3,0,0,1,.332-.288q3.958.24,8.021.474h0a.082.082,0,0,1,.059.016h.048v.014h.012l.024,0h0c0,.013,0,.013.012.013l.012,0c0,.013,0,.013.013.013h.012c0,.013,0,.013.012.014h.023v.013h0c0,.014,0,.014.012.014s0,.014.012.015,0,.013.012.014h.012v.013h.012v.014h.013v.027a.03.03,0,0,1,.024.029c0,.013,0,.026.012.027h0v.013c0,.013,0,.013.012.014v.027h0v.04h0v.054a.39.39,0,0,1-.047.106c-1.343,2.127-2.661,4.255-3.981,6.36a.34.34,0,0,1-.452.09A.384.384,0,0,1,172.445,378.263Zm0,0Zm-.2-3.852c.476-.228.939-.456,1.415-.684.725-.349,1.449-.7,2.173-1.065-.985,1.574-1.959,3.144-2.922,4.693C172.683,376.376,172.457,375.4,172.243,374.411Z" transform="translate(-168.394 -371.062)" fill="#8c9bb0" fill-rule="evenodd"/></g></g><g transform="translate(194.262 166.679)"><path d="M422.016,349.447h14.427A1.66,1.66,0,0,1,438.1,351.1v7.1a1.66,1.66,0,0,1-1.656,1.656h-9.6l-1.939,2.262-.035.034a.31.31,0,0,1-.437-.034l-1.94-2.262h-.476a1.66,1.66,0,0,1-1.655-1.656v-7.1A1.66,1.66,0,0,1,422.016,349.447Z" transform="translate(-420.361 -349.447)" fill="#ec797d" fill-rule="evenodd"/></g><g transform="translate(46.731 51.764)"><path d="M53.614,72.19a1.272,1.272,0,0,0,.124.043,1.634,1.634,0,0,0,.61.118h7.774l1.147,1.338.034.033a.3.3,0,0,0,.163.073.3.3,0,0,0,.125.043.29.29,0,0,0,.124.044.3.3,0,0,0,.125.044.292.292,0,0,0,.124.044.316.316,0,0,0,.125.045.332.332,0,0,0,.124.043.32.32,0,0,0,.126.044.317.317,0,0,0,.124.044,73.549,73.549,0,0,0,.249.088,34.755,34.755,0,0,1,.25.088.305.305,0,0,0,.125.045,54.028,54.028,0,0,1,.5.176,76.122,76.122,0,0,0,.25.088.3.3,0,0,0,.124.043.311.311,0,0,0,.4-.061l1.94-2.262h.476a1.66,1.66,0,0,0,1.656-1.656V63.6a1.661,1.661,0,0,0-1.172-1.583c-.041-.016-.082-.03-.124-.043s-.082-.031-.125-.044-.082-.031-.124-.044-.083-.032-.126-.045-.082-.03-.124-.043-.082-.03-.124-.043-.083-.031-.125-.044-.084-.032-.126-.045-.082-.029-.123-.043-.083-.031-.126-.044-.082-.031-.125-.044-.082-.031-.126-.045-.082-.03-.124-.043-.082-.03-.124-.043-.083-.031-.127-.045-.082-.031-.125-.044-.08-.03-.122-.043-.083-.032-.125-.044-.084-.031-.126-.044-.083-.031-.125-.044a1.64,1.64,0,0,0-.61-.117H51.73a1.66,1.66,0,0,0-1.656,1.656v7.1a1.662,1.662,0,0,0,1.172,1.583c.04.016.082.03.123.043s.083.031.126.045.082.031.124.043.083.031.126.044.084.031.126.045.08.03.122.043.085.032.128.045a1.311,1.311,0,0,0,.124.044c.04.016.08.03.122.043s.083.031.127.044a1.266,1.266,0,0,0,.124.044c.042.017.083.032.126.045s.082.03.125.044.08.03.123.043.083.032.126.045.082.03.124.044.082.03.125.043.083.031.125.044S53.572,72.176,53.614,72.19Z" transform="translate(-50.074 -61.02)" fill="#cf5869" fill-rule="evenodd"/></g><g transform="translate(164.347 178.827)"><path d="M345.278,387.823v-7.557a.367.367,0,0,1,.427-.327l4.361.22,4.444.224a.43.43,0,0,1,.439.377v7.687h0a.3.3,0,0,1-.1.225.524.524,0,0,1-.629.006c-1.391-1.012-2.769-2.036-4.159-3.054-1.355.849-2.709,1.679-4.052,2.5a.469.469,0,0,1-.736-.305Z" transform="translate(-345.278 -379.938)" fill="#fff" fill-rule="evenodd"/></g><g transform="translate(72.888 71.852)"><g transform="translate(0.074 0.019)"><path d="M125.165,111.975l.074.018a4.6,4.6,0,0,1,3.576,4.62,6.885,6.885,0,0,1-5.775,6.509,5.469,5.469,0,0,1-2.162-.1l-.056-.013-.08-.02-.074-.018-.078-.019-.069-.018-.082-.02-.016,0h0l-.049-.012-.075-.019-.077-.019-.069-.017-.08-.02-.071-.018-.076-.019-.078-.02-.019,0h0l-.042-.011-.08-.019-.076-.019-.077-.02-.07-.017a4.592,4.592,0,0,1-3.57-4.624,6.866,6.866,0,0,1,5.644-6.486,5.491,5.491,0,0,1,2.282.077l.08.02.073.018.074.018.069.018.08.02.074.018.068.016.076.019.077.02.071.018.069.016.081.02.074.018.069.017.08.02.068.017.075.019Z" transform="translate(-115.91 -111.486)" fill="#ddb671" fill-rule="evenodd"/></g><g transform="translate(0)"><path d="M121.368,111.523a4.713,4.713,0,0,1,5.775,4.677,6.886,6.886,0,0,1-5.775,6.509,4.692,4.692,0,0,1-5.644-4.7A6.866,6.866,0,0,1,121.368,111.523Z" transform="translate(-115.724 -111.439)" fill="#fcd886" fill-rule="evenodd"/></g><g transform="translate(2.638 1.678)"><path d="M127.534,116.057l.077.019a1.524,1.524,0,0,1,1.2,1.541,2.284,2.284,0,0,1-1.9,2.161,1.832,1.832,0,0,1-.769-.035l-.072-.017-.075-.019-.075-.019c-.025-.006-.05-.012-.074-.019l-.074-.018c-.025-.005-.05-.012-.075-.019l-.076-.018-.074-.018-.074-.019-.075-.018-.075-.019-.073-.019c-.026,0-.05-.012-.075-.018l-.073-.018c-.025-.005-.05-.012-.075-.019l-.075-.018-.074-.019-.074-.019c-.025-.006-.05-.011-.073-.018l-.076-.018a1.51,1.51,0,0,1-1.2-1.528,2.3,2.3,0,0,1,1.889-2.172,1.816,1.816,0,0,1,.773.033l.074.018c.024.005.049.012.073.019s.051.012.077.019l.074.018.075.018.073.018.073.018.075.019.077.02c.024.006.048.011.072.018s.048.011.073.018.051.012.075.019.052.012.077.018l.072.018c.025,0,.048.012.073.018l.074.018.077.02.073.018c.025.006.048.011.072.018Zm2.3,6.422a6.933,6.933,0,0,1-4.483,2.763,5.563,5.563,0,0,1-2.018-.063l-.056-.014a4.6,4.6,0,0,1-.932-.327v-1.073a3.6,3.6,0,0,1,3.006-3.4h0a2.884,2.884,0,0,1,1.184.051l.076.019.075.019.073.018.076.018.075.019.073.018.073.018.075.019.077.019.074.018.075.019.072.018.078.019.073.018.075.018.073.019.073.017.075.019.072.017.077.02A2.427,2.427,0,0,1,129.834,122.479Z" transform="translate(-122.345 -115.65)" fill="#ffebb4" fill-rule="evenodd"/></g><g transform="translate(2.638 1.678)"><path d="M125.351,115.677a1.556,1.556,0,0,1,1.9,1.554,2.283,2.283,0,0,1-1.9,2.162,1.548,1.548,0,0,1-1.889-1.545,2.3,2.3,0,0,1,1.889-2.171Zm3.03,8.266a6.576,6.576,0,0,1-3.03,1.3,5.209,5.209,0,0,1-3.006-.4v-1.073a3.6,3.6,0,0,1,3.006-3.4h0a2.506,2.506,0,0,1,3.03,2.486Z" transform="translate(-122.345 -115.65)" fill="#fff" fill-rule="evenodd"/></g></g><g transform="translate(164.347 178.827)"><path d="M345.278,387.823v-7.557a.367.367,0,0,1,.427-.327l4.361.22,4.444.224a.43.43,0,0,1,.439.377v7.687h0a.3.3,0,0,1-.1.225.524.524,0,0,1-.629.006c-1.391-1.012-2.769-2.036-4.159-3.054-1.355.849-2.709,1.679-4.052,2.5a.469.469,0,0,1-.736-.305Z" transform="translate(-345.278 -379.938)" fill="#fff" fill-rule="evenodd"/></g><path d="M127.319,371a1.821,1.821,0,0,0-2.507-.132c-.164.149-.322.292-.476.437-.167-.163-.317-.328-.475-.488a1.781,1.781,0,0,0-2.472-.13,1.673,1.673,0,0,0,0,2.414c.162.169.309.338.464.5.82.869,1.651,1.727,2.472,2.588.832-.758,1.663-1.519,2.507-2.3.167-.146.318-.294.488-.449A1.686,1.686,0,0,0,127.319,371Z" transform="translate(-45.935 -195.281)" fill="#ec797d" fill-rule="evenodd"/><g transform="translate(164.347 178.827)"><path d="M345.278,387.823v-7.557a.367.367,0,0,1,.427-.327l4.361.22,4.444.224a.43.43,0,0,1,.439.377v7.687h0a.3.3,0,0,1-.1.225.524.524,0,0,1-.629.006c-1.391-1.012-2.769-2.036-4.159-3.054-1.355.849-2.709,1.679-4.052,2.5a.469.469,0,0,1-.736-.305Z" transform="translate(-345.278 -379.938)" fill="#8c9bb0" fill-rule="evenodd"/></g><g transform="translate(196.311 169.061)"><path d="M428.076,355.426a2.571,2.571,0,0,1,2.036,4.141l.166.617a.217.217,0,0,1-.154.265.2.2,0,0,1-.112,0l-.713-.19a2.572,2.572,0,1,1-1.224-4.833Zm1.511,1.06a2.137,2.137,0,1,0-.432,3.358.214.214,0,0,1,.172-.026l.435.117-.1-.362h0a.216.216,0,0,1,.043-.2,2.138,2.138,0,0,0-.122-2.891Z" transform="translate(-425.505 -355.426)" fill="#fff" fill-rule="evenodd"/></g><g transform="translate(203.314 169.747)"><g transform="translate(0)"><path d="M445.837,358.857a2.6,2.6,0,0,1-.486,1.721,1.827,1.827,0,0,1-1.47.567,2.786,2.786,0,0,1-.526-.037v-.664a1.889,1.889,0,0,0,.469.057,1.655,1.655,0,0,0,.682-.121.861.861,0,0,0,.408-.382,1.675,1.675,0,0,0,.163-.716h-.031a.923.923,0,0,1-.358.353,1.137,1.137,0,0,1-.507.1,1.03,1.03,0,0,1-.8-.328,1.311,1.311,0,0,1-.294-.908,1.352,1.352,0,0,1,.357-.99,1.293,1.293,0,0,1,.97-.364,1.4,1.4,0,0,1,.756.2,1.3,1.3,0,0,1,.5.589,2.224,2.224,0,0,1,.174.919Zm-1.412-1.049a.486.486,0,0,0-.4.176.774.774,0,0,0-.145.506.7.7,0,0,0,.132.448.477.477,0,0,0,.4.164.616.616,0,0,0,.429-.163.5.5,0,0,0,.178-.377.857.857,0,0,0-.167-.535.512.512,0,0,0-.425-.218Zm4.53,1.049a2.6,2.6,0,0,1-.486,1.721,1.828,1.828,0,0,1-1.469.567,2.786,2.786,0,0,1-.526-.037v-.664a1.885,1.885,0,0,0,.469.057,1.653,1.653,0,0,0,.681-.121.861.861,0,0,0,.408-.382,1.675,1.675,0,0,0,.163-.716h-.031a.92.92,0,0,1-.358.353,1.142,1.142,0,0,1-.508.1,1.03,1.03,0,0,1-.8-.328,1.313,1.313,0,0,1-.294-.908,1.354,1.354,0,0,1,.357-.99,1.293,1.293,0,0,1,.969-.364,1.4,1.4,0,0,1,.757.2,1.3,1.3,0,0,1,.5.589,2.224,2.224,0,0,1,.174.919Zm-1.412-1.049a.487.487,0,0,0-.4.176.775.775,0,0,0-.145.506.7.7,0,0,0,.131.448.476.476,0,0,0,.4.164.617.617,0,0,0,.43-.163.5.5,0,0,0,.178-.377.859.859,0,0,0-.167-.535A.513.513,0,0,0,447.544,357.808Z" transform="translate(-443.082 -357.147)" fill="#fff" fill-rule="evenodd"/></g></g><g transform="translate(46.731 51.764)"><path d="M66.156,61.02H51.73a1.66,1.66,0,0,0-1.656,1.656V69.77a1.66,1.66,0,0,0,1.656,1.656h9.6l1.939,2.263.034.033a.31.31,0,0,0,.437-.033l1.939-2.263h.475a1.66,1.66,0,0,0,1.656-1.656V62.676A1.66,1.66,0,0,0,66.156,61.02Z" transform="translate(-50.074 -61.02)" fill="#ec797d" fill-rule="evenodd"/></g><g transform="translate(48.808 54.785)"><path d="M55.678,69h0a1.344,1.344,0,0,1,1.9,0l.367.367L58.311,69a1.344,1.344,0,0,1,1.9,0h0a1.346,1.346,0,0,1,0,1.9l-.367.367-1.9,1.9-1.9-1.9-.367-.367A1.347,1.347,0,0,1,55.678,69Z" transform="translate(-55.286 -68.603)" fill="#fff" fill-rule="evenodd"/><g transform="translate(7.116 0.279)"><path d="M75.9,71.013a2.6,2.6,0,0,1-.486,1.72,1.826,1.826,0,0,1-1.47.568,2.751,2.751,0,0,1-.526-.037V72.6a1.889,1.889,0,0,0,.47.057,1.641,1.641,0,0,0,.681-.122.854.854,0,0,0,.408-.381,1.669,1.669,0,0,0,.163-.716h-.031a.922.922,0,0,1-.358.353,1.142,1.142,0,0,1-.508.1,1.028,1.028,0,0,1-.8-.327,1.313,1.313,0,0,1-.294-.908,1.355,1.355,0,0,1,.357-.99,1.3,1.3,0,0,1,.97-.364,1.4,1.4,0,0,1,.757.2,1.3,1.3,0,0,1,.5.588,2.225,2.225,0,0,1,.174.919ZM74.49,69.964a.49.49,0,0,0-.4.175.782.782,0,0,0-.145.508.7.7,0,0,0,.131.447.476.476,0,0,0,.4.164.617.617,0,0,0,.43-.163.5.5,0,0,0,.178-.377.857.857,0,0,0-.167-.535.512.512,0,0,0-.425-.219Zm4.53,1.049a2.6,2.6,0,0,1-.486,1.72,1.828,1.828,0,0,1-1.47.568,2.741,2.741,0,0,1-.526-.037V72.6a1.888,1.888,0,0,0,.469.057,1.647,1.647,0,0,0,.682-.122.854.854,0,0,0,.408-.381,1.681,1.681,0,0,0,.163-.716h-.031a.925.925,0,0,1-.358.353,1.146,1.146,0,0,1-.508.1,1.028,1.028,0,0,1-.8-.327,1.309,1.309,0,0,1-.294-.908,1.354,1.354,0,0,1,.357-.99,1.3,1.3,0,0,1,.97-.364,1.4,1.4,0,0,1,.757.2,1.3,1.3,0,0,1,.5.588,2.225,2.225,0,0,1,.175.919Zm-1.412-1.049a.491.491,0,0,0-.4.175.786.786,0,0,0-.144.508.7.7,0,0,0,.131.447.478.478,0,0,0,.4.164.617.617,0,0,0,.43-.163.5.5,0,0,0,.178-.377.856.856,0,0,0-.167-.535A.513.513,0,0,0,77.608,69.964Z" transform="translate(-73.146 -69.303)" fill="#fff" fill-rule="evenodd"/></g></g><g transform="translate(61.764 120.841)"><g transform="translate(0 0)" opacity="0.5"><path d="M91.77,256.414a12.768,12.768,0,0,0,21.495-10.645c1.015-1.128,2.265-2.434,2.828-3.115a1.107,1.107,0,0,0-.7-1.887l-4.133-.6A12.769,12.769,0,1,0,91.77,256.414Z" transform="translate(-87.806 -234.399)" fill="#62aee1" fill-rule="evenodd"/></g></g><g transform="translate(171.92 55.236)"><g opacity="0.5"><path d="M400.16,85.074a16.9,16.9,0,0,1-28.688,13.593c-2,.129-4.386.355-5.556.382a1.464,1.464,0,0,1-1.381-2.278l2.769-4.784a16.9,16.9,0,1,1,32.856-6.912Z" transform="translate(-364.287 -69.734)" fill="#62aee1" fill-rule="evenodd"/></g></g><g transform="translate(61.139 118.724)"><g transform="translate(0 0)"><path d="M90.2,251.1a12.767,12.767,0,0,0,21.494-10.645c1.016-1.128,2.265-2.435,2.829-3.116a1.106,1.106,0,0,0-.7-1.887l-4.134-.6A12.769,12.769,0,1,0,90.2,251.1Z" transform="translate(-86.236 -229.084)" fill="#ec797d" fill-rule="evenodd"/></g></g><g transform="translate(70.674 136.062)"><g transform="translate(0)"><path d="M117.484,272.6h-6.96a.357.357,0,0,0-.357.356v.607a.358.358,0,0,0,.357.357h6.96a.358.358,0,0,0,.357-.357v-.607A.358.358,0,0,0,117.484,272.6Z" transform="translate(-110.167 -272.6)" fill="#fcd886" fill-rule="evenodd"/></g></g><g transform="translate(68.087 122.873)"><g transform="translate(0 0)"><path d="M115.524,256.2h-10.85a1,1,0,0,1-1-1v-9.7a.355.355,0,0,1,.355-.355.965.965,0,0,0,0-1.93.355.355,0,0,1-.355-.356V240.5a1,1,0,0,1,1-1h10.85a1,1,0,0,1,1,1v2.365a.355.355,0,0,1-.355.356.965.965,0,1,0,0,1.93.355.355,0,0,1,.355.355v9.7A1,1,0,0,1,115.524,256.2Zm-11.137-10.381V255.2a.287.287,0,0,0,.287.286h10.85a.29.29,0,0,0,.287-.286v-9.382a1.676,1.676,0,0,1,0-3.277V240.5a.287.287,0,0,0-.287-.286h-10.85a.287.287,0,0,0-.287.286v2.048a1.677,1.677,0,0,1,0,3.277Z" transform="translate(-103.675 -239.498)" fill="#fff"/></g><g transform="translate(2.408 13.01)"><path d="M117.215,273.828h-6.96a.535.535,0,0,1-.535-.534v-.607a.536.536,0,0,1,.535-.535h6.96a.536.536,0,0,1,.535.535v.607A.535.535,0,0,1,117.215,273.828Zm-6.96-1.32a.179.179,0,0,0-.179.179v.607a.179.179,0,0,0,.179.179h6.96a.179.179,0,0,0,.179-.179v-.607a.179.179,0,0,0-.179-.179Z" transform="translate(-109.719 -272.152)" fill="#fff"/></g><g transform="translate(0.177 1.886)"><path d="M115.364,244.588H104.3a.178.178,0,0,1,0-.356h11.066a.178.178,0,0,1,0,.356Z" transform="translate(-104.12 -244.232)" fill="#fff"/></g><g transform="translate(1.694 3.948)"><g transform="translate(4.551)"><path d="M119.528,257.081a.178.178,0,0,1-.011-.355.308.308,0,0,0,.269-.194c.01-.033.049-.228.2-1.327.148-1.068.336-2.52.454-3.424a2.315,2.315,0,0,0-.24-1.768.785.785,0,0,0-.668-.249.168.168,0,0,1-.181-.175.177.177,0,0,1,.174-.18,1.192,1.192,0,0,1,.941.367,2.574,2.574,0,0,1,.326,2.051c-.118.906-.307,2.359-.454,3.428-.152,1.1-.193,1.315-.212,1.378a.648.648,0,0,1-.59.449Z" transform="translate(-119.35 -249.408)" fill="#fff"/></g><g transform="translate(5.421 2.217)"><path d="M125.233,258.089a.168.168,0,0,1-.053-.008l-3.52-1.094a.178.178,0,0,1,.106-.34l3.327,1.034.1-.618-3.35-1.756a.178.178,0,0,1,.166-.316l3.464,1.816a.177.177,0,0,1,.092.188l-.161.945a.174.174,0,0,1-.081.121A.176.176,0,0,1,125.233,258.089Z" transform="translate(-121.535 -254.971)" fill="#fff"/></g><g transform="translate(4.979 6.131)"><path d="M121.995,266.428a.18.18,0,0,1-.05-.007l-1.392-.411a.178.178,0,1,1,.1-.341l1.215.358.054-.213-1.267-.683a.178.178,0,0,1,.17-.313l1.388.749a.179.179,0,0,1,.088.2l-.134.527a.179.179,0,0,1-.173.134Z" transform="translate(-120.425 -264.796)" fill="#fff"/></g><g transform="translate(3.413 0)"><path d="M117.81,257.081h-.01a.648.648,0,0,1-.589-.448c-.012-.038-.041-.139-.212-1.379-.147-1.069-.336-2.522-.454-3.428a2.574,2.574,0,0,1,.326-2.051,1.182,1.182,0,0,1,.941-.367.178.178,0,0,1,0,.356h-.029a.809.809,0,0,0-.642.25,2.316,2.316,0,0,0-.239,1.768c.118.9.306,2.356.454,3.424.15,1.1.189,1.293.2,1.328a.307.307,0,0,0,.267.194.178.178,0,0,1-.009.355Z" transform="translate(-116.494 -249.408)" fill="#fff"/></g><g transform="translate(0 2.216)"><path d="M108.266,258.089a.173.173,0,0,1-.093-.027.178.178,0,0,1-.082-.121l-.16-.945a.177.177,0,0,1,.092-.188l3.464-1.816a.177.177,0,0,1,.24.075.178.178,0,0,1-.075.241l-3.35,1.756.105.618,3.326-1.034a.178.178,0,0,1,.106.34l-3.521,1.094A.173.173,0,0,1,108.266,258.089Z" transform="translate(-107.928 -254.97)" fill="#fff"/></g><g transform="translate(2.597 6.131)"><path d="M114.757,266.428a.179.179,0,0,1-.088-.024.174.174,0,0,1-.084-.11l-.135-.527a.179.179,0,0,1,.088-.2l1.388-.749a.178.178,0,0,1,.17.313l-1.267.683.054.213,1.215-.358a.178.178,0,1,1,.1.341l-1.392.411A.183.183,0,0,1,114.757,266.428Z" transform="translate(-114.445 -264.796)" fill="#fff"/></g><g transform="translate(4.142 0.923)"><path d="M118.5,252.136a.178.178,0,0,1-.055-.348,1.707,1.707,0,0,1,.464-.063,1.753,1.753,0,0,1,.34.03.178.178,0,1,1-.072.349.9.9,0,0,0-.263-.023h-.008a.96.96,0,0,0-.352.046A.185.185,0,0,1,118.5,252.136Z" transform="translate(-118.323 -251.725)" fill="#fff"/></g></g></g><g transform="translate(171.294 53.118)"><g transform="translate(0 0)"><path d="M398.589,79.759A16.9,16.9,0,0,1,369.9,93.352c-2,.129-4.387.357-5.556.383a1.465,1.465,0,0,1-1.382-2.279l2.769-4.784a16.9,16.9,0,1,1,32.855-6.912Z" transform="translate(-362.716 -64.42)" fill="#fcd886" fill-rule="evenodd"/></g></g><g transform="translate(193.324 59.508)"><path d="M424.5,84.879a2.074,2.074,0,1,1-2.074-2.074,2.074,2.074,0,0,1,2.074,2.074Zm-5.423,2.888,3.035,3.517a.41.41,0,0,0,.627,0l3.036-3.517a4.423,4.423,0,0,0-3.349-7.309,4.5,4.5,0,0,0-.734.061,4.422,4.422,0,0,0-2.615,7.249Z" transform="translate(-418.007 -80.457)" fill="#ec797d" fill-rule="evenodd"/></g><g transform="translate(177.939 57.247)"><g transform="translate(0 0)"><path d="M391.851,99.7a12.391,12.391,0,0,1-7.382-2.427.389.389,0,0,1-.1-.075,12.5,12.5,0,0,1-4.511-6.58.316.316,0,0,1-.02-.069,12.461,12.461,0,0,1,18.822-13.743.356.356,0,1,1-.389.6A11.7,11.7,0,0,0,392,75.5c.191.874.461,2.8-.486,4.08a3.168,3.168,0,0,1-2.546,1.2c-.173.584-.676,1.9-1.773,2.157a8.218,8.218,0,0,1-1.611,5.8,6.564,6.564,0,0,1-4.924,2.1,11.789,11.789,0,0,0,3.808,5.543,7,7,0,0,1,6-4.438,1.99,1.99,0,0,1,.588-1.03,1.8,1.8,0,0,1,1.08-.438c.006-.993.268-3.594,2.768-4.338a.356.356,0,0,1,.2.682c-2.53.752-2.263,3.845-2.25,3.977a.357.357,0,0,1-.1.282.37.37,0,0,1-.279.107,1.26,1.26,0,0,0-.945.257,1.412,1.412,0,0,0-.408.871.357.357,0,0,1-.355.337,6.223,6.223,0,0,0-5.721,4.175,11.731,11.731,0,0,0,15.618-1.826,4.064,4.064,0,0,0-.915-2.518,2.242,2.242,0,0,0-1.665-.64.356.356,0,1,1,0-.712,2.929,2.929,0,0,1,2.175.856,4.209,4.209,0,0,1,1.036,2.232,11.689,11.689,0,0,0,2.3-6.969.356.356,0,0,1,.712,0,12.411,12.411,0,0,1-2.971,8.068.389.389,0,0,1-.086.1A12.437,12.437,0,0,1,391.851,99.7Zm-.575-24.193A11.754,11.754,0,0,0,380.461,90.13a5.967,5.967,0,0,0,4.589-1.862c1.884-2.182,1.413-5.559,1.408-5.593a.35.35,0,0,1,.082-.284.356.356,0,0,1,.27-.124c1.1,0,1.534-1.893,1.538-1.912a.355.355,0,0,1,.348-.283,2.623,2.623,0,0,0,2.248-.918C391.77,78.04,391.437,76.189,391.276,75.509Z" transform="translate(-379.392 -74.783)" fill="#fff"/></g><g transform="translate(15.03 1.905)"><path d="M421.893,91.249a.763.763,0,0,1-.586-.273l-3.033-3.514a4.777,4.777,0,1,1,7.237,0l-3.035,3.517A.761.761,0,0,1,421.893,91.249Zm0-10.973A4.065,4.065,0,0,0,418.814,87l3.079,3.54a.053.053,0,0,0,.041-.019L424.972,87a4.066,4.066,0,0,0-3.079-6.721Zm0,6.5a2.43,2.43,0,1,1,2.43-2.43A2.433,2.433,0,0,1,421.893,86.772Zm0-4.148a1.718,1.718,0,1,0,1.719,1.718A1.72,1.72,0,0,0,421.893,82.624Z" transform="translate(-417.116 -79.565)" fill="#fff"/></g></g><g transform="translate(60.783 118.37)"><path d="M98.462,254.435A13.124,13.124,0,0,1,91.035,230.5a.356.356,0,0,1,.4.586,12.5,12.5,0,0,0-1.962,1.675,12.412,12.412,0,1,0,19.872,14.533.356.356,0,0,1,.624.343,13.13,13.13,0,0,1-11.51,6.8Zm12.144-8.8a.361.361,0,0,1-.11-.018.356.356,0,0,1-.229-.448q.137-.421.243-.851a.356.356,0,1,1,.69.172c-.074.3-.161.6-.257.9A.357.357,0,0,1,110.606,245.637Zm.955-5.807a.356.356,0,0,1-.263-.6c.277-.3.564-.612.841-.913.635-.687,1.235-1.336,1.572-1.744a.85.85,0,0,0,.187-.841.787.787,0,0,0-.669-.466l-4.13-.6s-.015,0-.013,0h0a.346.346,0,0,1-.127-.049.354.354,0,0,1-.1-.1l-.005-.008a12.434,12.434,0,0,0-11.375-5.566.352.352,0,0,1-.383-.326.356.356,0,0,1,.326-.383,13.144,13.144,0,0,1,11.939,5.752l3.977.577a1.483,1.483,0,0,1,1.229.914,1.55,1.55,0,0,1-.3,1.551c-.349.422-.956,1.078-1.6,1.773-.276.3-.561.607-.837.91A.358.358,0,0,1,111.56,239.829Z" transform="translate(-85.342 -228.196)" fill="#fff"/></g><g transform="translate(170.938 52.764)"><g transform="translate(0 0)"><path d="M381.217,98.037a17.224,17.224,0,0,1-11.988-4.856c-.736.049-1.518.11-2.267.168-1.247.1-2.425.188-3.146.2a1.912,1.912,0,0,1-1.757-.9,1.853,1.853,0,0,1,.06-1.91l2.688-4.647a17.42,17.42,0,0,1-.761-3.72A17.253,17.253,0,0,1,379.634,63.6a17.567,17.567,0,0,1,3.45.025.355.355,0,1,1-.076.707,16.711,16.711,0,0,0-3.308-.023,16.557,16.557,0,0,0-14.167,21.712.354.354,0,0,1-.03.29L362.734,91.1a1.148,1.148,0,0,0-.063,1.192,1.27,1.27,0,0,0,1.13.553c.7-.016,1.869-.108,3.106-.2.806-.063,1.649-.128,2.434-.179a.352.352,0,0,1,.273.1,16.57,16.57,0,0,0,16.808,3.929.356.356,0,1,1,.223.675,17.4,17.4,0,0,1-3.827.8Q382.015,98.036,381.217,98.037Zm9.367-2.826a.356.356,0,0,1-.2-.652,16.539,16.539,0,0,0,7.31-15.3h0c-.018-.192-.039-.384-.063-.573a.356.356,0,1,1,.706-.09c.025.2.047.4.065.6v0a17.251,17.251,0,0,1-7.625,15.96A.351.351,0,0,1,390.584,95.211Zm6.694-19.358a.358.358,0,0,1-.338-.245,16.567,16.567,0,0,0-.639-1.646.356.356,0,0,1,.648-.293,17.561,17.561,0,0,1,.668,1.716.356.356,0,0,1-.227.449A.344.344,0,0,1,397.278,75.854Zm-8.091-9.62a.361.361,0,0,1-.168-.042,16.6,16.6,0,0,0-2.045-.923.356.356,0,1,1,.248-.667,17.38,17.38,0,0,1,2.133.962.356.356,0,0,1-.168.67Z" transform="translate(-361.822 -63.53)" fill="#fff"/></g></g><g transform="translate(94.913 55.153)"><g transform="translate(0 0.255)"><g transform="translate(27.636 40.267)"><path d="M242.05,171.327a.181.181,0,0,1,.317.176c-.016.029-5.841,10.254,4.686,13.367a.181.181,0,0,1-.1.348C235.983,181.975,242.033,171.358,242.05,171.327Z" transform="translate(-240.37 -171.234)" fill="#242a51" fill-rule="evenodd"/></g><g transform="translate(29.881 94.811)"><path d="M246.045,312.071A6.63,6.63,0,0,1,249.9,308.3c3.083-1.259,1.516,5.266,1.516,5.266l-4.424,1.259A2.909,2.909,0,0,1,246.045,312.071Z" transform="translate(-246.006 -308.134)" fill="#242a51" fill-rule="evenodd"/></g><g transform="translate(5.591 72.315)"><path d="M185.128,251.67a.533.533,0,0,0-.026.539,21.132,21.132,0,0,0,2.184,1.8,2.64,2.64,0,0,0,.148-.719c-.051-.09-1.118-1.432-1.118-1.432Z" transform="translate(-185.04 -251.67)" fill="#ee8b83" fill-rule="evenodd"/></g><g transform="translate(0 69.47)"><path d="M173.524,244.871c-.057-.037-2.154-.342-2.154-.342l-.363.95,13.885,5.3.515-.624-.056-.854Z" transform="translate(-171.007 -244.529)" fill="#453876" fill-rule="evenodd"/></g><g transform="translate(13.885 74.346)"><path d="M209.035,257.022l-.363.95-2.816.17.363-.95.523-.423Z" transform="translate(-205.856 -256.77)" fill="#242a51" fill-rule="evenodd"/></g><g transform="translate(0.363 69.3)"><path d="M188.619,249.4l-13.886-5.3-2.815.17,13.885,5.3Z" transform="translate(-171.918 -244.104)" fill="#5e5292" fill-rule="evenodd"/></g><g transform="translate(2.1 69.794)"><path d="M188.986,249.519l-10.944-4.176-1.764.106,10.943,4.177Z" transform="translate(-176.278 -245.344)" fill="#fff" fill-rule="evenodd"/></g><g transform="translate(20.412 73.533)"><path d="M229.059,267.108s-4.585-4.444-6.821-5.78l.977-6.6s1.323,2.083,8.047,6.076l.893.064s.224,2.485.212,2.613-2.069,5.51-2.069,5.51-.6-.4-.693-.616S229.059,267.108,229.059,267.108Z" transform="translate(-222.238 -254.727)" fill="#f2ba95" fill-rule="evenodd"/></g><g transform="translate(20.412 75.918)"><path d="M229.059,270.711s-.147-.142-.4-.381c.856-.482,2.564-1.942,2.6-5.924l.893.064s.224,2.485.212,2.613-2.069,5.51-2.069,5.51-.6-.4-.693-.616-.545-1.265-.545-1.265Zm-2.685-2.49c-.272-.243-.552-.49-.835-.735l1.73-3.079.55-2.183q.29.2.606.407a11.884,11.884,0,0,1-2.05,5.59Zm-2.991-2.5a13.364,13.364,0,0,0-1.144-.787l.624-4.216.385.42Z" transform="translate(-222.238 -260.715)" fill="#ee8b83" fill-rule="evenodd"/></g><g transform="translate(27.223 79.348)"><path d="M243.948,270.207l-1.465-.836a.919.919,0,0,0-.937.213l.417.18a7.179,7.179,0,0,1-.166,2.9c-.425,1.426-1.362,4.162-1.362,4.162l-1.091-.937a21.566,21.566,0,0,0,.141,3.339c.206.976.72.925,1.875,1.156a14.431,14.431,0,0,1,4.179,2.13C245.984,282.953,246.549,274.476,243.948,270.207Z" transform="translate(-239.334 -269.323)" fill="#fff" fill-rule="evenodd"/></g><g transform="translate(11.779 15.294)"><path d="M219.928,127.713s-10.786,1.275-15.777-4.093-4.265-11.2-.874-13.2,10.995-2,15.362-1.747S219.928,127.713,219.928,127.713Z" transform="translate(-200.57 -108.553)" fill="#ddb671" fill-rule="evenodd"/></g><g transform="translate(44.588 17.035)"><path d="M284.927,129.82s10.737,7.244,17.725.874,1.284-15.67-5.806-17.211a30.624,30.624,0,0,0-13.927.592Z" transform="translate(-282.919 -112.924)" fill="#ddb671" fill-rule="evenodd"/></g><g transform="translate(25.414 30.783)"><path d="M235.718,147.43a8.765,8.765,0,0,1-.329,5.446c-2.312,6.627,2.877,5.5,2.877,5.5s-3.545,12.125,9.145,12.073,11.563-13.5,8.323-18.8c-.67-1.1-1.463-2.571-2.388-4.213Z" transform="translate(-234.795 -147.43)" fill="#242a51" fill-rule="evenodd"/></g><g transform="translate(22.77 15.936)"><path d="M232.345,110.37l-1.49-.206s-3.236,1.464-2.62,6.525c.409,3.352,2.677,5.4,3.489,8.323h17.628C245.808,118.715,240.321,109.933,232.345,110.37Z" transform="translate(-228.157 -110.164)" fill="#453876" fill-rule="evenodd"/></g><g transform="translate(23.036 23.481)"><path d="M228.826,129.1c.683,2.773,2.574,4.686,3.3,7.3h4.433a45.935,45.935,0,0,0,1.027-4.888s-.2-2.574-3.752-.265C230.334,133.526,228.87,129.237,228.826,129.1Z" transform="translate(-228.826 -129.102)" fill="#242a51" fill-rule="evenodd"/></g><g transform="translate(24.112 15.936)"><path d="M234.371,110.37l-1.49-.206a4.266,4.266,0,0,0-1.356,1.128,3.255,3.255,0,0,1,2.852,1.373,3.444,3.444,0,0,1-.409,3.586s-.091.193.083.247,2.269,1.2,5.157-1.739a14.054,14.054,0,0,0,1.976-2.422A11.175,11.175,0,0,0,234.371,110.37Z" transform="translate(-231.525 -110.164)" fill="#242a51" fill-rule="evenodd"/></g><g transform="translate(28.43 42.634)"><path d="M242.453,178.248c-.385,3.435.073,10.13,9.51,10.092,2.406-8.466-4.315-10.259-4.607-9.021C244.175,175.252,242.473,178.212,242.453,178.248Z" transform="translate(-242.363 -177.175)" fill="#453876" fill-rule="evenodd"/></g><g transform="translate(25.414 35.053)"><path d="M235.732,158.164c-.09.37-.2.756-.344,1.159-1.234,3.539-.33,4.865.781,5.333,3.447.248,2.063-4.618,1.858-4.834a.228.228,0,0,0-.374.036c-.168.421-.421.469-.421.469.1-2.515-1.5-2.165-1.5-2.165Z" transform="translate(-234.795 -158.146)" fill="#453876" fill-rule="evenodd"/></g><g transform="translate(46.991 18.71)"><path d="M295.3,117.127s3.7.411,3.287,3.6c0,0,6.217.977,4.983,5.6,0,0,1,0,.874,1.284,4.511,1.769,3.047,9.531-3.262,9.145a1.815,1.815,0,0,1-2.029,1.028s1.156,2.055-.539,3.313c0,0,.924,2.03-.335,3.031s-8.04,2.441-9.119-8.092a38.322,38.322,0,0,1,2.363-18.135Z" transform="translate(-288.951 -117.127)" fill="#242a51" fill-rule="evenodd"/></g><g transform="translate(50.913 22.178)"><path d="M304.509,125.959s6.217.977,4.983,5.6c0,0,1,0,.874,1.284a4.3,4.3,0,0,1,.673.335c.013.048.259,1.051-1.292,1.051h-6.4c-1.974,0-2.924-2.563-2.924-2.563a14.865,14.865,0,0,0-1.492-2.454,3.043,3.043,0,0,1,.866-3.081c1.18-.794,2.889.023,2.913,1.949,0,0-.013.168.2.108S303.724,127.917,304.509,125.959Z" transform="translate(-298.794 -125.831)" fill="#453876" fill-rule="evenodd"/></g><g transform="translate(39.999 34.247)"><path d="M271.4,164.525a2.678,2.678,0,0,1,1.875.976c.539.874,2.081,4.444,2.081,4.444l9.377-8.811a6.361,6.361,0,0,1-2-2.081c-.617-1.207-1.465-2.928-1.465-2.928Z" transform="translate(-271.4 -156.125)" fill="#ee8b83" fill-rule="evenodd"/></g><g transform="translate(28.913 38.971)"><path d="M268.283,167.98a25.32,25.32,0,0,1,9.018,12.6c2.815,8.551.541,16.238.433,25.44-.092,7.865-1.212,20.554-1.537,24.073H247.744c.1-4.969,0-11.616,0-12.273,0-.974-1.73-9.121-1.73-9.121s-3.683-4.519-2-9.12,10.374-19.082,13.195-21.468Z" transform="translate(-243.575 -167.98)" fill="#f4a965" fill-rule="evenodd"/></g><g transform="translate(28.918 62.125)"><path d="M277.933,236.652c-.1,1.41-.173,2.85-.19,4.328-.082,7.023-.985,17.892-1.408,22.644-3.516.886-19.1,1.43-19.1,1.43s-3.177-3.41-4.283-4.325-1.252-3.658-1.156-5.776a11.545,11.545,0,0,0-.792-4.273s1.9,2.18,1.971,2.348.655,4.139.655,4.139,2.618,1.71,2.786,1.853,3.105,1.276,3.105,1.276a23.656,23.656,0,0,0,.746-2.72,1.654,1.654,0,0,0-.722-1.419l-7.534-5.295a5.31,5.31,0,0,0-2.389-2.439,16.225,16.225,0,0,1-3.391-3.783l-.206-.981a11.929,11.929,0,0,1-2.437-6.318c1.868,3.309,5.339,2.857,8.978,2.522a8,8,0,0,0,4.716-2.07s3.322-3.9,3.875-4.645-.048-1.925-.048-1.925l-2.008-4.233,2.706-.893S271.665,232.32,277.933,236.652Z" transform="translate(-243.589 -226.096)" fill="#f29d63" fill-rule="evenodd"/></g><g transform="translate(37.521 73.437)"><path d="M279.6,258.059l-2.067-3.571s-.292,4.8-3.757,4.8h-7.605l-.145,2.5-.846,4.882s.729,1.74.69,1.8.432-.518.432-.518l8.592,4.656a1.46,1.46,0,0,1,.735,1.42c-.013,1.1,3.535-1.346,3.535-1.346Z" transform="translate(-265.182 -254.488)" fill="#e78c62" fill-rule="evenodd"/></g><g transform="translate(29.524 101.083)"><path d="M277.12,323.875c-.054.6-.086.934-.086.934a7.028,7.028,0,0,1-.109,3.031l2.654,12.647-34.47-1.742s2.7-7.386,3.236-9.713a36.843,36.843,0,0,0,.322-5.156Z" transform="translate(-245.109 -323.875)" fill="#453876" fill-rule="evenodd"/></g><g transform="translate(32.073 101.083)"><path d="M280.9,324.631l-.017.178a7.029,7.029,0,0,1-.109,3.031l2.654,12.647-11.288-.571a14.076,14.076,0,0,1-4.534-5.587c-6.8.881-14.208-2.113-16.1-2.944.308-.96.559-1.8.687-2.354a6.461,6.461,0,0,0,.113-.739c3-3.954,10.206-4.136,15.976-4.417h10.41A17.133,17.133,0,0,1,280.9,324.631Z" transform="translate(-251.507 -323.875)" fill="#242a51" fill-rule="evenodd"/></g><g transform="translate(30.865 97.374)"><path d="M249.086,323.172a1.6,1.6,0,0,1-.463-.977,44.38,44.38,0,0,1-.129-4.907,1.5,1.5,0,0,1,1.49-1.336c.74.007,8.426,1.953,15.772-1.387l2.487,11.378A22.964,22.964,0,0,1,249.086,323.172Z" transform="translate(-248.474 -314.566)" fill="#5e5292" fill-rule="evenodd"/></g><g transform="translate(43.332 101.137)"><path d="M284.08,324.012l-3.519.8a.968.968,0,0,0-.8.976,2.434,2.434,0,0,0,1.489,2.338c1.285.771,5.268,2.805,5.268,2.805Z" transform="translate(-279.765 -324.012)" fill="#242a51" fill-rule="evenodd"/></g><g transform="translate(25.82 27.558)"><path d="M238.916,140.183s-1.2-.988-1.9-.83-1.4,1.8-1.147,2.948,2.123,4.99,4.277,3.158S238.916,140.183,238.916,140.183Z" transform="translate(-235.812 -139.336)" fill="#f3b992" fill-rule="evenodd"/></g><g transform="translate(26.366 28.565)"><path d="M240.8,142.885a.262.262,0,0,1,.092.3.143.143,0,0,1-.212.064h0s-.175,3.643-.775,3.157a4.357,4.357,0,0,1-1.563-1.825c-.339-.875.357-1.808.036-2.006-.306-.188-.557.2-.579.237v0h0a2.379,2.379,0,0,0-.256.71.145.145,0,0,1-.214.114.273.273,0,0,1-.145-.279s.233-1.408,1.231-1.492A4.788,4.788,0,0,1,240.8,142.885Z" transform="translate(-237.184 -141.863)" fill="#ee8880" fill-rule="evenodd"/></g><g transform="translate(26.84 11.106)"><path d="M249.37,98.171c14.77-1.5,13.049,10.371,12.828,19.777-.078,3.336-.837,5.559-3.247,7.579-6.922,5.8-7.091,6.242-14.991.786a12.247,12.247,0,0,1-3.424-5.881C238.156,111.33,234.649,100.1,249.37,98.171Z" transform="translate(-238.374 -98.041)" fill="#f3b992" fill-rule="evenodd"/></g><g transform="translate(26.841 12.807)"><path d="M238.681,115c-.792-5.094-.3-9.858,4.575-12.47,1.022-.06,1.907-.111,2.4-.191,1.781-.289,13.766,2.166,15.354,4.044s.627,5.752-1,7.243-4.275.771-5.815-.793a8.486,8.486,0,0,0-3.178-2.069,43.527,43.527,0,0,1-7.7-1.878A7.583,7.583,0,0,1,238.681,115Z" transform="translate(-238.376 -102.312)" fill="#ee8b83" fill-rule="evenodd"/></g><g transform="translate(26.996 17.213)"><path d="M238.81,120.918c-.016-.124-.03-.247-.045-.371,4.578-1.854,4.068-6.966,4.066-6.98a.181.181,0,0,1,.361-.033c0,.016.545,5.461-4.382,7.384Zm13.669-4a.181.181,0,1,1,.22-.288,18.548,18.548,0,0,1,2.65,2.575h0c.071.082.146.161.222.237a4.026,4.026,0,0,0,2.337,1.2,2.532,2.532,0,0,0,1.991-.539h0c.031-.027.063-.057.094-.088a.182.182,0,1,1,.257.257c-.035.036-.072.071-.112.105h0a2.886,2.886,0,0,1-2.272.627,4.4,4.4,0,0,1-2.552-1.3c-.079-.079-.159-.165-.237-.254h0A18.287,18.287,0,0,0,252.479,116.921Z" transform="translate(-238.765 -113.369)" fill="#242a51" fill-rule="evenodd"/></g><g transform="translate(28.737 22.883)"><g transform="translate(11.981 1.487)"><path d="M274.781,133.744l-1.551.274a2.334,2.334,0,0,1,3.916-2.029c.55.614-.079,1.388-1.085,1.679S274.781,133.744,274.781,133.744Z" transform="translate(-273.204 -131.332)" fill="#ee8b83" fill-rule="evenodd"/></g><g transform="translate(0.823 2.516)"><path d="M246.534,136.679a1.273,1.273,0,0,1-1.24-.767c-.382-.852.487-1.652,1.243-1.9s2.9-.207,2.525,2.461Z" transform="translate(-245.2 -133.915)" fill="#ee8b83" fill-rule="evenodd"/></g><g transform="translate(10.642 0.149)"><path d="M271.25,129.6a1.329,1.329,0,0,1-.7.07,1.13,1.13,0,0,1-.7-.633c0-.116.206.032.807-.331s2.819-1.355,4.632-.184c.313.2.132.433-.23.39A5.137,5.137,0,0,0,271.25,129.6Z" transform="translate(-269.843 -127.975)" fill="#242a51" fill-rule="evenodd"/></g><path d="M247.067,128.783a1.105,1.105,0,0,0,.632-.2,1.233,1.233,0,0,0,.373-.9c-.042-.114-.167.112-.816-.02a3.959,3.959,0,0,0-4.052,1.578c-.194.319.045.479.341.3A4.259,4.259,0,0,1,247.067,128.783Z" transform="translate(-243.134 -127.6)" fill="#242a51" fill-rule="evenodd"/><g transform="translate(7.467 6.868)"><path d="M261.953,146.207c-.14-.109-.066-.626.015-.974.061-.264.117-.394.193-.388.07-.033.162.07.3.3.179.3.4.763.3.916A.707.707,0,0,1,261.953,146.207Z" transform="translate(-261.874 -144.839)" fill="#f7d7c3" fill-rule="evenodd"/></g><g transform="translate(6.754 5.18)"><path d="M260.525,140.778a.218.218,0,0,1,.429.082,26.439,26.439,0,0,0-.445,2.818c.05.125.312.279.426.334a1.372,1.372,0,0,0,.644.149.218.218,0,0,1,.016.437,1.838,1.838,0,0,1-.851-.192,1.384,1.384,0,0,1-.64-.569A17.879,17.879,0,0,1,260.525,140.778Z" transform="translate(-260.086 -140.601)" fill="#ee8880" fill-rule="evenodd"/></g><g transform="translate(6.982 12.342)"><path d="M260.878,159.191a.246.246,0,0,1,.052-.49,6.059,6.059,0,0,0,1.616-.119.246.246,0,0,1,.1.482A6.685,6.685,0,0,1,260.878,159.191Z" transform="translate(-260.658 -158.577)" fill="#ee8880" fill-rule="evenodd"/></g><g transform="translate(5.795 9.663)"><path d="M257.889,153.808a.252.252,0,1,1,.086-.5c.011,0,3.846.7,5.161-1.343a.253.253,0,1,1,.425.273C262.064,154.572,257.9,153.811,257.889,153.808Z" transform="translate(-257.679 -151.852)" fill="#ee8880" fill-rule="evenodd"/></g><g transform="translate(1.276 3.538)"><path d="M248.236,136.821h0a1.352,1.352,0,0,0-.731.322.71.71,0,0,1-.426-.483.238.238,0,1,0-.462.113,1.141,1.141,0,0,0,.452.665.374.374,0,0,1-.314-.135.238.238,0,0,0-.361.311.806.806,0,0,0,.661.3,1.387,1.387,0,0,0-.014.413l.157,1.349a1.364,1.364,0,0,0,1.51,1.193h0a1.364,1.364,0,0,0,1.193-1.508l-.157-1.349A1.365,1.365,0,0,0,248.236,136.821Z" transform="translate(-246.338 -136.479)" fill="#242a51" fill-rule="evenodd"/></g><g transform="translate(12.007 2.026)"><path d="M274.517,133.4h0a1.424,1.424,0,0,1,.83.141.75.75,0,0,0,.311-.6.251.251,0,1,1,.5,0,1.2,1.2,0,0,1-.291.8.393.393,0,0,0,.286-.218.251.251,0,0,1,.449.225.852.852,0,0,1-.6.482,1.486,1.486,0,0,1,.121.418l.188,1.421a1.438,1.438,0,0,1-1.237,1.61h0a1.439,1.439,0,0,1-1.611-1.234l-.187-1.42A1.44,1.44,0,0,1,274.517,133.4Z" transform="translate(-273.269 -132.685)" fill="#242a51" fill-rule="evenodd"/></g></g><g transform="translate(49.29 24.754)"><path d="M295.736,133.307a4,4,0,0,1,.527-.5,2.2,2.2,0,0,1,1.158-.509c.723-.02,1.8,1.4,1.837,2.576s-.828,5.357-3.367,4.113S295.736,133.307,295.736,133.307Z" transform="translate(-294.721 -132.299)" fill="#f3b992" fill-rule="evenodd"/></g><g transform="translate(49.549 25.846)"><path d="M295.43,136.627a.264.264,0,0,0-.016.31.145.145,0,0,0,.223.01l.992-.88a2.791,2.791,0,0,1,.128,3.116c-.266.3.261.832.409.633a4.363,4.363,0,0,0,1.066-2.154c.113-.931-.792-1.665-.53-1.935s.589.057.62.087l0,0h0a2.411,2.411,0,0,1,.424.626.145.145,0,0,0,.234.058.271.271,0,0,0,.071-.305s-.572-1.308-1.561-1.144C296.549,135.211,295.434,136.624,295.43,136.627Z" transform="translate(-295.371 -135.038)" fill="#ee8880" fill-rule="evenodd"/></g><g transform="translate(42.026 37.628)"><path d="M286.618,164.687l-10.129,9.456,2.434,3.73a.574.574,0,0,0,.69-.081c.406-.3,8.715-11.936,8.715-11.936s.08-.243-.075-.365-1.415-.873-1.415-.873A.2.2,0,0,0,286.618,164.687Z" transform="translate(-276.489 -164.609)" fill="#fcd886" fill-rule="evenodd"/></g><g transform="translate(38.893 92.403)"><path d="M270.7,305.793a10.161,10.161,0,0,1,3.146,2.615c1.961,2.152,4.409,5.337,5.62,5.933s.175-4.012.266-4.11a25.773,25.773,0,0,0-4.172-4.111c-1.356-.924-5.884-1.937-6.933-4.031A4.32,4.32,0,0,0,270.7,305.793Z" transform="translate(-268.624 -302.09)" fill="#242a51" fill-rule="evenodd"/></g><g transform="translate(35.787 85.266)"><path d="M260.829,284.761a22.7,22.7,0,0,1,1.841,3.286c.319.977.426,5.654,3.344,6.969a4.548,4.548,0,0,1-1.849-3.864c.041-2.672.043-4.462-.327-5.077s-1-1.9-1-1.9Z" transform="translate(-260.829 -284.176)" fill="#5e5292" fill-rule="evenodd"/></g><g transform="translate(33.577 82.451)"><path d="M255.815,277.111s-.575.455-.529.967,1.218,1.736,1.649,2.434,1.582.843,2.795-.308S255.815,277.111,255.815,277.111Z" transform="translate(-255.283 -277.111)" fill="#453876" fill-rule="evenodd"/></g><g transform="translate(46.904 66.976)"><path d="M298.352,280.4l-2.929,2.827s-5.24-4.676-6.473-9.557,3.134-17.005,3.083-22.451-.977-12.946-.977-12.946l8.734,4.778Z" transform="translate(-288.731 -238.27)" fill="#453876" fill-rule="evenodd"/></g><g transform="translate(32.808 48.441)"><path d="M267.311,193.759s-1.558-.549-4.015,2.533-3.455,13.778-4.189,18.295-5.754-2.257-5.754-2.257,4.2-10.966,7.2-15.691,6.182-4.889,6.182-4.889Z" transform="translate(-253.352 -191.75)" fill="#5e5292" fill-rule="evenodd"/></g><g transform="translate(36.378 49.949)"><path d="M272.7,196.035s-1.558-.549-4.015,2.533-3.455,13.778-4.189,18.295c-.279,1.717-1.177,1.8-2.185,1.247.649-2.684,2.758-11.346,3.589-14.077.986-3.247,1.952-6.679,4.581-7.932a4.47,4.47,0,0,1,2.077-.565Z" transform="translate(-262.312 -195.533)" fill="#453876" fill-rule="evenodd"/></g><g transform="translate(52.58 54.857)"><path d="M324.708,268.958a35.854,35.854,0,0,1-9.309.541c-6.165-.257-11.046-3.7-11.406-4.572s-1.9-9.813-.308-15.208-.205-22.194-.668-24.25,8.3-17.616,8.3-17.616l13.795,3.077Z" transform="translate(-302.977 -207.854)" fill="#453876" fill-rule="evenodd"/></g><g transform="translate(57.886 54.429)"><path d="M344.423,215.8s-.282-5.165-1.155-6.654-5.24-2.62-7.912-2.312-7.809,4.521-11.1,14.642-7.963,28.308-7.963,32.623a16.651,16.651,0,0,0,4.97,11.548c2.942,2.838,9.415,3.146,11.624,2.632a13.3,13.3,0,0,0,6.782-4.779c1.849-2.414,3.133-7.654,4.264-12.329S344.423,215.8,344.423,215.8Z" transform="translate(-316.295 -206.778)" fill="#242a51" fill-rule="evenodd"/></g><g transform="translate(66.46 97.934)"><path d="M355.084,316.728a.774.774,0,0,1,1.547.036c0,.009-.01.554-.082,1.453-1.051,4.3-2.261,8.786-3.932,10.968a14.508,14.508,0,0,1-1.8,1.938c4.094-4.993,4.262-14.359,4.263-14.4Zm-13.8,17.8c-.99.052-2.146.078-3.466.056,8.03-2.277,8.3-17.11,8.3-17.156a.774.774,0,1,1,1.547.037C347.657,317.507,347.443,329.731,341.28,334.528Z" transform="translate(-337.814 -315.972)" fill="#5e5292" fill-rule="evenodd"/></g><g transform="translate(68.035 98.515)"><path d="M358.043,317.618a.194.194,0,0,1,.387.01,36.7,36.7,0,0,1-.788,6.321,25.252,25.252,0,0,1-2.073,5.25,33.485,33.485,0,0,0,2.475-11.58Zm-15.456,17.83c-.263.007-.536.014-.818.016,7.06-3.593,7.3-17.1,7.3-17.146a.193.193,0,0,1,.387.01C349.455,318.371,349.228,331.288,342.587,335.448Z" transform="translate(-341.769 -317.43)" fill="#453876" fill-rule="evenodd"/></g><g transform="translate(70.081 62.157)"><path d="M362.837,227.464a8.159,8.159,0,0,0-3.546-1.285c-1.7-.051-6.165.361-8.066,1.645s-2.723,8.476-3.442,13.409-1.644,13.819.206,17.724,2.723,7.449,5.035,7.86,7.423.874,9.427-2.311S368.565,244.6,362.837,227.464Z" transform="translate(-346.905 -226.175)" fill="#897fba" fill-rule="evenodd"/></g><g transform="translate(80.893 62.331)"><path d="M374.04,267.29a9.4,9.4,0,0,0,1.7-.346c.789-2.876,1.569-6.032,2.174-9.377a64.283,64.283,0,0,0,1.09-14.128,55.334,55.334,0,0,0-2.979-16.333.775.775,0,0,0-1.444.564,53.6,53.6,0,0,1,2.877,15.829,62.734,62.734,0,0,1-1.067,13.795C375.745,260.875,374.89,264.248,374.04,267.29Z" transform="translate(-374.04 -226.613)" fill="#5e5292" fill-rule="evenodd"/></g><g transform="translate(81.31 62.72)"><path d="M375.088,267.82c.286-.044.571-.1.85-.169.807-2.927,1.609-6.148,2.226-9.565a63.926,63.926,0,0,0,1.085-14.045,54.935,54.935,0,0,0-2.954-16.207.388.388,0,0,0-.723.282,54.026,54.026,0,0,1,2.9,15.955,63.227,63.227,0,0,1-1.073,13.878C376.765,261.481,375.925,264.811,375.088,267.82Z" transform="translate(-375.088 -227.587)" fill="#242a51" fill-rule="evenodd"/></g><g transform="translate(52.58 55.965)"><path d="M304,266.617l-.008-.017c-.359-.873-1.9-9.813-.308-15.208s-.205-22.194-.668-24.25c-.388-1.721,5.7-12.918,7.68-16.508,4,.214,7.514.43,7.514.43s-5.411,9.544-5.027,13.641,5.24,27.64,5.548,31.236-7.09,9.761-9.041,10.687A6.588,6.588,0,0,1,304,266.617Z" transform="translate(-302.977 -210.635)" fill="#5e5292" fill-rule="evenodd"/></g><g transform="translate(70.081 62.157)"><path d="M362.837,227.464a8.159,8.159,0,0,0-3.546-1.285c-1.7-.051-6.165.361-8.066,1.645s-2.723,8.476-3.442,13.409-1.644,13.819.206,17.724c.625,1.321,1.139,2.6,1.634,3.73-.035-4.105,2.142-29.237,2.707-31.19s3.186-3.6,6.165-3.7a8.618,8.618,0,0,1,4.808,1.135Q363.081,228.2,362.837,227.464Z" transform="translate(-346.905 -226.175)" fill="#5e5292" fill-rule="evenodd"/></g><g transform="translate(57.746 50.023)"><path d="M342.157,197.377c.194-.053,1.762,6.04,1.807,6.221a.6.6,0,0,1-.316.766c-.425.18-1.877-2.659-5.319-3.275s-6.011,1.824-7.527,4.136a2.929,2.929,0,0,1-2.234.669c-1.156-.258-6.011-2.492-9.607-2.441s-3.638-7.375-1.9-7.7S342.157,197.377,342.157,197.377Z" transform="translate(-315.944 -195.721)" fill="#453876" fill-rule="evenodd"/></g><g transform="translate(70.36 59.174)"><path d="M348.047,218.864a.193.193,0,0,1,.385.036c0,.005-.187,1.658-.444,3.534a.193.193,0,1,1-.383-.051C347.862,220.508,348.047,218.868,348.047,218.864Z" transform="translate(-347.603 -218.689)" fill="#897fba" fill-rule="evenodd"/></g><g transform="translate(67.97 62.095)"><path d="M343.431,226.75a.775.775,0,1,1,1.547.091,66.3,66.3,0,0,1-1.844,11.423.776.776,0,0,1-1.5-.382A64.565,64.565,0,0,0,343.431,226.75Z" transform="translate(-341.604 -226.02)" fill="#fff" fill-rule="evenodd"/></g><g transform="translate(25.779)"><path d="M235.709,85.287a2.646,2.646,0,0,0,1.552-2.084c.237-1.6,2.2-10.292,2.2-10.292a3.176,3.176,0,0,1,2.09-2.1,86.544,86.544,0,0,1,11.479-.6,8.055,8.055,0,0,1,4.645,1.536c1.891,1.288,3.887,2.908,3.887,2.908a3.274,3.274,0,0,1,1.028,1.969c.234,1.354,1.474,9.751,1.474,9.751Z" transform="translate(-235.709 -70.167)" fill="#fcd886" fill-rule="evenodd"/></g><g transform="translate(45.877 0.561)"><path d="M286.155,71.574a8.95,8.95,0,0,1,1.869,1.017c1.891,1.288,3.887,2.908,3.887,2.908a3.274,3.274,0,0,1,1.028,1.969c.234,1.354,1.473,9.751,1.473,9.751l-8.071-.31c.048-1.715.328-11.512.51-13.233A2.339,2.339,0,0,0,286.155,71.574Z" transform="translate(-286.155 -71.574)" fill="#ddb671" fill-rule="evenodd"/></g><g transform="translate(25.779 10.761)"><path d="M235.709,101.535a2.646,2.646,0,0,0,1.552-2.084c.053-.354.19-1.059.373-1.94,0,0,13.894-1.6,26,2.2.243,1.636.431,2.91.431,2.91Z" transform="translate(-235.709 -97.176)" fill="#b37358" fill-rule="evenodd"/></g><g transform="translate(46.063 11.582)"><path d="M286.749,99.238a51.458,51.458,0,0,1,7.511,1.713c.243,1.636.43,2.91.43,2.91l-8.071-.31C286.638,102.927,286.686,101.229,286.749,99.238Z" transform="translate(-286.62 -99.238)" fill="#995c44" fill-rule="evenodd"/></g><g transform="translate(25.816 15.281)"><path d="M238.025,123.02a4.329,4.329,0,0,0-.157-2.036s.426-3.051-.088-4.206c0,0,4.712-3.613,3.658-6.646s-5.238-.854-5.238-.854l-.4,8.81.883,2.9S237.547,120.958,238.025,123.02Z" transform="translate(-235.802 -108.52)" fill="#453876" fill-rule="evenodd"/></g><g transform="translate(26.254 25.631)"><path d="M238.688,138.648a4.336,4.336,0,0,0-.158-2.036,19.874,19.874,0,0,0,.163-2.114,3.668,3.668,0,0,1-1.79.659l.444,1.457S238.209,136.586,238.688,138.648Z" transform="translate(-236.902 -134.498)" fill="#242a51" fill-rule="evenodd"/></g><g transform="translate(26.143 15.281)"><path d="M239.625,115.562c1.3-1.317,2.981-3.491,2.307-5.429-1.053-3.034-5.238-.853-5.238-.853l-.07,1.551a2.159,2.159,0,0,1,.82.846,3.444,3.444,0,0,1-.409,3.586s-.091.193.083.247A3.343,3.343,0,0,0,239.625,115.562Z" transform="translate(-236.624 -108.521)" fill="#242a51" fill-rule="evenodd"/></g><g transform="translate(36.007 18.251)"><path d="M261.382,115.975c3.775,1.34,7.694,6.359,11.566,4.572,0,0-.077,3.541,1.516,5.261,0,0,.761-2.728,2.565-3.271a5.669,5.669,0,0,0,1.006-1.969c0-.616-.154-2.749-1.028-3.159S261.382,115.975,261.382,115.975Z" transform="translate(-261.382 -115.975)" fill="#242a51" fill-rule="evenodd"/></g><g transform="translate(50.913 22.198)"><path d="M298.806,128.865a2.476,2.476,0,0,1,.73-.367,5.669,5.669,0,0,0,1.006-1.969c0-.145-.009-.375-.033-.646a1.76,1.76,0,0,0-.713.281A3.174,3.174,0,0,0,298.806,128.865Z" transform="translate(-298.794 -125.883)" fill="#453876" fill-rule="evenodd"/></g><g transform="translate(17.201 14.241)"><path d="M214.18,107.792a24.25,24.25,0,0,1,12.7,1.421c6.884,2.671,18.033,3.6,23.53,2.621s7.031-1.691,9.09-.794C252.613,104.327,222.473,105.3,214.18,107.792Z" transform="translate(-214.18 -105.912)" fill="#fcd886" fill-rule="evenodd"/></g><g transform="translate(42.761 46.25)"><path d="M290.654,187.117s-4.655-2.273-8.336.541-4.33,8.5-3.844,10.88,3.519,7.47,5.2,8.5c0,0,11.258,16.617,12.5,18.566s5.035,2.923,8.932,4.547,6.657-3.139,6.008-5.9-9.959-19.323-12.124-22.355S297.258,191.068,290.654,187.117Z" transform="translate(-278.333 -186.25)" fill="#f4a965" fill-rule="evenodd"/></g><g transform="translate(44.089 47.909)"><path d="M284.013,190.414a9.417,9.417,0,0,0-2.346,3.116c.423,2.644,1.838,5.929,6.255,5.929h5.993a6.978,6.978,0,0,1,4.421,2.091c.816.735,1.607,1.355,2.045,1.73-1.31-3-1.71-8.234-5.442-11.9C292.058,190.915,287.022,190.589,284.013,190.414Z" transform="translate(-281.667 -190.414)" fill="#f29d63" fill-rule="evenodd"/></g><g transform="translate(70.783 85.54)"><path d="M348.666,289.789c2.7.233,4.621-2.567,4.834-4.924C353.216,285.99,351.31,288.122,348.666,289.789Z" transform="translate(-348.666 -284.865)" fill="#f29d63" fill-rule="evenodd"/></g><g transform="translate(34.951 79.254)"><path d="M274.712,281.524l1.64-7.923-12.4-4.516-4.828,2.962-.395,2.236s.987.525,2.089,1.059S274.712,281.524,274.712,281.524Z" transform="translate(-258.731 -269.086)" fill="#f2ba95" fill-rule="evenodd"/></g><g transform="translate(38.99 79.254)"><path d="M280.811,281.524l1.64-7.923-1.437-.523c-1.011,1.159-3.273,4.095-3.242,7.1l3.038,1.343Zm-8.76-11.711-2-.728a6.456,6.456,0,0,1-1.185,2.223A3.991,3.991,0,0,0,272.05,269.814Z" transform="translate(-268.868 -269.086)" fill="#ee8b83" fill-rule="evenodd"/></g><g transform="translate(49.854 82.883)"><path d="M298.63,278.536a6.99,6.99,0,0,0-1.6,2.273,17.784,17.784,0,0,0-.867,6.252,13.945,13.945,0,0,0,1.628,5.072,1.989,1.989,0,0,0,1.624.6s1.082,1.19,1.542,1.19,4.981-.6,5.468-.65.595-1.515.621-2a25.33,25.33,0,0,1-1.789-4.585c-.46-1.976,1.543-7.741,1.543-7.741a2.507,2.507,0,0,0-.758-.649c-.515-.3-3.871.663-3.871.663S299.862,277.576,298.63,278.536Z" transform="translate(-296.136 -278.196)" fill="#fff" fill-rule="evenodd"/></g><g transform="translate(58.077 83.617)"><path d="M319.219,280.05a5.9,5.9,0,0,1,3.233.7c1.354.866,3.871,2.787,6.334,4.168a4.3,4.3,0,0,0,4.56-.216s-2.881,5.006-5.588,6.63-8.293,1.039-8.293,1.039S313.577,286.274,319.219,280.05Z" transform="translate(-316.774 -280.038)" fill="#f4a965" fill-rule="evenodd"/></g><g transform="translate(58.087 88.285)"><path d="M331.485,292.487a4.427,4.427,0,0,0,1.877-.733s-2.881,5.006-5.588,6.63-8.293,1.04-8.293,1.04a10.563,10.563,0,0,1-2.681-6.141c.035.075,1.741,3.654,6.971,2.887A16.355,16.355,0,0,0,331.485,292.487Z" transform="translate(-316.799 -291.754)" fill="#f29d63" fill-rule="evenodd"/></g><g transform="translate(29.655 67.882)"><path d="M248.1,242.726a1.392,1.392,0,0,1,.2-.7,8.219,8.219,0,0,1,1.845-1.4,1.725,1.725,0,0,1,1.543.267c.418.349,1.521,1.52,1.683,1.671a10.063,10.063,0,0,1,1.891,2.2c.348.79.7,7.149.7,7.149l-5.223,5.2a11.238,11.238,0,0,1-3.178-6.057s-1.347-1.288-1.869-1.811-.117-1.81.243-2.251c0,0-.081-1.544.94-1.938A2.271,2.271,0,0,1,248.1,242.726Z" transform="translate(-245.437 -240.545)" fill="#f2ba95" fill-rule="evenodd"/></g><g transform="translate(29.97 69.517)"><path d="M248.032,253.7a.181.181,0,0,1-.156-.091,4.738,4.738,0,0,1-.48-1.33l-.264.009a.178.178,0,0,1-.012-.355l.238-.009a1.435,1.435,0,0,1,.158-.748.178.178,0,0,1,.31.174c-.331.594.147,1.706.36,2.085a.179.179,0,0,1-.155.265Zm-1.624-4.062a.178.178,0,0,1-.105-.322,2.056,2.056,0,0,1,1.071-.307c.567.012,1.818.012,1.818.012v.355s-1.256,0-1.826-.012a1.411,1.411,0,0,0-.855.241A.181.181,0,0,1,246.407,249.642Zm.939-1.939a.176.176,0,0,1-.17-.126.179.179,0,0,1,.118-.222,4.8,4.8,0,0,1,1.342-.13c.843.011,1.96.092,1.972.093a.178.178,0,1,1-.027.355c-.01,0-1.117-.081-1.95-.092a4.214,4.214,0,0,0-1.234.114A.18.18,0,0,1,247.346,247.7Zm4.43-2.188s-.731-.057-1.41-.113h0c-.462-.037-.9-.074-1.063-.09a1.932,1.932,0,0,0-.674.053.178.178,0,0,1-.1-.341,2.285,2.285,0,0,1,.811-.066c.127.012.414.037.749.065l-.057-.119a.178.178,0,0,1,.083-.237.175.175,0,0,1,.237.084l.146.305,1.309.1Z" transform="translate(-246.229 -244.649)" fill="#ee8b83"/></g><g transform="translate(7.236 68.439)"><path d="M196.173,244.306a1.835,1.835,0,0,1-1.7-.1c-.861-.526-1.143-1.5.192-1.772a4.479,4.479,0,0,1,1.4-.488,12.975,12.975,0,0,1,3.185.745c.643.32,1.2,1.554,2.185,2.414s3.377,2.735,1.913,4.739c0,0,1.041,2.866-1.009,3.8a2.746,2.746,0,0,0-1.2-.072,42.785,42.785,0,0,1-4.507.668,1.236,1.236,0,0,1-1.183-1.1l-2.665-1.643a1.112,1.112,0,0,1-.392-.9,11.481,11.481,0,0,1-1.387-.7,23.007,23.007,0,0,1-1.657-2.3s-.477-.773.1-.991,1.609.812,1.609.812l1.017.388s.059-.377.585-.377.922.953.922.953l2.229.851.972-.059h0a.974.974,0,0,1,.59-.391.641.641,0,0,1,.739.311l.515-.031.363-.95-4.456-1.7,2.268-.705.193-.667S196.488,244.579,196.173,244.306Z" transform="translate(-189.169 -241.943)" fill="#f2ba95" fill-rule="evenodd"/></g><g transform="translate(8.954 69.434)"><path d="M200.545,255.224a.151.151,0,0,1-.033,0,.179.179,0,0,1-.143-.207c.238-1.3-.42-1.616-.448-1.628a.181.181,0,0,1-.091-.234.178.178,0,0,1,.231-.094h0c.145-.458.511-1.622.565-1.893a.727.727,0,0,0-.067-.485.178.178,0,1,1,.3-.187,1.089,1.089,0,0,1,.112.741c-.065.322-.506,1.714-.612,2.049a1.953,1.953,0,0,1,.355,1.794A.178.178,0,0,1,200.545,255.224Zm-2.5-.414a.177.177,0,0,1-.177-.172,3.747,3.747,0,0,1,.167-1.177c.18-.541,1.141-2.77,1.182-2.866a.18.18,0,0,1,.234-.093.178.178,0,0,1,.092.234c-.01.023-.994,2.311-1.169,2.836a3.451,3.451,0,0,0-.151,1.052.178.178,0,0,1-.172.184Zm-1.408-2.335a.176.176,0,0,1-.173-.143l-.459-2.426a.177.177,0,0,1,.142-.208.179.179,0,0,1,.207.141l.228,1.219a1.623,1.623,0,0,1,1.254,1.111.178.178,0,0,1-.341.1,1.232,1.232,0,0,0-.841-.826l.159.818a.178.178,0,0,1-.141.209A.192.192,0,0,1,196.64,252.475Zm-1.649-.209a.179.179,0,0,1-.177-.158l-.165-1.464-1.137-1.633a.178.178,0,0,1,.292-.2l.76,1.092-.066-.583a.178.178,0,0,1,.156-.2.181.181,0,0,1,.2.157l.145,1.279v0l.171,1.506a.178.178,0,0,1-.157.2Zm10.956-.745a.181.181,0,0,1-.145-.074c-.043-.061-1.109-1.492-3.541-.745a.178.178,0,0,1-.105-.341c2.687-.824,3.886.809,3.936.879a.178.178,0,0,1-.145.28Zm-6.545-4.144a.178.178,0,0,1-.059-.346,7.418,7.418,0,0,0,1.77-.989.178.178,0,1,1,.214.283,7.624,7.624,0,0,1-1.866,1.041A.173.173,0,0,1,199.4,247.377Zm.193-.669a.179.179,0,0,1-.171-.127.177.177,0,0,1,.12-.221,1.4,1.4,0,0,0,.424-.215.177.177,0,0,1,.231.269,1.766,1.766,0,0,1-.553.286A.192.192,0,0,1,199.595,246.708Zm-.828-.723a.178.178,0,0,1-.1-.328c.02-.013.371-.258.361-1.037a.176.176,0,0,1,.175-.18.187.187,0,0,1,.18.175,1.488,1.488,0,0,1-.529,1.345A.175.175,0,0,1,198.767,245.985Z" transform="translate(-193.481 -244.439)" fill="#ee8b83"/></g><g transform="translate(22.472 76.014)"><path d="M230.812,260.995l-.024-.01c-.321-.109-.7.091-1.081.521.193.141.4.288.611.439.113-.147.189-.228.218-.226a1.6,1.6,0,0,1-.009.372c-.006.078-.014.167-.024.265a9.838,9.838,0,0,1-.5,2.088l-.183.511a11.52,11.52,0,0,1-1.132,2.28c-.068.1-.13.19-.188.27-.179.25-.3.394-.34.392a3.218,3.218,0,0,1,.032-.638.153.153,0,0,1,0-.017c-.234-.2-.468-.394-.7-.583h0c-.033.188-.058.366-.074.528-.072.755.076,1.284.463,1.435l.024.01c.346.117.758-.124,1.169-.624.084-.1.168-.215.251-.337a12.341,12.341,0,0,0,1.217-2.442l.192-.535a11.087,11.087,0,0,0,.516-2.1c.007-.055.013-.109.018-.162C231.346,261.674,231.2,261.145,230.812,260.995Z" transform="translate(-227.409 -260.956)" fill="#242a51" fill-rule="evenodd"/></g><g transform="translate(44.418 43.003)"><path d="M303.405,178.1c0,5.663-3.552,10.392-8.28,11.522a1.341,1.341,0,0,1,.011.246h-1.748c-.147.007-.294.011-.443.011-5.63,0-10.227-5.015-10.452-11.3,0-.083.038-.482.419-.482Z" transform="translate(-282.493 -178.1)" fill="#dee8f0" fill-rule="evenodd"/></g><g transform="translate(56.601 31.223)"><path d="M337.863,149.733c5.186,0,9.4,4.738,9.4,10.582s-4.211,10.58-9.4,10.58l-24.332,1.187-.46-23.547Z" transform="translate(-313.071 -148.535)" fill="#ec797d" fill-rule="evenodd"/></g><g transform="translate(57.045 39.98)"><path d="M347.54,170.512a11.772,11.772,0,0,1,.39,3.023c0,5.843-4.211,10.58-9.4,10.58L314.2,185.3l-.017-.82,3.841-3.242c.433-.336,5.82-4.644,5.82-4.644h18.633C347.145,176.6,347.691,172.726,347.54,170.512Z" transform="translate(-314.184 -170.512)" fill="#cf5869" fill-rule="evenodd"/></g><g transform="translate(75.347 32.129)"><path d="M361.883,172.472l-1.762.085a13.21,13.21,0,0,0,0-21.749l1.762.084a13.229,13.229,0,0,1,0,21.579Z" transform="translate(-360.121 -150.809)" fill="#8f204c" fill-rule="evenodd"/></g><g transform="translate(46.14 31.223)"><path d="M297.275,172.092c5.761,0,10.461-5.291,10.461-11.778s-4.7-11.779-10.461-11.779-10.461,5.291-10.461,11.779S291.513,172.092,297.275,172.092Z" transform="translate(-286.814 -148.535)" fill="#fff" fill-rule="evenodd"/></g><g transform="translate(47.54 32.845)"><path d="M299.389,172.92a8.968,8.968,0,0,1-7.849-5.08.356.356,0,0,1,.632-.327,8.258,8.258,0,0,0,7.217,4.7,7.96,7.96,0,0,0,6.116-3.019.356.356,0,0,1,.55.452A8.674,8.674,0,0,1,299.389,172.92Zm8.351-7.03a.356.356,0,0,1-.345-.446,10.584,10.584,0,0,0,.343-2.681c0-5.209-3.746-9.446-8.349-9.446s-8.349,4.237-8.349,9.446c0,.079,0,.159,0,.237a.354.354,0,0,1-.348.363.341.341,0,0,1-.363-.348c0-.083,0-.168,0-.252,0-5.6,4.065-10.158,9.061-10.158s9.06,4.557,9.06,10.158a11.289,11.289,0,0,1-.365,2.862A.354.354,0,0,1,307.741,165.889Z" transform="translate(-290.328 -152.604)" fill="#c9d9e5"/></g><g transform="translate(49.582 35.144)"><path d="M302.473,174.092c-3.871,0-7.019-3.525-7.019-7.858s3.148-7.859,7.019-7.859a6.622,6.622,0,0,1,5.017,2.364.356.356,0,0,1-.536.467,5.923,5.923,0,0,0-4.481-2.12c-3.479,0-6.308,3.205-6.308,7.147s2.83,7.147,6.308,7.147,6.307-3.206,6.307-7.147a7.882,7.882,0,0,0-.555-2.932.355.355,0,1,1,.661-.262,8.583,8.583,0,0,1,.6,3.195C309.491,170.567,306.343,174.092,302.473,174.092Z" transform="translate(-295.454 -158.375)" fill="#c9d9e5"/></g><g transform="translate(51.6 37.415)"><path d="M305.52,175.25c-2.758,0-5-2.506-5-5.586A6.084,6.084,0,0,1,301,167.28a.356.356,0,0,1,.655.277,5.379,5.379,0,0,0-.421,2.106c0,2.688,1.925,4.874,4.29,4.874s4.289-2.187,4.289-4.874-1.924-4.875-4.289-4.875a3.828,3.828,0,0,0-1.448.285.355.355,0,1,1-.268-.658,4.524,4.524,0,0,1,1.716-.339c2.757,0,5,2.506,5,5.587S308.277,175.25,305.52,175.25Z" transform="translate(-300.519 -164.076)" fill="#c9d9e5"/></g><g transform="translate(54.403 40.527)"><path d="M309.752,176.837a2.492,2.492,0,1,0-2.2-2.474A2.353,2.353,0,0,0,309.752,176.837Z" transform="translate(-307.554 -171.887)" fill="#dee8f0" fill-rule="evenodd"/></g><g transform="translate(67.247 31.738)"><path d="M347.821,161.092a12.621,12.621,0,0,0-6.232-11.179l-1.789-.086a13.12,13.12,0,0,1-.01,22.536l1.791-.088A12.619,12.619,0,0,0,347.821,161.092Z" transform="translate(-339.79 -149.826)" fill="#8f204c" fill-rule="evenodd"/></g><g transform="translate(70.66 59.023)"><path d="M348.677,218.952a.321.321,0,1,0-.321-.321A.322.322,0,0,0,348.677,218.952Z" transform="translate(-348.356 -218.31)" fill="#fff" fill-rule="evenodd"/></g><g transform="translate(70.11 62.41)"><circle cx="0.46" cy="0.46" r="0.46" fill="#5e5292"/></g><g transform="translate(85.281 57.927)"><path d="M385.054,215.559s.507,2.729.733,5.519C385.787,221.078,386.732,217.008,385.054,215.559Z" transform="translate(-385.054 -215.559)" fill="#897fba" fill-rule="evenodd"/></g><g transform="translate(85.041 57.687)"><path d="M384.691,215.436a.239.239,0,1,0-.24-.239A.239.239,0,0,0,384.691,215.436Z" transform="translate(-384.451 -214.957)" fill="#fff" fill-rule="evenodd"/></g><g transform="translate(30.513 98.419)"><path d="M258.783,318.058c-.935,2.746-1.707,7.823.648,10.081a.342.342,0,0,1-.268.588,24.635,24.635,0,0,1-10.789-3.685l-.029-.02a2.078,2.078,0,0,1-.59-1.187,18.529,18.529,0,0,1-.137-2.51c-.017-.8-.05-1.688,0-2.481a1.841,1.841,0,0,1,1.834-1.654,8.06,8.06,0,0,1,1.01.142c.649.1,1.3.192,1.951.26a28.348,28.348,0,0,0,6,.016.343.343,0,0,1,.361.451Z" transform="translate(-247.592 -317.19)" fill="#897fba" fill-rule="evenodd"/></g><g transform="translate(29.647 98.748)"><path d="M248.326,320.7s-.065,1.9.025,2.979c0,0,.038.424-.372.347a4.663,4.663,0,0,1-2.042-1.554,6.932,6.932,0,0,1-.245-4.456S245.2,319.84,248.326,320.7Z" transform="translate(-245.418 -318.016)" fill="#5e5292" fill-rule="evenodd"/></g><g transform="translate(79.252 64.804)"><path d="M371.767,236.856c-.006.02-.014.041-.022.061a.945.945,0,0,1-1.754-.705c.008-.02.017-.04.026-.058l1.383-2.875v0a.73.73,0,0,1,1.355.543v0l-.988,3.033Zm.459-3.674a.4.4,0,1,0,.22.514.395.395,0,0,0-.22-.514Zm-1.128,2.81a.616.616,0,1,0,.342.8A.616.616,0,0,0,371.1,235.992Z" transform="translate(-369.923 -232.819)" fill="#fff" fill-rule="evenodd"/></g><g transform="translate(81.209 63.856)"><path d="M375.3,230.667a.194.194,0,1,1,.382-.066,2.262,2.262,0,0,1-.5,1.633.194.194,0,1,1-.318-.222A1.866,1.866,0,0,0,375.3,230.667Z" transform="translate(-374.833 -230.44)" fill="#5e5292" fill-rule="evenodd"/></g><g transform="translate(75.63 103.703)"><path d="M363.16,334.093c.006.02.012.041.017.061a.946.946,0,0,1-1.848.4c0-.021-.008-.042-.011-.063l-.47-3.155v0a.73.73,0,1,1,1.427-.31h0l.885,3.065Zm-1.683-3.3a.4.4,0,1,0,.471.3.4.4,0,0,0-.471-.3Zm.644,2.959a.616.616,0,1,0,.733.471A.615.615,0,0,0,362.122,333.754Z" transform="translate(-360.831 -330.452)" fill="#fff" fill-rule="evenodd"/></g><g transform="translate(75.715 102.753)"><path d="M361.1,328.4a.194.194,0,1,1,.278-.27,2.263,2.263,0,0,1,.5,1.633.193.193,0,0,1-.387-.006A1.87,1.87,0,0,0,361.1,328.4Z" transform="translate(-361.045 -328.067)" fill="#897fba" fill-rule="evenodd"/></g><g transform="translate(83.557 102.785)"><path d="M382.616,332.088c0,.021,0,.043,0,.064a.946.946,0,0,1-1.891-.054c0-.022,0-.043,0-.065l.306-3.175v0a.73.73,0,1,1,1.459.043v0l.121,3.188Zm-.838-3.607a.4.4,0,1,0,.384.408.4.4,0,0,0-.384-.408Zm-.088,3.027a.617.617,0,1,0,.6.634A.617.617,0,0,0,381.689,331.509Z" transform="translate(-380.726 -328.147)" fill="#fff" fill-rule="evenodd"/></g><g transform="translate(84.323 101.77)"><path d="M382.676,325.89a.194.194,0,1,1,.335-.194,2.268,2.268,0,0,1,.1,1.706.194.194,0,0,1-.374-.1A1.877,1.877,0,0,0,382.676,325.89Z" transform="translate(-382.65 -325.599)" fill="#fff" fill-rule="evenodd"/></g><g transform="translate(60.273 83.367)"><path d="M332.1,284.793a.248.248,0,0,1-.122-.032c-1.671-.937-3.351-2.11-4.7-3.054-.647-.452-1.206-.842-1.642-1.122a5.665,5.665,0,0,0-3.079-.666.251.251,0,0,1-.269-.227.249.249,0,0,1,.226-.269,6.1,6.1,0,0,1,3.389.743c.175.111.367.239.576.381a19.431,19.431,0,0,0,4.814-.9.249.249,0,1,1,.191.46,17.5,17.5,0,0,1-4.359.885l.438.306c1.341.937,3.011,2.1,4.661,3.028a.249.249,0,0,1-.122.466Z" transform="translate(-322.287 -279.41)" fill="#e78c62"/></g><g transform="translate(42.654 58.289)"><path d="M293.908,240.863a.252.252,0,0,1-.207-.11c-3.45-5.141-9.856-14.6-10.366-15.352-3.285-1.922-4.677-5.752-5.267-8.635a.249.249,0,0,1,.488-.1c.542,2.652,1.779,6.129,4.6,8.033a12.243,12.243,0,0,1,.5-5.627.249.249,0,1,1,.473.156,11.546,11.546,0,0,0-.39,5.883c.456.674,6.907,10.2,10.375,15.366a.248.248,0,0,1-.207.388Zm4.389-21.474a.248.248,0,0,1-.167-.064L296,217.408a.249.249,0,1,1,.333-.37l2.13,1.918a.249.249,0,0,1,.018.351A.252.252,0,0,1,298.3,219.389Z" transform="translate(-278.063 -216.466)" fill="#e78c62"/></g><g transform="translate(51.328 83.465)"><path d="M301.643,293.784a.179.179,0,0,1-.163-.106,23.763,23.763,0,0,1-1.645-5.836.178.178,0,0,1,.156-.2.176.176,0,0,1,.2.156,23.313,23.313,0,0,0,1.616,5.733.179.179,0,0,1-.09.235A.187.187,0,0,1,301.643,293.784Zm.8-8.1a.178.178,0,0,1-.177-.171c-.175-4.632,1.965-5.8,2.057-5.842a.178.178,0,0,1,.165.315c-.021.011-2.032,1.129-1.866,5.514a.179.179,0,0,1-.171.184Z" transform="translate(-299.834 -279.655)" fill="#e2dde2"/></g><g transform="translate(27.826 86.673)"><path d="M241.946,291.561a.178.178,0,0,1-.065-.343,3.86,3.86,0,0,0,2.182-3.31.178.178,0,0,1,.354.035,4.213,4.213,0,0,1-2.406,3.607A.2.2,0,0,1,241.946,291.561Zm-.919-1.1a.185.185,0,0,1-.056-.009.178.178,0,0,1-.112-.225,2.669,2.669,0,0,0,.08-.691c.008-.156.016-.333.031-.542a5.663,5.663,0,0,1,.207-1.16.178.178,0,1,1,.339.106,5.536,5.536,0,0,0-.191,1.081c-.016.2-.024.379-.03.531a2.9,2.9,0,0,1-.1.788A.178.178,0,0,1,241.026,290.461Z" transform="translate(-240.849 -287.709)" fill="#e2dde2"/></g><g transform="translate(33.935 100.328)"><path d="M258.759,321.98a3.26,3.26,0,0,1,2.9,3.324c.09,1.835-1.063,3.323-2.574,3.323a3.259,3.259,0,0,1-2.9-3.323C256.1,323.468,257.248,321.98,258.759,321.98Z" transform="translate(-256.18 -321.98)" fill="#5e5292" fill-rule="evenodd"/></g><g transform="translate(34.837 101.611)"><path d="M260.027,325.2a2,2,0,0,1,1.779,2.04,1.782,1.782,0,0,1-1.581,2.04,2,2,0,0,1-1.779-2.04A1.781,1.781,0,0,1,260.027,325.2Z" transform="translate(-258.443 -325.201)" fill="#897fba" fill-rule="evenodd"/></g></g><g transform="translate(11.524)"><path d="M230.759,179.4a.252.252,0,0,1-.176-.071c-2.528-2.422-1.572-7.827-.714-10.347a.081.081,0,0,0-.015-.083.08.08,0,0,0-.076-.031,28.825,28.825,0,0,1-6.059-.016c-.611-.064-1.253-.149-1.964-.261-.079-.013-.169-.029-.261-.045a5.1,5.1,0,0,0-.712-.1h-.013a1.589,1.589,0,0,0-1.565,1.418c-.023.337-.032.719-.029,1.2a.254.254,0,0,1-.253.257.261.261,0,0,1-.257-.253c0-.5.006-.889.031-1.24a2.084,2.084,0,0,1,2.073-1.892h.018a5.21,5.21,0,0,1,.8.1c.09.016.176.032.251.043.7.111,1.337.2,1.938.259a28.308,28.308,0,0,0,5.95.015.579.579,0,0,1,.53.22.587.587,0,0,1,.1.566c-.822,2.412-1.759,7.569.584,9.814a.255.255,0,0,1-.176.439Zm10.221-25.6a.261.261,0,0,1-.087-.015L228.5,149.276a.217.217,0,0,1-.039-.017.252.252,0,0,1-.083-.073.255.255,0,0,1-.045-.1.214.214,0,0,1-.005-.043,55,55,0,0,0-.674-7.053,8.5,8.5,0,0,0-1.814-2.1c-.07-.065-.215-.214-.4-.407-.4-.414-1.01-1.041-1.288-1.273a1.474,1.474,0,0,0-1.285-.226,8.315,8.315,0,0,0-1.731,1.315,1.108,1.108,0,0,0-.15.549.257.257,0,0,1-.158.235,2.022,2.022,0,0,0-1.075,2.064.257.257,0,0,1-.161.27c-.835.323-.779,1.675-.778,1.688a.257.257,0,0,1-.057.174c-.322.394-.645,1.527-.261,1.91.521.521,1.864,1.807,1.864,1.807l-.352.367s-1.349-1.291-1.873-1.814c-.606-.606-.245-1.932.168-2.514a2.32,2.32,0,0,1,.928-2.012,2.463,2.463,0,0,1,1.254-2.344,1.487,1.487,0,0,1,.233-.676,8.375,8.375,0,0,1,1.958-1.492,1.962,1.962,0,0,1,1.8.308c.3.249.918.886,1.328,1.308.178.184.316.326.365.371a9.551,9.551,0,0,1,1.951,2.289c.335.76.643,5.915.708,7.069l12.242,4.459a.255.255,0,0,1-.087.494Zm-23.661-10.682h0a.254.254,0,0,1-.254-.255,7.6,7.6,0,0,1,.453-2.607c1.691-4.638,10.441-19.184,13.269-21.575a.255.255,0,0,1,.329.389c-2.791,2.36-11.443,16.762-13.12,21.361a7.06,7.06,0,0,0-.422,2.432A.254.254,0,0,1,217.319,143.124Zm9.039-19.287c-8.4,0-9.73-5.379-9.775-8.592a.254.254,0,0,1,.252-.257h0a.254.254,0,0,1,.255.251c.051,3.694,1.7,8.089,9.264,8.089.026,0,.054,0,.08,0a.255.255,0,1,1,0,.509Zm43.443-.217a.254.254,0,0,1,0-.509c5.041,0,9.143-4.632,9.143-10.326s-4.1-10.327-9.143-10.327l-24.8-1.2a.256.256,0,0,1-.242-.267.271.271,0,0,1,.267-.242l24.793,1.2c5.31,0,9.639,4.862,9.639,10.836S275.123,123.62,269.8,123.62Zm-41.193-10.343c-1.923,0-4.077-1.31-7.917-3.907a12.356,12.356,0,0,1-3.527-6.027l-.257-.979q-.208-.783-.414-1.58a.255.255,0,0,1,.493-.127c.136.53.276,1.057.412,1.577l.258.981a12.058,12.058,0,0,0,3.342,5.75c5.619,3.8,7.374,4.562,9.892,3.1a.254.254,0,1,1,.254.439A4.946,4.946,0,0,1,228.608,113.277ZM215.9,111.792a.268.268,0,0,1-.039,0,2.538,2.538,0,0,1-1.878-1.163c-.606-1.008-.54-2.589.2-4.7a11.281,11.281,0,0,0,.5-1.934.255.255,0,0,1,.5.079,11.737,11.737,0,0,1-.52,2.022c-.683,1.96-.765,3.4-.241,4.268a2.023,2.023,0,0,0,1.519.922.254.254,0,0,1-.038.506ZM203.766,100.4a.255.255,0,0,1-.187-.081c-2.7-2.9-4-6.265-3.567-9.231a5.881,5.881,0,0,1,2.752-4.365,9.236,9.236,0,0,1,1.938-.828q.383-.12.792-.223l.026-.006a.244.244,0,0,1,.035-.01A24.748,24.748,0,0,1,218.4,87.088c6.842,2.653,17.992,3.563,23.393,2.606,1.3-.231,2.36-.443,3.295-.631,2.951-.592,4.3-.863,5.941-.146a.255.255,0,1,1-.2.467c-1.5-.652-2.71-.409-5.638.178-.938.188-2,.4-3.306.633-5.467.971-16.75.051-23.667-2.634a24.18,24.18,0,0,0-12.553-1.409l-.018,0-.026.008c-.263.066-.519.139-.765.215a8.793,8.793,0,0,0-1.83.781,5.384,5.384,0,0,0-2.507,4c-.408,2.813.845,6.025,3.437,8.811a.254.254,0,0,1-.186.428Zm11.971-17.325a.23.23,0,0,1-.037,0,.255.255,0,0,1-.215-.29c.235-1.588,2.125-9.956,2.2-10.311a3.4,3.4,0,0,1,2.287-2.3,87.02,87.02,0,0,1,11.557-.6.255.255,0,0,1-.053.507,86.088,86.088,0,0,0-11.4.6c-1.383.282-1.891,1.91-1.9,1.928-.016.069-1.961,8.687-2.193,10.255A.253.253,0,0,1,215.737,83.073Z" transform="translate(-199.931 -69.527)" fill="#fff"/></g></g><g transform="translate(53.831 45.633)"><g transform="translate(0 77.4)"><path d="M68.668,241.037a.254.254,0,1,1,0,.509h-.521a.254.254,0,0,1,0-.509Zm.363-.883a.254.254,0,1,1,.509,0v.521a.254.254,0,0,1-.509,0v-.521Zm1.391.883a.254.254,0,1,1,0,.509H69.9a.254.254,0,1,1,0-.509Zm-1.391.871a.254.254,0,0,1,.509,0v.521a.254.254,0,1,1-.509,0Z" transform="translate(-67.894 -239.9)" fill="#fff" fill-rule="evenodd"/></g><g transform="translate(139.012)"><path d="M417.576,46.77a.255.255,0,0,1,0,.51h-.521a.255.255,0,0,1,0-.51Zm.363-.883a.255.255,0,0,1,.509,0v.521a.255.255,0,0,1-.509,0v-.521Zm1.392.883a.255.255,0,0,1,0,.51h-.52a.255.255,0,0,1,0-.51Zm-1.392.872a.255.255,0,0,1,.509,0v.52a.255.255,0,0,1-.509,0Z" transform="translate(-416.801 -45.633)" fill="#fff" fill-rule="evenodd"/></g><g transform="translate(139.012 112.827)"><path d="M417.576,329.955a.254.254,0,1,1,0,.509h-.521a.254.254,0,0,1,0-.509Zm.363-.883a.255.255,0,0,1,.509,0v.52a.255.255,0,1,1-.509,0v-.52Zm1.392.883a.254.254,0,0,1,0,.509h-.52a.254.254,0,1,1,0-.509Zm-1.392.871a.255.255,0,0,1,.509,0v.521a.255.255,0,0,1-.509,0Z" transform="translate(-416.801 -328.818)" fill="#fff" fill-rule="evenodd"/></g><g transform="translate(53.349 48.649)"><path d="M202.57,168.876a.254.254,0,0,1,0,.509h-.52a.254.254,0,1,1,0-.509Zm.361-.882a.255.255,0,1,1,.51,0v.52a.255.255,0,0,1-.51,0v-.52Zm1.393.882a.254.254,0,1,1,0,.509H203.8a.254.254,0,0,1,0-.509Zm-1.393.871a.255.255,0,0,1,.51,0v.521a.255.255,0,0,1-.51,0Z" transform="translate(-201.794 -167.738)" fill="#fff" fill-rule="evenodd"/></g><g transform="translate(48.728 101.405)"><path d="M190.972,301.287a.255.255,0,0,1,0,.51h-.521a.255.255,0,1,1,0-.51Zm.361-.882a.255.255,0,0,1,.51,0v.521a.255.255,0,0,1-.51,0V300.4Zm1.392.882a.255.255,0,0,1,0,.51h-.521a.255.255,0,1,1,0-.51Zm-1.392.871a.255.255,0,0,1,.51,0v.521a.255.255,0,0,1-.51,0Z" transform="translate(-190.196 -300.15)" fill="#fff" fill-rule="evenodd"/></g><g transform="translate(7.91 139.142)"><path d="M88.522,396a.255.255,0,1,1,0,.51H88a.255.255,0,1,1,0-.51Zm.362-.882a.255.255,0,0,1,.51,0v.521a.255.255,0,0,1-.51,0v-.521Zm1.392.882a.255.255,0,0,1,0,.51h-.521a.255.255,0,0,1,0-.51Zm-1.392.872a.255.255,0,0,1,.51,0v.52a.255.255,0,1,1-.51,0Z" transform="translate(-87.747 -394.867)" fill="#fff" fill-rule="evenodd"/></g><g transform="translate(118.042 163.402)"><g transform="translate(0)"><path d="M364.942,456.893a.255.255,0,0,1,0,.509h-.52a.255.255,0,1,1,0-.509Zm.362-.882a.255.255,0,1,1,.51,0v.52a.255.255,0,1,1-.51,0v-.52Zm1.392.882a.255.255,0,0,1,0,.509h-.521a.255.255,0,1,1,0-.509Zm-1.392.872a.255.255,0,0,1,.51,0v.52a.255.255,0,0,1-.51,0Z" transform="translate(-364.167 -455.756)" fill="#fff" fill-rule="evenodd"/></g></g><g transform="translate(60.072 8.664)"><path d="M219.443,68.516a.255.255,0,0,1,0,.51h-.52a.255.255,0,0,1,0-.51Zm.363-.882a.255.255,0,0,1,.51,0v.52a.255.255,0,1,1-.51,0v-.52Zm1.392.882a.255.255,0,0,1,0,.51h-.521a.255.255,0,1,1,0-.51Zm-1.392.872a.255.255,0,0,1,.51,0v.521a.255.255,0,0,1-.51,0Z" transform="translate(-218.668 -67.379)" fill="#fff" fill-rule="evenodd"/></g></g></g></g></svg>